<svg xmlns="http://www.w3.org/2000/svg" viewBox="0 0 313 187">
  <path d="M224.8 15.8c-1.8 1.5-12.5 10.7-23.8 20.3s-21 17.8-21.7 18.2c-.7.5-8.2-5.5-19.4-15.3-14.3-12.5-18.8-16-21-16-4.3 0-59.4 36.9-60.3 40.3-1.3 5.1 2.3 9.7 7.6 9.7 1.3 0 12.8-7 27-16.5l24.6-16.4 18.8 16.4c15.8 14 19.2 16.5 21.9 16.5s7.2-3.5 30.6-23.5c15.1-12.9 28-24.5 28.7-25.7 2.6-4.7-1.3-10.8-6.9-10.8-1.7 0-4.2 1.2-6.1 2.8"/>
  <path d="M133.2 75.3c-2.2 2.3-2.2 2.8-2.2 37.8v35.6l2.3 2.1c3.1 2.9 7.7 2.9 10.5-.1 2.2-2.3 2.2-2.8 2.2-37.8V77.3l-2.3-2.1c-3.1-2.9-7.7-2.9-10.5.1m82.7-.4-2.4 1.9v72.4l2.4 1.9c3 2.4 7.2 2.4 10.2 0l2.4-1.9.3-35.6.3-35.6-2.5-2.5c-3-3-7.4-3.3-10.7-.6m-42.7 20.4c-2.1 2.3-2.2 3-2.2 27.8 0 25.4 0 25.6 2.3 27.7 3.1 2.9 7.7 2.9 10.5-.1 2.1-2.3 2.2-3 2.2-27.8 0-25.4 0-25.6-2.3-27.7-3.1-2.9-7.7-2.9-10.5.1m-82.3 9.6c-2.4 1.9-2.4 2.1-2.4 23.1s0 21.2 2.4 23.1c3 2.4 7.2 2.4 10.2 0 2.4-1.9 2.4-2.1 2.4-23.1s0-21.2-2.4-23.1c-1.3-1-3.6-1.9-5.1-1.9s-3.8.9-5.1 1.9"/>
</svg>
