<svg xmlns="http://www.w3.org/2000/svg" viewBox="0 0 244 209">
  <path d="M106 23.45c-18.65 4.8-40 24.85-40 37.6 0 1.4-2 2.8-7.5 5.35C8.35 89.55 25.55 162 81.15 162H88v-20h-6.8c-39.95 0-44.6-54.85-5.05-59.7l6.3-.8 1.3-7.85c7.05-42.15 62.45-42.15 69.5 0l1.3 7.85 6.3.8c39.55 4.85 34.9 59.7-5.05 59.7H149v20h7.8c55.2 0 71.45-75.05 20.8-96.05-4.7-1.95-5.75-2.85-6.7-5.9-8.25-26.1-38.75-43.3-64.9-36.6"/>
  <path d="M95.3 91.2 76 110.45l6.2 6.3 6.25 6.25 10.05-10c5.5-5.5 10.35-10 10.75-10s.75 13.25.75 29.5V162h17v-29.5c0-16.25.35-29.5.75-29.5s5.25 4.5 10.75 10l10.05 10 6.25-6.25 6.2-6.3-19.3-19.25C123.25 72.9 122.2 72 118.5 72s-4.75.9-23.2 19.2"/>
</svg>
