<?xml version="1.0" standalone="no"?>
<!DOCTYPE svg PUBLIC "-//W3C//DTD SVG 20010904//EN"
 "http://www.w3.org/TR/2001/REC-SVG-20010904/DTD/svg10.dtd">
<svg version="1.0" xmlns="http://www.w3.org/2000/svg"
 width="657.000000pt" height="588.000000pt" viewBox="0 0 657.000000 588.000000"
 preserveAspectRatio="xMidYMid meet">
<g transform="translate(0.000000,588.000000) scale(0.100000,-0.100000)"
fill="#000000" stroke="none">
<path d="M1306 5471 c-3 -5 -23 -12 -43 -16 -98 -18 -269 -152 -336 -265 -19
-32 -46 -89 -59 -127 l-23 -68 0 -1465 0 -1465 24 -69 c63 -186 212 -333 398
-395 62 -21 68 -21 1976 -21 2053 0 1934 -3 2044 46 17 8 34 14 37 14 10 0
156 111 156 119 0 3 13 20 28 36 29 32 79 111 100 159 41 94 42 116 42 1351 0
1204 -1 1233 -38 1335 -59 161 -204 299 -392 372 -28 10 -198 14 -837 18 -623
4 -805 8 -815 18 -6 6 -20 12 -30 12 -17 0 -107 57 -137 88 -8 7 -33 25 -55
39 -23 14 -54 37 -71 52 -16 15 -47 38 -67 52 -21 13 -38 27 -38 32 0 4 -5 7
-11 7 -6 0 -29 14 -50 31 -51 40 -146 89 -174 89 -12 0 -30 7 -41 15 -16 12
-129 14 -801 15 -444 0 -784 -4 -787 -9z m1549 -495 c39 -27 72 -52 75 -55 3
-3 23 -19 46 -34 22 -15 50 -36 61 -46 18 -17 81 -63 188 -136 22 -15 49 -31
60 -36 11 -5 27 -13 35 -18 28 -15 85 -38 130 -52 35 -10 218 -14 840 -18 768
-6 796 -7 827 -26 17 -11 40 -33 50 -50 17 -29 18 -82 18 -1200 0 -1118 -1
-1171 -18 -1200 -10 -17 -33 -39 -50 -50 -31 -20 -61 -20 -1862 -22 l-1830 -3
-39 23 c-22 12 -49 35 -60 50 l-21 28 0 1397 0 1397 22 34 c13 22 38 41 65 52
40 17 93 18 718 16 l675 -2 70 -49z"/>
<path d="M3238 4364 c-4 -3 -50 -9 -104 -14 -90 -8 -99 -11 -120 -37 -13 -15
-26 -37 -28 -48 -2 -11 -10 -47 -16 -80 -7 -33 -19 -73 -27 -89 -23 -44 -91
-106 -124 -113 -16 -3 -32 -10 -35 -14 -14 -23 -183 5 -200 32 -9 16 -95 10
-126 -8 -47 -28 -157 -204 -194 -311 -19 -54 -7 -98 37 -133 111 -87 149 -152
149 -253 0 -71 -45 -161 -97 -196 -90 -59 -111 -97 -89 -168 31 -101 145 -286
194 -314 31 -19 117 -25 126 -9 18 28 186 54 201 31 3 -5 13 -10 21 -10 14 0
60 -29 97 -61 38 -34 62 -100 82 -220 9 -61 40 -79 147 -91 114 -11 112 -11
226 0 107 12 138 30 147 91 22 142 27 153 92 219 43 42 70 62 87 62 14 0 27 4
30 9 12 19 68 20 128 0 34 -11 67 -24 72 -29 6 -6 31 -10 56 -10 36 0 52 6 76
28 48 43 107 130 153 225 61 124 58 144 -46 245 -86 84 -103 119 -103 210 0
78 36 148 104 207 32 27 66 64 75 84 18 34 18 37 1 86 -41 118 -135 264 -199
307 -28 19 -101 24 -117 9 -5 -5 -36 -19 -69 -30 -58 -21 -118 -20 -131 0 -3
5 -14 9 -24 9 -31 0 -94 48 -127 98 -21 31 -36 69 -43 112 -15 83 -38 132 -72
148 -14 7 -59 14 -100 16 -40 2 -80 7 -89 10 -8 4 -18 4 -21 0z m140 -796 c97
-49 153 -146 153 -264 0 -121 -51 -202 -168 -267 -34 -19 -178 -26 -218 -11
-48 18 -97 58 -135 108 -32 44 -42 68 -49 118 -16 115 7 188 84 263 65 63 96
75 199 75 72 0 97 -4 134 -22z"/>
</g>
</svg>
