<?xml version="1.0" standalone="no"?>
<!DOCTYPE svg PUBLIC "-//W3C//DTD SVG 20010904//EN"
 "http://www.w3.org/TR/2001/REC-SVG-20010904/DTD/svg10.dtd">
<svg version="1.0" xmlns="http://www.w3.org/2000/svg"
 width="573.000000pt" height="627.000000pt" viewBox="0 0 573.000000 627.000000"
 preserveAspectRatio="xMidYMid meet">
<g transform="translate(0.000000,627.000000) scale(0.100000,-0.100000)"
fill="#000000" stroke="none">
<path d="M2940 5825 c-30 -8 -79 -14 -108 -15 -29 0 -69 -7 -89 -15 -19 -8
-51 -15 -70 -15 -19 0 -49 -6 -66 -14 -18 -8 -45 -16 -62 -19 -35 -5 -88 -23
-128 -43 -16 -8 -35 -14 -44 -14 -8 0 -27 -6 -41 -14 -15 -8 -45 -21 -67 -29
-22 -8 -47 -18 -55 -21 -8 -3 -24 -11 -35 -18 -40 -23 -50 -28 -65 -34 -8 -3
-22 -9 -30 -14 -8 -5 -37 -21 -65 -36 -27 -14 -63 -36 -80 -48 -16 -11 -37
-25 -47 -31 -44 -26 -158 -109 -208 -151 -91 -78 -292 -284 -356 -364 -121
-152 -261 -385 -325 -543 -12 -29 -27 -65 -34 -82 -16 -38 -31 -83 -56 -165
-11 -36 -24 -80 -30 -97 -6 -18 -14 -54 -19 -80 -4 -27 -13 -73 -18 -103 -28
-143 -37 -249 -37 -410 0 -270 34 -495 111 -730 14 -41 29 -90 34 -109 5 -18
13 -38 19 -44 6 -6 11 -18 11 -26 0 -49 251 -488 323 -566 7 -7 23 -28 36 -47
25 -34 251 -261 331 -334 25 -22 68 -56 95 -74 28 -19 52 -37 55 -40 11 -11
70 -50 75 -50 4 0 21 -11 38 -24 18 -13 55 -36 82 -50 67 -36 82 -44 103 -56
9 -6 24 -13 32 -16 8 -3 42 -19 75 -35 33 -16 66 -29 72 -29 6 0 24 -6 40 -14
58 -29 160 -65 208 -73 17 -2 44 -11 62 -19 17 -8 47 -14 66 -14 19 0 51 -7
70 -15 20 -8 60 -15 89 -15 29 -1 80 -7 113 -15 83 -20 414 -20 510 0 38 8 91
15 116 15 26 0 66 7 89 15 23 8 57 15 74 15 17 0 44 7 60 15 15 8 40 15 55 15
14 0 39 7 55 15 15 8 38 15 50 15 12 0 31 7 42 15 10 8 27 15 37 15 11 0 31 6
45 13 15 8 43 21 62 29 53 23 200 95 245 121 82 46 280 182 321 222 6 5 42 37
80 70 82 71 192 183 243 245 20 25 44 54 54 64 9 11 17 24 17 28 0 17 -29 19
-59 4 -16 -9 -50 -16 -74 -16 -25 0 -64 -7 -87 -15 -51 -18 -414 -21 -470 -4
-19 5 -66 14 -105 19 -38 4 -90 14 -115 20 -111 29 -157 44 -182 56 -14 8 -33
14 -41 14 -9 0 -30 8 -49 17 -18 9 -45 22 -60 30 -14 7 -31 13 -38 13 -6 0
-18 7 -26 15 -9 8 -24 15 -34 15 -10 0 -22 5 -25 11 -4 5 -17 15 -28 20 -12 5
-35 18 -52 29 -16 11 -37 23 -45 27 -8 4 -19 11 -25 15 -5 5 -50 38 -100 75
-248 184 -480 486 -595 773 -12 30 -26 66 -32 80 -33 81 -59 185 -88 350 -25
146 -27 404 -4 547 21 130 61 292 91 368 8 22 19 49 23 60 10 26 118 244 133
270 133 221 341 439 561 588 39 27 80 53 91 58 11 5 34 18 50 28 43 28 109 61
122 61 6 0 16 7 23 15 7 8 23 15 35 15 12 0 28 7 35 15 7 8 24 15 39 15 14 0
35 7 45 15 11 8 31 15 45 15 32 0 94 37 86 50 -3 6 -15 10 -27 10 -11 0 -32 6
-46 14 -34 17 -89 37 -122 43 -14 3 -39 11 -57 19 -17 8 -40 14 -51 14 -11 0
-36 7 -55 15 -20 8 -50 15 -67 15 -17 0 -41 5 -52 11 -12 6 -60 15 -107 20
-47 4 -106 13 -131 18 -68 15 -424 12 -490 -4z m325 -294 c2 -5 -15 -22 -38
-39 -57 -41 -297 -286 -297 -303 0 -3 -12 -19 -26 -35 -75 -84 -216 -321 -277
-469 -21 -49 -42 -99 -47 -110 -19 -44 -60 -188 -84 -295 -61 -267 -60 -645 3
-945 18 -83 78 -276 106 -340 44 -98 55 -124 55 -129 0 -3 20 -40 45 -82 25
-41 45 -78 45 -80 0 -11 135 -206 182 -264 68 -83 229 -245 293 -295 28 -22
52 -42 55 -45 3 -3 32 -26 65 -51 132 -99 393 -239 530 -283 28 -9 59 -20 70
-25 64 -27 245 -71 290 -71 40 0 54 -16 29 -34 -27 -20 -192 -102 -254 -126
-30 -12 -64 -26 -75 -31 -63 -27 -124 -45 -243 -73 -35 -8 -71 -18 -80 -21 -9
-4 -51 -11 -92 -16 -41 -4 -109 -13 -150 -20 -82 -12 -338 -6 -412 10 -24 6
-74 14 -113 19 -38 6 -99 17 -135 26 -36 9 -81 21 -100 25 -89 23 -253 89
-380 155 -75 38 -280 170 -328 210 -145 120 -219 193 -307 300 -22 27 -45 54
-50 60 -17 18 -110 156 -152 226 -45 74 -125 236 -148 302 -84 233 -117 379
-134 593 -16 206 21 596 68 725 5 14 20 59 32 100 12 41 25 82 29 90 4 8 14
31 23 50 85 192 160 323 260 455 33 44 67 87 76 96 9 9 43 47 76 85 140 158
401 351 607 447 118 55 145 67 156 67 6 0 23 6 39 14 35 17 87 35 133 46 67
17 125 32 157 41 18 6 72 15 120 20 49 6 108 13 133 17 64 10 239 12 245 3z"/>
</g>
</svg>
