<?xml version="1.0" standalone="no"?>
<!DOCTYPE svg PUBLIC "-//W3C//DTD SVG 20010904//EN"
 "http://www.w3.org/TR/2001/REC-SVG-20010904/DTD/svg10.dtd">
<svg version="1.0" xmlns="http://www.w3.org/2000/svg"
 width="1383.000000pt" height="1800.000000pt" viewBox="0 0 1383.000000 1800.000000"
 preserveAspectRatio="xMidYMid meet">
<g transform="translate(0.000000,1800.000000) scale(0.100000,-0.100000)"
fill="#000000" stroke="none">
<path d="M6845 17775 c-5 -3 -102 -11 -214 -20 -112 -8 -207 -17 -211 -20 -4
-3 -43 -10 -86 -15 -113 -16 -364 -67 -469 -96 -171 -48 -200 -56 -265 -76
-230 -72 -631 -258 -840 -390 -132 -83 -273 -181 -355 -247 -277 -222 -530
-485 -717 -745 -52 -73 -190 -290 -233 -366 -93 -167 -285 -593 -285 -633 0
-9 -6 -31 -14 -49 -64 -148 -135 -467 -182 -813 -23 -169 -26 -225 -26 -510
-1 -330 11 -477 58 -740 21 -114 90 -404 108 -453 8 -20 24 -71 37 -112 30
-102 121 -332 181 -460 421 -894 1164 -1576 2093 -1922 468 -174 859 -252
1467 -295 211 -15 717 48 1018 126 164 42 192 51 292 86 427 151 856 383 1157
626 58 46 130 104 160 128 75 59 382 368 456 460 144 177 292 382 346 481 11
19 32 55 48 80 109 177 272 537 341 752 52 165 124 448 135 533 3 28 13 84 20
125 18 96 35 292 42 490 6 167 -17 536 -42 670 -7 41 -16 98 -20 125 -10 80
-43 229 -79 354 -19 64 -36 125 -39 136 -6 23 -76 214 -105 290 -40 103 -93
219 -149 325 -32 61 -64 123 -72 138 -21 42 -152 252 -186 299 -16 23 -48 67
-70 98 -80 110 -253 313 -375 439 -320 330 -692 599 -1111 803 -110 54 -200
91 -414 172 -86 32 -276 89 -375 111 -52 12 -122 28 -155 35 -127 30 -307 56
-488 70 -176 14 -359 19 -382 10z m199 -805 c158 -10 397 -41 500 -64 33 -8
97 -22 141 -31 282 -61 666 -215 918 -369 37 -22 82 -50 100 -60 92 -56 316
-235 421 -336 193 -187 323 -343 453 -545 83 -129 190 -329 237 -445 15 -36
33 -78 41 -95 15 -35 85 -244 108 -325 74 -254 127 -642 127 -912 -1 -165 -33
-475 -66 -628 -14 -69 -32 -152 -39 -185 -7 -33 -20 -85 -29 -115 -34 -107
-99 -295 -106 -305 -4 -5 -11 -21 -15 -35 -9 -31 -121 -261 -173 -355 -43 -80
-144 -232 -211 -320 -304 -398 -673 -694 -1136 -913 -160 -75 -458 -181 -556
-197 -24 -4 -52 -12 -62 -17 -21 -11 -122 -30 -337 -63 -545 -85 -1075 -27
-1595 173 -131 50 -355 157 -433 206 -23 14 -44 26 -48 26 -10 0 -194 124
-284 191 -234 175 -500 441 -648 649 -303 425 -463 782 -565 1260 -82 382 -82
875 0 1270 59 283 131 493 259 754 139 282 267 476 466 703 94 107 295 303
369 360 193 147 250 189 328 237 287 177 614 320 886 386 50 12 124 30 165 40
112 27 298 52 455 60 77 4 149 7 160 8 11 1 87 -3 169 -8z"/>
<path d="M4430 9803 c-19 -2 -100 -36 -180 -75 -142 -68 -726 -360 -785 -392
-16 -8 -208 -104 -425 -212 -217 -108 -406 -203 -420 -210 -14 -8 -198 -99
-410 -204 -447 -219 -556 -286 -743 -454 -326 -293 -561 -727 -617 -1138 -6
-45 -13 -85 -15 -88 -2 -3 -11 -71 -20 -151 -8 -79 -20 -171 -25 -204 -5 -33
-12 -98 -15 -145 -3 -47 -12 -130 -20 -185 -8 -55 -19 -152 -25 -215 -6 -63
-15 -160 -20 -215 -6 -55 -19 -170 -30 -255 -18 -144 -39 -333 -76 -675 -8
-77 -21 -192 -30 -255 -8 -63 -19 -160 -24 -215 -18 -195 -41 -402 -59 -545
-11 -80 -26 -215 -35 -300 -9 -85 -21 -200 -26 -255 -6 -55 -17 -158 -24 -230
-8 -71 -21 -186 -30 -255 -38 -290 -46 -359 -51 -435 -3 -44 -12 -132 -20
-195 -8 -63 -22 -180 -30 -260 -24 -233 -35 -330 -45 -405 -37 -276 26 -584
165 -804 6 -9 23 -36 39 -61 48 -75 233 -251 330 -315 154 -100 252 -138 456
-176 103 -19 191 -20 5700 -20 5514 0 5597 0 5701 19 59 11 116 25 127 31 11
6 29 11 40 11 27 0 215 94 296 148 95 63 249 219 318 322 83 123 153 284 183
420 28 124 34 311 15 425 -6 33 -17 128 -25 210 -19 195 -41 385 -54 477 -6
40 -18 141 -26 223 -33 340 -46 456 -80 740 -8 66 -17 149 -20 185 -3 36 -10
97 -16 135 -5 39 -16 133 -24 210 -8 77 -21 190 -28 250 -8 61 -22 189 -31
285 -9 96 -23 227 -31 290 -8 63 -17 144 -20 180 -3 36 -14 137 -25 225 -41
329 -50 402 -55 475 -3 41 -12 122 -20 180 -8 58 -19 157 -26 220 -17 175 -35
341 -52 485 -19 156 -34 295 -53 470 -35 333 -70 476 -169 700 -7 17 -16 41
-20 54 -4 13 -36 73 -71 133 -179 309 -399 537 -697 724 -54 33 -1002 509
-2352 1181 -211 104 -263 126 -323 135 -108 17 -183 2 -332 -67 -718 -329
-1379 -475 -2150 -475 -260 0 -441 12 -631 41 -70 10 -139 19 -155 19 -63 0
-487 102 -709 172 -186 57 -426 150 -573 219 -56 27 -126 58 -155 70 -52 20
-178 32 -247 22z m212 -884 c107 -47 255 -104 388 -149 47 -15 96 -33 110 -38
43 -18 268 -79 440 -120 268 -64 443 -93 800 -134 281 -32 787 -32 1070 0 332
38 523 68 715 112 142 33 299 73 320 80 11 5 56 18 100 30 44 12 96 27 115 35
19 7 67 23 105 35 120 38 290 104 408 159 37 17 78 31 90 31 13 0 403 -190
867 -421 465 -232 969 -483 1120 -559 306 -153 385 -198 480 -276 141 -115
239 -241 320 -409 73 -153 97 -257 130 -555 6 -52 17 -147 25 -210 8 -63 16
-140 19 -170 15 -163 39 -379 53 -480 16 -120 34 -282 53 -485 6 -66 17 -164
25 -217 8 -53 15 -114 15 -135 0 -20 11 -130 25 -243 43 -352 55 -452 65 -555
5 -55 14 -136 20 -180 11 -91 27 -245 40 -385 5 -52 16 -147 25 -210 15 -112
33 -276 60 -530 30 -284 36 -339 46 -415 6 -44 17 -141 24 -215 27 -274 56
-525 61 -540 3 -8 12 -87 19 -175 12 -131 12 -171 2 -221 -25 -119 -113 -225
-234 -282 l-58 -27 -1795 -3 c-987 -2 -1810 0 -1827 3 -18 3 -37 14 -42 24
-10 18 -31 107 -56 231 -7 36 -17 85 -23 110 -6 25 -21 95 -33 155 -12 61 -28
130 -35 155 -7 25 -18 76 -24 114 -6 38 -13 73 -16 78 -3 4 -12 43 -20 85 -19
98 -36 176 -69 328 -14 66 -30 145 -36 175 -5 30 -16 75 -24 100 -7 25 -16 63
-20 85 -3 22 -12 70 -20 108 -8 37 -22 97 -30 135 -8 37 -17 85 -21 107 -3 22
-14 72 -24 110 -10 39 -25 104 -33 145 -9 41 -24 107 -33 145 -9 39 -20 93
-25 120 -4 28 -17 91 -28 140 -11 50 -27 126 -35 170 -9 44 -23 103 -30 130
-8 28 -17 68 -20 90 -4 22 -13 67 -20 100 -32 138 -46 202 -52 240 -6 36 -33
158 -63 285 -43 185 -51 224 -51 250 0 16 -5 41 -11 57 -6 15 -17 60 -24 98
-7 39 -25 122 -39 185 -15 63 -33 147 -41 185 -7 39 -18 88 -23 110 -6 22 -17
74 -25 115 -28 135 -57 273 -82 382 -14 59 -25 120 -25 136 0 36 15 50 155
142 249 164 296 199 363 264 104 100 171 203 210 322 90 267 59 560 -84 805
-138 235 -338 379 -597 430 -91 18 -151 19 -856 19 -732 0 -762 -1 -862 -21
-233 -47 -456 -194 -587 -387 -181 -268 -213 -620 -79 -892 95 -195 235 -333
537 -533 160 -106 159 -105 166 -133 5 -21 -27 -203 -57 -319 -5 -22 -17 -74
-24 -115 -15 -75 -44 -210 -63 -285 -6 -22 -20 -89 -32 -150 -28 -143 -47
-232 -70 -325 -10 -41 -28 -124 -40 -185 -12 -60 -30 -146 -40 -190 -10 -44
-25 -114 -33 -155 -34 -167 -58 -278 -73 -340 -26 -105 -44 -190 -58 -276 -7
-44 -16 -86 -20 -92 -4 -7 -13 -47 -21 -89 -17 -96 -38 -194 -54 -251 -7 -24
-19 -78 -27 -120 -7 -43 -23 -120 -35 -172 -11 -52 -24 -117 -29 -145 -4 -27
-15 -72 -23 -100 -8 -27 -25 -104 -37 -170 -13 -66 -30 -151 -40 -190 -19 -78
-43 -189 -61 -280 -13 -70 -40 -194 -69 -315 -11 -47 -27 -124 -35 -173 -8
-48 -17 -92 -21 -99 -4 -6 -13 -41 -20 -77 -23 -123 -42 -216 -58 -281 -8 -36
-25 -110 -36 -165 -28 -130 -25 -124 -56 -135 -18 -7 -634 -10 -1828 -8
l-1801 3 -56 23 c-30 13 -71 37 -90 53 -19 17 -44 37 -56 45 -11 8 -38 47 -60
87 l-38 72 1 150 c0 83 8 202 17 265 9 63 18 147 22 185 6 81 28 274 56 495
21 168 33 283 49 455 6 61 17 162 25 225 9 63 20 165 25 227 6 62 12 118 15
125 2 7 9 67 15 133 6 66 15 145 20 175 5 30 14 109 20 175 6 66 17 172 25
235 8 63 21 187 30 275 9 88 25 232 36 320 10 88 26 225 35 305 61 553 62 567
79 715 8 72 20 175 25 230 33 320 41 389 54 475 8 52 17 129 21 170 14 158 44
367 60 420 52 169 136 330 235 448 125 148 259 243 538 381 75 38 571 285
1102 550 798 398 970 481 997 477 17 -2 64 -19 105 -37z m3027 -1549 c13 -16
20 -40 21 -66 0 -33 -6 -46 -32 -71 -25 -23 -395 -274 -499 -338 -9 -5 -62
-40 -117 -77 -59 -40 -112 -68 -127 -68 -21 0 -192 106 -380 236 -16 12 -104
70 -195 130 -90 59 -172 116 -182 126 -29 29 -24 99 8 129 l26 24 671 5 c370
3 697 3 729 0 44 -4 61 -11 77 -30z m-705 -1572 c20 -74 29 -116 41 -188 8
-47 19 -96 24 -110 12 -30 40 -162 52 -244 5 -33 15 -66 22 -74 6 -8 15 -45
19 -81 3 -36 15 -106 26 -156 11 -49 26 -117 32 -150 7 -33 22 -89 32 -125 11
-36 24 -94 29 -130 5 -36 17 -103 28 -150 29 -128 40 -177 57 -265 8 -44 24
-114 34 -155 10 -41 22 -97 26 -125 3 -27 13 -62 20 -77 8 -15 14 -41 14 -58
0 -17 6 -56 14 -88 8 -31 19 -84 25 -117 22 -118 33 -171 52 -231 10 -33 19
-77 19 -97 0 -20 9 -59 20 -87 11 -28 20 -68 20 -89 0 -20 6 -60 14 -87 8 -27
17 -69 21 -94 3 -25 11 -60 17 -78 17 -55 66 -282 93 -427 8 -44 22 -105 30
-135 8 -30 15 -65 15 -78 0 -13 5 -32 10 -42 6 -11 15 -55 20 -99 6 -44 17
-96 25 -115 8 -19 15 -51 15 -71 0 -20 9 -53 20 -75 11 -22 20 -54 20 -73 0
-18 6 -57 14 -87 8 -30 17 -80 21 -110 4 -30 14 -72 21 -94 8 -21 14 -53 14
-70 0 -17 9 -58 21 -90 11 -32 18 -65 15 -72 -8 -20 -2114 -21 -2122 -1 -3 8
2 34 10 58 8 24 18 64 22 89 3 25 12 63 19 85 7 22 16 60 19 85 9 68 46 239
62 290 8 25 14 57 14 72 0 15 5 39 11 55 6 15 15 62 19 103 5 41 15 88 24 104
8 16 18 55 22 85 3 31 11 64 16 74 5 10 15 55 23 100 7 45 18 100 24 122 6 22
11 56 11 76 0 20 9 56 20 80 11 24 20 55 20 69 0 29 23 143 50 245 10 39 22
97 26 130 4 33 13 74 20 92 8 18 14 48 14 68 0 20 7 52 15 72 8 19 15 52 15
73 0 21 6 53 14 71 7 19 19 67 26 108 7 41 19 89 26 107 8 18 14 49 14 68 0
19 9 63 20 98 11 34 20 77 20 94 0 17 7 51 15 74 8 23 15 63 15 89 0 25 9 65
20 89 11 24 22 66 26 95 3 29 12 66 19 82 7 17 17 64 23 105 20 130 39 234 50
260 6 14 23 86 37 160 15 74 33 158 40 185 7 28 16 73 19 102 4 28 13 68 21
87 8 19 15 52 15 71 0 20 5 46 11 57 6 12 16 55 21 97 5 41 13 80 18 86 4 5
13 43 19 84 6 40 15 81 20 90 4 9 11 36 15 61 4 24 12 48 19 52 20 13 87 9 91
-4z"/>
<path d="M3230 6227 c-153 -28 -270 -154 -300 -324 -11 -60 -10 -81 4 -153 28
-136 96 -226 216 -284 l65 -31 900 0 900 0 63 25 c50 20 77 39 125 90 83 87
102 144 102 295 -1 105 -2 113 -35 179 -26 52 -51 83 -97 122 -110 94 -47 88
-1023 91 -621 1 -873 -2 -920 -10z"/>
</g>
</svg>
