<svg xmlns="http://www.w3.org/2000/svg" viewBox="0 0 192 184">
  <path d="M79 10.5C-5.75 29.35-4.9 150.35 80.1 167.6c66.8 13.5 118.95-60.7 84-119.55-17-28.6-53.35-44.65-85.1-37.55m28.65 15c51.8 9.75 70.05 74.35 31.35 110.85-40.65 38.35-108 9.05-108-47C31 47.8 67.05 17.8 107.65 25.5"/>
  <path d="M90.1 50.4c-6.7 3.7-6.45 14.3.35 17.4 7.3 3.35 14.55-.9 14.55-8.45 0-8.2-7.8-12.9-14.9-8.95M77.45 81.45C72 86.9 76.2 94 84.95 94H90v20h-5.05c-8.75 0-12.95 7.1-7.5 12.55 3.5 3.45 32.15 3.85 35.55.45 4.5-4.5 1.15-13-5.2-13H105V98.5c0-19.95.35-19.5-14.55-19.5-9.85 0-10.7.15-13 2.45"/>
</svg>
