<?xml version="1.0" standalone="no"?>
<!DOCTYPE svg PUBLIC "-//W3C//DTD SVG 20010904//EN"
 "http://www.w3.org/TR/2001/REC-SVG-20010904/DTD/svg10.dtd">
<svg version="1.0" xmlns="http://www.w3.org/2000/svg"
 width="624.000000pt" height="660.000000pt" viewBox="0 0 624.000000 660.000000"
 preserveAspectRatio="xMidYMid meet">
<g transform="translate(0.000000,660.000000) scale(0.100000,-0.100000)"
fill="#000000" stroke="none">
<path d="M3001 5885 c-18 -8 -42 -15 -53 -15 -11 0 -67 -24 -125 -52 -139 -70
-157 -80 -161 -90 -2 -4 -8 -8 -14 -8 -6 0 -43 -19 -82 -43 -39 -24 -78 -46
-86 -50 -8 -4 -28 -16 -45 -27 -16 -11 -43 -26 -60 -34 -16 -8 -52 -29 -80
-45 -27 -17 -59 -35 -70 -41 -11 -6 -33 -19 -50 -29 -16 -11 -46 -28 -65 -38
-62 -34 -114 -64 -145 -84 -16 -10 -39 -23 -51 -28 -11 -5 -50 -27 -85 -48
-35 -22 -71 -42 -79 -46 -8 -4 -28 -16 -45 -26 -16 -11 -46 -28 -65 -38 -62
-34 -114 -64 -145 -84 -16 -10 -39 -23 -51 -28 -11 -5 -51 -28 -88 -50 -36
-23 -69 -41 -72 -41 -5 0 -51 -33 -125 -90 -43 -33 -128 -140 -165 -210 -44
-81 -68 -154 -82 -250 -16 -105 -17 -1817 -2 -1903 33 -182 90 -297 204 -413
52 -52 156 -134 170 -134 4 0 147 -81 176 -100 8 -6 24 -15 35 -20 11 -6 43
-24 70 -41 28 -16 64 -37 80 -45 17 -8 44 -23 60 -34 17 -11 37 -23 45 -27 8
-4 44 -24 79 -46 35 -21 74 -43 85 -48 12 -5 35 -18 51 -29 17 -11 39 -24 50
-29 11 -5 37 -21 58 -35 21 -14 44 -26 52 -26 8 0 17 -5 20 -11 4 -5 17 -15
28 -20 12 -5 36 -18 52 -29 17 -11 39 -24 50 -30 11 -5 47 -26 80 -45 33 -19
69 -39 80 -45 11 -6 34 -19 50 -30 30 -19 41 -25 130 -74 28 -15 64 -36 80
-46 17 -11 53 -31 80 -45 28 -14 57 -30 65 -34 32 -18 91 -41 106 -41 8 0 37
-7 64 -16 103 -34 340 -5 461 56 37 19 116 63 144 80 17 10 50 30 75 43 25 14
61 34 80 46 19 11 44 25 55 31 11 6 34 19 50 29 17 11 50 30 75 42 25 13 61
34 80 47 19 13 44 28 55 33 11 5 34 18 50 28 17 11 46 28 65 38 62 34 114 64
145 84 17 10 39 23 51 28 11 5 50 27 85 48 35 22 71 42 79 46 8 4 29 16 45 27
17 11 44 26 60 34 17 8 53 29 80 45 28 17 59 35 70 41 11 5 27 14 35 20 8 5
56 33 105 61 165 95 240 156 302 247 41 59 103 183 103 205 0 6 7 30 15 52 12
34 14 193 14 1025 1 945 0 988 -19 1058 -40 152 -127 285 -250 384 -39 31
-215 141 -260 161 -8 4 -28 16 -45 27 -16 11 -39 24 -50 30 -11 5 -47 26 -80
45 -33 19 -69 39 -80 45 -11 6 -42 24 -70 41 -27 16 -61 35 -75 42 -14 6 -27
15 -30 19 -3 4 -17 12 -30 17 -14 6 -32 15 -40 21 -38 25 -155 93 -174 101
-12 5 -34 18 -51 29 -16 11 -39 24 -50 29 -11 5 -36 20 -55 33 -19 13 -55 34
-80 47 -25 12 -58 31 -75 42 -16 10 -37 22 -45 26 -18 8 -158 89 -180 103 -8
6 -22 13 -30 17 -8 4 -43 24 -78 45 -68 41 -123 65 -187 78 -22 5 -53 13 -68
19 -43 17 -245 13 -286 -4z m263 -302 c69 -22 181 -77 271 -133 17 -10 48 -28
70 -40 22 -12 59 -35 83 -51 24 -16 49 -29 57 -29 8 0 17 -5 20 -11 4 -5 17
-14 28 -20 12 -5 29 -13 37 -19 8 -5 51 -30 95 -55 44 -26 87 -51 95 -56 8 -5
24 -14 35 -19 11 -6 34 -19 50 -30 17 -11 53 -31 80 -45 28 -14 59 -31 70 -38
109 -67 168 -101 210 -123 17 -8 44 -23 60 -34 17 -11 39 -24 50 -30 11 -5 47
-26 80 -45 33 -19 69 -39 80 -45 11 -6 34 -19 50 -30 17 -10 50 -29 75 -42 43
-21 80 -51 80 -63 0 -3 -10 -10 -22 -15 -13 -6 -39 -20 -58 -31 -19 -12 -55
-32 -80 -46 -25 -13 -58 -33 -75 -43 -16 -10 -46 -27 -65 -37 -60 -33 -114
-64 -145 -83 -16 -11 -43 -26 -60 -34 -16 -8 -52 -29 -80 -45 -27 -17 -60 -35
-72 -40 -11 -5 -24 -15 -28 -20 -8 -13 -95 -15 -95 -2 0 5 -12 14 -27 20 -16
6 -35 15 -43 21 -36 23 -155 92 -174 101 -12 5 -34 18 -51 29 -16 11 -37 23
-45 27 -8 4 -44 24 -79 46 -35 21 -74 43 -85 48 -12 5 -34 18 -51 29 -16 11
-37 23 -45 27 -8 4 -44 24 -79 46 -35 21 -74 43 -85 48 -12 5 -34 18 -51 28
-31 20 -83 50 -145 84 -19 10 -48 27 -65 38 -16 10 -37 22 -45 26 -8 4 -47 26
-86 50 -39 24 -74 43 -77 43 -3 0 -26 14 -50 30 -25 17 -48 30 -51 30 -3 0
-36 18 -72 41 -37 22 -77 45 -88 50 -12 5 -34 18 -51 29 -16 11 -37 23 -45 27
-56 29 -129 75 -133 87 -7 18 2 28 53 54 25 13 59 32 75 42 17 11 44 26 60 34
17 8 53 29 80 45 28 17 59 35 70 41 11 6 47 26 80 45 178 103 290 127 409 88z
m-1114 -532 c0 -5 12 -14 28 -20 15 -6 41 -20 57 -30 31 -20 82 -50 145 -84
19 -10 49 -27 65 -38 17 -10 39 -23 50 -28 11 -5 36 -20 55 -33 19 -13 55 -34
80 -47 25 -12 59 -31 75 -42 17 -10 39 -23 50 -29 11 -6 43 -24 70 -41 28 -16
64 -37 80 -45 17 -8 44 -23 60 -34 17 -11 37 -23 45 -27 8 -4 44 -24 79 -46
35 -21 74 -43 85 -48 12 -5 35 -18 51 -29 17 -11 39 -24 50 -29 11 -5 37 -21
58 -35 21 -14 44 -26 52 -26 8 0 17 -5 20 -11 4 -5 17 -15 28 -20 12 -5 36
-18 52 -29 17 -11 37 -23 45 -27 17 -8 158 -89 180 -103 8 -6 24 -15 35 -20
74 -38 120 -71 123 -88 2 -15 -11 -28 -55 -53 -32 -19 -67 -39 -78 -46 -11 -7
-29 -17 -40 -23 -11 -6 -33 -19 -50 -30 -16 -11 -39 -24 -50 -29 -12 -5 -61
-33 -110 -63 -50 -30 -97 -57 -105 -61 -8 -4 -28 -16 -45 -27 -16 -11 -39 -24
-50 -30 -11 -6 -40 -22 -64 -35 -46 -26 -95 -33 -106 -14 -4 5 -17 15 -28 20
-12 5 -31 15 -42 22 -11 7 -51 30 -90 52 -38 22 -79 46 -90 52 -11 7 -28 16
-37 19 -10 3 -18 10 -18 14 0 5 -9 12 -21 15 -18 6 -145 77 -189 105 -8 6 -24
15 -35 20 -11 6 -42 24 -70 41 -27 16 -63 37 -80 45 -16 8 -43 23 -60 34 -16
11 -39 24 -50 30 -11 6 -42 24 -70 41 -27 16 -63 37 -80 45 -16 8 -43 23 -60
34 -16 11 -37 23 -45 27 -8 4 -44 24 -79 46 -35 21 -74 43 -85 48 -12 5 -28
13 -36 19 -38 24 -206 123 -225 131 -11 5 -33 18 -50 28 -36 24 -97 58 -147
84 -22 11 -38 27 -38 36 0 17 50 61 69 61 5 0 16 6 23 13 8 6 29 20 48 31 68
37 105 58 135 76 17 11 44 26 60 34 17 8 53 29 80 45 28 17 64 37 80 45 17 8
53 29 80 45 28 17 60 35 72 40 11 5 24 15 28 20 8 13 85 15 85 2z m-905 -692
c4 -5 17 -14 28 -19 12 -6 49 -26 82 -45 33 -19 69 -39 80 -45 11 -6 43 -24
70 -41 28 -16 64 -37 80 -45 17 -8 44 -23 60 -34 30 -19 41 -25 130 -74 28
-15 64 -36 80 -46 31 -19 43 -26 130 -74 28 -15 64 -36 80 -46 17 -10 50 -30
75 -43 25 -14 61 -34 80 -46 19 -11 42 -24 50 -28 8 -4 47 -26 85 -48 39 -23
77 -44 85 -48 8 -4 29 -16 45 -27 30 -19 40 -25 130 -74 28 -15 73 -41 100
-57 28 -17 64 -37 80 -45 17 -8 44 -23 60 -34 17 -10 49 -29 73 -41 80 -42 73
60 75 -1068 2 -1064 3 -1045 -39 -1010 -15 13 -81 51 -129 75 -16 8 -43 23
-60 34 -16 11 -52 31 -80 45 -27 14 -63 35 -80 45 -16 11 -39 24 -50 30 -11 5
-47 26 -80 45 -33 19 -69 39 -80 45 -11 6 -33 19 -50 30 -16 11 -36 22 -42 25
-7 3 -19 7 -25 10 -7 3 -26 14 -43 25 -16 11 -39 24 -50 29 -11 5 -37 21 -58
35 -21 14 -44 26 -52 26 -8 0 -17 5 -20 11 -4 5 -17 15 -28 20 -12 5 -44 23
-72 40 -27 16 -63 37 -80 45 -16 8 -43 23 -60 34 -16 11 -39 24 -50 30 -11 5
-47 26 -80 45 -33 19 -69 39 -80 45 -11 5 -47 26 -80 45 -33 19 -69 39 -80 44
-11 5 -47 31 -80 58 -94 76 -145 162 -171 282 -21 102 -17 1808 5 1834 16 20
27 21 36 6z m3849 5 c14 -6 16 -96 16 -923 0 -978 1 -947 -49 -1051 -33 -69
-174 -210 -209 -210 -6 0 -17 -6 -24 -13 -7 -7 -24 -18 -38 -24 -14 -7 -47
-26 -75 -42 -27 -17 -63 -37 -80 -45 -16 -8 -52 -29 -80 -45 -27 -17 -59 -35
-70 -41 -11 -6 -47 -26 -80 -45 -33 -19 -69 -40 -80 -45 -11 -6 -33 -19 -50
-30 -16 -11 -43 -26 -60 -34 -16 -8 -52 -29 -80 -45 -27 -17 -63 -37 -80 -45
-16 -8 -52 -29 -80 -45 -27 -17 -59 -35 -70 -41 -11 -6 -47 -26 -80 -45 -33
-19 -69 -40 -80 -45 -11 -6 -36 -20 -55 -31 -19 -12 -55 -32 -80 -46 -25 -13
-58 -33 -75 -44 -16 -10 -39 -23 -51 -28 -11 -5 -51 -28 -89 -51 -37 -22 -74
-40 -84 -38 -15 3 -16 85 -19 1012 -2 1001 -2 1010 18 1031 11 12 39 32 63 44
23 12 69 38 102 57 33 19 72 40 88 45 15 6 27 14 27 19 0 4 8 10 18 14 9 3 44
22 77 41 33 19 69 40 80 45 11 6 36 20 55 31 19 12 55 32 80 46 25 13 59 33
75 43 17 11 44 26 60 34 17 8 53 29 80 45 28 17 64 37 80 45 17 8 53 29 80 45
28 17 59 35 70 41 11 6 47 26 80 45 33 19 69 40 80 46 11 5 47 25 80 44 33 19
69 39 80 45 11 6 34 19 50 30 17 10 53 31 80 45 28 14 64 34 80 45 34 22 58
35 133 74 29 16 55 32 58 37 6 11 8 11 28 3z"/>
</g>
</svg>
