<svg xmlns="http://www.w3.org/2000/svg" viewBox="0 0 249 210">
  <path d="M114 18.55C79.9 25.9 60.2 60.7 70.45 95.5c6.8 23.05 27.25 55.3 50.6 79.9l6.55 6.9 8.35-9.4c53.75-60.65 65-106.95 33.55-138.4C155.05 20 134.55 14.15 114 18.55m24.3 14.95c33.45 8.7 42.85 40.5 23.15 78.25-9.1 17.35-32.2 49.15-34.6 47.65-8.7-5.35-36.5-49.75-41.6-66.4-11.1-36.3 17.8-68.7 53.05-59.5"/>
  <path d="M119.15 53.2c-4.95 1.7-12.75 9.2-14.6 14.1-11.45 30.35 32 49.25 45.35 19.7 8.7-19.2-10.75-40.55-30.75-33.8m15.6 17.3c5.3 6.15.85 16.5-7.15 16.5-5.5 0-10.05-4.55-10.05-10 0-9.05 11.35-13.35 17.2-6.5"/>
</svg>
