<?xml version="1.0" standalone="no"?>
<!DOCTYPE svg PUBLIC "-//W3C//DTD SVG 20010904//EN"
 "http://www.w3.org/TR/2001/REC-SVG-20010904/DTD/svg10.dtd">
<svg version="1.0" xmlns="http://www.w3.org/2000/svg"
 width="711.000000pt" height="615.000000pt" viewBox="0 0 711.000000 615.000000"
 preserveAspectRatio="xMidYMid meet">
<g transform="translate(0.000000,615.000000) scale(0.100000,-0.100000)"
fill="#000000" stroke="none">
<path d="M3494 5017 c-2 -7 -3 -74 -2 -148 l3 -134 380 -5 c209 -3 386 -9 393
-13 6 -5 12 -19 12 -32 0 -13 6 -50 14 -82 7 -32 21 -94 31 -138 9 -44 23
-107 31 -140 22 -98 73 -334 90 -415 8 -41 20 -91 25 -110 5 -19 14 -57 19
-85 5 -27 16 -79 24 -115 8 -36 21 -96 29 -135 32 -148 39 -181 49 -216 12
-41 6 -66 -20 -95 -10 -10 -28 -35 -42 -54 -13 -19 -27 -37 -30 -40 -3 -3 -55
-70 -115 -150 -60 -80 -120 -159 -134 -175 -15 -17 -35 -44 -46 -59 -11 -16
-25 -33 -31 -40 -5 -6 -80 -103 -165 -215 -158 -209 -172 -228 -248 -325 -24
-31 -53 -59 -65 -61 -11 -3 -194 -4 -406 -3 l-385 3 -5 745 -5 745 -538 3
c-459 2 -545 0 -583 -13 -25 -8 -59 -15 -77 -15 -18 0 -41 -7 -51 -15 -11 -8
-30 -15 -43 -15 -13 0 -31 -4 -41 -9 -9 -5 -44 -23 -77 -38 -149 -71 -319
-196 -387 -284 -14 -19 -36 -45 -48 -59 -78 -89 -180 -284 -213 -410 -41 -153
-42 -168 -42 -555 l0 -380 175 -3 c96 -1 179 -7 184 -12 5 -5 8 -35 7 -67 -3
-101 48 -302 101 -393 4 -8 11 -22 15 -30 27 -61 165 -205 254 -265 24 -16 46
-33 47 -37 2 -5 10 -8 17 -8 7 0 40 -14 73 -30 34 -17 70 -30 81 -30 11 0 38
-7 59 -15 31 -13 71 -15 198 -12 178 4 231 15 346 74 14 7 31 13 37 13 18 0
158 107 211 163 136 140 210 315 218 517 3 69 9 118 16 122 6 4 245 8 531 8
l520 0 21 31 c12 16 48 64 80 106 33 41 80 103 106 137 27 33 51 66 56 71 4 6
31 42 60 80 28 39 55 75 60 80 18 22 126 164 165 215 22 30 43 57 47 60 3 3
48 61 100 130 51 69 130 172 174 230 44 58 84 110 88 115 4 6 20 26 36 45 57
69 63 88 46 166 -8 38 -22 103 -30 144 -9 41 -20 89 -24 105 -20 72 -21 105
-5 111 8 4 26 -1 40 -10 13 -9 32 -16 42 -16 10 0 31 -7 47 -15 15 -8 36 -15
45 -15 9 0 29 -7 45 -15 15 -8 34 -15 42 -15 7 0 28 -6 46 -14 50 -20 99 -37
143 -47 22 -6 44 -14 50 -20 5 -5 18 -9 30 -9 11 0 33 -7 49 -15 15 -8 35 -15
43 -15 8 0 30 -7 49 -16 68 -33 64 -82 64 720 0 460 -4 727 -10 731 -5 3 -42
-6 -82 -21 -40 -14 -86 -28 -103 -31 -16 -3 -39 -12 -50 -19 -11 -8 -27 -14
-36 -14 -9 0 -30 -7 -45 -15 -16 -8 -38 -15 -50 -15 -11 0 -29 -7 -40 -15 -10
-8 -30 -15 -44 -15 -15 0 -30 -4 -35 -9 -6 -6 -28 -14 -50 -20 -44 -10 -93
-27 -143 -47 -18 -8 -40 -14 -50 -14 -9 0 -26 -7 -36 -15 -11 -8 -31 -15 -45
-15 -14 0 -35 -7 -45 -15 -11 -8 -36 -15 -57 -15 -41 0 -38 -6 -63 120 -22
108 -67 312 -80 365 l-13 50 -512 3 c-414 2 -513 0 -517 -11z m1796 -962 c0
-295 -1 -305 -19 -305 -11 0 -23 5 -26 10 -3 6 -18 10 -32 10 -13 0 -37 6 -51
14 -34 17 -86 35 -137 47 -22 6 -44 14 -50 20 -5 5 -18 9 -30 9 -11 0 -31 6
-45 13 -14 8 -40 17 -58 20 -47 10 -82 36 -82 62 0 12 -7 41 -14 64 -8 22 -18
67 -22 100 -6 60 -6 60 22 66 38 9 115 34 136 46 10 5 34 13 55 18 36 9 55 15
143 46 19 7 62 21 95 31 33 10 64 22 70 26 5 4 17 8 27 8 17 0 18 -18 18 -305z
m-2702 -1422 l2 -593 -22 -5 c-13 -3 -347 -4 -743 -3 l-720 3 0 210 c0 213 3
237 45 365 28 85 54 140 94 199 20 29 36 56 36 60 0 26 254 241 286 241 8 0
14 4 14 10 0 5 12 13 27 16 15 4 38 13 52 20 14 8 33 14 41 14 9 0 21 5 26 10
11 11 84 27 184 40 30 4 195 7 365 6 l310 -1 3 -592z m-80 -981 c3 -85 -15
-159 -61 -245 -37 -70 -123 -161 -182 -193 -11 -6 -38 -20 -60 -32 -22 -12
-50 -22 -63 -22 -13 0 -33 -5 -45 -12 -26 -14 -197 -12 -211 2 -6 6 -19 10
-31 10 -11 0 -33 7 -49 15 -15 8 -34 15 -41 15 -8 0 -20 6 -27 13 -7 6 -29 23
-48 37 -91 64 -151 148 -188 263 -25 77 -31 212 -9 220 6 3 237 5 512 4 l500
-2 3 -73z"/>
<path d="M1394 4117 c-2 -7 -3 -74 -2 -148 l3 -134 753 -3 752 -2 0 150 0 150
-750 0 c-607 0 -752 -2 -756 -13z"/>
<path d="M5105 2465 c-16 -8 -40 -14 -53 -15 -12 0 -30 -4 -40 -9 -9 -5 -51
-26 -92 -46 -139 -68 -260 -181 -343 -320 -69 -117 -117 -291 -117 -428 0
-102 47 -286 98 -382 56 -106 165 -227 267 -296 28 -19 52 -37 53 -41 2 -5 10
-8 17 -8 7 0 40 -13 73 -30 34 -16 70 -30 81 -30 11 0 38 -7 59 -15 31 -13 71
-15 198 -12 175 4 248 19 346 73 14 7 31 14 38 14 15 0 166 115 203 155 103
109 172 232 206 370 21 79 23 107 19 235 -5 157 -18 220 -69 329 -101 217
-295 380 -539 451 -66 20 -366 23 -405 5z m297 -306 c9 -5 27 -9 40 -9 73 -1
235 -125 292 -223 103 -175 103 -369 0 -544 -25 -43 -130 -153 -146 -153 -4 0
-13 -6 -20 -13 -36 -36 -109 -59 -246 -79 -61 -9 -80 -8 -115 6 -24 9 -50 16
-59 16 -15 0 -76 26 -127 55 -85 47 -173 157 -211 261 -39 108 -36 306 6 371
8 12 14 27 14 33 0 31 145 200 171 200 4 0 14 6 21 14 19 19 106 56 132 56 12
0 26 4 32 9 19 20 178 19 216 0z"/>
</g>
</svg>
