<?xml version="1.0" standalone="no"?>
<!DOCTYPE svg PUBLIC "-//W3C//DTD SVG 20010904//EN"
 "http://www.w3.org/TR/2001/REC-SVG-20010904/DTD/svg10.dtd">
<svg version="1.0" xmlns="http://www.w3.org/2000/svg"
 width="1800.000000pt" height="1413.000000pt" viewBox="0 0 1800.000000 1413.000000"
 preserveAspectRatio="xMidYMid meet">
<g transform="translate(0.000000,1413.000000) scale(0.100000,-0.100000)"
fill="#000000" stroke="none">
<path d="M12250 13730 c-76 -10 -218 -58 -297 -101 -128 -70 -247 -180 -328
-304 -50 -78 -115 -212 -115 -238 0 -21 -39 -52 -115 -93 -38 -20 -96 -52
-128 -70 -32 -19 -60 -34 -62 -34 -2 0 -30 -15 -62 -34 -32 -18 -98 -55 -148
-81 -49 -27 -103 -56 -120 -65 -16 -9 -70 -38 -120 -65 -49 -26 -116 -63 -148
-81 -32 -19 -60 -34 -61 -34 -2 0 -41 -21 -87 -46 -136 -75 -179 -99 -274
-149 -49 -26 -150 -81 -223 -121 -73 -41 -134 -74 -136 -74 -1 0 -52 -27 -112
-61 -60 -33 -147 -81 -194 -106 -47 -25 -110 -59 -140 -76 -60 -32 -88 -47
-290 -157 -74 -40 -160 -86 -190 -103 -30 -16 -89 -48 -130 -70 -41 -22 -79
-43 -85 -47 -11 -8 -91 -51 -245 -133 -52 -27 -108 -58 -125 -67 -39 -23 -99
-56 -210 -115 -49 -26 -103 -56 -120 -65 -16 -10 -59 -33 -95 -52 -36 -20 -83
-45 -105 -58 -22 -12 -87 -47 -145 -78 -58 -31 -121 -65 -140 -77 -19 -12 -42
-25 -50 -28 -8 -4 -42 -22 -75 -40 -174 -94 -213 -116 -246 -135 -21 -11 -81
-44 -135 -73 -55 -28 -112 -60 -129 -69 -16 -10 -66 -37 -110 -60 -44 -24 -98
-53 -120 -65 -71 -39 -378 -206 -445 -243 -36 -19 -83 -45 -105 -57 -55 -31
-140 -77 -273 -147 l-113 -60 -1327 -3 c-1313 -3 -1328 -3 -1407 -24 -92 -24
-189 -63 -258 -103 -26 -15 -50 -28 -53 -28 -3 0 -49 -33 -102 -74 -182 -139
-305 -288 -426 -517 -25 -46 -53 -86 -63 -90 -10 -4 -170 -8 -356 -8 -296 -1
-348 -3 -425 -21 -109 -24 -156 -41 -246 -86 -288 -147 -481 -409 -537 -728
-17 -98 -23 -497 -10 -627 42 -408 259 -701 636 -859 134 -56 256 -69 625 -70
168 0 310 -4 316 -8 6 -4 34 -51 62 -105 156 -296 357 -501 612 -625 116 -56
196 -80 315 -92 55 -6 116 -14 135 -18 l34 -7 17 -100 c8 -55 24 -154 33 -220
10 -66 24 -158 31 -205 8 -47 21 -134 30 -195 9 -60 20 -132 25 -160 5 -27 12
-75 15 -105 6 -55 23 -166 50 -335 8 -49 21 -137 30 -195 46 -317 72 -482 91
-583 8 -42 14 -90 14 -105 0 -15 6 -63 14 -107 8 -44 22 -129 31 -190 9 -60
22 -150 30 -200 7 -49 21 -139 30 -200 8 -60 22 -153 30 -205 7 -52 21 -144
30 -205 9 -60 21 -137 27 -170 6 -33 14 -87 18 -120 5 -33 20 -127 34 -208 14
-82 26 -164 26 -183 0 -60 48 -276 92 -414 142 -443 281 -694 513 -925 90 -90
225 -190 320 -238 127 -64 351 -117 492 -117 270 0 567 104 798 279 85 65 155
130 260 245 103 111 227 331 281 494 84 258 97 454 50 762 -8 52 -22 147 -31
210 -9 63 -23 158 -31 210 -8 52 -22 138 -30 190 -8 52 -21 136 -29 185 -8 50
-21 142 -30 205 -9 63 -23 158 -31 210 -8 52 -21 140 -30 195 -8 55 -21 141
-29 190 -8 50 -18 118 -21 152 l-6 62 53 15 c29 9 58 16 66 16 7 0 45 11 85
24 278 91 484 215 674 403 158 156 274 328 363 534 25 60 34 65 74 41 17 -11
73 -41 122 -67 50 -27 108 -58 130 -70 91 -50 154 -85 230 -125 164 -88 205
-111 255 -140 28 -16 53 -30 55 -30 2 0 30 -15 62 -34 32 -18 96 -53 143 -78
156 -84 224 -121 310 -168 89 -49 155 -85 305 -165 50 -27 107 -59 127 -72 21
-12 40 -23 43 -23 3 0 44 -22 92 -48 49 -27 129 -70 178 -97 50 -27 106 -57
125 -68 19 -11 64 -35 100 -55 36 -19 83 -45 105 -57 53 -30 161 -88 264 -142
46 -25 123 -66 170 -92 47 -27 122 -67 166 -91 44 -23 103 -55 130 -70 28 -15
75 -41 105 -57 145 -79 178 -97 215 -118 22 -13 69 -38 105 -57 201 -107 247
-132 264 -149 10 -9 29 -47 42 -84 82 -233 267 -433 493 -531 286 -124 578
-104 848 58 143 85 282 242 349 395 88 199 84 99 84 1801 0 1010 3 1500 10
1513 7 12 21 19 39 19 27 0 255 57 321 81 165 58 351 159 492 265 269 204 474
483 595 809 39 107 70 248 88 405 20 168 20 769 1 931 -51 424 -261 815 -602
1119 -67 60 -216 170 -230 170 -3 0 -20 10 -36 22 -37 25 -212 112 -271 134
-119 43 -242 77 -317 88 -25 4 -55 14 -67 22 l-23 14 0 1503 c0 1586 0 1591
-45 1716 -130 361 -452 602 -825 616 -63 2 -144 0 -180 -5z m225 -476 c149
-21 268 -128 336 -304 12 -29 14 -848 17 -5060 3 -4615 1 -5031 -14 -5093 -34
-146 -109 -240 -239 -302 -69 -34 -91 -40 -166 -43 -185 -9 -336 83 -422 257
l-32 66 0 5075 c0 4966 0 5076 19 5125 39 101 114 188 208 239 54 30 172 57
218 50 14 -2 47 -6 75 -10z m-1001 -797 c7 -30 7 -9183 0 -9202 -11 -28 -8
-30 -289 120 -49 26 -94 51 -100 55 -10 7 -34 20 -220 120 -44 23 -102 55
-130 70 -108 60 -153 84 -215 118 -36 19 -90 48 -120 65 -80 43 -152 83 -217
118 -32 17 -80 44 -108 59 -27 15 -75 41 -105 57 -116 62 -524 285 -665 363
-48 26 -179 98 -360 195 -49 27 -150 82 -224 122 -74 40 -136 73 -138 73 -2 0
-74 40 -161 88 -86 49 -201 112 -256 141 -54 29 -112 60 -130 70 -17 10 -71
39 -121 66 -49 26 -103 56 -120 65 -16 10 -78 43 -137 73 -177 92 -299 158
-376 204 -41 24 -75 43 -77 43 -1 0 -38 20 -81 43 -44 24 -108 60 -144 79 -36
19 -83 45 -105 58 -128 71 -197 108 -350 190 -44 23 -98 53 -120 65 -22 13
-65 36 -95 52 -30 17 -86 47 -125 68 -38 21 -90 48 -114 61 -24 13 -50 29 -57
35 -12 10 -14 287 -14 1670 l0 1658 61 36 c33 19 62 35 65 35 3 0 39 20 82 44
85 48 169 93 312 169 52 27 109 58 125 67 32 19 101 57 205 112 195 104 230
123 280 151 30 16 75 41 100 55 25 13 74 40 110 60 115 62 174 94 205 112 17
9 71 39 120 65 50 27 108 58 130 70 22 12 66 36 98 54 99 54 170 93 222 121
28 15 91 49 140 75 50 26 95 51 100 55 10 7 74 42 220 120 44 24 106 58 138
77 32 18 60 33 62 33 1 0 92 49 202 109 109 59 234 127 278 151 162 87 210
113 220 120 6 4 51 29 100 55 89 47 157 84 245 133 25 13 74 40 110 60 75 40
143 77 220 120 30 16 96 51 145 77 125 66 218 117 230 125 6 4 51 29 100 55
89 47 156 84 245 133 25 13 69 38 99 54 116 63 155 84 209 114 32 16 93 50
137 74 152 83 150 82 159 47z m-7486 -3045 c10 -7 12 -326 10 -1563 l-3 -1554
-430 -3 c-378 -3 -438 -1 -495 14 -317 83 -563 413 -662 889 -22 107 -23 126
-23 665 0 540 1 558 23 658 68 308 180 531 357 707 73 74 106 99 176 133 47
23 106 46 130 51 56 11 900 13 917 3z m1530 -14 c4 -13 5 -716 2 -1563 l-5
-1540 -515 0 -515 0 -3 1550 c-1 853 0 1556 3 1563 3 9 116 12 515 12 l510 0
8 -22z m7951 -44 c204 -70 372 -174 526 -329 204 -202 323 -428 369 -695 22
-125 23 -836 2 -955 -16 -87 -36 -165 -61 -233 -99 -275 -318 -531 -580 -678
-122 -69 -341 -148 -393 -142 l-27 3 -3 1510 c-1 831 0 1520 3 1533 8 31 38
29 164 -14z m-11550 -783 c12 -8 13 -21 3 -88 -16 -106 -17 -1129 -1 -1249 9
-71 9 -88 -2 -95 -8 -5 -118 -9 -245 -9 -254 0 -335 13 -439 68 -78 42 -168
133 -208 209 -58 111 -67 171 -67 448 0 271 9 336 61 439 73 143 213 248 369
276 63 11 512 12 529 1z m3639 -2766 c4 -4 31 -166 56 -335 9 -63 23 -158 31
-210 8 -52 21 -142 30 -200 25 -174 45 -301 61 -385 8 -44 14 -93 14 -108 0
-15 6 -60 14 -100 7 -40 21 -126 31 -192 9 -66 23 -148 31 -182 8 -34 14 -81
14 -104 0 -41 5 -74 55 -374 13 -77 26 -169 30 -205 3 -36 12 -101 20 -145 7
-44 21 -132 30 -195 9 -63 23 -147 31 -187 8 -40 14 -85 14 -100 0 -15 6 -64
14 -108 8 -44 22 -126 30 -182 27 -173 45 -293 61 -403 8 -58 22 -150 30 -205
35 -235 38 -274 25 -374 -16 -134 -44 -230 -100 -346 -188 -389 -600 -626
-959 -550 -39 8 -79 19 -88 24 -10 4 -38 19 -63 31 -150 76 -286 218 -396 410
-137 244 -226 513 -279 853 -8 53 -22 141 -30 195 -18 115 -38 246 -60 397 -9
61 -23 148 -30 195 -8 47 -21 137 -30 200 -9 63 -22 156 -30 205 -14 85 -27
172 -61 400 -31 208 -45 296 -74 485 -17 107 -37 242 -46 300 -9 58 -22 143
-29 190 -15 99 -38 255 -61 408 -8 59 -22 150 -30 202 -25 156 -42 269 -59
385 -9 61 -23 150 -31 199 -9 48 -13 94 -10 101 3 8 17 16 33 18 30 6 1806 -3
1811 -8z m625 -249 c45 -24 145 -78 221 -120 76 -42 140 -76 142 -76 1 0 67
-35 146 -78 337 -184 343 -188 443 -240 83 -44 83 -46 33 -172 -66 -168 -213
-351 -378 -471 -101 -74 -222 -141 -295 -163 -33 -10 -80 -25 -104 -32 -25 -8
-57 -14 -71 -14 -26 0 -27 3 -43 93 -18 96 -34 204 -62 397 -16 112 -29 203
-60 405 -9 55 -22 143 -30 195 -8 52 -21 141 -30 197 -15 91 -14 123 1 123 2
0 41 -20 87 -44z"/>
<path d="M16368 10672 c-29 -16 -297 -276 -689 -667 -670 -668 -689 -689 -689
-770 0 -87 56 -183 129 -220 65 -33 153 -34 214 -4 46 23 1301 1266 1341 1329
13 19 29 58 36 85 11 43 10 59 -3 105 -33 111 -111 170 -225 170 -55 0 -76 -5
-114 -28z"/>
<path d="M15700 8065 c-95 -30 -170 -129 -170 -225 1 -82 56 -172 131 -210 33
-18 87 -19 1000 -22 l964 -3 42 22 c97 52 148 162 124 268 -10 44 -22 65 -60
104 -83 85 -25 81 -1070 80 -755 0 -924 -3 -961 -14z"/>
<path d="M15151 6717 c-83 -32 -161 -137 -161 -218 0 -19 7 -58 16 -85 15 -44
78 -109 677 -706 474 -471 673 -663 704 -678 132 -62 289 23 323 173 13 59 -2
125 -41 182 -42 61 -1293 1297 -1336 1320 -45 23 -136 29 -182 12z"/>
</g>
</svg>
