<svg xmlns="http://www.w3.org/2000/svg" viewBox="0 0 242 203">
  <path d="M89.5 10.9c-4.2 1.9-10.9 8.5-11.9 11.9-.4 1.1-2.6 2.7-5.3 3.7-5.4 2.1-13.1 9.3-15.6 14.8-2.4 5-3.5 12.1-2.8 18.2.6 4.8.5 5.1-3.4 9-10.2 10.1-12.5 28.8-4.9 40.1 2.2 3.2 2.3 3.9 1.3 8-3.8 15.1 5.1 31.1 20.1 36.3 2.1.7 4.7 2.9 6.5 5.4 7.3 10 20.7 13.5 32 8.3 6.2-2.8 6.3-3.2 3.2-10.8l-1.2-2.9-3.3 2.5c-9 6.6-19.1 3.3-25.3-8.1-1.2-2.2-2.6-3.1-5.3-3.6-6.6-1.1-12.1-5.1-15-10.9-3.1-6.3-3.3-10.1-.5-16.9l2-5.3-2.1-2.5c-3.5-4.4-7-12.4-7-16.2 0-7.7 4.3-15.1 11.2-19.5 3.8-2.4 4-2.8 3.4-6.2-1.8-10.4-1.8-15.9-.1-19.3 2.9-5.8 7.6-9.9 13.2-11.5 5.8-1.7 6.6-2.4 8.2-7.6 2.4-7.2 10-10.5 16.8-7.2 7.3 3.6 7.3 3.3 7.3 52.9.1 40.8.2 43.8 1.7 41 .8-1.7 3.1-4.9 4.9-7.2l3.4-4.1V67.7c0-19.5.3-36.9.6-38.6 1.6-7.8 10.5-12.2 17.3-8.5 3.4 1.8 4.5 3.3 7.3 9.9 1 2.4 2.5 3.4 6.7 4.7 10.2 3.3 15.6 11.1 14.9 21.2-.3 3.4-.8 6.8-1.2 7.7-.6 1.4-.1 1.4 5.1.4 5-1 5.8-1.5 6.5-4.1 1.3-4.5 0-13.3-2.8-19.1-3-6.1-9.8-12.5-15.9-14.9-3-1.1-4.7-2.5-5.5-4.4-5.3-12.9-24.7-17.2-34.8-7.7-2.1 1.9-2.5 2-4.5.7-9.7-6.3-17.6-7.6-25.2-4.1"/>
  <path d="M168.5 81.5c-2.3 2.2-2.5 3.2-2.5 11v8.5h-5.8c-16.2 0-28.4 7.6-35.5 22-2.9 5.9-3.2 7.3-3.1 16 0 7.2.5 10.8 2.1 14.6 2.9 7.4 7.9 14.3 11 15 4.8 1.2 5.7-.4 6.4-10.7.3-5.6 1.2-10.6 2.1-12.4 3.6-6.8 11.3-11.5 18.8-11.5h4v9.9c0 9 .2 10 2.5 12.5 1.8 1.9 3.4 2.6 6.1 2.6 3.4 0 4.9-1.2 22.5-18.7C212 125.6 216 121.1 216 119c0-2-4-6.6-18.8-21.3-17.7-17.6-19-18.7-22.6-18.7-2.6 0-4.4.7-6.1 2.5m21.2 51.2L176 146.5v-10.1c0-7.8-.3-10.4-1.5-11.4-1-.9-4.5-1.1-11.7-.8-8.2.3-11.2.9-14.6 2.6-6.1 3.2-11.6 8.5-13.7 13.1-2.4 5.4-3.9 4.2-3.1-2.6 1.2-10.3 5.8-17.7 14-22.4 4.7-2.7 5.8-2.9 15.6-2.9 14.5 0 15-.4 15-11.8v-8.7l13.7 13.8 13.8 13.7z"/>
</svg>
