<?xml version="1.0" encoding="UTF-8"?>
<!DOCTYPE svg PUBLIC "-//W3C//DTD SVG 1.1//EN" "http://www.w3.org/Graphics/SVG/1.1/DTD/svg11.dtd">
<svg xmlns="http://www.w3.org/2000/svg" version="1.1" width="426px" height="366px" style="shape-rendering:geometricPrecision; text-rendering:geometricPrecision; image-rendering:optimizeQuality; fill-rule:evenodd; clip-rule:evenodd" xmlns:xlink="http://www.w3.org/1999/xlink">
<g><path style="opacity:1" fill="#2a7cef" d="M 34.5,25.5 C 27.6965,34.4258 28.0298,43.2591 35.5,52C 44.4506,57.9558 52.7839,57.1225 60.5,49.5C 62.1561,47.5878 62.4895,45.5878 61.5,43.5C 56.5846,44.5289 51.5846,44.6956 46.5,44C 45.5495,40.9433 45.2161,37.7766 45.5,34.5C 54.1922,34.1686 62.8589,34.502 71.5,35.5C 73.5409,53.3814 65.5409,63.3814 47.5,65.5C 40.282,65.0425 33.9487,62.5425 28.5,58C 27.6667,55.8333 26.1667,54.3333 24,53.5C 23.1515,50.3022 21.6515,47.4689 19.5,45C 18.8295,20.3177 30.8295,9.31766 55.5,12C 59.6268,13.3803 62.9601,15.7136 65.5,19C 63.6708,20.9948 61.6708,22.8281 59.5,24.5C 55.7122,21.5583 51.7122,19.8916 47.5,19.5C 44.5289,19.5246 42.0289,20.5246 40,22.5C 37.6088,21.9494 35.7755,22.9494 34.5,25.5 Z"/></g>
<g><path style="opacity:1" fill="#3082f5" d="M 190.5,13.5 C 191.833,13.5 192.5,14.1667 192.5,15.5C 191.504,31.3246 191.17,47.3246 191.5,63.5C 189.167,63.5 186.833,63.5 184.5,63.5C 184.5,47.1667 184.5,30.8333 184.5,14.5C 186.735,14.7947 188.735,14.4614 190.5,13.5 Z"/></g>
<g><path style="opacity:1" fill="#1d7ea2" d="M 190.5,13.5 C 188.735,14.4614 186.735,14.7947 184.5,14.5C 184.5,30.8333 184.5,47.1667 184.5,63.5C 186.833,63.5 189.167,63.5 191.5,63.5C 191.17,47.3246 191.504,31.3246 192.5,15.5C 192.833,31.8469 192.499,48.1803 191.5,64.5C 188.916,65.3928 186.249,65.7261 183.5,65.5C 183.5,48.1667 183.5,30.8333 183.5,13.5C 185.833,13.5 188.167,13.5 190.5,13.5 Z"/></g>
<g><path style="opacity:1" fill="#002357" d="M 236.5,17.5 C 246.833,17.5 257.167,17.5 267.5,17.5C 267.5,20.1667 267.5,22.8333 267.5,25.5C 263.5,25.5 259.5,25.5 255.5,25.5C 255.5,38.8333 255.5,52.1667 255.5,65.5C 253.167,65.5 250.833,65.5 248.5,65.5C 248.5,52.1667 248.5,38.8333 248.5,25.5C 244.5,25.5 240.5,25.5 236.5,25.5C 236.5,22.8333 236.5,20.1667 236.5,17.5 Z"/></g>
<g><path style="opacity:1" fill="#01245a" d="M 376.5,17.5 C 379.167,17.5 381.833,17.5 384.5,17.5C 384.667,33.1702 384.5,48.8369 384,64.5C 380.606,66.2747 377.94,65.608 376,62.5C 366.846,68.3489 359.179,66.6822 353,57.5C 349.319,47.6941 351.486,39.5274 359.5,33C 365.301,30.6452 370.801,31.1452 376,34.5C 376.499,28.8431 376.666,23.1764 376.5,17.5 Z M 364.5,38.5 C 374.535,38.5295 378.369,43.5295 376,53.5C 373.459,58.0685 369.625,59.5685 364.5,58C 362.333,57.1667 360.833,55.6667 360,53.5C 359.333,50.1667 359.333,46.8333 360,43.5C 361.025,41.313 362.525,39.6464 364.5,38.5 Z"/></g>
<g><path style="opacity:1" fill="#25509c" d="M 34.5,25.5 C 35.8333,26.1667 35.8333,26.1667 34.5,25.5 Z"/></g>
<g><path style="opacity:1" fill="#3d75e6" d="M 102.5,60.5 C 95.622,63.9557 88.622,64.2891 81.5,61.5C 75.0457,57.3389 72.5457,51.3389 74,43.5C 78.8824,30.8127 87.7157,26.9794 100.5,32C 108.826,39.0463 110.659,47.5463 106,57.5C 104.961,58.7101 103.794,59.7101 102.5,60.5 Z M 87.5,38.5 C 90.054,38.7975 92.554,38.7975 95,38.5C 101.993,44.5182 101.826,50.3516 94.5,56C 84.9873,56.5427 81.4873,52.0427 84,42.5C 84.6897,40.6498 85.8564,39.3164 87.5,38.5 Z"/></g>
<g><path style="opacity:1" fill="#8fb4e2" d="M 114.5,58.5 C 110.909,51.7171 110.576,44.7171 113.5,37.5C 114.658,34.1783 116.992,32.0117 120.5,31C 128.865,28.1213 136.032,29.9547 142,36.5C 148.907,52.3523 143.907,62.019 127,65.5C 121.626,65.1157 117.459,62.7824 114.5,58.5 Z M 123.5,38.5 C 126.074,38.8307 128.741,38.9974 131.5,39C 133.019,40.3513 134.352,41.8513 135.5,43.5C 134.653,45.061 134.986,46.561 136.5,48C 135.132,54.6806 131.132,57.3473 124.5,56C 116.887,50.5996 116.554,44.7662 123.5,38.5 Z"/></g>
<g><path style="opacity:1" fill="#2a7ced" d="M 160.5,29.5 C 164.459,29.0713 167.959,30.0713 171,32.5C 173.804,30.6556 176.97,29.9889 180.5,30.5C 180.903,43.885 180.403,57.2183 179,70.5C 174.362,77.7875 167.695,81.1209 159,80.5C 155.624,78.3031 152.624,75.6364 150,72.5C 148.813,70.9556 148.48,69.2889 149,67.5C 151.088,66.6919 153.088,65.6919 155,64.5C 157.633,69.7315 161.799,71.5649 167.5,70C 170.131,68.0766 171.297,65.5766 171,62.5C 162.624,67.3987 155.29,65.7321 149,57.5C 143.791,44.2689 147.625,34.9356 160.5,29.5 Z M 160.5,38.5 C 165.583,37.3858 169.249,39.0525 171.5,43.5C 170.098,44.8425 170.431,45.6758 172.5,46C 172.391,50.184 170.391,53.5173 166.5,56C 161.078,57.0354 157.578,54.8687 156,49.5C 155.468,44.9141 156.968,41.2474 160.5,38.5 Z"/></g>
<g><path style="opacity:1" fill="#4074e4" d="M 223.5,60.5 C 216.652,64.0317 209.652,64.365 202.5,61.5C 196.633,58.6114 193.966,53.7781 194.5,47C 196.472,33.35 204.138,28.0167 217.5,31C 222.947,33.9457 226.281,38.4457 227.5,44.5C 220.354,46.7343 213.021,49.5676 205.5,53C 210.967,58.0032 215.8,57.5032 220,51.5C 222,52.8333 224,54.1667 226,55.5C 226.747,57.9278 225.914,59.5944 223.5,60.5 Z M 210.5,37.5 C 212.713,37.848 214.713,38.6813 216.5,40C 212.2,42.0943 207.866,43.761 203.5,45C 204.686,41.3175 207.019,38.8175 210.5,37.5 Z"/></g>
<g><path style="opacity:1" fill="#03265b" d="M 277.5,31.5 C 280.448,31.2229 283.281,31.5562 286,32.5C 285.563,34.7567 285.063,37.09 284.5,39.5C 280.457,38.12 276.957,39.12 274,42.5C 272.604,50.0804 272.104,57.747 272.5,65.5C 269.606,65.9577 267.106,65.291 265,63.5C 264.5,53.172 264.334,42.8387 264.5,32.5C 267.167,32.5 269.833,32.5 272.5,32.5C 272.351,33.552 272.517,34.552 273,35.5C 274.397,33.9297 275.897,32.5964 277.5,31.5 Z"/></g>
<g><path style="opacity:1" fill="#02255a" d="M 296.5,31.5 C 308.353,30.8552 315.353,36.3552 317.5,48C 316.833,49 316.167,50 315.5,51C 307.92,51.8132 300.42,51.6466 293,50.5C 293.915,58.156 298.081,60.656 305.5,58C 307.019,56.6487 308.352,55.1487 309.5,53.5C 311.323,54.7472 313.323,55.4139 315.5,55.5C 314.428,61.0734 311.095,64.5734 305.5,66C 290.176,67.0078 283.342,59.8412 285,44.5C 286.617,38.0578 290.45,33.7245 296.5,31.5 Z M 297.5,38.5 C 302.311,37.7401 305.978,39.4068 308.5,43.5C 303.198,44.6628 297.864,44.8295 292.5,44C 294.064,41.2944 295.731,39.461 297.5,38.5 Z"/></g>
<g><path style="opacity:1" fill="#03255a" d="M 331.5,31.5 C 339.128,30.0649 344.628,32.7315 348,39.5C 348.5,48.1603 348.666,56.8269 348.5,65.5C 345.881,65.7683 343.381,65.435 341,64.5C 340.667,56.8333 340.333,49.1667 340,41.5C 337.017,38.1432 333.517,37.6432 329.5,40C 328.283,41.6477 327.45,43.481 327,45.5C 326.5,52.1583 326.334,58.825 326.5,65.5C 323.881,65.7683 321.381,65.435 319,64.5C 318.333,54.1667 318.333,43.8333 319,33.5C 321.957,31.9226 324.624,32.2559 327,34.5C 328.652,33.6006 330.152,32.6006 331.5,31.5 Z"/></g>
<g><path style="opacity:1" fill="#02255a" d="M 394.5,31.5 C 402.856,29.5146 409.189,32.1813 413.5,39.5C 411.219,40.2766 409.052,41.2766 407,42.5C 405.503,40.3234 403.503,38.99 401,38.5C 399.331,39.1662 397.831,39.1662 396.5,38.5C 393.745,40.7612 394.078,42.5945 397.5,44C 403.753,44.4093 408.92,46.9093 413,51.5C 413.785,60.7258 409.452,65.7258 400,66.5C 392.454,66.2682 388.12,62.6015 387,55.5C 388.897,53.9837 391.064,53.317 393.5,53.5C 393.33,54.8221 393.663,55.9887 394.5,57C 398.834,60.8167 402.501,60.3167 405.5,55.5C 404.221,53.8539 402.555,52.6872 400.5,52C 390.652,51.1707 386.485,46.004 388,36.5C 389.965,34.4497 392.132,32.783 394.5,31.5 Z"/></g>
<g><path style="opacity:1" fill="#7c8e9b" d="M 113.5,37.5 C 110.576,44.7171 110.909,51.7171 114.5,58.5C 109.438,53.4007 108.271,47.4007 111,40.5C 111.377,39.0577 112.21,38.0577 113.5,37.5 Z"/></g>
<g><path style="opacity:1" fill="#5b599c" d="M 102.5,60.5 C 96.9419,65.3006 90.6086,66.4673 83.5,64C 82.6195,63.2917 81.9528,62.4584 81.5,61.5C 88.622,64.2891 95.622,63.9557 102.5,60.5 Z"/></g>
<g><path style="opacity:1" fill="#5c5999" d="M 223.5,60.5 C 221.324,62.5152 218.824,64.1819 216,65.5C 212.633,65.7068 209.133,65.2068 205.5,64C 204.058,63.6232 203.058,62.7899 202.5,61.5C 209.652,64.365 216.652,64.0317 223.5,60.5 Z"/></g>
<g><path style="opacity:1" fill="#33a251" d="M 384.5,214.5 C 383.609,213.89 382.609,213.557 381.5,213.5C 378.526,210.862 375.526,208.195 372.5,205.5C 372.167,204.5 371.5,203.833 370.5,203.5C 365.548,198.036 360.215,193.036 354.5,188.5C 353.473,186.806 352.139,185.473 350.5,184.5C 338.167,171.5 325.5,158.833 312.5,146.5C 302.907,136.881 293.241,126.547 283.5,115.5C 280.079,107.603 282.412,102.103 290.5,99C 307.5,98.8333 324.5,98.6667 341.5,98.5C 359.563,98.3527 377.563,98.8527 395.5,100C 396.663,135.762 396.829,171.595 396,207.5C 393.285,212.51 389.451,214.843 384.5,214.5 Z"/></g>
<g><path style="opacity:1" fill="#f9b500" d="M 312.5,146.5 C 325.5,158.833 338.167,171.5 350.5,184.5C 318.862,214.804 287.529,245.471 256.5,276.5C 244.221,263.887 231.888,251.22 219.5,238.5C 250.5,207.833 281.5,177.167 312.5,146.5 Z"/></g>
<g><path style="opacity:1" fill="#e63f32" d="M 219.5,238.5 C 231.888,251.22 244.221,263.887 256.5,276.5C 246.473,287.194 236.14,297.527 225.5,307.5C 223.445,308.948 221.278,310.281 219,311.5C 215.074,309.3 211.908,306.966 209.5,304.5C 209.027,303.094 208.027,302.427 206.5,302.5C 206.167,301.5 205.5,300.833 204.5,300.5C 203.737,299.732 202.737,299.232 201.5,299C 201.833,298.667 202.167,298.333 202.5,298C 198.381,294.231 194.381,290.397 190.5,286.5C 181.99,278.658 172.99,269.658 163.5,259.5C 151.344,246.177 139.01,233.01 126.5,220C 127.056,219.617 127.389,219.117 127.5,218.5C 135.662,209.505 144.328,201.005 153.5,193C 156.429,190.243 159.762,188.076 163.5,186.5C 168.254,189.087 172.587,192.254 176.5,196C 190.701,210.369 205.035,224.535 219.5,238.5 Z"/></g>
<g><path style="opacity:1" fill="#25509c" d="M 354.5,188.5 C 353.833,189.167 353.833,189.167 354.5,188.5 Z"/></g>
<g><path style="opacity:1" fill="#25509c" d="M 370.5,203.5 C 371.5,203.833 372.167,204.5 372.5,205.5C 371.167,205.5 370.5,204.833 370.5,203.5 Z"/></g>
<g><path style="opacity:1" fill="#25509c" d="M 381.5,213.5 C 382.609,213.557 383.609,213.89 384.5,214.5C 383.221,215.715 382.221,215.382 381.5,213.5 Z"/></g>
<g><path style="opacity:1" fill="#4182f0" d="M 127.5,218.5 C 127.389,219.117 127.056,219.617 126.5,220C 139.01,233.01 151.344,246.177 163.5,259.5C 129.644,293.523 95.3109,327.023 60.5,360C 57.1667,362 53.8333,362 50.5,360C 43.6101,355.231 37.6101,349.565 32.5,343C 28.6615,340.429 25.4949,336.596 23,331.5C 22.1786,328.446 22.3452,325.446 23.5,322.5C 57.8483,287.485 92.5149,252.818 127.5,218.5 Z"/></g>
<g><path style="opacity:1" fill="#25509c" d="M 190.5,286.5 C 189.833,287.167 189.833,287.167 190.5,286.5 Z"/></g>
<g><path style="opacity:1" fill="#25509c" d="M 204.5,300.5 C 203.833,301.167 203.833,301.167 204.5,300.5 Z"/></g>
<g><path style="opacity:1" fill="#8b627b" d="M 206.5,302.5 C 208.027,302.427 209.027,303.094 209.5,304.5C 207.973,304.573 206.973,303.906 206.5,302.5 Z"/></g>
<g><path style="opacity:1" fill="#25509c" d="M 225.5,307.5 C 226.833,308.167 226.833,308.167 225.5,307.5 Z"/></g>
</svg>
