<?xml version="1.0" encoding="UTF-8"?>
<!DOCTYPE svg PUBLIC "-//W3C//DTD SVG 1.1//EN" "http://www.w3.org/Graphics/SVG/1.1/DTD/svg11.dtd">
<svg xmlns="http://www.w3.org/2000/svg" version="1.1" width="512px" height="512px" style="shape-rendering:geometricPrecision; text-rendering:geometricPrecision; image-rendering:optimizeQuality; fill-rule:evenodd; clip-rule:evenodd" xmlns:xlink="http://www.w3.org/1999/xlink">
<g><path style="opacity:1" fill="#000000" d="M 84.5,-0.5 C 93.8333,-0.5 103.167,-0.5 112.5,-0.5C 143.675,4.92734 167.675,21.094 184.5,48C 263.499,48.5 342.499,48.6667 421.5,48.5C 421.5,84.1667 421.5,119.833 421.5,155.5C 425.846,155.334 430.179,155.501 434.5,156C 436.794,160.088 438.961,164.255 441,168.5C 444.565,169.801 448.065,171.301 451.5,173C 456.986,172.61 462.319,171.61 467.5,170C 477.833,180.333 488.167,190.667 498.5,201C 496.833,205.333 495.167,209.667 493.5,214C 496.012,217.858 497.845,222.025 499,226.5C 502.99,228.912 507.157,230.912 511.5,232.5C 511.5,247.833 511.5,263.167 511.5,278.5C 507.157,280.088 502.99,282.088 499,284.5C 497.845,288.975 496.012,293.142 493.5,297C 495.167,301.333 496.833,305.667 498.5,310C 488.167,320.333 477.833,330.667 467.5,341C 462.319,339.39 456.986,338.39 451.5,338C 448.326,339.725 444.993,341.058 441.5,342C 439.167,346.333 436.833,350.667 434.5,355C 430.179,355.499 425.846,355.666 421.5,355.5C 421.5,407.5 421.5,459.5 421.5,511.5C 310.833,511.5 200.167,511.5 89.5,511.5C 89.5,406.833 89.5,302.167 89.5,197.5C 47.7905,192.058 19.2905,169.725 4,130.5C 2.4194,124.724 0.919399,119.058 -0.5,113.5C -0.5,103.833 -0.5,94.1667 -0.5,84.5C 6.40188,47.5605 27.0685,21.3939 61.5,6C 69.1627,3.33838 76.8294,1.17171 84.5,-0.5 Z M 89.5,16.5 C 129.549,15.0834 158.049,32.4167 175,68.5C 187.788,109.469 176.954,142.636 142.5,168C 102.207,189.145 66.3739,183.312 35,150.5C 11.4934,117.875 10.4934,84.542 32,50.5C 46.8678,31.7793 66.0344,20.446 89.5,16.5 Z M 193.5,66.5 C 263.5,66.5 333.5,66.5 403.5,66.5C 403.5,209.167 403.5,351.833 403.5,494.5C 304.833,494.5 206.167,494.5 107.5,494.5C 107.5,395.5 107.5,296.5 107.5,197.5C 141.043,193.907 166.709,177.907 184.5,149.5C 205.156,148.5 225.823,148.167 246.5,148.5C 246.824,163.412 246.491,178.245 245.5,193C 226.167,202.667 206.833,212.333 187.5,222C 165.836,222.5 144.169,222.667 122.5,222.5C 122.5,299.833 122.5,377.167 122.5,454.5C 139.503,454.333 156.503,454.5 173.5,455C 177.265,467.098 185.265,474.765 197.5,478C 236.167,478.667 274.833,478.667 313.5,478C 333.721,470.402 341.554,455.902 337,434.5C 332.974,423.14 325.141,415.973 313.5,413C 297.205,411.612 280.872,411.112 264.5,411.5C 264.5,400.833 264.5,390.167 264.5,379.5C 280.833,379.5 297.167,379.5 313.5,379.5C 313.5,371.5 313.5,363.5 313.5,355.5C 332.833,355.5 352.167,355.5 371.5,355.5C 371.333,341.163 371.5,326.829 372,312.5C 389.184,302.25 392.518,288.583 382,271.5C 378.943,268.777 375.61,266.444 372,264.5C 371.5,250.504 371.333,236.504 371.5,222.5C 355.497,222.667 339.497,222.5 323.5,222C 304.184,212.128 284.851,202.462 265.5,193C 264.509,178.245 264.176,163.412 264.5,148.5C 285.836,148.667 307.169,148.5 328.5,148C 344.898,143.398 353.898,132.565 355.5,115.5C 353.825,97.2687 344.159,86.102 326.5,82C 283.168,81.5 239.835,81.3333 196.5,81.5C 195.659,76.4678 194.659,71.4678 193.5,66.5 Z M 198.5,99.5 C 241.168,99.3333 283.835,99.5 326.5,100C 338.313,106.442 340.479,115.276 333,126.5C 330.293,128.936 327.127,130.436 323.5,131C 279.833,131.667 236.167,131.667 192.5,131C 196.228,120.857 198.228,110.357 198.5,99.5 Z M 421.5,173.5 C 422.496,173.414 423.329,173.748 424,174.5C 425.373,177.412 426.873,180.246 428.5,183C 436.783,185.559 444.616,189.059 452,193.5C 455.333,192.167 458.667,190.833 462,189.5C 467,194.5 472,199.5 477,204.5C 477.121,208.322 476.287,211.989 474.5,215.5C 478.808,223.118 482.308,231.118 485,239.5C 488,241.167 491,242.833 494,244.5C 494.667,251.833 494.667,259.167 494,266.5C 491,268.167 488,269.833 485,271.5C 482.308,279.882 478.808,287.882 474.5,295.5C 476.287,299.011 477.121,302.678 477,306.5C 472,311.5 467,316.5 462,321.5C 458.667,320.167 455.333,318.833 452,317.5C 444.626,321.935 436.793,325.435 428.5,328C 426.861,331.456 424.861,334.623 422.5,337.5C 421.335,329.521 421.168,321.521 422,313.5C 452.514,306.129 468.68,286.796 470.5,255.5C 468.68,224.204 452.514,204.871 422,197.5C 421.5,189.507 421.334,181.507 421.5,173.5 Z M 254.5,207.5 C 270.423,214.795 286.09,222.628 301.5,231C 286.833,238.333 272.167,245.667 257.5,253C 256.167,253.667 254.833,253.667 253.5,253C 238.833,245.667 224.167,238.333 209.5,231C 224.561,223.137 239.561,215.304 254.5,207.5 Z M 421.5,215.5 C 446.908,224.426 456.741,242.092 451,268.5C 445.838,282.328 436.171,291.328 422,295.5C 421.5,268.835 421.333,242.169 421.5,215.5 Z M 140.5,239.5 C 156.503,239.333 172.503,239.5 188.5,240C 207.5,249.5 226.5,259 245.5,268.5C 246.499,283.152 246.833,297.818 246.5,312.5C 230.167,312.5 213.833,312.5 197.5,312.5C 197.5,334.833 197.5,357.167 197.5,379.5C 213.833,379.5 230.167,379.5 246.5,379.5C 246.5,390.167 246.5,400.833 246.5,411.5C 230.124,411.094 213.79,411.594 197.5,413C 185.265,416.235 177.265,423.902 173.5,436C 162.505,436.5 151.505,436.667 140.5,436.5C 140.5,370.833 140.5,305.167 140.5,239.5 Z M 322.5,239.5 C 333.167,239.5 343.833,239.5 354.5,239.5C 354.666,247.84 354.5,256.173 354,264.5C 337.482,273.561 333.482,286.561 342,303.5C 345.152,307.654 349.152,310.654 354,312.5C 354.5,320.827 354.666,329.16 354.5,337.5C 340.833,337.5 327.167,337.5 313.5,337.5C 313.5,329.167 313.5,320.833 313.5,312.5C 297.167,312.5 280.833,312.5 264.5,312.5C 264.167,297.818 264.501,283.152 265.5,268.5C 284.717,259.059 303.717,249.392 322.5,239.5 Z M 361.5,280.5 C 369.623,281.917 371.956,286.25 368.5,293.5C 364.671,297.391 360.838,297.391 357,293.5C 354.098,287.466 355.598,283.133 361.5,280.5 Z M 214.5,330.5 C 241.833,330.5 269.167,330.5 296.5,330.5C 296.5,341.167 296.5,351.833 296.5,362.5C 269.167,362.5 241.833,362.5 214.5,362.5C 214.5,351.833 214.5,341.167 214.5,330.5 Z M 201.5,429.5 C 237.168,429.333 272.835,429.5 308.5,430C 320.339,434.856 323.506,443.023 318,454.5C 315.635,457.869 312.468,460.036 308.5,461C 273.167,461.667 237.833,461.667 202.5,461C 191.464,456.434 187.964,448.601 192,437.5C 194.735,434.231 197.901,431.564 201.5,429.5 Z"/></g>
<g><path style="opacity:1" fill="#000000" d="M 106.5,45.5 C 112.108,47.3694 117.775,49.0361 123.5,50.5C 112.958,84.461 101.624,118.128 89.5,151.5C 84.0796,149.694 78.7462,147.694 73.5,145.5C 84.9072,112.279 95.9072,78.9453 106.5,45.5 Z"/></g>
<g><path style="opacity:1" fill="#000000" d="M 58.5,67.5 C 63.4194,70.7483 67.7528,74.7483 71.5,79.5C 65.6163,86.095 59.6163,92.595 53.5,99C 59.6815,105.014 65.6815,111.181 71.5,117.5C 67.8333,121.833 63.8333,125.833 59.5,129.5C 48.8333,119.5 38.5,109.167 28.5,98.5C 38.5213,88.146 48.5213,77.8127 58.5,67.5 Z"/></g>
<g><path style="opacity:1" fill="#000000" d="M 136.5,67.5 C 147.76,77.0912 158.427,87.4246 168.5,98.5C 158.5,109.167 148.167,119.5 137.5,129.5C 133.167,125.833 129.167,121.833 125.5,117.5C 131.5,111.167 137.5,104.833 143.5,98.5C 137.5,92.1667 131.5,85.8333 125.5,79.5C 129.189,75.4799 132.855,71.4799 136.5,67.5 Z"/></g>
</svg>
