<?xml version="1.0" encoding="UTF-8"?>
<!DOCTYPE svg PUBLIC "-//W3C//DTD SVG 1.1//EN" "http://www.w3.org/Graphics/SVG/1.1/DTD/svg11.dtd">
<svg xmlns="http://www.w3.org/2000/svg" version="1.1" width="512px" height="512px" style="shape-rendering:geometricPrecision; text-rendering:geometricPrecision; image-rendering:optimizeQuality; fill-rule:evenodd; clip-rule:evenodd" xmlns:xlink="http://www.w3.org/1999/xlink">
<g><path style="opacity:1" fill="#000000" d="M 183.5,-0.5 C 196.167,-0.5 208.833,-0.5 221.5,-0.5C 287.396,7.84984 338.229,39.8498 374,95.5C 375.228,107.95 373.228,119.95 368,131.5C 366.167,133.333 364.333,135.167 362.5,137C 341.784,146.072 320.45,153.239 298.5,158.5C 293.324,158.662 288.824,156.996 285,153.5C 266.342,92.9783 232.842,42.4783 184.5,2C 183.748,1.32924 183.414,0.495904 183.5,-0.5 Z"/></g>
<g><path style="opacity:1" fill="#000000" d="M 155.5,4.5 C 159.397,6.12124 163.064,8.28791 166.5,11C 214.032,49.194 247.365,97.3607 266.5,155.5C 265.438,163.044 261.771,168.878 255.5,173C 243.968,176.8 232.301,180.133 220.5,183C 220.043,183.414 219.709,183.914 219.5,184.5C 235.798,247.026 251.465,309.693 266.5,372.5C 254.824,372.561 243.157,372.894 231.5,373.5C 216.652,312.774 201.485,252.108 186,191.5C 172.471,195.806 158.638,198.306 144.5,199C 137.298,197.131 132.798,192.631 131,185.5C 120.487,122.588 128.654,62.2542 155.5,4.5 Z"/></g>
<g><path style="opacity:1" fill="#000000" d="M 128.5,13.5 C 129.497,13.4701 130.164,13.9701 130.5,15C 113.656,57.5653 106.156,101.732 108,147.5C 109.393,164.903 111.06,182.236 113,199.5C 110.305,205.27 105.805,208.77 99.5,210C 82.8689,212.883 66.2022,215.55 49.5,218C 37.9267,220.809 28.4267,217.642 21,208.5C 18,204.833 15,201.167 12,197.5C 8.71894,191.21 7.71894,184.543 9,177.5C 19.9057,101.472 59.7391,46.8048 128.5,13.5 Z"/></g>
<g><path style="opacity:1" fill="#000000" d="M 390.5,202.5 C 416.906,200.457 437.739,210.123 453,231.5C 469.644,264.69 463.81,293.19 435.5,317C 410.964,331.29 386.63,330.956 362.5,316C 337.273,294.59 330.773,268.423 343,237.5C 353.377,218.398 369.211,206.731 390.5,202.5 Z"/></g>
<g><path style="opacity:1" fill="#000000" d="M 358.5,511.5 C 350.5,511.5 342.5,511.5 334.5,511.5C 319.84,506.667 305.173,501.5 290.5,496C 278.577,492.121 266.577,491.788 254.5,495C 238.418,500.637 222.418,506.137 206.5,511.5C 198.5,511.5 190.5,511.5 182.5,511.5C 168.84,507 155.173,502.167 141.5,497C 127.264,491.68 112.931,491.347 98.5,496C 86.5,500.333 74.5,504.667 62.5,509C 55.4515,510.886 49.6182,509.053 45,503.5C 36.3333,490.167 36.3333,476.833 45,463.5C 102.235,422.079 166.068,396.912 236.5,388C 302.591,382.218 365.591,393.552 425.5,422C 445.006,431.53 464.006,441.863 482.5,453C 502.92,464.837 507.754,481.337 497,502.5C 492.354,508.827 486.187,510.994 478.5,509C 466.576,504.47 454.576,500.136 442.5,496C 430.577,492.121 418.577,491.788 406.5,495C 390.413,500.639 374.413,506.139 358.5,511.5 Z"/></g>
</svg>
