<?xml version="1.0" encoding="UTF-8"?>
<!DOCTYPE svg PUBLIC "-//W3C//DTD SVG 1.1//EN" "http://www.w3.org/Graphics/SVG/1.1/DTD/svg11.dtd">
<svg xmlns="http://www.w3.org/2000/svg" version="1.1" width="512px" height="512px" style="shape-rendering:geometricPrecision; text-rendering:geometricPrecision; image-rendering:optimizeQuality; fill-rule:evenodd; clip-rule:evenodd" xmlns:xlink="http://www.w3.org/1999/xlink">
<g><path style="opacity:1" fill="#000000" d="M -0.5,287.5 C -0.5,280.833 -0.5,274.167 -0.5,267.5C 5.13768,246.863 18.471,234.529 39.5,230.5C 51.4638,231.645 60.7972,237.145 67.5,247C 77.4035,247.615 80.2369,243.448 76,234.5C 60.8129,217.042 42.3129,211.709 20.5,218.5C 9.55933,191.767 14.8927,168.934 36.5,150C 42.0223,146.489 47.8556,143.655 54,141.5C 65.8054,158.073 80.9721,162.406 99.5,154.5C 102.849,147.864 100.849,143.864 93.5,142.5C 78.4033,146.704 68.5699,141.37 64,126.5C 56.1168,96.4536 65.6168,73.9536 92.5,59C 102.792,54.871 113.459,53.5377 124.5,55C 132.156,57.3294 139.822,59.6627 147.5,62C 158.795,68.0711 164.961,77.5711 166,90.5C 166,96.5 166,102.5 166,108.5C 168.573,112.713 172.073,113.88 176.5,112C 178.487,110.681 179.654,108.848 180,106.5C 184.8,79.1022 174.967,59.1022 150.5,46.5C 167.287,19.0697 190.953,10.5697 221.5,21C 234.419,26.9181 243.585,36.4181 249,49.5C 249.667,85.5 249.667,121.5 249,157.5C 232.89,149.867 217.557,151.201 203,161.5C 200.204,167.907 202.204,171.907 209,173.5C 212.662,172.42 216.162,170.92 219.5,169C 230.317,165.773 240.15,167.606 249,174.5C 249.833,200.506 249.667,226.506 248.5,252.5C 233.19,246.233 218.524,247.4 204.5,256C 199.728,262.309 201.062,266.809 208.5,269.5C 212.798,267.687 217.131,265.854 221.5,264C 231.829,261.703 240.996,263.869 249,270.5C 249.667,335.833 249.667,401.167 249,466.5C 237.971,487.098 220.805,496.265 197.5,494C 190.942,493.037 184.942,490.704 179.5,487C 194.683,472.435 198.516,455.268 191,435.5C 187.066,428.842 182.4,428.176 177,433.5C 176.266,438.027 176.933,442.361 179,446.5C 181.294,459.288 177.461,469.788 167.5,478C 150.329,490.203 132.329,491.537 113.5,482C 98.1585,472.492 90.1585,458.659 89.5,440.5C 105.104,437.45 118.271,430.117 129,418.5C 131.26,414.484 133.093,410.317 134.5,406C 131.325,397.612 126.491,396.446 120,402.5C 116.526,411.308 110.359,417.474 101.5,421C 78.0121,431.836 57.5121,427.669 40,408.5C 27.5079,391.229 24.8413,372.562 32,352.5C 35.5521,345.217 39.7188,338.384 44.5,332C 43.6392,329.132 41.9725,326.798 39.5,325C 18.5338,320.531 5.2005,308.031 -0.5,287.5 Z M 123.5,188.5 C 142.274,186.641 157.107,193.307 168,208.5C 170.864,215.953 168.364,219.786 160.5,220C 156.226,216.73 152.226,213.064 148.5,209C 141.197,204.176 133.197,202.509 124.5,204C 119.609,205.696 114.776,207.529 110,209.5C 103.002,207.839 101.169,203.839 104.5,197.5C 110.283,193.106 116.616,190.106 123.5,188.5 Z M 87.5,290.5 C 91.594,289.705 94.7607,291.038 97,294.5C 94.4311,309.477 98.9311,321.644 110.5,331C 113.948,332.927 117.615,334.261 121.5,335C 127.759,339.167 128.092,343.833 122.5,349C 103.277,347.129 90.4433,336.963 84,318.5C 82.0355,310.153 82.0355,301.82 84,293.5C 85.1451,292.364 86.3117,291.364 87.5,290.5 Z M 155.5,293.5 C 158.617,293.642 161.117,294.976 163,297.5C 166.885,317.244 178.719,326.578 198.5,325.5C 207.1,328.498 208.433,333.332 202.5,340C 177.557,343.107 160.39,332.941 151,309.5C 149.723,305.903 149.39,302.236 150,298.5C 151.107,295.887 152.94,294.22 155.5,293.5 Z"/></g>
<g><path style="opacity:1" fill="#000000" d="M 320.5,47.5 C 338.778,45.6315 350.944,53.2981 357,70.5C 359.383,92.7606 349.549,105.427 327.5,108.5C 325.571,108.46 323.738,108.127 322,107.5C 317.75,113.665 313.75,119.998 310,126.5C 309.097,127.701 307.931,128.535 306.5,129C 291.837,129.5 277.17,129.667 262.5,129.5C 262.5,122.5 262.5,115.5 262.5,108.5C 273.748,108.821 284.915,108.487 296,107.5C 298.167,103.833 300.333,100.167 302.5,96.5C 292.939,80.3861 294.939,65.8861 308.5,53C 312.481,50.8381 316.481,49.0048 320.5,47.5 Z"/></g>
<g><path style="opacity:1" fill="#000000" d="M 392.5,47.5 C 417.976,46.8087 430.143,59.142 429,84.5C 426.379,95.0954 420.046,102.429 410,106.5C 409.963,119.595 409.296,132.595 408,145.5C 398.624,155.874 389.624,166.54 381,177.5C 379.127,179.709 376.96,181.542 374.5,183C 337.168,183.5 299.835,183.667 262.5,183.5C 262.5,176.5 262.5,169.5 262.5,162.5C 296.502,162.667 330.502,162.5 364.5,162C 372.333,152.833 380.167,143.667 388,134.5C 388.667,125.167 388.667,115.833 388,106.5C 373.071,99.651 366.738,87.9843 369,71.5C 372.349,58.9853 380.182,50.9853 392.5,47.5 Z"/></g>
<g><path style="opacity:1" fill="#000000" d="M 511.5,160.5 C 511.5,165.833 511.5,171.167 511.5,176.5C 503.866,194.984 490.2,201.817 470.5,197C 461.886,193.888 456.219,188.054 453.5,179.5C 444.161,179.334 434.827,179.5 425.5,180C 413,194.5 400.5,209 388,223.5C 386.127,225.709 383.96,227.542 381.5,229C 341.835,229.5 302.168,229.667 262.5,229.5C 262.5,222.5 262.5,215.5 262.5,208.5C 298.835,208.667 335.168,208.5 371.5,208C 385.5,192 399.5,176 413.5,160C 414.833,159.333 416.167,158.667 417.5,158C 429.167,157.667 440.833,157.333 452.5,157C 463.626,137.3 479.293,132.633 499.5,143C 505.153,147.84 509.153,153.673 511.5,160.5 Z"/></g>
<g><path style="opacity:1" fill="#000000" d="M 511.5,334.5 C 511.5,339.833 511.5,345.167 511.5,350.5C 505.365,367.099 493.365,374.599 475.5,373C 464.824,370.325 457.157,363.992 452.5,354C 440.833,353.667 429.167,353.333 417.5,353C 416.167,352.333 414.833,351.667 413.5,351C 399.5,335 385.5,319 371.5,303C 335.168,302.5 298.835,302.333 262.5,302.5C 262.5,295.5 262.5,288.5 262.5,281.5C 302.168,281.333 341.835,281.5 381.5,282C 383.96,283.458 386.127,285.291 388,287.5C 400.5,302 413,316.5 425.5,331C 434.827,331.5 444.161,331.666 453.5,331.5C 458.414,318.956 467.747,312.623 481.5,312.5C 496.336,313.347 506.336,320.68 511.5,334.5 Z"/></g>
<g><path style="opacity:1" fill="#000000" d="M 262.5,327.5 C 300.586,327.012 338.586,327.512 376.5,329C 387.374,340.872 397.874,353.038 408,365.5C 409.296,378.405 409.963,391.405 410,404.5C 426.496,412.5 432.496,425.5 428,443.5C 419.901,460.298 406.735,466.464 388.5,462C 373.266,455.037 366.766,443.204 369,426.5C 371.431,415.74 377.764,408.406 388,404.5C 388.667,395.167 388.667,385.833 388,376.5C 380.167,367.333 372.333,358.167 364.5,349C 330.502,348.5 296.502,348.333 262.5,348.5C 262.5,341.5 262.5,334.5 262.5,327.5 Z"/></g>
<g><path style="opacity:1" fill="#000000" d="M 262.5,381.5 C 277.93,381.032 293.263,381.532 308.5,383C 313.124,389.748 317.624,396.581 322,403.5C 343.459,401.619 355.293,411.452 357.5,433C 357.028,448.476 349.362,458.476 334.5,463C 308.996,464.828 296.496,452.995 297,427.5C 297.767,422.695 299.6,418.361 302.5,414.5C 300.333,410.833 298.167,407.167 296,403.5C 284.915,402.513 273.748,402.179 262.5,402.5C 262.5,395.5 262.5,388.5 262.5,381.5 Z"/></g>
</svg>
