<?xml version="1.0" encoding="UTF-8"?>
<svg version="1.1" xmlns="http://www.w3.org/2000/svg" width="512" height="512">
<path d="M0 0 C1.05445313 0.56460938 2.10890625 1.12921875 3.1953125 1.7109375 C20.47189276 11.31906177 36.20222088 25.16555166 48 41 C48.71285156 41.93585938 49.42570312 42.87171875 50.16015625 43.8359375 C74.67407747 77.47232323 84.29156535 119.11516323 78.34204102 160.12451172 C72.03239412 200.25086988 50.01804014 237.21243928 17.20214844 261.32080078 C-10.11884666 280.79736966 -41.47869091 291.46977283 -75.1875 291.3125 C-76.45053955 291.30758545 -77.7135791 291.3026709 -79.01489258 291.29760742 C-89.25346151 291.17030264 -99.02278366 290.2955436 -109 288 C-109.74749512 287.82839355 -110.49499023 287.65678711 -111.26513672 287.47998047 C-150.7163165 278.08124294 -185.96798529 253.55847514 -207.32666016 218.84375 C-215.24300213 205.64125134 -220.92106353 192.13477516 -225.25 177.375 C-225.4965332 176.54057373 -225.74306641 175.70614746 -225.99707031 174.84643555 C-229.38249649 162.80897448 -230.35103232 151.00797843 -230.31567383 138.57226562 C-230.31252247 136.2664412 -230.33604239 133.96191638 -230.36132812 131.65625 C-230.42142881 117.74687706 -228.4485016 104.37611411 -224.3125 91.0625 C-224.05831299 90.23532471 -223.80412598 89.40814941 -223.54223633 88.5559082 C-216.17817527 65.41014192 -203.83314852 43.68124659 -186 27 C-184.33197556 25.33469221 -182.66541589 23.66791651 -181 22 C-168.34835788 9.39139068 -153.26011901 0.24388302 -137 -7 C-136.37867188 -7.27682617 -135.75734375 -7.55365234 -135.1171875 -7.83886719 C-91.97681834 -26.54355653 -40.76324094 -22.4483282 0 0 Z M-85.64453125 60.4375 C-89.71384937 65.12835662 -90.1296672 68.82214761 -90.17700195 74.83886719 C-90.18357315 75.5303183 -90.19014435 76.22176941 -90.19691467 76.93417358 C-90.21661898 79.22174188 -90.22830469 81.50924457 -90.23828125 83.796875 C-90.24235678 84.57973122 -90.2464323 85.36258743 -90.25063133 86.16916656 C-90.27148127 90.31394689 -90.28578682 94.45869422 -90.29516602 98.60351562 C-90.30621973 102.87511737 -90.34061025 107.14619666 -90.38033772 111.41761398 C-90.40654027 114.71027566 -90.41486112 118.00281361 -90.41844749 121.29557037 C-90.42330519 122.86957573 -90.43489591 124.44357587 -90.45348549 126.01747894 C-90.47795279 128.22658631 -90.47689885 130.43435204 -90.4699707 132.64355469 C-90.47583694 133.89803406 -90.48170319 135.15251343 -90.48774719 136.44500732 C-89.66977359 142.40688721 -86.67941327 146.70871406 -82.41235352 150.92822266 C-81.72806778 151.6122818 -81.04378204 152.29634094 -80.33876038 153.00112915 C-79.60950851 153.71489716 -78.88025665 154.42866516 -78.12890625 155.1640625 C-77.36956284 155.91916107 -76.61021942 156.67425964 -75.8278656 157.45223999 C-73.41306978 159.85033864 -70.98804534 162.23777939 -68.5625 164.625 C-66.93615636 166.2362804 -65.31049823 167.84825302 -63.68554688 169.4609375 C-60.05343019 173.06333528 -56.41496825 176.65916305 -52.76931763 180.24786377 C-51.21319463 181.78887565 -49.67501722 183.3453922 -48.14038086 184.90771484 C-45.2096429 187.77259728 -43.07172447 188.86082465 -38.96484375 189.13671875 C-33.075672 188.94479034 -29.75980923 186.91229234 -25.6015625 182.8203125 C-22.40903881 179.19173679 -21.80803922 176.42090971 -21.9375 171.6875 C-22.87069971 165.9633804 -25.82865975 162.88128435 -30 159 C-31.63849401 157.83237661 -33.27871714 156.6666573 -34.94241333 155.53523254 C-45.17198107 148.48583468 -55.88303537 140.17958411 -58.80169678 127.52368164 C-61.11048271 111.36918037 -60.30683839 94.65081064 -59.22233582 78.41705322 C-58.75485857 70.66439735 -59.25527917 66.45050619 -64.1875 60.25 C-70.81563259 54.94749393 -79.02596899 54.65215341 -85.64453125 60.4375 Z " fill="#000000" transform="translate(406,120)"/>
<path d="M0 0 C1.35410477 -0.0129007 1.35410477 -0.0129007 2.73556519 -0.02606201 C3.7236618 -0.03032196 4.71175842 -0.03458191 5.72979736 -0.03897095 C6.77237701 -0.04714844 7.81495667 -0.05532593 8.88912964 -0.06375122 C12.34545313 -0.08859951 15.80173558 -0.10511965 19.25811768 -0.11953735 C20.43814613 -0.12486103 21.61817459 -0.13018471 22.83396149 -0.13566971 C29.07950694 -0.1623985 35.32503243 -0.18177453 41.57061768 -0.19619751 C48.02144814 -0.21284691 54.4717679 -0.2576287 60.92240524 -0.30856895 C65.88269641 -0.34222306 70.84286605 -0.35377297 75.8032608 -0.35942459 C78.18110305 -0.36614177 80.55893717 -0.3813758 82.9366684 -0.4053154 C86.26657256 -0.4369295 89.59509505 -0.43700869 92.92510986 -0.42959595 C93.90510956 -0.44600128 94.88510925 -0.46240662 95.89480591 -0.47930908 C102.43079773 -0.41982485 105.67896695 0.78351451 110.58624268 5.15390015 C113.67353408 9.43627209 114.16761365 13.4599021 114.00421143 18.6187439 C113.16349343 23.71805211 110.61175864 27.51200163 106.63652039 30.73435974 C102.17461451 32.81084467 98.06542896 32.58024703 93.19976807 32.55795288 C91.63305107 32.56824776 91.63305107 32.56824776 90.03468323 32.57875061 C86.58428326 32.59704219 83.13433695 32.5931776 79.68389893 32.5874939 C77.28403068 32.59205455 74.88416374 32.59735977 72.48429871 32.6033783 C67.45483087 32.61231406 62.42552178 32.60988085 57.39605713 32.59994507 C50.95193958 32.58845497 44.50836994 32.60866579 38.06432438 32.63786221 C33.10833762 32.65621118 28.15248247 32.65593429 23.19647026 32.65022469 C20.82062448 32.65007131 18.44476987 32.65612878 16.06895638 32.66851616 C12.74632553 32.6833991 9.42471094 32.67276783 6.10211182 32.65560913 C4.6314325 32.67011108 4.6314325 32.67011108 3.13104248 32.68490601 C-2.56582567 32.62332455 -5.91713775 32.00242743 -10.41375732 28.15390015 C-14.49730549 23.62888732 -15.73005151 20.36324725 -15.62860107 14.20858765 C-15.03341729 8.51646633 -11.56343828 4.78487098 -7.41375732 1.15390015 C-4.61557505 0.22117272 -2.89471172 0.02055924 0 0 Z " fill="#000000" transform="translate(41.41375732421875,239.84609985351563)"/>
<path d="M0 0 C1.20167313 -0.00960754 2.40334625 -0.01921509 3.64143372 -0.02911377 C4.94142807 -0.03336365 6.24142242 -0.03761353 7.58081055 -0.04199219 C8.92978415 -0.04774712 10.27875774 -0.05350481 11.62773132 -0.05926514 C14.45641459 -0.069766 17.28506952 -0.07561441 20.11376953 -0.07910156 C23.7284919 -0.08457964 27.34283634 -0.10859634 30.95744038 -0.13707352 C33.7447975 -0.15575098 36.53206459 -0.16090823 39.31947899 -0.16243744 C41.29695883 -0.16691553 43.27439038 -0.18553813 45.25178528 -0.20440674 C46.46291489 -0.20140564 47.67404449 -0.19840454 48.921875 -0.1953125 C49.98316116 -0.19895813 51.04444733 -0.20260376 52.13789368 -0.20635986 C56.32790253 0.30399093 59.70252323 1.80523048 62.79956055 4.69628906 C67.53963356 10.89484608 68.02973654 15.38816616 67.1550293 23.16113281 C64.9412699 28.63827891 61.48340115 30.83662392 56.1550293 33.16113281 C53.08215332 33.54208374 53.08215332 33.54208374 49.78588867 33.54931641 C48.54440063 33.55877289 47.3029126 33.56822937 46.02380371 33.57797241 C44.68212563 33.57260218 43.34045049 33.56644909 41.9987793 33.55957031 C40.60925138 33.56159378 39.2197245 33.56450748 37.8302002 33.56826782 C34.9251896 33.57267841 32.0204567 33.56630137 29.11547852 33.55224609 C25.40325565 33.53515455 21.69168359 33.54500259 17.97948456 33.56296349 C15.11231639 33.57383586 12.24530097 33.57033927 9.37812805 33.56258011 C8.00987164 33.56058762 6.64160109 33.56300377 5.27336121 33.57001877 C3.35696704 33.57768938 1.44052385 33.56391338 -0.47583008 33.54931641 C-1.56359741 33.54692963 -2.65136475 33.54454285 -3.77209473 33.54208374 C-8.53524848 32.9515855 -11.80797096 31.25574365 -15.0949707 27.78613281 C-18.37642752 22.86394759 -19.45114828 19.121879 -18.8449707 13.16113281 C-16.92778973 7.34423144 -14.35009651 4.08939122 -8.8449707 1.16113281 C-5.65670453 0.09837742 -3.35099718 0.02160793 0 0 Z " fill="#000000" transform="translate(108.844970703125,153.8388671875)"/>
<path d="M0 0 C1.23525925 -0.01606293 2.47051849 -0.03212585 3.74320984 -0.04867554 C5.09418038 -0.06016551 6.44515867 -0.07077362 7.79614258 -0.08056641 C8.47845758 -0.08589008 9.16077259 -0.09121376 9.86376381 -0.09669876 C13.47801208 -0.12340712 17.09222616 -0.14278603 20.70654297 -0.15722656 C23.68732553 -0.17054233 26.66741967 -0.19835243 29.64794922 -0.23925781 C33.25656682 -0.28877509 36.86456224 -0.31337079 40.47350502 -0.32045364 C41.84296782 -0.32713549 43.21241841 -0.34227731 44.58168602 -0.36634445 C52.57256882 -0.49874166 58.89053919 -0.40573886 65.00317383 5.19287109 C68.63411493 9.68661008 68.50551476 13.72830918 68.35473633 19.31396484 C67.72024893 24.50971168 65.21487653 27.07204609 61.50317383 30.50537109 C57.46086461 33.23392981 53.98310254 33.3239832 49.16821289 33.36987305 C47.4055307 33.3891259 47.4055307 33.3891259 45.60723877 33.4087677 C44.34055359 33.41615463 43.07386841 33.42354156 41.76879883 33.43115234 C40.46166931 33.43922409 39.15453979 33.44729584 37.80780029 33.45561218 C35.04056938 33.4706131 32.27336387 33.48046306 29.50610352 33.48803711 C25.9778039 33.49908331 22.45013809 33.53347256 18.92206192 33.57320881 C15.53766748 33.60579093 12.15333791 33.61016331 8.76879883 33.61865234 C7.51021057 33.63616043 6.25162231 33.65366852 4.95489502 33.67170715 C-2.1729166 33.65415022 -6.98659196 33.14516616 -12.99682617 29.19287109 C-17.16597274 23.95471259 -18.54410042 19.86961687 -17.99682617 13.19287109 C-16.18690005 7.92047762 -13.76230236 4.24766352 -8.99682617 1.19287109 C-5.77547799 0.11908837 -3.3888491 0.04004238 0 0 Z " fill="#000000" transform="translate(107.996826171875,324.80712890625)"/>
</svg>
