<?xml version="1.0" encoding="UTF-8"?>
<svg version="1.1" xmlns="http://www.w3.org/2000/svg" width="512" height="512">
<path d="M0 0 C1.60194187 1.35327443 3.18537254 2.72875132 4.75 4.125 C5.56984375 4.85074219 6.3896875 5.57648438 7.234375 6.32421875 C24.34044969 22.39436656 35.77986152 46.54641703 36.75 70.125 C36.78996094 71.02089844 36.82992188 71.91679687 36.87109375 72.83984375 C37.457858 99.10617294 27.72764285 122.49781592 10.75 142.125 C10.16734375 142.80949219 9.5846875 143.49398437 8.984375 144.19921875 C4.79079388 148.74226496 -0.30014428 152.16438866 -5.36450195 155.66308594 C-8.22032425 157.63684189 -10.92494246 159.53037057 -13.25 162.125 C-12.280625 162.4653125 -11.31125 162.805625 -10.3125 163.15625 C11.14556493 170.84611097 30.97134784 181.56688082 47.75 197.125 C48.3466748 197.6725293 48.94334961 198.22005859 49.55810547 198.78417969 C81.37340774 228.28850322 99.16102105 269.10182284 100.87597656 312.2980957 C100.95328692 315.49106239 100.98440133 318.68117265 101 321.875 C101.0309375 323.48181641 101.0309375 323.48181641 101.0625 325.12109375 C101.09512485 331.7520936 101.01274888 338.34631262 96.43920898 343.64306641 C89.75489386 349.68296617 82.48208227 349.41450323 73.99685669 349.38569641 C72.80497738 349.38952196 71.61309807 349.39334751 70.3851012 349.39728898 C67.08476616 349.40581423 63.78465424 349.4053884 60.48432565 349.40110838 C56.92186072 349.3986403 53.3594219 349.40765636 49.79696655 349.41514587 C42.82069967 349.42789277 35.84447128 349.42968657 28.86819471 349.42734561 C23.19715836 349.42556223 17.52613368 349.42731253 11.85509872 349.43157005 C11.04781597 349.43216524 10.24053321 349.43276043 9.40878733 349.43337366 C7.76875838 349.43458541 6.12872944 349.43579955 4.48870049 349.43701603 C-10.89042091 349.4478916 -26.26952039 349.44572904 -41.64864303 349.43963119 C-55.71404628 349.43446241 -69.77938027 349.44571639 -83.84476982 349.46472941 C-98.29108349 349.48410746 -112.73736439 349.49236384 -127.18369114 349.48860615 C-135.29259783 349.48669401 -143.40144556 349.48918295 -151.51034164 349.50332069 C-158.41380814 349.51523507 -165.3171794 349.5166388 -172.2206472 349.50453053 C-175.7416552 349.49864211 -179.26248902 349.49754121 -182.78348541 349.50953293 C-186.60337302 349.52239122 -190.42299678 349.51192625 -194.2428894 349.4992218 C-195.90603158 349.51028323 -195.90603158 349.51028323 -197.60277259 349.52156812 C-204.09267291 349.47613324 -210.59250696 349.27996137 -215.76901519 344.81469423 C-221.77624997 338.15972778 -221.57461321 330.89366351 -221.5 322.4375 C-221.49250732 321.32407227 -221.48501465 320.21064453 -221.47729492 319.06347656 C-220.91792582 275.501436 -205.86108564 235.44488068 -175.25 204.125 C-174.39019531 203.20332031 -173.53039062 202.28164063 -172.64453125 201.33203125 C-154.93932556 182.7899473 -131.54248264 169.87379829 -107.25 162.125 C-109.68828692 159.50162859 -112.3819183 157.54929885 -115.3125 155.5 C-137.98406725 139.054921 -152.14309518 116.61057506 -156.5625 88.875 C-159.71874866 61.89514367 -152.32641891 36.57715013 -135.734375 15.11328125 C-119.39959585 -4.53468423 -96.99596896 -17.3382626 -71.578125 -20.59375 C-45.48896536 -22.79846772 -20.82393908 -16.08827692 0 0 Z " fill="#000000" transform="translate(316.25,99.875)"/>
<path d="M0 0 C3.3 0 6.6 0 10 0 C10 0.33 10 0.66 10 1 C6.7 1 3.4 1 0 1 C0 0.67 0 0.34 0 0 Z " fill="#000000" transform="translate(251,77)"/>
<path d="M0 0 C0.33 0 0.66 0 1 0 C1 2.97 1 5.94 1 9 C0.67 9 0.34 9 0 9 C0 6.03 0 3.06 0 0 Z " fill="#000000" transform="translate(94,398)"/>
<path d="M0 0 C0.33 0 0.66 0 1 0 C1 2.64 1 5.28 1 8 C0.67 8 0.34 8 0 8 C0 5.36 0 2.72 0 0 Z " fill="#000000" transform="translate(417,399)"/>
<path d="M0 0 C0.33 0 0.66 0 1 0 C1 2.31 1 4.62 1 7 C0.67 7 0.34 7 0 7 C0 4.69 0 2.38 0 0 Z " fill="#000000" transform="translate(353,183)"/>
<path d="M0 0 C0.33 0 0.66 0 1 0 C1 2.31 1 4.62 1 7 C0.67 7 0.34 7 0 7 C0 4.69 0 2.38 0 0 Z " fill="#000000" transform="translate(158,183)"/>
<path d="M0 0 C0.33 0 0.66 0 1 0 C1 2.31 1 4.62 1 7 C0.67 7 0.34 7 0 7 C0 4.69 0 2.38 0 0 Z " fill="#000000" transform="translate(353,162)"/>
<path d="M0 0 C0.33 0 0.66 0 1 0 C1 2.31 1 4.62 1 7 C0.67 7 0.34 7 0 7 C0 4.69 0 2.38 0 0 Z " fill="#000000" transform="translate(158,162)"/>
<path d="M0 0 C1.98 0 3.96 0 6 0 C6 0.33 6 0.66 6 1 C4.02 1 2.04 1 0 1 C0 0.67 0 0.34 0 0 Z " fill="#000000" transform="translate(265,78)"/>
<path d="M0 0 C1.98 0 3.96 0 6 0 C6 0.33 6 0.66 6 1 C4.02 1 2.04 1 0 1 C0 0.67 0 0.34 0 0 Z " fill="#000000" transform="translate(241,78)"/>
<path d="M0 0 C0.33 0 0.66 0 1 0 C1 1.65 1 3.3 1 5 C0.67 5 0.34 5 0 5 C0 3.35 0 1.7 0 0 Z " fill="#000000" transform="translate(416,391)"/>
<path d="M0 0 C0.33 0 0.66 0 1 0 C1 1.65 1 3.3 1 5 C0.67 5 0.34 5 0 5 C0 3.35 0 1.7 0 0 Z " fill="#000000" transform="translate(95,391)"/>
<path d="M0 0 C0.66 0 1.32 0 2 0 C2 0.66 2 1.32 2 2 C1.01 1.67 0.02 1.34 -1 1 C-0.67 0.67 -0.34 0.34 0 0 Z " fill="#000000" transform="translate(304,260)"/>
<path d="M0 0 C0.99 0.33 1.98 0.66 3 1 C2.01 1.33 1.02 1.66 0 2 C0 1.34 0 0.68 0 0 Z " fill="#000000" transform="translate(206,260)"/>
<path d="M0 0 C1 4 1 4 1 4 Z " fill="#000000" transform="translate(415,385)"/>
<path d="M0 0 C1 4 1 4 1 4 Z " fill="#000000" transform="translate(96,385)"/>
<path d="M0 0 C1 4 1 4 1 4 Z " fill="#000000" transform="translate(413,376)"/>
<path d="M0 0 C1 4 1 4 1 4 Z " fill="#000000" transform="translate(352,191)"/>
<path d="M0 0 C1 4 1 4 1 4 Z " fill="#000000" transform="translate(159,191)"/>
<path d="M0 0 C1 4 1 4 1 4 Z " fill="#000000" transform="translate(352,156)"/>
<path d="M0 0 C1 4 1 4 1 4 Z " fill="#000000" transform="translate(159,156)"/>
<path d="M0 0 C4 1 4 1 4 1 Z " fill="#000000" transform="translate(272,79)"/>
<path d="M0 0 C4 1 4 1 4 1 Z " fill="#000000" transform="translate(236,79)"/>
<path d="M0 0 C3 1 3 1 3 1 Z " fill="#000000" transform="translate(403,449)"/>
<path d="M0 0 C3 1 3 1 3 1 Z " fill="#000000" transform="translate(106,449)"/>
<path d="" fill="#000000" transform="translate(0,0)"/>
<path d="" fill="#000000" transform="translate(0,0)"/>
<path d="" fill="#000000" transform="translate(0,0)"/>
<path d="" fill="#000000" transform="translate(0,0)"/>
<path d="" fill="#000000" transform="translate(0,0)"/>
<path d="" fill="#000000" transform="translate(0,0)"/>
<path d="" fill="#000000" transform="translate(0,0)"/>
<path d="" fill="#000000" transform="translate(0,0)"/>
<path d="" fill="#000000" transform="translate(0,0)"/>
<path d="" fill="#000000" transform="translate(0,0)"/>
<path d="" fill="#000000" transform="translate(0,0)"/>
<path d="" fill="#000000" transform="translate(0,0)"/>
<path d="" fill="#000000" transform="translate(0,0)"/>
<path d="" fill="#000000" transform="translate(0,0)"/>
<path d="" fill="#000000" transform="translate(0,0)"/>
<path d="" fill="#000000" transform="translate(0,0)"/>
<path d="" fill="#000000" transform="translate(0,0)"/>
<path d="" fill="#000000" transform="translate(0,0)"/>
<path d="" fill="#000000" transform="translate(0,0)"/>
<path d="" fill="#000000" transform="translate(0,0)"/>
<path d="" fill="#000000" transform="translate(0,0)"/>
<path d="M0 0 C3 1 3 1 3 1 Z " fill="#000000" transform="translate(281,81)"/>
<path d="M0 0 C3 1 3 1 3 1 Z " fill="#000000" transform="translate(228,81)"/>
<path d="M0 0 C3 1 3 1 3 1 Z " fill="#000000" transform="translate(277,80)"/>
<path d="M0 0 C3 1 3 1 3 1 Z " fill="#000000" transform="translate(232,80)"/>
<path d="M0 0 C2 1 2 1 2 1 Z " fill="#000000" transform="translate(406,448)"/>
<path d="M0 0 C2 1 2 1 2 1 Z " fill="#000000" transform="translate(104,448)"/>
<path d="M0 0 C2 1 2 1 2 1 Z " fill="#000000" transform="translate(408,447)"/>
<path d="M0 0 C2 1 2 1 2 1 Z " fill="#000000" transform="translate(102,447)"/>
<path d="" fill="#000000" transform="translate(0,0)"/>
<path d="" fill="#000000" transform="translate(0,0)"/>
<path d="" fill="#000000" transform="translate(0,0)"/>
<path d="" fill="#000000" transform="translate(0,0)"/>
<path d="" fill="#000000" transform="translate(0,0)"/>
<path d="" fill="#000000" transform="translate(0,0)"/>
<path d="" fill="#000000" transform="translate(0,0)"/>
<path d="" fill="#000000" transform="translate(0,0)"/>
<path d="" fill="#000000" transform="translate(0,0)"/>
<path d="" fill="#000000" transform="translate(0,0)"/>
<path d="" fill="#000000" transform="translate(0,0)"/>
<path d="" fill="#000000" transform="translate(0,0)"/>
<path d="" fill="#000000" transform="translate(0,0)"/>
<path d="" fill="#000000" transform="translate(0,0)"/>
<path d="" fill="#000000" transform="translate(0,0)"/>
<path d="" fill="#000000" transform="translate(0,0)"/>
<path d="" fill="#000000" transform="translate(0,0)"/>
<path d="" fill="#000000" transform="translate(0,0)"/>
<path d="" fill="#000000" transform="translate(0,0)"/>
<path d="" fill="#000000" transform="translate(0,0)"/>
<path d="" fill="#000000" transform="translate(0,0)"/>
<path d="" fill="#000000" transform="translate(0,0)"/>
<path d="" fill="#000000" transform="translate(0,0)"/>
<path d="" fill="#000000" transform="translate(0,0)"/>
<path d="" fill="#000000" transform="translate(0,0)"/>
<path d="" fill="#000000" transform="translate(0,0)"/>
<path d="" fill="#000000" transform="translate(0,0)"/>
<path d="" fill="#000000" transform="translate(0,0)"/>
<path d="" fill="#000000" transform="translate(0,0)"/>
<path d="" fill="#000000" transform="translate(0,0)"/>
<path d="" fill="#000000" transform="translate(0,0)"/>
<path d="" fill="#000000" transform="translate(0,0)"/>
<path d="" fill="#000000" transform="translate(0,0)"/>
<path d="" fill="#000000" transform="translate(0,0)"/>
<path d="" fill="#000000" transform="translate(0,0)"/>
<path d="" fill="#000000" transform="translate(0,0)"/>
<path d="M0 0 C2 1 2 1 2 1 Z " fill="#000000" transform="translate(366,298)"/>
<path d="M0 0 C2 1 2 1 2 1 Z " fill="#000000" transform="translate(144,298)"/>
<path d="M0 0 C2 1 2 1 2 1 Z " fill="#000000" transform="translate(353,287)"/>
<path d="M0 0 C2 1 2 1 2 1 Z " fill="#000000" transform="translate(157,287)"/>
<path d="M0 0 C2 1 2 1 2 1 Z " fill="#000000" transform="translate(349,284)"/>
<path d="M0 0 C2 1 2 1 2 1 Z " fill="#000000" transform="translate(161,284)"/>
<path d="M0 0 C2 1 2 1 2 1 Z " fill="#000000" transform="translate(340,278)"/>
<path d="M0 0 C2 1 2 1 2 1 Z " fill="#000000" transform="translate(170,278)"/>
<path d="M0 0 C2 1 2 1 2 1 Z " fill="#000000" transform="translate(337,276)"/>
<path d="M0 0 C2 1 2 1 2 1 Z " fill="#000000" transform="translate(173,276)"/>
<path d="M0 0 C2 1 2 1 2 1 Z " fill="#000000" transform="translate(335,275)"/>
<path d="M0 0 C2 1 2 1 2 1 Z " fill="#000000" transform="translate(175,275)"/>
<path d="M0 0 C2 1 2 1 2 1 Z " fill="#000000" transform="translate(328,271)"/>
<path d="M0 0 C2 1 2 1 2 1 Z " fill="#000000" transform="translate(182,271)"/>
<path d="M0 0 C2 1 2 1 2 1 Z " fill="#000000" transform="translate(326,270)"/>
<path d="M0 0 C2 1 2 1 2 1 Z " fill="#000000" transform="translate(184,270)"/>
<path d="M0 0 C2 1 2 1 2 1 Z " fill="#000000" transform="translate(324,269)"/>
<path d="M0 0 C2 1 2 1 2 1 Z " fill="#000000" transform="translate(186,269)"/>
<path d="M0 0 C2 1 2 1 2 1 Z " fill="#000000" transform="translate(319,267)"/>
<path d="M0 0 C2 1 2 1 2 1 Z " fill="#000000" transform="translate(191,267)"/>
<path d="M0 0 C2 1 2 1 2 1 Z " fill="#000000" transform="translate(317,266)"/>
<path d="M0 0 C2 1 2 1 2 1 Z " fill="#000000" transform="translate(193,266)"/>
<path d="M0 0 C2 1 2 1 2 1 Z " fill="#000000" transform="translate(314,265)"/>
<path d="M0 0 C2 1 2 1 2 1 Z " fill="#000000" transform="translate(196,265)"/>
<path d="M0 0 C2 1 2 1 2 1 Z " fill="#000000" transform="translate(312,264)"/>
<path d="M0 0 C2 1 2 1 2 1 Z " fill="#000000" transform="translate(198,264)"/>
<path d="M0 0 C2 1 2 1 2 1 Z " fill="#000000" transform="translate(309,263)"/>
<path d="M0 0 C2 1 2 1 2 1 Z " fill="#000000" transform="translate(201,263)"/>
<path d="M0 0 C2 1 2 1 2 1 Z " fill="#000000" transform="translate(306,262)"/>
<path d="M0 0 C2 1 2 1 2 1 Z " fill="#000000" transform="translate(204,262)"/>
<path d="M0 0 C2 1 2 1 2 1 Z " fill="#000000" transform="translate(309,257)"/>
<path d="M0 0 C2 1 2 1 2 1 Z " fill="#000000" transform="translate(201,257)"/>
<path d="M0 0 C2 1 2 1 2 1 Z " fill="#000000" transform="translate(317,251)"/>
<path d="M0 0 C2 1 2 1 2 1 Z " fill="#000000" transform="translate(193,251)"/>
<path d="" fill="#000000" transform="translate(0,0)"/>
<path d="" fill="#000000" transform="translate(0,0)"/>
<path d="" fill="#000000" transform="translate(0,0)"/>
<path d="" fill="#000000" transform="translate(0,0)"/>
<path d="" fill="#000000" transform="translate(0,0)"/>
<path d="" fill="#000000" transform="translate(0,0)"/>
<path d="" fill="#000000" transform="translate(0,0)"/>
<path d="" fill="#000000" transform="translate(0,0)"/>
<path d="" fill="#000000" transform="translate(0,0)"/>
<path d="" fill="#000000" transform="translate(0,0)"/>
<path d="" fill="#000000" transform="translate(0,0)"/>
<path d="" fill="#000000" transform="translate(0,0)"/>
<path d="" fill="#000000" transform="translate(0,0)"/>
<path d="" fill="#000000" transform="translate(0,0)"/>
<path d="" fill="#000000" transform="translate(0,0)"/>
<path d="" fill="#000000" transform="translate(0,0)"/>
<path d="" fill="#000000" transform="translate(0,0)"/>
<path d="" fill="#000000" transform="translate(0,0)"/>
<path d="" fill="#000000" transform="translate(0,0)"/>
<path d="" fill="#000000" transform="translate(0,0)"/>
<path d="" fill="#000000" transform="translate(0,0)"/>
<path d="" fill="#000000" transform="translate(0,0)"/>
<path d="" fill="#000000" transform="translate(0,0)"/>
<path d="" fill="#000000" transform="translate(0,0)"/>
<path d="" fill="#000000" transform="translate(0,0)"/>
<path d="" fill="#000000" transform="translate(0,0)"/>
<path d="" fill="#000000" transform="translate(0,0)"/>
<path d="" fill="#000000" transform="translate(0,0)"/>
<path d="" fill="#000000" transform="translate(0,0)"/>
<path d="" fill="#000000" transform="translate(0,0)"/>
<path d="" fill="#000000" transform="translate(0,0)"/>
<path d="" fill="#000000" transform="translate(0,0)"/>
<path d="" fill="#000000" transform="translate(0,0)"/>
<path d="" fill="#000000" transform="translate(0,0)"/>
<path d="" fill="#000000" transform="translate(0,0)"/>
<path d="" fill="#000000" transform="translate(0,0)"/>
<path d="" fill="#000000" transform="translate(0,0)"/>
<path d="" fill="#000000" transform="translate(0,0)"/>
<path d="" fill="#000000" transform="translate(0,0)"/>
<path d="" fill="#000000" transform="translate(0,0)"/>
<path d="" fill="#000000" transform="translate(0,0)"/>
<path d="" fill="#000000" transform="translate(0,0)"/>
<path d="" fill="#000000" transform="translate(0,0)"/>
<path d="" fill="#000000" transform="translate(0,0)"/>
<path d="M0 0 C2 1 2 1 2 1 Z " fill="#000000" transform="translate(316,99)"/>
<path d="M0 0 C2 1 2 1 2 1 Z " fill="#000000" transform="translate(194,99)"/>
<path d="M0 0 C2 1 2 1 2 1 Z " fill="#000000" transform="translate(303,90)"/>
<path d="M0 0 C2 1 2 1 2 1 Z " fill="#000000" transform="translate(207,90)"/>
<path d="M0 0 C2 1 2 1 2 1 Z " fill="#000000" transform="translate(301,89)"/>
<path d="M0 0 C2 1 2 1 2 1 Z " fill="#000000" transform="translate(209,89)"/>
<path d="M0 0 C2 1 2 1 2 1 Z " fill="#000000" transform="translate(299,88)"/>
<path d="M0 0 C2 1 2 1 2 1 Z " fill="#000000" transform="translate(211,88)"/>
<path d="M0 0 C2 1 2 1 2 1 Z " fill="#000000" transform="translate(297,87)"/>
<path d="M0 0 C2 1 2 1 2 1 Z " fill="#000000" transform="translate(213,87)"/>
<path d="M0 0 C2 1 2 1 2 1 Z " fill="#000000" transform="translate(295,86)"/>
<path d="M0 0 C2 1 2 1 2 1 Z " fill="#000000" transform="translate(215,86)"/>
<path d="M0 0 C2 1 2 1 2 1 Z " fill="#000000" transform="translate(293,85)"/>
<path d="M0 0 C2 1 2 1 2 1 Z " fill="#000000" transform="translate(217,85)"/>
<path d="M0 0 C2 1 2 1 2 1 Z " fill="#000000" transform="translate(290,84)"/>
<path d="M0 0 C2 1 2 1 2 1 Z " fill="#000000" transform="translate(220,84)"/>
<path d="M0 0 C2 1 2 1 2 1 Z " fill="#000000" transform="translate(288,83)"/>
<path d="M0 0 C2 1 2 1 2 1 Z " fill="#000000" transform="translate(222,83)"/>
<path d="M0 0 C2 1 2 1 2 1 Z " fill="#000000" transform="translate(285,82)"/>
<path d="M0 0 C2 1 2 1 2 1 Z " fill="#000000" transform="translate(225,82)"/>
<path d="" fill="#000000" transform="translate(0,0)"/>
<path d="" fill="#000000" transform="translate(0,0)"/>
<path d="" fill="#000000" transform="translate(0,0)"/>
<path d="" fill="#000000" transform="translate(0,0)"/>
<path d="" fill="#000000" transform="translate(0,0)"/>
<path d="" fill="#000000" transform="translate(0,0)"/>
<path d="" fill="#000000" transform="translate(0,0)"/>
<path d="" fill="#000000" transform="translate(0,0)"/>
<path d="" fill="#000000" transform="translate(0,0)"/>
<path d="" fill="#000000" transform="translate(0,0)"/>
<path d="" fill="#000000" transform="translate(0,0)"/>
<path d="" fill="#000000" transform="translate(0,0)"/>
<path d="" fill="#000000" transform="translate(0,0)"/>
<path d="" fill="#000000" transform="translate(0,0)"/>
<path d="" fill="#000000" transform="translate(0,0)"/>
<path d="" fill="#000000" transform="translate(0,0)"/>
<path d="" fill="#000000" transform="translate(0,0)"/>
<path d="" fill="#000000" transform="translate(0,0)"/>
<path d="" fill="#000000" transform="translate(0,0)"/>
<path d="" fill="#000000" transform="translate(0,0)"/>
<path d="" fill="#000000" transform="translate(0,0)"/>
<path d="" fill="#000000" transform="translate(0,0)"/>
<path d="" fill="#000000" transform="translate(0,0)"/>
<path d="" fill="#000000" transform="translate(0,0)"/>
<path d="" fill="#000000" transform="translate(0,0)"/>
<path d="" fill="#000000" transform="translate(0,0)"/>
<path d="" fill="#000000" transform="translate(0,0)"/>
<path d="" fill="#000000" transform="translate(0,0)"/>
<path d="" fill="#000000" transform="translate(0,0)"/>
<path d="" fill="#000000" transform="translate(0,0)"/>
<path d="" fill="#000000" transform="translate(0,0)"/>
<path d="" fill="#000000" transform="translate(0,0)"/>
<path d="" fill="#000000" transform="translate(0,0)"/>
<path d="" fill="#000000" transform="translate(0,0)"/>
<path d="" fill="#000000" transform="translate(0,0)"/>
<path d="" fill="#000000" transform="translate(0,0)"/>
<path d="" fill="#000000" transform="translate(0,0)"/>
<path d="" fill="#000000" transform="translate(0,0)"/>
<path d="" fill="#000000" transform="translate(0,0)"/>
<path d="" fill="#000000" transform="translate(0,0)"/>
<path d="" fill="#000000" transform="translate(0,0)"/>
<path d="" fill="#000000" transform="translate(0,0)"/>
<path d="" fill="#000000" transform="translate(0,0)"/>
<path d="" fill="#000000" transform="translate(0,0)"/>
<path d="" fill="#000000" transform="translate(0,0)"/>
<path d="" fill="#000000" transform="translate(0,0)"/>
<path d="" fill="#000000" transform="translate(0,0)"/>
<path d="" fill="#000000" transform="translate(0,0)"/>
<path d="" fill="#000000" transform="translate(0,0)"/>
<path d="" fill="#000000" transform="translate(0,0)"/>
<path d="" fill="#000000" transform="translate(0,0)"/>
<path d="" fill="#000000" transform="translate(0,0)"/>
<path d="" fill="#000000" transform="translate(0,0)"/>
<path d="" fill="#000000" transform="translate(0,0)"/>
<path d="" fill="#000000" transform="translate(0,0)"/>
<path d="" fill="#000000" transform="translate(0,0)"/>
<path d="" fill="#000000" transform="translate(0,0)"/>
<path d="" fill="#000000" transform="translate(0,0)"/>
<path d="" fill="#000000" transform="translate(0,0)"/>
<path d="" fill="#000000" transform="translate(0,0)"/>
<path d="" fill="#000000" transform="translate(0,0)"/>
<path d="" fill="#000000" transform="translate(0,0)"/>
<path d="" fill="#000000" transform="translate(0,0)"/>
<path d="" fill="#000000" transform="translate(0,0)"/>
<path d="" fill="#000000" transform="translate(0,0)"/>
<path d="" fill="#000000" transform="translate(0,0)"/>
<path d="" fill="#000000" transform="translate(0,0)"/>
<path d="" fill="#000000" transform="translate(0,0)"/>
<path d="" fill="#000000" transform="translate(0,0)"/>
<path d="" fill="#000000" transform="translate(0,0)"/>
<path d="" fill="#000000" transform="translate(0,0)"/>
<path d="" fill="#000000" transform="translate(0,0)"/>
<path d="" fill="#000000" transform="translate(0,0)"/>
<path d="" fill="#000000" transform="translate(0,0)"/>
<path d="" fill="#000000" transform="translate(0,0)"/>
<path d="" fill="#000000" transform="translate(0,0)"/>
<path d="" fill="#000000" transform="translate(0,0)"/>
<path d="" fill="#000000" transform="translate(0,0)"/>
<path d="" fill="#000000" transform="translate(0,0)"/>
<path d="" fill="#000000" transform="translate(0,0)"/>
<path d="" fill="#000000" transform="translate(0,0)"/>
<path d="" fill="#000000" transform="translate(0,0)"/>
<path d="" fill="#000000" transform="translate(0,0)"/>
<path d="" fill="#000000" transform="translate(0,0)"/>
<path d="" fill="#000000" transform="translate(0,0)"/>
<path d="" fill="#000000" transform="translate(0,0)"/>
<path d="" fill="#000000" transform="translate(0,0)"/>
<path d="" fill="#000000" transform="translate(0,0)"/>
<path d="" fill="#000000" transform="translate(0,0)"/>
<path d="" fill="#000000" transform="translate(0,0)"/>
<path d="" fill="#000000" transform="translate(0,0)"/>
<path d="" fill="#000000" transform="translate(0,0)"/>
<path d="" fill="#000000" transform="translate(0,0)"/>
<path d="" fill="#000000" transform="translate(0,0)"/>
<path d="" fill="#000000" transform="translate(0,0)"/>
<path d="" fill="#000000" transform="translate(0,0)"/>
<path d="" fill="#000000" transform="translate(0,0)"/>
<path d="" fill="#000000" transform="translate(0,0)"/>
<path d="" fill="#000000" transform="translate(0,0)"/>
<path d="" fill="#000000" transform="translate(0,0)"/>
<path d="" fill="#000000" transform="translate(0,0)"/>
<path d="" fill="#000000" transform="translate(0,0)"/>
<path d="" fill="#000000" transform="translate(0,0)"/>
<path d="" fill="#000000" transform="translate(0,0)"/>
<path d="" fill="#000000" transform="translate(0,0)"/>
<path d="" fill="#000000" transform="translate(0,0)"/>
<path d="" fill="#000000" transform="translate(0,0)"/>
<path d="" fill="#000000" transform="translate(0,0)"/>
<path d="" fill="#000000" transform="translate(0,0)"/>
<path d="" fill="#000000" transform="translate(0,0)"/>
<path d="" fill="#000000" transform="translate(0,0)"/>
<path d="" fill="#000000" transform="translate(0,0)"/>
<path d="" fill="#000000" transform="translate(0,0)"/>
<path d="" fill="#000000" transform="translate(0,0)"/>
<path d="" fill="#000000" transform="translate(0,0)"/>
<path d="" fill="#000000" transform="translate(0,0)"/>
<path d="" fill="#000000" transform="translate(0,0)"/>
<path d="" fill="#000000" transform="translate(0,0)"/>
<path d="" fill="#000000" transform="translate(0,0)"/>
<path d="" fill="#000000" transform="translate(0,0)"/>
<path d="" fill="#000000" transform="translate(0,0)"/>
<path d="" fill="#000000" transform="translate(0,0)"/>
<path d="" fill="#000000" transform="translate(0,0)"/>
<path d="" fill="#000000" transform="translate(0,0)"/>
<path d="" fill="#000000" transform="translate(0,0)"/>
<path d="" fill="#000000" transform="translate(0,0)"/>
<path d="" fill="#000000" transform="translate(0,0)"/>
<path d="" fill="#000000" transform="translate(0,0)"/>
<path d="" fill="#000000" transform="translate(0,0)"/>
<path d="" fill="#000000" transform="translate(0,0)"/>
<path d="" fill="#000000" transform="translate(0,0)"/>
<path d="" fill="#000000" transform="translate(0,0)"/>
<path d="" fill="#000000" transform="translate(0,0)"/>
<path d="" fill="#000000" transform="translate(0,0)"/>
<path d="" fill="#000000" transform="translate(0,0)"/>
<path d="" fill="#000000" transform="translate(0,0)"/>
<path d="" fill="#000000" transform="translate(0,0)"/>
<path d="" fill="#000000" transform="translate(0,0)"/>
<path d="" fill="#000000" transform="translate(0,0)"/>
<path d="" fill="#000000" transform="translate(0,0)"/>
<path d="" fill="#000000" transform="translate(0,0)"/>
<path d="" fill="#000000" transform="translate(0,0)"/>
<path d="" fill="#000000" transform="translate(0,0)"/>
<path d="" fill="#000000" transform="translate(0,0)"/>
<path d="" fill="#000000" transform="translate(0,0)"/>
<path d="" fill="#000000" transform="translate(0,0)"/>
<path d="" fill="#000000" transform="translate(0,0)"/>
<path d="" fill="#000000" transform="translate(0,0)"/>
<path d="" fill="#000000" transform="translate(0,0)"/>
<path d="" fill="#000000" transform="translate(0,0)"/>
<path d="" fill="#000000" transform="translate(0,0)"/>
<path d="" fill="#000000" transform="translate(0,0)"/>
<path d="" fill="#000000" transform="translate(0,0)"/>
<path d="" fill="#000000" transform="translate(0,0)"/>
<path d="" fill="#000000" transform="translate(0,0)"/>
<path d="" fill="#000000" transform="translate(0,0)"/>
<path d="" fill="#000000" transform="translate(0,0)"/>
<path d="" fill="#000000" transform="translate(0,0)"/>
<path d="" fill="#000000" transform="translate(0,0)"/>
<path d="" fill="#000000" transform="translate(0,0)"/>
<path d="" fill="#000000" transform="translate(0,0)"/>
<path d="" fill="#000000" transform="translate(0,0)"/>
<path d="" fill="#000000" transform="translate(0,0)"/>
<path d="" fill="#000000" transform="translate(0,0)"/>
<path d="" fill="#000000" transform="translate(0,0)"/>
<path d="" fill="#000000" transform="translate(0,0)"/>
<path d="" fill="#000000" transform="translate(0,0)"/>
<path d="" fill="#000000" transform="translate(0,0)"/>
<path d="" fill="#000000" transform="translate(0,0)"/>
<path d="" fill="#000000" transform="translate(0,0)"/>
<path d="" fill="#000000" transform="translate(0,0)"/>
<path d="" fill="#000000" transform="translate(0,0)"/>
<path d="" fill="#000000" transform="translate(0,0)"/>
<path d="" fill="#000000" transform="translate(0,0)"/>
<path d="" fill="#000000" transform="translate(0,0)"/>
<path d="" fill="#000000" transform="translate(0,0)"/>
<path d="" fill="#000000" transform="translate(0,0)"/>
<path d="" fill="#000000" transform="translate(0,0)"/>
<path d="" fill="#000000" transform="translate(0,0)"/>
<path d="" fill="#000000" transform="translate(0,0)"/>
<path d="" fill="#000000" transform="translate(0,0)"/>
<path d="" fill="#000000" transform="translate(0,0)"/>
<path d="" fill="#000000" transform="translate(0,0)"/>
<path d="" fill="#000000" transform="translate(0,0)"/>
<path d="" fill="#000000" transform="translate(0,0)"/>
<path d="" fill="#000000" transform="translate(0,0)"/>
<path d="" fill="#000000" transform="translate(0,0)"/>
<path d="" fill="#000000" transform="translate(0,0)"/>
<path d="" fill="#000000" transform="translate(0,0)"/>
<path d="" fill="#000000" transform="translate(0,0)"/>
<path d="" fill="#000000" transform="translate(0,0)"/>
<path d="" fill="#000000" transform="translate(0,0)"/>
<path d="" fill="#000000" transform="translate(0,0)"/>
<path d="" fill="#000000" transform="translate(0,0)"/>
<path d="" fill="#000000" transform="translate(0,0)"/>
<path d="" fill="#000000" transform="translate(0,0)"/>
<path d="" fill="#000000" transform="translate(0,0)"/>
<path d="" fill="#000000" transform="translate(0,0)"/>
<path d="" fill="#000000" transform="translate(0,0)"/>
<path d="" fill="#000000" transform="translate(0,0)"/>
<path d="" fill="#000000" transform="translate(0,0)"/>
<path d="" fill="#000000" transform="translate(0,0)"/>
<path d="" fill="#000000" transform="translate(0,0)"/>
<path d="" fill="#000000" transform="translate(0,0)"/>
<path d="" fill="#000000" transform="translate(0,0)"/>
<path d="" fill="#000000" transform="translate(0,0)"/>
<path d="" fill="#000000" transform="translate(0,0)"/>
<path d="" fill="#000000" transform="translate(0,0)"/>
<path d="" fill="#000000" transform="translate(0,0)"/>
<path d="" fill="#000000" transform="translate(0,0)"/>
<path d="" fill="#000000" transform="translate(0,0)"/>
<path d="" fill="#000000" transform="translate(0,0)"/>
<path d="" fill="#000000" transform="translate(0,0)"/>
<path d="" fill="#000000" transform="translate(0,0)"/>
<path d="" fill="#000000" transform="translate(0,0)"/>
<path d="" fill="#000000" transform="translate(0,0)"/>
</svg>
