<?xml version="1.0" encoding="UTF-8"?>
<!DOCTYPE svg PUBLIC "-//W3C//DTD SVG 1.1//EN" "http://www.w3.org/Graphics/SVG/1.1/DTD/svg11.dtd">
<svg xmlns="http://www.w3.org/2000/svg" version="1.1" width="512px" height="512px" style="shape-rendering:geometricPrecision; text-rendering:geometricPrecision; image-rendering:optimizeQuality; fill-rule:evenodd; clip-rule:evenodd" xmlns:xlink="http://www.w3.org/1999/xlink">
<g><path style="opacity:1" fill="#000000" d="M 321.5,15.5 C 331.36,13.3496 338.527,16.6829 343,25.5C 343.667,40.1667 343.667,54.8333 343,69.5C 338.527,78.4822 331.36,81.6489 321.5,79C 317,77.1667 313.833,74 312,69.5C 311.333,54.8333 311.333,40.1667 312,25.5C 314.022,20.98 317.189,17.6467 321.5,15.5 Z"/></g>
<g><path style="opacity:1" fill="#000000" d="M 203.5,64.5 C 208.777,63.9312 213.777,64.7645 218.5,67C 228.734,76.564 238.234,86.7307 247,97.5C 249.571,107.847 246.071,115.013 236.5,119C 231.232,120.068 226.232,119.401 221.5,117C 211.266,107.436 201.766,97.2693 193,86.5C 190.517,76.0408 194.017,68.7074 203.5,64.5 Z"/></g>
<g><path style="opacity:1" fill="#000000" d="M 440.5,64.5 C 456.985,62.818 464.152,70.1513 462,86.5C 453.234,97.2693 443.734,107.436 433.5,117C 427.675,119.923 421.675,120.256 415.5,118C 408.286,113.037 405.786,106.203 408,97.5C 417.697,85.3034 428.53,74.3034 440.5,64.5 Z"/></g>
<g><path style="opacity:1" fill="#000000" d="M 312.5,95.5 C 364.508,91.4095 401.675,112.743 424,159.5C 441.073,209.053 429.573,250.553 389.5,284C 387.167,284.667 384.833,284.667 382.5,284C 356.503,253.661 323.503,240.327 283.5,244C 273.543,229.043 261.21,216.376 246.5,206C 238.881,201.611 231.381,197.111 224,192.5C 227.609,149.214 249.442,119.047 289.5,102C 297.163,99.3384 304.829,97.1717 312.5,95.5 Z"/></g>
<g><path style="opacity:1" fill="#000000" d="M 511.5,193.5 C 511.5,197.5 511.5,201.5 511.5,205.5C 509.353,209.811 506.02,212.978 501.5,215C 486.833,215.667 472.167,215.667 457.5,215C 450.513,212.193 447.18,207.027 447.5,199.5C 447.18,191.973 450.513,186.807 457.5,184C 472.167,183.333 486.833,183.333 501.5,184C 506.02,186.022 509.353,189.189 511.5,193.5 Z"/></g>
<g><path style="opacity:1" fill="#000000" d="M -0.5,421.5 C -0.5,412.167 -0.5,402.833 -0.5,393.5C 9.14545,350.524 35.8121,325.857 79.5,319.5C 78.4694,272.359 99.4694,239.526 142.5,221C 192.813,206.923 231.98,221.756 260,265.5C 262.599,271.135 265.099,276.802 267.5,282.5C 302.917,268.017 333.417,275.017 359,303.5C 372.107,321.203 376.607,340.87 372.5,362.5C 401.62,363.794 422.453,377.461 435,403.5C 447.182,442.655 435.349,471.822 399.5,491C 394.923,492.644 390.256,493.978 385.5,495C 281.833,495.667 178.167,495.667 74.5,495C 33.4412,486.774 8.4412,462.274 -0.5,421.5 Z"/></g>
<g><path style="opacity:1" fill="#000000" d="M 418.5,279.5 C 423.777,278.931 428.777,279.765 433.5,282C 443.734,291.564 453.234,301.731 462,312.5C 464.185,322.628 460.685,329.795 451.5,334C 446.232,335.068 441.232,334.401 436.5,332C 426.266,322.436 416.766,312.269 408,301.5C 405.517,291.041 409.017,283.707 418.5,279.5 Z"/></g>
</svg>
