<?xml version="1.0" encoding="UTF-8"?>
<svg version="1.1" xmlns="http://www.w3.org/2000/svg" width="512" height="512">
<path d="M0 0 C4.51815214 0.01707763 9.03577334 0.00691161 13.55390739 -0.01031399 C42.56040274 -0.10411619 71.37751431 1.06540005 99.98950195 6.20361328 C101.48946957 6.46356585 102.98947047 6.72332637 104.48950195 6.98291016 C142.28988044 13.62109217 193.58160976 22.92218363 219.48950195 54.39111328 C221.04322647 56.67958102 222.24566198 58.90343333 223.48950195 61.39111328 C223.88137695 62.07173828 224.27325195 62.75236328 224.67700195 63.45361328 C226.92400235 68.81184499 226.67663451 74.77577107 226.7277832 80.48876953 C226.73585495 81.35948593 226.7439267 82.23020233 226.75224304 83.12730408 C226.76602966 84.96709232 226.77677588 86.80690555 226.78466797 88.64672852 C226.79614704 90.50553016 226.81653376 92.36429991 226.84619141 94.22290039 C227.24631634 119.35029947 227.24631634 119.35029947 220.18481445 128.93408203 C193.98369766 155.89176602 156.86451426 165.8853935 121.11450195 173.64111328 C119.49596313 173.99230225 119.49596313 173.99230225 117.84472656 174.35058594 C102.0967595 177.64741404 86.17814301 179.8911284 70.17700195 181.51611328 C69.33855743 181.60138275 68.50011292 181.68665222 67.63626099 181.77450562 C-11.61255376 189.63890591 -103.43828959 186.76963602 -176.51049805 152.39111328 C-177.15728516 152.08705566 -177.80407227 151.78299805 -178.47045898 151.46972656 C-192.83697012 144.56986519 -207.25826819 134.55108998 -213.51049805 119.39111328 C-214.46363262 116.53170955 -214.65240946 114.68282081 -214.6875 111.71118164 C-214.70033524 110.7626683 -214.71317047 109.81415497 -214.72639465 108.8368988 C-214.73378159 107.81193802 -214.74116852 106.78697723 -214.7487793 105.73095703 C-214.76088692 104.1414901 -214.76088692 104.1414901 -214.77323914 102.51991272 C-214.7870786 100.27297602 -214.79780137 98.0260183 -214.80566406 95.77905273 C-214.82280962 92.36612165 -214.86669011 88.95417635 -214.91088867 85.54150391 C-214.9210219 83.35466205 -214.92953602 81.16781197 -214.9362793 78.98095703 C-214.95378738 77.97016586 -214.97129547 76.95937469 -214.98933411 75.91795349 C-214.95558008 64.71980956 -211.17435736 57.08310725 -203.4362793 49.10986328 C-153.91323024 3.09111543 -63.7604951 -0.24310011 0 0 Z " fill="#000000" transform="translate(250.510498046875,-0.39111328125)"/>
<path d="M0 0 C1.72014471 0.93733004 3.44017384 1.87487218 5.16015625 2.8125 C6.59693726 3.59560547 6.59693726 3.59560547 8.06274414 4.39453125 C10.8583137 5.92255597 13.64801425 7.46090837 16.4375 9 C18.29133885 10.00060758 20.14550097 11.0006165 22 12 C22.81855469 12.46019531 23.63710938 12.92039063 24.48046875 13.39453125 C60.30146998 32.60136057 104.06408171 39.48701954 144 44 C145.24233398 44.14421387 146.48466797 44.28842773 147.76464844 44.43701172 C177.80783651 47.87792826 207.79962168 48.33381432 238 48 C239.21623047 47.98743164 240.43246094 47.97486328 241.68554688 47.96191406 C273.28329213 47.52030268 304.9840112 43.98810769 336 38 C337.78519043 37.65582031 337.78519043 37.65582031 339.60644531 37.3046875 C372.56120453 30.83285995 405.88626087 21.88850865 434.1015625 3.01074219 C435.70021552 1.95359533 437.34628777 0.96875529 439 0 C439.66 0.33 440.32 0.66 441 1 C441.07647781 8.08000721 441.1287786 15.15990666 441.16479492 22.24023438 C441.17982006 24.64554831 441.20024596 27.05083513 441.22631836 29.45605469 C441.262978 32.92650064 441.27978971 36.39658227 441.29296875 39.8671875 C441.30845261 40.93113739 441.32393646 41.99508728 441.33988953 43.09127808 C441.34259561 55.27624603 438.0581619 64.62351104 429.62109375 73.50390625 C413.34328241 89.02350804 392.09810036 97.26553473 371 104 C370.18611816 104.26022949 369.37223633 104.52045898 368.53369141 104.78857422 C325.03472872 118.45076585 278.44879903 123.04636197 233 124 C232.06945801 124.02191406 231.13891602 124.04382813 230.18017578 124.06640625 C170.20968736 125.29342392 105.96682569 119.52901882 50 97 C48.845 96.55140625 47.69 96.1028125 46.5 95.640625 C35.25451497 91.09131515 23.04882268 85.21978824 14 77 C14 76.34 14 75.68 14 75 C13.0409375 74.5978125 13.0409375 74.5978125 12.0625 74.1875 C10 73 10 73 9 70 C8.34 70 7.68 70 7 70 C6.20449608 68.60635 5.41378162 67.20996569 4.625 65.8125 C4.18414062 65.03519531 3.74328125 64.25789063 3.2890625 63.45703125 C0.91374852 58.92953884 -0.25030137 55.44175257 -0.22705078 50.29174805 C-0.22689972 49.17096359 -0.22674866 48.05017914 -0.22659302 46.89543152 C-0.21627045 45.6963063 -0.20594788 44.49718109 -0.1953125 43.26171875 C-0.1924826 42.02581497 -0.18965271 40.78991119 -0.18673706 39.51655579 C-0.17745218 36.24335003 -0.15950633 32.97034356 -0.1373291 29.69720459 C-0.11680817 26.35219152 -0.10789268 23.00716974 -0.09765625 19.66210938 C-0.07561795 13.10799526 -0.04215661 6.55401392 0 0 Z " fill="#000000" transform="translate(36,170)"/>
<path d="M0 0 C3.8897138 1.49720204 7.13035613 3.28037769 10.625 5.5625 C54.68289023 33.29294158 110.75631315 41.1629998 161.6875 45.625 C162.40173126 45.68780151 163.11596252 45.75060303 163.85183716 45.81530762 C182.28371067 47.41472929 200.68653065 48.2088642 219.1875 48.1875 C220.0887561 48.18722809 220.99001221 48.18695618 221.9185791 48.18667603 C258.14329325 48.1369976 294.28750708 45.11284992 330 39 C331.0401123 38.82774902 332.08022461 38.65549805 333.15185547 38.47802734 C356.91587933 34.49713982 380.72320117 28.28682133 403 19 C404.17949219 18.51853516 404.17949219 18.51853516 405.3828125 18.02734375 C407.61994077 17.07388133 409.80828698 16.05410959 412 15 C412.57717773 14.72430176 413.15435547 14.44860352 413.74902344 14.16455078 C421.84183842 10.2792745 429.56089748 6.26083059 436.9609375 1.15234375 C437.63382812 0.77207031 438.30671875 0.39179688 439 0 C439.66 0.33 440.32 0.66 441 1 C441.07647781 8.08000721 441.1287786 15.15990666 441.16479492 22.24023438 C441.17982006 24.64554831 441.20024596 27.05083513 441.22631836 29.45605469 C441.262978 32.92650064 441.27978971 36.39658227 441.29296875 39.8671875 C441.30845261 40.93113739 441.32393646 41.99508728 441.33988953 43.09127808 C441.3426152 55.36442261 437.82478872 64.36621285 429.75 73.5625 C428 75 428 75 426 75 C426 75.66 426 76.32 426 77 C417.2515597 84.22045929 407.23022481 89.25682508 397 94 C395.33904297 94.78503906 395.33904297 94.78503906 393.64453125 95.5859375 C366.52588174 107.83306954 336.31328564 113.8530034 307 118 C306.02353516 118.13889648 305.04707031 118.27779297 304.04101562 118.42089844 C296.70876137 119.43727419 289.36577928 120.26793555 282 121 C280.44659912 121.15879639 280.44659912 121.15879639 278.86181641 121.32080078 C239.69240867 125.10867761 198.13664202 125.06578147 159 121 C157.75895508 120.87641113 156.51791016 120.75282227 155.23925781 120.62548828 C107.91646094 115.76113401 53.09205088 107.60729702 15 77 C14.14277344 76.34128906 13.28554688 75.68257813 12.40234375 75.00390625 C10.24805818 73.20691682 8.61649586 71.54336636 6.9375 69.3125 C6.23947266 68.40951172 6.23947266 68.40951172 5.52734375 67.48828125 C0.45094637 59.21803795 -0.56021459 52.55172261 -0.390625 42.87109375 C-0.38496521 41.64084976 -0.37930542 40.41060577 -0.37347412 39.14308167 C-0.3512092 35.24081355 -0.3010284 31.33948732 -0.25 27.4375 C-0.22765076 24.7806124 -0.21167396 22.12373365 -0.1953125 19.46679688 C-0.15137663 12.97754703 -0.08456265 6.48884083 0 0 Z " fill="#000000" transform="translate(36,280)"/>
<path d="M0 0 C3.7935213 1.45907701 6.87290099 3.16880639 10.25 5.4375 C35.75312654 21.63134229 66.68563052 30.02806574 96 36 C97.0715332 36.22139648 98.14306641 36.44279297 99.24707031 36.67089844 C112.36386279 39.34611128 125.53748881 41.47349032 138.8125 43.1875 C139.98248535 43.34234863 141.1524707 43.49719727 142.35791016 43.65673828 C167.22527135 46.70422527 192.16010051 47.37972856 217.18123245 47.31785583 C219.47799087 47.31240388 221.77473894 47.31004478 224.07150269 47.3079834 C247.48548404 47.27526752 270.72213522 46.70511712 294 44 C295.92368408 43.7831958 295.92368408 43.7831958 297.88623047 43.56201172 C340.8836732 38.56950937 384.65875542 29.58002788 423.25 9.3125 C423.92877197 8.95631592 424.60754395 8.60013184 425.30688477 8.2331543 C428.65312459 6.42677705 431.74455292 4.50213149 434.796875 2.23046875 C438 0 438 0 441 0 C441.07638722 7.24073489 441.12874111 14.48136492 441.16479492 21.72241211 C441.1798334 24.18306359 441.20026942 26.64368849 441.22631836 29.10424805 C441.26291856 32.65159692 441.27977635 36.19858977 441.29296875 39.74609375 C441.30845261 40.8370787 441.32393646 41.92806366 441.33988953 43.05210876 C441.34244297 54.77620827 437.70548787 64.43486019 429.87109375 73.1875 C395.56549824 106.41880755 335.68809526 114.72094245 290.51036072 119.61778259 C288.66085134 119.81916209 286.81146161 120.02190693 284.96345425 120.2366333 C271.88450332 121.7521077 258.98081384 122.3255874 245.8203125 122.3359375 C243.83242712 122.34240174 241.84454258 122.3491324 239.85665894 122.35610962 C235.71024383 122.36798178 231.56391132 122.37180165 227.41748047 122.37060547 C223.25454089 122.37044418 219.09204728 122.38414952 214.92919922 122.41162109 C151.46957804 122.8240377 64.36951533 120.04901631 14 76 C13.29101562 75.38511719 12.58203125 74.77023437 11.8515625 74.13671875 C5.92945918 68.64391288 0.29096537 60.92500901 -0.12025452 52.55122375 C-0.11803391 51.5808165 -0.11581329 50.61040924 -0.11352539 49.6105957 C-0.11344986 48.50968094 -0.11337433 47.40876617 -0.11329651 46.27449036 C-0.10813522 45.08691635 -0.10297394 43.89934235 -0.09765625 42.67578125 C-0.0962413 41.45924362 -0.09482635 40.24270599 -0.09336853 38.98930359 C-0.08776312 35.0970109 -0.07520967 31.20477536 -0.0625 27.3125 C-0.0574857 24.67643312 -0.05292267 22.04036534 -0.04882812 19.40429688 C-0.03779193 12.93617836 -0.0210485 6.46809326 0 0 Z " fill="#000000" transform="translate(36,390)"/>
</svg>
