<?xml version="1.0" encoding="UTF-8"?>
<svg version="1.1" xmlns="http://www.w3.org/2000/svg" width="1023" height="369">
<path d="M0 0 C1.06927734 -0.020625 2.13855469 -0.04125 3.24023438 -0.0625 C13.92900212 -0.11416776 23.57431249 1.98063637 33.0625 6.9375 C33.74062744 7.28635254 34.41875488 7.63520508 35.11743164 7.99462891 C51.82845411 16.85650461 63.90751762 31.52403401 70.3125 49.25 C76.07452575 68.61040652 74.96715506 88.96929127 65.6875 107.0625 C55.38703977 124.92975267 40.27952151 137.45905576 20.55859375 143.55859375 C1.47977092 148.59130857 -19.15939606 146.05801274 -36.375 136.625 C-54.1946805 125.72836778 -66.38149602 109.01939863 -71.3671875 88.63671875 C-75.00643049 68.76980275 -71.45421985 49.50804362 -61.0625 32.25 C-46.3818221 11.36962083 -25.4121833 0.11951644 0 0 Z M5.9375 18.25 C5.19814209 19.73657104 5.19814209 19.73657104 4.44384766 21.25317383 C-12.46910284 55.24321276 -12.46910284 55.24321276 -21.13427734 71.50048828 C-22.50944701 74.0924046 -23.8562939 76.69776184 -25.1875 79.3125 C-25.56132812 80.04597656 -25.93515625 80.77945313 -26.3203125 81.53515625 C-27.19489891 83.24448383 -27.19489891 83.24448383 -27.0625 85.25 C-19.1425 85.25 -11.2225 85.25 -3.0625 85.25 C-3.0625 99.44 -3.0625 113.63 -3.0625 128.25 C-0.52858108 124.87144144 1.24853149 121.88124154 3.1237793 118.13623047 C3.57797745 117.23309113 3.57797745 117.23309113 4.04135132 116.31170654 C5.03549307 114.33218603 6.02379132 112.34981583 7.01171875 110.3671875 C7.70222473 108.98752326 8.39296815 107.60797783 9.0839386 106.22854614 C10.52804673 103.34327336 11.9692608 100.45657838 13.40844727 97.56884766 C15.25586467 93.86258889 17.11047355 90.15998366 18.96724224 86.45840263 C20.39330738 83.61348629 21.81556919 80.76668206 23.23667336 77.91928482 C23.91929395 76.5527074 24.60310814 75.18672553 25.28812218 73.82134628 C26.24242764 71.91779606 27.19159153 70.01176994 28.1394043 68.10498047 C28.68106735 67.02006317 29.22273041 65.93514587 29.7808075 64.81735229 C31.07442445 62.41540247 31.07442445 62.41540247 30.9375 60.25 C23.0175 60.25 15.0975 60.25 6.9375 60.25 C6.9375 46.39 6.9375 32.53 6.9375 18.25 C6.6075 18.25 6.2775 18.25 5.9375 18.25 Z " fill="#009688" transform="translate(191.0625,111.75)"/>
<path d="M0 0 C2.96762397 -0.22212754 5.66904015 -0.28037029 8.625 -0.1875 C10.11895453 -0.15302607 11.61293461 -0.11964841 13.10693359 -0.0871582 C14.39164551 -0.058396 15.67635742 -0.02963379 17 0 C22.63155799 10.9467571 27.75520786 22.01723382 32.5 33.375 C32.83638489 34.17604156 33.17276978 34.97708313 33.51934814 35.80239868 C41.52789884 54.90282247 48.87150154 74.25068563 56.11999512 93.6496582 C57.22817313 96.60941121 58.34470876 99.56596551 59.46206665 102.52226257 C60.64642273 105.65878978 61.82319472 108.79813169 63 111.9375 C63.41556152 113.03860107 63.83112305 114.13970215 64.25927734 115.27416992 C64.62746582 116.26521729 64.9956543 117.25626465 65.375 118.27734375 C65.69210937 119.12546631 66.00921875 119.97358887 66.3359375 120.84741211 C67 123 67 123 67 126 C60.4 126 53.8 126 47 126 C45.53615149 122.1686928 44.07878047 118.33512639 42.625 114.5 C42.2125 113.42234375 41.8 112.3446875 41.375 111.234375 C40.77558594 109.64882812 40.77558594 109.64882812 40.1640625 108.03125 C39.79748535 107.06767578 39.4309082 106.10410156 39.05322266 105.11132812 C37.82162752 101.47306935 36.93159425 97.72637701 36 94 C17.52 94 -0.96 94 -20 94 C-20.99 97.3 -21.98 100.6 -23 104 C-23.6599962 105.93696817 -24.33715255 107.86831677 -25.04296875 109.7890625 C-25.39423828 110.74941406 -25.74550781 111.70976562 -26.10742188 112.69921875 C-26.46384766 113.66472656 -26.82027344 114.63023437 -27.1875 115.625 C-27.73954102 117.13126953 -27.73954102 117.13126953 -28.30273438 118.66796875 C-29.19922181 121.11293448 -30.09923898 123.5566055 -31 126 C-37.27 126 -43.54 126 -50 126 C-49.33793374 122.02760244 -48.81370188 119.08026191 -47.48803711 115.43969727 C-47.17876282 114.58354324 -46.86948853 113.72738922 -46.55084229 112.84529114 C-46.21308777 111.92825912 -45.87533325 111.01122711 -45.52734375 110.06640625 C-45.17275085 109.09301804 -44.81815796 108.11962982 -44.45281982 107.116745 C-43.28807742 103.92936649 -42.11384595 100.74561311 -40.9375 97.5625 C-40.53528229 96.47054321 -40.13306458 95.37858643 -39.71865845 94.25354004 C-11.07667275 16.61500912 -11.07667275 16.61500912 0 0 Z M7 23 C1.11837811 36.53312942 -4.54751782 50.10608757 -9.6875 63.9375 C-10.1211084 65.09741455 -10.5547168 66.2573291 -11.00146484 67.45239258 C-11.39672363 68.52900146 -11.79198242 69.60561035 -12.19921875 70.71484375 C-12.54815186 71.66480225 -12.89708496 72.61476074 -13.2565918 73.59350586 C-14.14757753 76.05794069 -14.14757753 76.05794069 -14 79 C0.52 79 15.04 79 30 79 C29.079136 74.39568001 27.71460824 70.27004015 26.05078125 65.91015625 C25.75568161 65.12918076 25.46058197 64.34820526 25.15653992 63.54356384 C24.53048385 61.88957311 23.90249414 60.23631316 23.27270508 58.58374023 C22.32829928 56.10398465 21.39120189 53.62156395 20.45507812 51.13867188 C16.86376016 41.65336108 13.09416399 32.28029446 9 23 C8.34 23 7.68 23 7 23 Z " fill="#009688" transform="translate(693,121)"/>
<path d="M0 0 C2.08447797 -0.00966714 4.16795086 -0.04076444 6.25219727 -0.07226562 C22.05089827 -0.19897036 38.53523723 2.48906623 50.54321289 13.67773438 C58.30829005 22.42078095 59.92905388 32.91996486 59.66430664 44.29492188 C59.04865424 54.16490475 55.49192488 62.23575432 48.41430664 69.21679688 C32.30046072 82.76511098 9.00049886 81.24023438 -10.58178711 81.24023438 C-10.58178711 96.42023438 -10.58178711 111.60023438 -10.58178711 127.24023438 C-16.85178711 127.24023438 -23.12178711 127.24023438 -29.58178711 127.24023438 C-29.58178711 86.32023437 -29.58178711 45.40023437 -29.58178711 3.24023438 C-19.61717482 0.39320229 -10.3296717 0.02883034 0 0 Z M-10.58178711 17.24023438 C-10.674906 18.74442177 -10.69924739 20.25294794 -10.6953125 21.76000977 C-10.69523697 22.72093033 -10.69516144 23.68185089 -10.69508362 24.67189026 C-10.68992233 25.71667038 -10.68476105 26.7614505 -10.67944336 27.83789062 C-10.67802841 28.90188583 -10.67661346 29.96588104 -10.67515564 31.06211853 C-10.66953775 34.47568521 -10.65698222 37.88918737 -10.64428711 41.30273438 C-10.63927441 43.61067614 -10.63471111 45.91861893 -10.63061523 48.2265625 C-10.61956251 53.89780864 -10.60280698 59.5690169 -10.58178711 65.24023438 C-7.39820448 65.26223973 -4.21464176 65.27541865 -1.03100586 65.28710938 C0.30951843 65.29653564 0.30951843 65.29653564 1.67712402 65.30615234 C12.63996349 65.33629073 24.75962557 64.99141345 33.45336914 57.48242188 C38.470138 52.22872142 40.31897697 47.75877683 40.47680664 40.57226562 C40.19952867 34.08753885 38.96313881 29.01501862 34.41821289 24.24023438 C24.64352096 16.33242055 13.41699647 15.90431177 1.29321289 16.05273438 C-0.26526367 16.05370117 -0.26526367 16.05370117 -1.85522461 16.0546875 C-6.56146764 15.64153236 -6.56146764 15.64153236 -10.58178711 17.24023438 Z " fill="#009688" transform="translate(805.581787109375,119.759765625)"/>
<path d="M0 0 C8.87568122 7.29586741 11.05584902 15.12294123 12.3515625 26.234375 C12.59828787 31.293248 12.58674589 36.34307121 12.546875 41.40625 C12.54313392 42.8239929 12.54029214 44.24173843 12.53829956 45.65948486 C12.53074911 49.34850501 12.51117712 53.03736174 12.4888916 56.72631836 C12.46824547 60.50762727 12.45925817 64.28896319 12.44921875 68.0703125 C12.4279209 75.45840696 12.39389212 82.84636788 12.3515625 90.234375 C8.43207732 90.7354811 4.51113595 91.22419083 0.58984375 91.7109375 C-0.50356323 91.85088135 -1.59697021 91.9908252 -2.72351074 92.13500977 C-38.19077947 96.50041375 -38.19077947 96.50041375 -51.1484375 87.359375 C-56.6087599 82.75823377 -60.91301552 77.3541112 -61.95385742 70.1081543 C-62.08574991 67.83030818 -62.10711488 65.57825587 -62.0859375 63.296875 C-62.1159082 62.15702148 -62.1159082 62.15702148 -62.14648438 60.99414062 C-62.14073692 54.26386611 -60.15304806 49.21630963 -55.82421875 44.0625 C-43.94961348 34.00518233 -30.87128521 32.38775673 -15.6484375 33.234375 C-12.25671309 33.7171235 -8.96056499 34.36153199 -5.6484375 35.234375 C-5.92054493 27.83305288 -7.0099182 22.68981247 -10.6484375 16.234375 C-10.6484375 15.574375 -10.6484375 14.914375 -10.6484375 14.234375 C-21.51412736 9.62468839 -30.29729002 9.76864208 -41.7109375 11.734375 C-43.0093457 11.94900391 -43.0093457 11.94900391 -44.33398438 12.16796875 C-46.4398772 12.51701176 -48.54432245 12.87477039 -50.6484375 13.234375 C-51.3084375 8.284375 -51.9684375 3.334375 -52.6484375 -1.765625 C-36.53179398 -6.84347159 -14.91655306 -9.94436871 0 0 Z M-42.36328125 55.0390625 C-44.90914046 59.38791623 -44.31761253 64.38123185 -43.6484375 69.234375 C-42.26883819 72.66671144 -40.14578369 74.5384659 -36.74316406 76.11987305 C-30.8281302 78.1947202 -25.57404511 78.63390267 -19.3359375 78.484375 C-18.45615234 78.47921875 -17.57636719 78.4740625 -16.66992188 78.46875 C-12.7195174 78.42075723 -9.52075647 78.20245474 -5.6484375 77.234375 C-5.6484375 67.994375 -5.6484375 58.754375 -5.6484375 49.234375 C-17.68190556 46.82768139 -33.21508723 45.41157814 -42.36328125 55.0390625 Z " fill="#009688" transform="translate(463.6484375,155.765625)"/>
<path d="M0 0 C25.41 0 50.82 0 77 0 C77 5.28 77 10.56 77 16 C57.86 16 38.72 16 19 16 C19 28.21 19 40.42 19 53 C35.83 53 52.66 53 70 53 C70 57.95 70 62.9 70 68 C53.17 68 36.34 68 19 68 C19 87.14 19 106.28 19 126 C12.73 126 6.46 126 0 126 C0 84.42 0 42.84 0 0 Z " fill="#009588" transform="translate(321,121)"/>
<path d="M0 0 C0.495 0.495 0.495 0.495 1 1 C0.87419322 6.22582023 0.36140321 11.27719357 -2 16 C-2.88751953 15.80083984 -2.88751953 15.80083984 -3.79296875 15.59765625 C-4.58316406 15.42105469 -5.37335937 15.24445313 -6.1875 15.0625 C-7.35345703 14.80146484 -7.35345703 14.80146484 -8.54296875 14.53515625 C-9.35378906 14.35855469 -10.16460938 14.18195313 -11 14 C-11.78375 13.81824219 -12.5675 13.63648438 -13.375 13.44921875 C-21.61002806 12.03995055 -30.61317024 11.81877561 -38 16 C-40.31741077 18.63456467 -40.31741077 18.63456467 -41 22 C-40.21296352 27.07201285 -38.80783472 29.66393241 -35 33 C-32.75842419 34.29206875 -32.75842419 34.29206875 -30.25 35.3125 C-28.81333984 35.93898438 -28.81333984 35.93898438 -27.34765625 36.578125 C-26.24292969 37.04734375 -25.13820313 37.5165625 -24 38 C-21.93353492 38.87986807 -19.86837032 39.76247435 -17.80566406 40.65112305 C-16.42613796 41.24468816 -15.04407438 41.83240109 -13.65917969 42.41333008 C-7.9856562 44.84655646 -2.78327996 47.63966972 1.25 52.4375 C1.72953125 52.99308594 2.2090625 53.54867187 2.703125 54.12109375 C7.40195615 60.92873768 6.62571395 69.10333148 6 77 C4.44109391 83.24495913 0.34860123 87.58621474 -5 91 C-20.9913249 98.82075733 -40.40560416 97.67603827 -57.24609375 93.16796875 C-58.15488281 92.78253906 -59.06367188 92.39710938 -60 92 C-61.26977059 88.19068824 -60.52074507 86.18381007 -59.5625 82.3125 C-59.27503906 81.13300781 -58.98757813 79.95351562 -58.69140625 78.73828125 C-58.46324219 77.83464844 -58.23507812 76.93101562 -58 76 C-54.08804734 76.5908081 -50.41378825 77.43889088 -46.625 78.5625 C-36.26964909 81.18035334 -24.82142857 81.57204434 -15 77 C-12.90299576 73.85449364 -12.67075532 71.93704565 -12.44140625 68.23046875 C-13.49496075 64.02361828 -16.2577497 61.10035647 -19.84350586 58.83569336 C-21.92963774 57.7666805 -24.03630698 56.80593258 -26.1875 55.875 C-26.94417969 55.53154541 -27.70085938 55.18809082 -28.48046875 54.83422852 C-32.4391306 53.05444058 -36.42448561 51.43292497 -40.5 49.9375 C-48.01341961 47.02701152 -54.1380446 42.08025156 -58 35 C-60.41272245 27.76183264 -60.16017156 18.39411928 -57 11.4375 C-52.25343848 3.48700945 -45.43026057 0.10640274 -36.6796875 -2.30859375 C-24.41553079 -4.61300536 -12.00795818 -3.01762491 0 0 Z " fill="#009688" transform="translate(556,153)"/>
<path d="M0 0 C0 9.57 0 19.14 0 29 C11.55 29 23.1 29 35 29 C35 33.95 35 38.9 35 44 C23.45 44 11.9 44 0 44 C0.07407016 51.56281912 0.15697108 59.12447139 0.26245117 66.68676758 C0.29565442 69.25799466 0.32370058 71.82929382 0.34643555 74.40063477 C0.38006514 78.10203698 0.4323877 81.8027814 0.48828125 85.50390625 C0.49467117 86.64896133 0.5010611 87.79401642 0.50764465 88.97377014 C0.63409512 95.87688498 1.04963358 101.31204197 5.5 106.875 C10.63974203 110.72980652 18.89051785 109.36115165 25 109 C28.8196212 108.25258834 32.29254096 107.21889064 36 106 C36.99 110.95 37.98 115.9 39 121 C26.41007431 126.39568244 11.42696669 128.99623949 -1.890625 124.10546875 C-8.47473164 120.65490916 -12.9860436 115.7234412 -16 109 C-17.88105903 102.6879265 -18.28090342 96.62465 -18.22705078 90.07397461 C-18.22734283 89.12656403 -18.22763489 88.17915344 -18.22793579 87.20303345 C-18.22655359 84.1027071 -18.21104503 81.00262759 -18.1953125 77.90234375 C-18.19157842 75.74044425 -18.18873331 73.57854304 -18.18673706 71.41664124 C-18.17913171 65.74988056 -18.15951 60.08322378 -18.1373291 54.41650391 C-18.11680372 48.62468877 -18.10772107 42.83285671 -18.09765625 37.04101562 C-18.07626105 25.69396498 -18.04216275 14.34699116 -18 3 C-15.56318413 2.49645133 -13.12564561 1.99703244 -10.6875 1.5 C-9.99720703 1.35691406 -9.30691406 1.21382813 -8.59570312 1.06640625 C-5.67475227 0.47374956 -2.98891878 0 0 0 Z " fill="#009687" transform="translate(600,123)"/>
<path d="M0 0 C5.94 0 11.88 0 18 0 C18 41.58 18 83.16 18 126 C12.06 126 6.12 126 0 126 C0 84.42 0 42.84 0 0 Z " fill="#009587" transform="translate(886,121)"/>
</svg>
