<svg version="1.1" id="Layer_1" xmlns="http://www.w3.org/2000/svg" xmlns:xlink="http://www.w3.org/1999/xlink" x="0px" y="0px"
	 width="100%" viewBox="0 0 600 600" enable-background="new 0 0 600 600" xml:space="preserve">
<path fill="#000000" opacity="1.000000" stroke="none" 
	d="
M1.000002,401.000000 
	C1.000000,267.707428 1.000000,134.414841 1.000000,1.061131 
	C200.898102,1.061131 400.796204,1.061131 601.000000,1.061131 
	C601.000000,134.023926 601.000000,267.048065 600.696167,400.826355 
	C599.624939,400.564209 598.710510,399.627350 598.112061,398.519745 
	C588.605286,380.923126 569.635925,377.618439 554.685364,387.211884 
	C550.174377,390.106445 546.415894,394.240082 542.532471,398.031189 
	C536.473572,403.946106 530.602295,410.053162 524.607971,416.122864 
	C516.612000,408.117432 509.047302,400.110779 500.974457,392.654266 
	C497.248169,389.212463 492.861450,386.002594 488.192932,384.161011 
	C477.340668,379.880157 466.969940,381.622498 457.975891,389.129913 
	C456.172241,387.835693 454.626831,386.726746 453.011993,385.567993 
	C461.454681,376.486481 466.875916,365.999817 466.904877,353.731873 
	C467.094940,273.237823 467.082916,192.742905 466.919189,112.248726 
	C466.893738,99.733932 461.637360,88.757401 452.623993,80.350540 
	C437.989197,66.700584 420.543365,63.002174 401.691345,69.909447 
	C381.848450,77.179771 370.313629,94.172112 370.095428,116.622765 
	C369.734253,153.783401 369.999664,190.950089 369.988403,228.114227 
	C369.987946,229.647736 369.859192,231.181213 369.765778,233.257172 
	C318.439911,181.931564 267.659149,131.146805 216.872742,80.367676 
	C202.286163,65.783180 178.989120,62.596218 161.374542,71.433098 
	C143.249161,80.526237 134.525513,96.224426 134.039871,116.390564 
	C133.795197,126.550636 133.957230,136.721664 134.003601,146.887421 
	C134.324753,217.298660 134.530563,287.711151 135.245468,358.118469 
	C135.303833,363.866638 138.198944,369.932129 140.964279,375.229889 
	C145.762741,384.422729 153.687454,390.734955 162.960327,395.430481 
	C160.124954,400.582336 157.348083,405.627869 154.344421,411.085480 
	C153.819016,409.405640 153.173264,408.125732 153.039429,406.794342 
	C151.283386,389.325623 132.529480,378.027802 115.975990,383.019135 
	C101.112457,387.500824 94.520798,398.091797 94.029808,413.203796 
	C93.831795,419.298431 93.997169,425.404877 93.997169,431.505920 
	C93.613022,431.775635 93.228874,432.045349 92.844727,432.315063 
	C91.778999,430.923431 90.863228,429.378998 89.624550,428.163666 
	C75.871155,414.669769 62.557693,400.672180 48.134266,387.932739 
	C34.827171,376.179291 11.175316,380.938049 2.948578,399.548065 
	C2.663416,400.193115 1.665633,400.523132 1.000002,401.000000 
z"/>
<path fill="#FDFEFD" opacity="1.000000" stroke="none" 
	d="
M1.000002,401.468658 
	C1.665633,400.523132 2.663416,400.193115 2.948578,399.548065 
	C11.175316,380.938049 34.827171,376.179291 48.134266,387.932739 
	C62.557693,400.672180 75.871155,414.669769 89.624550,428.163666 
	C90.863228,429.378998 91.778999,430.923431 92.844727,432.315063 
	C93.228874,432.045349 93.613022,431.775635 93.997169,431.505920 
	C93.997169,425.404877 93.831795,419.298431 94.029808,413.203796 
	C94.520798,398.091797 101.112457,387.500824 115.975990,383.019135 
	C132.529480,378.027802 151.283386,389.325623 153.039429,406.794342 
	C153.173264,408.125732 153.819016,409.405640 154.344421,411.085480 
	C157.348083,405.627869 160.124954,400.582336 162.960327,395.430481 
	C153.687454,390.734955 145.762741,384.422729 140.964279,375.229889 
	C138.198944,369.932129 135.303833,363.866638 135.245468,358.118469 
	C134.530563,287.711151 134.324753,217.298660 134.003601,146.887421 
	C133.957230,136.721664 133.795197,126.550636 134.039871,116.390564 
	C134.525513,96.224426 143.249161,80.526237 161.374542,71.433098 
	C178.989120,62.596218 202.286163,65.783180 216.872742,80.367676 
	C267.659149,131.146805 318.439911,181.931564 369.765778,233.257172 
	C369.859192,231.181213 369.987946,229.647736 369.988403,228.114227 
	C369.999664,190.950089 369.734253,153.783401 370.095428,116.622765 
	C370.313629,94.172112 381.848450,77.179771 401.691345,69.909447 
	C420.543365,63.002174 437.989197,66.700584 452.623993,80.350540 
	C461.637360,88.757401 466.893738,99.733932 466.919189,112.248726 
	C467.082916,192.742905 467.094940,273.237823 466.904877,353.731873 
	C466.875916,365.999817 461.454681,376.486481 453.011993,385.567993 
	C454.626831,386.726746 456.172241,387.835693 457.975891,389.129913 
	C466.969940,381.622498 477.340668,379.880157 488.192932,384.161011 
	C492.861450,386.002594 497.248169,389.212463 500.974457,392.654266 
	C509.047302,400.110779 516.612000,408.117432 524.607971,416.122864 
	C530.602295,410.053162 536.473572,403.946106 542.532471,398.031189 
	C546.415894,394.240082 550.174377,390.106445 554.685364,387.211884 
	C569.635925,377.618439 588.605286,380.923126 598.112061,398.519745 
	C598.710510,399.627350 599.624939,400.564209 600.696167,401.290222 
	C601.000000,408.020966 601.000000,415.041901 600.695923,422.241180 
	C592.505798,437.403442 577.567444,445.923218 567.170288,458.718384 
	C574.304565,465.835175 581.656067,472.804596 588.556335,480.195251 
	C592.391907,484.303467 595.449402,489.134216 598.926208,493.585693 
	C599.416870,494.213806 600.299072,494.536133 601.000000,495.000000 
	C601.000000,501.687653 601.000000,508.375275 600.694763,515.241089 
	C599.624512,516.438660 598.562622,517.348145 598.138672,518.493713 
	C590.908813,538.026978 561.807434,540.180054 549.561646,526.258179 
	C541.765564,517.395020 532.962891,509.417297 524.467590,500.898193 
	C515.476135,509.933411 506.551239,518.889221 497.640533,527.859009 
	C488.030609,537.532715 467.693146,537.616699 458.541687,528.122375 
	C448.967072,536.752319 436.112335,537.756653 425.258362,532.541077 
	C414.622498,527.430359 409.278351,518.234680 409.024597,506.354279 
	C408.874695,499.335571 408.997192,492.311035 408.997192,484.393646 
	C403.943665,489.489563 399.781860,493.802063 395.494812,497.986237 
	C384.691742,508.529968 374.069153,519.277161 362.893585,529.412842 
	C357.453888,534.346375 350.358673,536.524719 342.918274,534.930176 
	C336.519958,533.558960 330.295746,531.375488 323.323364,529.356812 
	C315.255707,535.824890 304.917419,537.406677 294.336578,532.848999 
	C282.671478,527.824280 276.034973,518.564514 275.790619,504.520294 
	C272.010162,512.010559 268.888947,518.688904 265.322174,525.120117 
	C261.881287,531.324280 256.798981,535.089844 249.206024,535.048035 
	C226.383972,534.922363 203.560730,535.033691 180.738098,534.983643 
	C174.023560,534.968933 168.932510,531.938049 165.579315,526.099792 
	C161.936874,519.757751 158.334671,513.392639 154.475662,506.617554 
	C153.830536,508.511902 153.226227,509.696289 153.033371,510.944275 
	C151.207886,522.758057 143.969162,530.354431 133.141708,533.753174 
	C122.549156,537.078125 112.153717,535.544739 103.786316,527.257629 
	C90.293381,513.894104 76.910149,500.419861 63.471020,487.001953 
	C62.506844,486.039276 61.464809,485.154602 60.002834,483.815979 
	C60.002834,492.237488 60.082165,499.878021 59.980556,507.516083 
	C59.878590,515.181030 56.787868,521.993164 51.353161,526.917297 
	C35.661873,541.134399 11.045211,536.752930 2.907996,516.953979 
	C2.704287,516.458313 1.654937,516.310181 0.999999,516.000000 
	C1.000000,477.979095 1.000000,439.958221 1.000002,401.468658 
M213.831085,208.501572 
	C213.831085,202.645447 213.831085,196.789322 213.831085,190.933182 
	C214.338287,190.726349 214.845474,190.519501 215.352676,190.312653 
	C216.472885,191.749939 217.455322,193.324753 218.733109,194.604736 
	C277.014374,252.986084 335.319489,311.343628 393.634277,369.691498 
	C395.516266,371.574585 397.387299,373.514099 399.502228,375.111145 
	C409.913666,382.973083 421.155853,384.147583 432.771667,378.272339 
	C445.146240,372.013367 449.718353,361.146912 449.708282,347.820160 
	C449.681244,312.156189 449.699158,276.492218 449.699127,240.828262 
	C449.699127,199.831375 449.760468,158.834351 449.675629,117.837624 
	C449.626099,93.906998 429.756866,78.771202 408.229919,86.079002 
	C395.430359,90.424103 387.857330,102.082535 387.846985,117.762756 
	C387.813385,168.592209 387.834381,219.421707 387.834351,270.251190 
	C387.834351,271.919312 387.834351,273.587433 387.834351,275.255554 
	C387.348938,275.445587 386.863525,275.635620 386.378113,275.825653 
	C385.241913,274.391174 384.235443,272.827118 382.950836,271.540833 
	C324.422180,212.935074 265.872223,154.350571 207.316345,95.772041 
	C195.997742,84.449066 183.612564,81.276062 171.147949,86.458511 
	C161.565155,90.442764 151.761566,100.612831 151.851334,118.478882 
	C152.213058,190.471603 152.000732,262.467224 152.002029,334.461761 
	C152.002136,340.294586 151.859482,346.132446 152.048798,351.959320 
	C152.706985,372.217590 172.314743,386.253632 191.670441,380.410553 
	C205.619980,376.199493 213.802551,364.522247 213.816589,348.490265 
	C213.857178,302.160461 213.831039,255.830612 213.831085,208.501572 
M300.940094,381.998322 
	C309.818756,381.406830 318.117584,382.824615 324.990723,389.180573 
	C333.111633,383.623718 341.484283,380.710754 351.519989,382.846069 
	C361.029541,384.869385 371.251282,393.083984 372.870544,402.789673 
	C374.237000,410.979889 374.361755,419.379211 374.984711,427.689819 
	C375.109650,429.356384 375.002808,431.040283 375.002808,432.716187 
	C374.873352,432.305664 374.743866,431.895172 374.614410,431.484650 
	C385.834229,420.277740 397.054077,409.070862 408.018646,398.118896 
	C397.672180,396.858215 389.118561,390.508148 381.500580,382.915131 
	C332.665192,334.240021 283.948761,285.445465 235.185623,236.697784 
	C233.985306,235.497833 232.696701,234.386200 231.002823,232.820816 
	C231.002823,271.547913 230.819061,309.498383 231.105637,347.445374 
	C231.201843,360.182831 228.572021,371.719055 219.908829,381.997192 
	C230.853806,381.997192 241.142471,381.960205 251.430725,382.009399 
	C259.026825,382.045715 264.804596,385.038879 268.052856,392.271088 
	C270.506714,397.734467 273.187561,403.095886 275.413422,407.760864 
	C276.814117,404.363525 278.052124,400.166107 280.169830,396.473114 
	C284.579559,388.783203 291.595490,384.325562 300.940094,381.998322 
M239.843613,477.948975 
	C240.145706,478.528046 240.855026,479.297302 240.687103,479.656830 
	C238.929855,483.418793 237.208237,487.221527 235.067047,490.765503 
	C234.414429,491.845703 232.507721,492.722076 231.161499,492.741669 
	C220.332443,492.899506 209.497726,492.940308 198.671387,492.707458 
	C197.103760,492.673706 194.937912,491.373505 194.125046,490.015289 
	C188.576065,480.743591 183.223206,471.349548 178.059967,461.857422 
	C177.287643,460.437653 177.158203,457.939514 177.888657,456.547516 
	C183.218124,446.391144 188.781158,436.354523 194.460999,426.388702 
	C195.110077,425.249786 196.927322,424.121582 198.217590,424.104614 
	C211.034744,423.936005 223.854980,424.002441 236.822723,424.002441 
	C239.567291,429.622681 242.148163,435.202362 245.037933,440.617157 
	C245.755951,441.962616 247.437988,443.636230 248.736954,443.689362 
	C256.000763,443.986206 263.282990,443.832123 271.392822,443.832123 
	C265.199799,429.386749 259.343964,415.498688 253.185272,401.746338 
	C252.620728,400.485687 250.124634,399.410858 248.517151,399.399200 
	C227.188843,399.244781 205.858444,399.230499 184.530777,399.423737 
	C182.866638,399.438843 180.491745,400.855743 179.674118,402.310669 
	C169.574448,420.282227 159.646286,438.351532 149.878250,456.505615 
	C149.077484,457.993835 149.060425,460.676208 149.872864,462.142212 
	C159.544739,479.594086 169.373871,496.960602 179.398361,514.212036 
	C180.318573,515.795654 182.856201,517.350525 184.659744,517.370239 
	C204.986923,517.592346 225.317780,517.453247 245.646637,517.577026 
	C248.569595,517.594849 250.018463,516.657349 251.295914,514.002441 
	C257.563232,500.976898 264.101532,488.081970 270.507843,475.122955 
	C274.013306,468.031921 277.446869,460.905334 280.955444,453.707397 
	C257.586975,453.707397 234.798172,453.646942 212.010010,453.742096 
	C204.599960,453.773041 198.894958,459.405487 199.044495,466.083588 
	C199.195190,472.813110 204.947006,477.970978 212.465805,477.994781 
	C221.296997,478.022766 230.128464,477.957062 239.843613,477.948975 
M136.165085,505.163605 
	C136.166428,475.008698 136.180328,444.853790 136.144348,414.698914 
	C136.141602,412.387665 136.160385,409.967499 135.522705,407.787048 
	C133.873215,402.146820 128.149643,398.809875 122.248543,399.681641 
	C116.115250,400.587708 111.965698,405.150024 111.916954,411.797729 
	C111.775246,431.122284 111.844322,450.448425 111.830986,469.773926 
	C111.829895,471.349731 111.830841,472.925537 111.830841,475.530670 
	C109.739983,473.538422 108.430054,472.343170 107.178436,471.089752 
	C84.812141,448.691101 62.442291,426.295959 40.101898,403.871490 
	C36.094864,399.849396 31.455997,398.146820 26.046728,400.244843 
	C20.886059,402.246460 18.128923,406.356445 18.115784,411.863556 
	C18.041447,443.017670 18.025436,474.172272 18.138531,505.326172 
	C18.160215,511.300262 21.800539,515.655029 27.125154,517.135681 
	C35.647484,519.505493 42.616230,513.486694 42.673107,503.434814 
	C42.773029,485.775635 42.702538,468.115509 42.703377,450.455780 
	C42.703499,447.873993 42.703392,445.292206 42.703392,442.710449 
	C43.261677,442.349670 43.819958,441.988892 44.378242,441.628113 
	C45.249527,443.012085 45.898838,444.617157 47.024799,445.747437 
	C69.482498,468.290955 92.004066,490.770874 114.488258,513.288086 
	C118.334000,517.139465 122.727264,518.972656 128.043915,516.980835 
	C133.007965,515.121033 135.829422,511.482635 136.165085,505.163605 
M424.858551,408.355194 
	C402.537903,430.675842 380.217285,452.996490 357.071930,476.141815 
	C357.071930,473.327087 357.071930,471.730469 357.071930,470.133850 
	C357.071930,451.643127 357.076843,433.152435 357.069885,414.661713 
	C357.066284,405.046661 352.720612,399.788055 344.850769,399.840820 
	C337.038635,399.893188 332.838989,405.133362 332.834747,414.873840 
	C332.826904,432.864807 332.830750,450.855743 332.833160,468.846710 
	C332.834808,481.173798 332.833710,493.500916 332.851227,505.828003 
	C332.858337,510.820984 335.252563,514.452759 339.608459,516.638977 
	C344.208557,518.947815 348.664246,518.314636 352.665863,515.087036 
	C354.215759,513.836975 355.641235,512.422668 357.052643,511.012421 
	C378.617249,489.465240 400.168549,467.904694 421.729645,446.353943 
	C422.968445,445.115692 424.264038,443.934265 426.491364,441.814392 
	C426.491364,444.805145 426.491272,446.542206 426.491425,448.279297 
	C426.493042,466.769989 426.312531,485.264099 426.655548,503.748444 
	C426.721283,507.291626 428.068390,511.395752 430.208496,514.175476 
	C433.239410,518.112122 438.008911,518.963501 442.908264,517.110046 
	C447.961395,515.198303 450.884308,511.021729 450.902252,505.077301 
	C450.966156,483.921448 450.928101,462.765289 450.928345,441.609253 
	C450.928436,431.947449 450.951202,422.285553 450.918579,412.623871 
	C450.899933,407.109924 448.521698,402.964600 443.351715,400.812134 
	C438.217255,398.674530 433.585083,399.751068 429.608673,403.623199 
	C428.176636,405.017670 426.774994,406.443329 424.858551,408.355194 
M550.642151,450.146423 
	C560.531616,440.246460 570.519348,430.441956 580.269531,420.406677 
	C585.237366,415.293549 585.099304,408.134705 580.445129,403.330170 
	C575.731079,398.463837 568.242798,398.344727 562.958496,403.191132 
	C560.137390,405.778534 557.489258,408.556946 554.800720,411.286255 
	C544.894226,421.343201 535.003540,431.415771 524.607910,441.989990 
	C520.199951,437.315521 516.505127,433.241943 512.643127,429.333618 
	C504.096069,420.683899 495.470306,412.111877 486.865601,403.519226 
	C483.091339,399.750214 478.511169,398.545654 473.560730,400.302826 
	C468.800842,401.992340 465.340424,405.785400 465.720337,410.764618 
	C466.008392,414.539825 467.810211,418.936462 470.400269,421.672943 
	C482.287964,434.233002 494.689758,446.306488 507.759094,459.408844 
	C506.192657,460.544861 504.534760,461.452789 503.242340,462.730408 
	C491.870148,473.972229 480.481323,485.199646 469.273407,496.604248 
	C464.160706,501.806641 464.278687,509.256927 469.089478,514.074097 
	C473.955658,518.946777 481.117218,518.895020 486.543182,513.880249 
	C488.743896,511.846375 490.847198,509.705719 492.965363,507.584229 
	C503.416840,497.116302 513.858459,486.638489 524.890625,475.575439 
	C534.484436,485.392181 543.769226,494.934784 553.106750,504.425598 
	C556.609558,507.985901 560.030457,511.670654 563.854126,514.860596 
	C568.999756,519.153320 576.131470,518.462036 580.521179,513.700806 
	C584.833252,509.023773 584.968079,502.380554 580.662170,497.356384 
	C578.608032,494.959656 576.270081,492.802490 574.019897,490.578094 
	C563.372070,480.052185 552.710205,469.540466 541.580261,458.556885 
	C544.770020,455.610138 547.455688,453.129120 550.642151,450.146423 
M313.723358,514.266296 
	C315.150055,510.684296 317.339905,507.201721 317.822571,503.496765 
	C318.526733,498.091522 318.003967,492.526459 318.003998,487.029510 
	C318.004089,476.082642 318.004028,465.135742 318.004028,454.068481 
	C309.613251,454.068481 301.702087,454.068481 293.521423,454.068481 
	C293.521423,471.748199 293.220581,489.196838 293.651642,506.627350 
	C293.859039,515.015198 304.972015,521.504761 313.723358,514.266296 
M318.006134,433.472412 
	C317.992798,426.153625 318.165283,418.828339 317.910645,411.517944 
	C317.683746,405.004578 312.340149,399.715973 306.195129,399.376495 
	C300.506165,399.062195 294.192108,403.458496 293.867462,409.491943 
	C293.255829,420.859619 293.690979,432.283600 293.690979,443.648254 
	C301.894165,443.648254 309.801300,443.648254 318.006104,443.648254 
	C318.006104,440.396240 318.006104,437.428009 318.006134,433.472412 
M468.002808,449.023865 
	C468.002808,456.550476 468.002808,464.077087 468.002808,471.890106 
	C472.852692,467.068146 477.274658,462.671631 480.639191,459.326447 
	C476.443665,455.022675 472.055725,450.521545 468.002808,446.364105 
	C468.002808,446.503204 468.002808,447.331329 468.002808,449.023865 
z"/>
<path fill="#000000" opacity="1.000000" stroke="none" 
	d="
M0.999999,516.468628 
	C1.654937,516.310181 2.704287,516.458313 2.907996,516.953979 
	C11.045211,536.752930 35.661873,541.134399 51.353161,526.917297 
	C56.787868,521.993164 59.878590,515.181030 59.980556,507.516083 
	C60.082165,499.878021 60.002834,492.237488 60.002834,483.815979 
	C61.464809,485.154602 62.506844,486.039276 63.471020,487.001953 
	C76.910149,500.419861 90.293381,513.894104 103.786316,527.257629 
	C112.153717,535.544739 122.549156,537.078125 133.141708,533.753174 
	C143.969162,530.354431 151.207886,522.758057 153.033371,510.944275 
	C153.226227,509.696289 153.830536,508.511902 154.475662,506.617554 
	C158.334671,513.392639 161.936874,519.757751 165.579315,526.099792 
	C168.932510,531.938049 174.023560,534.968933 180.738098,534.983643 
	C203.560730,535.033691 226.383972,534.922363 249.206024,535.048035 
	C256.798981,535.089844 261.881287,531.324280 265.322174,525.120117 
	C268.888947,518.688904 272.010162,512.010559 275.790619,504.520294 
	C276.034973,518.564514 282.671478,527.824280 294.336578,532.848999 
	C304.917419,537.406677 315.255707,535.824890 323.323364,529.356812 
	C330.295746,531.375488 336.519958,533.558960 342.918274,534.930176 
	C350.358673,536.524719 357.453888,534.346375 362.893585,529.412842 
	C374.069153,519.277161 384.691742,508.529968 395.494812,497.986237 
	C399.781860,493.802063 403.943665,489.489563 408.997192,484.393646 
	C408.997192,492.311035 408.874695,499.335571 409.024597,506.354279 
	C409.278351,518.234680 414.622498,527.430359 425.258362,532.541077 
	C436.112335,537.756653 448.967072,536.752319 458.541687,528.122375 
	C467.693146,537.616699 488.030609,537.532715 497.640533,527.859009 
	C506.551239,518.889221 515.476135,509.933411 524.467590,500.898193 
	C532.962891,509.417297 541.765564,517.395020 549.561646,526.258179 
	C561.807434,540.180054 590.908813,538.026978 598.138672,518.493713 
	C598.562622,517.348145 599.624512,516.438660 600.694763,515.709656 
	C601.000000,544.317200 601.000000,572.634460 601.000000,600.948242 
	C401.000000,600.944824 200.999985,600.944824 1.000000,600.944824 
	C1.000000,572.905518 1.000000,544.921448 0.999999,516.468628 
z"/>
<path fill="#000000" opacity="1.000000" stroke="none" 
	d="
M601.000000,494.531342 
	C600.299072,494.536133 599.416870,494.213806 598.926208,493.585693 
	C595.449402,489.134216 592.391907,484.303467 588.556335,480.195251 
	C581.656067,472.804596 574.304565,465.835175 567.170288,458.718384 
	C577.567444,445.923218 592.505798,437.403442 600.695923,422.709747 
	C601.000000,446.687561 601.000000,470.375122 601.000000,494.531342 
z"/>
<path fill="#019901" opacity="1.000000" stroke="none" 
	d="
M213.831085,209.001175 
	C213.831039,255.830612 213.857178,302.160461 213.816589,348.490265 
	C213.802551,364.522247 205.619980,376.199493 191.670441,380.410553 
	C172.314743,386.253632 152.706985,372.217590 152.048798,351.959320 
	C151.859482,346.132446 152.002136,340.294586 152.002029,334.461761 
	C152.000732,262.467224 152.213058,190.471603 151.851334,118.478882 
	C151.761566,100.612831 161.565155,90.442764 171.147949,86.458511 
	C183.612564,81.276062 195.997742,84.449066 207.316345,95.772041 
	C265.872223,154.350571 324.422180,212.935074 382.950836,271.540833 
	C384.235443,272.827118 385.241913,274.391174 386.378113,275.825653 
	C386.863525,275.635620 387.348938,275.445587 387.834351,275.255554 
	C387.834351,273.587433 387.834351,271.919312 387.834351,270.251190 
	C387.834381,219.421707 387.813385,168.592209 387.846985,117.762756 
	C387.857330,102.082535 395.430359,90.424103 408.229919,86.079002 
	C429.756866,78.771202 449.626099,93.906998 449.675629,117.837624 
	C449.760468,158.834351 449.699127,199.831375 449.699127,240.828262 
	C449.699158,276.492218 449.681244,312.156189 449.708282,347.820160 
	C449.718353,361.146912 445.146240,372.013367 432.771667,378.272339 
	C421.155853,384.147583 409.913666,382.973083 399.502228,375.111145 
	C397.387299,373.514099 395.516266,371.574585 393.634277,369.691498 
	C335.319489,311.343628 277.014374,252.986084 218.733109,194.604736 
	C217.455322,193.324753 216.472885,191.749939 215.352676,190.312653 
	C214.845474,190.519501 214.338287,190.726349 213.831085,190.933182 
	C213.831085,196.789322 213.831085,202.645447 213.831085,209.001175 
z"/>
<path fill="#000000" opacity="1.000000" stroke="none" 
	d="
M300.494690,382.006714 
	C291.595490,384.325562 284.579559,388.783203 280.169830,396.473114 
	C278.052124,400.166107 276.814117,404.363525 275.413422,407.760864 
	C273.187561,403.095886 270.506714,397.734467 268.052856,392.271088 
	C264.804596,385.038879 259.026825,382.045715 251.430725,382.009399 
	C241.142471,381.960205 230.853806,381.997192 219.908829,381.997192 
	C228.572021,371.719055 231.201843,360.182831 231.105637,347.445374 
	C230.819061,309.498383 231.002823,271.547913 231.002823,232.820816 
	C232.696701,234.386200 233.985306,235.497833 235.185623,236.697784 
	C283.948761,285.445465 332.665192,334.240021 381.500580,382.915131 
	C389.118561,390.508148 397.672180,396.858215 408.018646,398.118896 
	C397.054077,409.070862 385.834229,420.277740 374.614410,431.484650 
	C374.743866,431.895172 374.873352,432.305664 375.002808,432.716187 
	C375.002808,431.040283 375.109650,429.356384 374.984711,427.689819 
	C374.361755,419.379211 374.237000,410.979889 372.870544,402.789673 
	C371.251282,393.083984 361.029541,384.869385 351.519989,382.846069 
	C341.484283,380.710754 333.111633,383.623718 324.990723,389.180573 
	C318.117584,382.824615 309.818756,381.406830 300.494690,382.006714 
z"/>
<path fill="#039A03" opacity="1.000000" stroke="none" 
	d="
M239.401718,477.940491 
	C230.128464,477.957062 221.296997,478.022766 212.465805,477.994781 
	C204.947006,477.970978 199.195190,472.813110 199.044495,466.083588 
	C198.894958,459.405487 204.599960,453.773041 212.010010,453.742096 
	C234.798172,453.646942 257.586975,453.707397 280.955444,453.707397 
	C277.446869,460.905334 274.013306,468.031921 270.507843,475.122955 
	C264.101532,488.081970 257.563232,500.976898 251.295914,514.002441 
	C250.018463,516.657349 248.569595,517.594849 245.646637,517.577026 
	C225.317780,517.453247 204.986923,517.592346 184.659744,517.370239 
	C182.856201,517.350525 180.318573,515.795654 179.398361,514.212036 
	C169.373871,496.960602 159.544739,479.594086 149.872864,462.142212 
	C149.060425,460.676208 149.077484,457.993835 149.878250,456.505615 
	C159.646286,438.351532 169.574448,420.282227 179.674118,402.310669 
	C180.491745,400.855743 182.866638,399.438843 184.530777,399.423737 
	C205.858444,399.230499 227.188843,399.244781 248.517151,399.399200 
	C250.124634,399.410858 252.620728,400.485687 253.185272,401.746338 
	C259.343964,415.498688 265.199799,429.386749 271.392822,443.832123 
	C263.282990,443.832123 256.000763,443.986206 248.736954,443.689362 
	C247.437988,443.636230 245.755951,441.962616 245.037933,440.617157 
	C242.148163,435.202362 239.567291,429.622681 236.822723,424.002441 
	C223.854980,424.002441 211.034744,423.936005 198.217590,424.104614 
	C196.927322,424.121582 195.110077,425.249786 194.460999,426.388702 
	C188.781158,436.354523 183.218124,446.391144 177.888657,456.547516 
	C177.158203,457.939514 177.287643,460.437653 178.059967,461.857422 
	C183.223206,471.349548 188.576065,480.743591 194.125046,490.015289 
	C194.937912,491.373505 197.103760,492.673706 198.671387,492.707458 
	C209.497726,492.940308 220.332443,492.899506 231.161499,492.741669 
	C232.507721,492.722076 234.414429,491.845703 235.067047,490.765503 
	C237.208237,487.221527 238.929855,483.418793 240.687103,479.656830 
	C240.855026,479.297302 240.145706,478.528046 239.401718,477.940491 
z"/>
<path fill="#039A03" opacity="1.000000" stroke="none" 
	d="
M136.146820,505.617188 
	C135.829422,511.482635 133.007965,515.121033 128.043915,516.980835 
	C122.727264,518.972656 118.334000,517.139465 114.488258,513.288086 
	C92.004066,490.770874 69.482498,468.290955 47.024799,445.747437 
	C45.898838,444.617157 45.249527,443.012085 44.378242,441.628113 
	C43.819958,441.988892 43.261677,442.349670 42.703392,442.710449 
	C42.703392,445.292206 42.703499,447.873993 42.703377,450.455780 
	C42.702538,468.115509 42.773029,485.775635 42.673107,503.434814 
	C42.616230,513.486694 35.647484,519.505493 27.125154,517.135681 
	C21.800539,515.655029 18.160215,511.300262 18.138531,505.326172 
	C18.025436,474.172272 18.041447,443.017670 18.115784,411.863556 
	C18.128923,406.356445 20.886059,402.246460 26.046728,400.244843 
	C31.455997,398.146820 36.094864,399.849396 40.101898,403.871490 
	C62.442291,426.295959 84.812141,448.691101 107.178436,471.089752 
	C108.430054,472.343170 109.739983,473.538422 111.830841,475.530670 
	C111.830841,472.925537 111.829895,471.349731 111.830986,469.773926 
	C111.844322,450.448425 111.775246,431.122284 111.916954,411.797729 
	C111.965698,405.150024 116.115250,400.587708 122.248543,399.681641 
	C128.149643,398.809875 133.873215,402.146820 135.522705,407.787048 
	C136.160385,409.967499 136.141602,412.387665 136.144348,414.698914 
	C136.180328,444.853790 136.166428,475.008698 136.146820,505.617188 
z"/>
<path fill="#029A02" opacity="1.000000" stroke="none" 
	d="
M425.109009,408.104980 
	C426.774994,406.443329 428.176636,405.017670 429.608673,403.623199 
	C433.585083,399.751068 438.217255,398.674530 443.351715,400.812134 
	C448.521698,402.964600 450.899933,407.109924 450.918579,412.623871 
	C450.951202,422.285553 450.928436,431.947449 450.928345,441.609253 
	C450.928101,462.765289 450.966156,483.921448 450.902252,505.077301 
	C450.884308,511.021729 447.961395,515.198303 442.908264,517.110046 
	C438.008911,518.963501 433.239410,518.112122 430.208496,514.175476 
	C428.068390,511.395752 426.721283,507.291626 426.655548,503.748444 
	C426.312531,485.264099 426.493042,466.769989 426.491425,448.279297 
	C426.491272,446.542206 426.491364,444.805145 426.491364,441.814392 
	C424.264038,443.934265 422.968445,445.115692 421.729645,446.353943 
	C400.168549,467.904694 378.617249,489.465240 357.052643,511.012421 
	C355.641235,512.422668 354.215759,513.836975 352.665863,515.087036 
	C348.664246,518.314636 344.208557,518.947815 339.608459,516.638977 
	C335.252563,514.452759 332.858337,510.820984 332.851227,505.828003 
	C332.833710,493.500916 332.834808,481.173798 332.833160,468.846710 
	C332.830750,450.855743 332.826904,432.864807 332.834747,414.873840 
	C332.838989,405.133362 337.038635,399.893188 344.850769,399.840820 
	C352.720612,399.788055 357.066284,405.046661 357.069885,414.661713 
	C357.076843,433.152435 357.071930,451.643127 357.071930,470.133850 
	C357.071930,471.730469 357.071930,473.327087 357.071930,476.141815 
	C380.217285,452.996490 402.537903,430.675842 425.109009,408.104980 
z"/>
<path fill="#039A03" opacity="1.000000" stroke="none" 
	d="
M550.391724,450.397247 
	C547.455688,453.129120 544.770020,455.610138 541.580261,458.556885 
	C552.710205,469.540466 563.372070,480.052185 574.019897,490.578094 
	C576.270081,492.802490 578.608032,494.959656 580.662170,497.356384 
	C584.968079,502.380554 584.833252,509.023773 580.521179,513.700806 
	C576.131470,518.462036 568.999756,519.153320 563.854126,514.860596 
	C560.030457,511.670654 556.609558,507.985901 553.106750,504.425598 
	C543.769226,494.934784 534.484436,485.392181 524.890625,475.575439 
	C513.858459,486.638489 503.416840,497.116302 492.965363,507.584229 
	C490.847198,509.705719 488.743896,511.846375 486.543182,513.880249 
	C481.117218,518.895020 473.955658,518.946777 469.089478,514.074097 
	C464.278687,509.256927 464.160706,501.806641 469.273407,496.604248 
	C480.481323,485.199646 491.870148,473.972229 503.242340,462.730408 
	C504.534760,461.452789 506.192657,460.544861 507.759094,459.408844 
	C494.689758,446.306488 482.287964,434.233002 470.400269,421.672943 
	C467.810211,418.936462 466.008392,414.539825 465.720337,410.764618 
	C465.340424,405.785400 468.800842,401.992340 473.560730,400.302826 
	C478.511169,398.545654 483.091339,399.750214 486.865601,403.519226 
	C495.470306,412.111877 504.096069,420.683899 512.643127,429.333618 
	C516.505127,433.241943 520.199951,437.315521 524.607910,441.989990 
	C535.003540,431.415771 544.894226,421.343201 554.800720,411.286255 
	C557.489258,408.556946 560.137390,405.778534 562.958496,403.191132 
	C568.242798,398.344727 575.731079,398.463837 580.445129,403.330170 
	C585.099304,408.134705 585.237366,415.293549 580.269531,420.406677 
	C570.519348,430.441956 560.531616,440.246460 550.391724,450.397247 
z"/>
<path fill="#049B04" opacity="1.000000" stroke="none" 
	d="
M313.446411,514.515625 
	C304.972015,521.504761 293.859039,515.015198 293.651642,506.627350 
	C293.220581,489.196838 293.521423,471.748199 293.521423,454.068481 
	C301.702087,454.068481 309.613251,454.068481 318.004028,454.068481 
	C318.004028,465.135742 318.004089,476.082642 318.003998,487.029510 
	C318.003967,492.526459 318.526733,498.091522 317.822571,503.496765 
	C317.339905,507.201721 315.150055,510.684296 313.446411,514.515625 
z"/>
<path fill="#059B05" opacity="1.000000" stroke="none" 
	d="
M318.006104,433.966125 
	C318.006104,437.428009 318.006104,440.396240 318.006104,443.648254 
	C309.801300,443.648254 301.894165,443.648254 293.690979,443.648254 
	C293.690979,432.283600 293.255829,420.859619 293.867462,409.491943 
	C294.192108,403.458496 300.506165,399.062195 306.195129,399.376495 
	C312.340149,399.715973 317.683746,405.004578 317.910645,411.517944 
	C318.165283,418.828339 317.992798,426.153625 318.006104,433.966125 
z"/>
<path fill="#000000" opacity="1.000000" stroke="none" 
	d="
M468.002808,448.591675 
	C468.002808,447.331329 468.002808,446.503204 468.002808,446.364105 
	C472.055725,450.521545 476.443665,455.022675 480.639191,459.326447 
	C477.274658,462.671631 472.852692,467.068146 468.002808,471.890106 
	C468.002808,464.077087 468.002808,456.550476 468.002808,448.591675 
z"/>
</svg>