<svg version="1.1" id="Layer_1" xmlns="http://www.w3.org/2000/svg" xmlns:xlink="http://www.w3.org/1999/xlink" x="0px" y="0px"
	 width="100%" viewBox="0 0 3840 2160" enable-background="new 0 0 3840 2160" xml:space="preserve">
<path fill="#47704C" opacity="1.000000" stroke="none" 
	d="
M2578.000000,2162.000000 
	C1718.666870,2162.000000 860.333618,2162.000000 2.000345,2162.000000 
	C2.000230,1442.000244 2.000230,722.000549 2.000115,2.000635 
	C1281.999512,2.000423 2561.999023,2.000423 3841.999023,2.000212 
	C3841.999268,721.999329 3841.999268,1441.998657 3841.999512,2161.999023 
	C3421.000000,2162.000000 3000.000000,2162.000000 2578.000000,2162.000000 
M309.589050,900.877258 
	C309.259125,901.141235 309.034882,901.476074 307.920898,902.891418 
	C295.916229,914.965454 283.911591,927.039490 270.670105,939.859558 
	C245.165680,961.495483 218.793869,981.947327 190.017792,999.136414 
	C182.938889,1003.364990 175.960953,1007.762573 167.717941,1012.558838 
	C129.378082,1033.903076 88.726776,1049.507690 46.607780,1061.526245 
	C29.639221,1066.368042 27.723282,1069.520996 28.173147,1086.880859 
	C28.313189,1092.284790 30.244493,1095.942871 35.015026,1097.888428 
	C40.538200,1100.140991 46.151424,1102.261475 51.877140,1103.913818 
	C83.273567,1112.973999 114.082352,1123.727295 143.231598,1138.514526 
	C163.620117,1148.857422 183.229004,1160.737183 204.114838,1173.008667 
	C205.722076,1174.186890 207.290192,1175.423218 208.942276,1176.534668 
	C253.566483,1206.557983 292.916138,1242.496948 327.121826,1283.878540 
	C341.258453,1300.980957 353.563385,1319.597290 367.500732,1338.850464 
	C369.945618,1343.179321 372.479828,1347.460571 374.819580,1351.845459 
	C384.032166,1369.111084 393.183624,1386.409180 402.288422,1404.645142 
	C402.288422,1404.645142 402.311615,1405.597046 402.586548,1407.010498 
	C405.083801,1411.351318 407.581055,1415.692261 410.054962,1419.972656 
	C410.054962,1419.972656 410.020813,1419.917725 410.143280,1421.402832 
	C412.142944,1425.927734 414.142609,1430.452637 416.055115,1435.019165 
	C416.055115,1435.019165 416.117462,1434.971924 416.322083,1436.351196 
	C416.898193,1437.585693 417.474335,1438.820068 418.070221,1439.975098 
	C418.070221,1439.975098 418.005585,1439.925049 418.057251,1441.219360 
	C418.808502,1443.228027 419.559723,1445.236694 420.870819,1448.335083 
	C423.924622,1457.919312 426.978424,1467.503418 430.161438,1478.843750 
	C432.516693,1486.017334 432.060577,1494.228760 438.050385,1499.968506 
	C438.050385,1499.968506 437.930298,1499.963623 438.221191,1501.257080 
	C440.175537,1502.844849 442.129913,1504.432739 444.028992,1505.944214 
	C444.028992,1505.944214 443.934784,1505.941895 444.724915,1506.844604 
	C445.839478,1507.226196 446.954041,1507.607788 448.033478,1507.923340 
	C448.033478,1507.923340 447.960388,1507.939087 448.829865,1508.835815 
	C455.680817,1511.117065 461.531982,1509.878174 465.945770,1503.945557 
	C465.945770,1503.945557 465.940033,1504.049683 466.927551,1503.711182 
	C467.273682,1503.131714 467.619812,1502.552246 468.001221,1502.000000 
	C468.001221,1502.000000 467.971710,1501.966431 468.942841,1501.666992 
	C469.270935,1501.097534 469.599060,1500.528076 469.987305,1499.990234 
	C469.987305,1499.990234 469.938599,1499.942749 471.089325,1499.168213 
	C473.405518,1491.104980 475.721710,1483.041626 478.474945,1473.816772 
	C479.475952,1470.575195 480.476959,1467.333740 482.249634,1462.817261 
	C484.844940,1454.860718 487.440247,1446.904297 490.458344,1437.999146 
	C493.095245,1430.715820 495.732147,1423.432495 499.525421,1415.501709 
	C501.032349,1413.348877 502.897034,1411.362427 503.987854,1409.016113 
	C510.820770,1394.319580 517.481079,1379.542725 525.213501,1363.849487 
	C527.025024,1361.088257 528.817444,1358.314209 530.651306,1355.567871 
	C543.139465,1336.864746 555.153809,1317.819580 568.292542,1299.584717 
	C577.745789,1286.464722 588.702454,1274.428101 600.033875,1260.967407 
	C602.514343,1258.298096 604.964722,1255.599976 607.480103,1252.963989 
	C626.971558,1232.537964 648.031677,1213.842773 671.177856,1195.800049 
	C671.686401,1195.213379 672.194885,1194.626587 673.191040,1193.895264 
	C673.191040,1193.895264 673.552246,1193.537231 674.471985,1193.309326 
	C675.061218,1193.025146 675.494263,1192.586792 675.949463,1192.009033 
	C675.949463,1192.009033 676.005676,1191.839233 677.296265,1191.472412 
	C682.202820,1187.671143 687.109375,1183.869751 692.049927,1180.071411 
	C692.049927,1180.071411 692.063477,1180.039673 693.421387,1179.747681 
	C708.761047,1170.519165 724.050232,1161.205322 739.460693,1152.096802 
	C747.712280,1147.219482 756.172974,1142.695923 764.962585,1137.975220 
	C764.962585,1137.975220 765.309448,1137.729614 766.851868,1137.534424 
	C791.536804,1127.813232 816.146118,1117.893188 840.946594,1108.476318 
	C849.918518,1105.069580 859.461060,1103.191650 868.535828,1100.022217 
	C876.997131,1097.066895 881.695251,1089.882690 881.451355,1081.840698 
	C881.206604,1073.769653 876.176086,1066.247681 868.183289,1063.734009 
	C854.907959,1059.559082 841.442566,1055.988159 827.912537,1051.998901 
	C827.912537,1051.998901 827.698547,1052.044189 827.355103,1051.565674 
	C826.999329,1051.304443 826.627869,1051.279541 824.775696,1050.777222 
	C824.253967,1050.625854 823.732239,1050.474609 822.257141,1049.563477 
	C820.691101,1049.135742 819.125122,1048.707886 817.069519,1048.012451 
	C817.069519,1048.012451 816.513733,1047.963501 815.606873,1047.140259 
	C814.457764,1046.825073 813.308716,1046.509766 811.975464,1046.032104 
	C811.975464,1046.032104 811.732239,1046.065918 810.673157,1045.246948 
	C807.616272,1044.250977 804.559387,1043.254883 801.059265,1042.002686 
	C801.059265,1042.002686 800.548523,1041.967896 799.641479,1041.140625 
	C798.503052,1040.800659 797.364624,1040.460571 794.971313,1039.443604 
	C771.234619,1027.456787 747.161438,1016.081909 723.872925,1003.279785 
	C706.762390,993.873962 690.679382,982.598938 673.387512,971.166748 
	C672.249023,970.090698 671.110535,969.014709 669.959106,968.050537 
	C669.959106,968.050537 670.062988,968.007019 669.450195,966.809814 
	C634.571533,940.638367 604.361694,909.648010 575.680359,875.169922 
	C566.058716,862.086243 556.127258,849.216064 546.918457,835.848022 
	C540.166504,826.046570 534.362488,815.592102 527.825439,804.107361 
	C519.813354,788.732422 511.801208,773.357483 503.334869,756.634827 
	C492.108704,730.971008 482.578461,704.716736 475.494446,677.586609 
	C474.409454,673.431335 472.725342,669.382141 470.895111,665.482483 
	C467.188324,657.584717 460.670258,654.864746 452.130280,655.194580 
	C443.976379,655.509705 439.118835,660.022217 436.145142,666.758545 
	C433.737396,672.212769 432.049042,678.026245 430.467316,683.796997 
	C417.528748,731.002258 397.100494,774.886353 372.193420,816.868774 
	C356.343384,843.585083 337.872772,868.353882 317.282623,892.617493 
	C316.803467,892.989014 316.466705,893.461914 316.096100,894.084290 
	C316.096100,894.084290 316.050262,894.261169 315.292023,894.646057 
	C314.820007,894.994141 314.493347,895.447083 314.085663,896.130066 
	C314.085663,896.130066 313.974701,896.363770 313.327606,896.666443 
	C312.922119,896.957092 312.667419,897.346375 312.193298,898.112244 
	C312.193298,898.112244 311.915558,898.482605 311.258545,898.779968 
	C310.849335,899.081604 310.603058,899.483276 310.257324,900.240906 
	C310.257324,900.240906 310.128510,900.584229 309.589050,900.877258 
M1098.627808,1136.052612 
	C1100.513428,1145.515503 1101.860596,1155.123779 1104.372803,1164.417358 
	C1119.982422,1222.161499 1148.008667,1272.589966 1191.020752,1314.820068 
	C1230.874390,1353.949097 1277.323120,1381.437988 1330.345215,1397.961792 
	C1378.106201,1412.846069 1427.106812,1415.301392 1476.619385,1410.388672 
	C1527.827637,1405.307739 1575.325806,1389.429321 1618.760620,1361.546265 
	C1669.170532,1329.185547 1705.619263,1284.987915 1727.763550,1229.718506 
	C1748.829590,1177.140137 1754.717896,1122.164062 1747.454834,1065.913574 
	C1746.013916,1054.755005 1745.386719,1054.406738 1734.377197,1054.331299 
	C1700.058350,1054.095825 1665.739380,1053.749756 1631.420166,1053.693726 
	C1568.429810,1053.590820 1505.439331,1053.653931 1442.448853,1053.692139 
	C1438.887207,1053.694336 1435.325806,1054.096436 1432.048340,1054.295044 
	C1429.456909,1065.005493 1429.759277,1132.734741 1432.629517,1141.677490 
	C1436.429565,1141.677490 1440.681641,1141.677490 1444.933716,1141.677490 
	C1508.923950,1141.678345 1572.914307,1141.665405 1636.904541,1141.711914 
	C1641.092163,1141.714966 1645.279541,1142.172729 1650.552490,1142.482910 
	C1649.537720,1149.266968 1648.905884,1154.830933 1647.854004,1160.314331 
	C1637.793091,1212.758301 1610.008545,1253.504395 1566.013062,1283.319092 
	C1527.991455,1309.085693 1484.651855,1317.419800 1439.966064,1319.365234 
	C1413.650391,1320.510986 1387.778687,1315.728149 1362.126099,1308.903198 
	C1336.870850,1302.183716 1314.337402,1290.726074 1293.084839,1276.144653 
	C1277.043823,1265.138550 1263.819580,1251.117920 1250.908447,1236.678101 
	C1231.516479,1214.990234 1216.665527,1190.550537 1208.012939,1162.943237 
	C1195.920288,1124.360107 1192.356934,1084.749146 1197.867310,1044.478149 
	C1202.856689,1008.015442 1213.889771,974.221558 1235.419189,943.556396 
	C1261.077148,907.010986 1294.154053,880.378357 1334.317871,861.998779 
	C1377.351440,842.305908 1422.591064,837.880310 1469.120728,843.637573 
	C1513.362915,849.111816 1551.954590,867.520508 1586.173584,895.582764 
	C1592.771240,900.993286 1598.812744,907.082153 1605.823975,913.512146 
	C1628.325195,890.284363 1652.288940,869.822388 1673.767578,846.019653 
	C1670.897217,842.841858 1668.812012,840.291809 1666.480103,837.991882 
	C1654.126343,825.807495 1640.837158,814.863342 1626.319214,805.218201 
	C1571.283081,768.654541 1510.650513,750.204651 1444.845337,748.411682 
	C1418.524048,747.694519 1392.338501,749.507629 1366.323975,754.106079 
	C1315.464966,763.096252 1269.454224,783.868713 1228.163330,814.000305 
	C1189.900635,841.922241 1158.902344,877.029602 1135.774902,918.877991 
	C1109.116455,967.115356 1095.418701,1018.748230 1094.595093,1073.606689 
	C1094.291748,1093.817261 1097.019897,1114.073364 1098.627808,1136.052612 
M2596.327148,1200.999878 
	C2596.327637,1262.317993 2596.312500,1323.636230 2596.364014,1384.954346 
	C2596.367432,1389.115845 2596.871582,1393.276855 2597.185059,1398.083740 
	C2629.906250,1398.508301 2661.392822,1398.362305 2693.667969,1398.246216 
	C2693.932861,1392.268677 2694.310059,1387.697266 2694.312256,1383.125610 
	C2694.349121,1306.162231 2694.181152,1229.198242 2694.427002,1152.235596 
	C2694.510986,1125.969727 2698.887207,1100.452881 2712.551025,1077.415649 
	C2730.345703,1047.413452 2754.493652,1025.898560 2790.423340,1020.822693 
	C2807.528564,1018.406250 2824.617188,1019.951538 2840.641357,1025.777222 
	C2862.738037,1033.810669 2877.775146,1049.884521 2886.139160,1071.979614 
	C2892.607422,1089.066528 2894.297363,1106.916870 2894.306396,1124.985229 
	C2894.349854,1211.298462 2894.314697,1297.611694 2894.362305,1383.924927 
	C2894.364746,1388.423584 2894.870850,1392.921997 2895.155029,1397.629883 
	C2927.568115,1397.629883 2958.748291,1397.629883 2990.862793,1397.629883 
	C2991.156982,1392.433594 2991.655518,1387.881836 2991.636719,1383.332153 
	C2991.237305,1287.392700 2991.114014,1191.449951 2990.141357,1095.515991 
	C2989.825684,1064.354614 2984.538818,1033.885010 2969.249512,1005.941467 
	C2951.925537,974.279236 2927.525879,951.216675 2892.423584,940.120056 
	C2858.936279,929.533997 2825.022461,928.627563 2790.882080,934.804260 
	C2754.625488,941.363708 2724.358398,959.326965 2699.260986,986.108765 
	C2691.371582,994.527527 2683.774170,1003.219910 2675.322998,1012.585022 
	C2673.424805,1009.401672 2671.710449,1006.710022 2670.173584,1003.920471 
	C2657.802490,981.464783 2640.245850,964.046326 2618.176025,951.272034 
	C2590.861816,935.462097 2561.057617,930.960510 2529.851318,931.416870 
	C2499.552734,931.859985 2472.392578,941.415588 2446.748535,956.473328 
	C2428.065186,967.443848 2413.466064,982.903137 2400.181641,999.751221 
	C2398.286865,1002.154297 2397.133789,1005.791016 2392.574219,1005.670166 
	C2388.001709,986.196655 2392.072998,966.438232 2389.565918,947.370911 
	C2378.764648,944.739197 2306.372070,945.083740 2298.779541,947.623474 
	C2296.866943,958.526489 2297.281250,1389.031372 2299.394287,1397.599854 
	C2330.967529,1397.599854 2362.723145,1397.599854 2395.227539,1397.599854 
	C2395.620605,1389.681274 2396.283447,1382.447632 2396.291260,1375.213257 
	C2396.369629,1303.581787 2396.261963,1231.950195 2396.425537,1160.319092 
	C2396.449219,1150.035889 2396.991943,1139.666260 2398.407959,1129.491577 
	C2401.662598,1106.106934 2409.045654,1084.048584 2423.068115,1064.783325 
	C2439.897705,1041.661743 2460.892090,1024.860596 2490.491455,1020.821472 
	C2501.950439,1019.257812 2513.048584,1020.474976 2524.252686,1021.801270 
	C2555.756836,1025.530518 2576.678955,1042.979004 2588.183838,1072.063843 
	C2593.872314,1086.443726 2596.218506,1101.588257 2596.288330,1117.018921 
	C2596.412354,1144.345459 2596.325684,1171.672729 2596.327148,1200.999878 
M1952.286499,1304.843750 
	C1928.015015,1290.664307 1911.535400,1269.967773 1901.316406,1244.004761 
	C1894.974365,1227.892212 1890.086426,1211.485962 1889.703979,1193.079712 
	C1893.900635,1192.791748 1897.143433,1192.415527 1900.390259,1192.376831 
	C1908.386963,1192.281616 1916.385620,1192.339722 1924.383423,1192.339600 
	C2026.022583,1192.338867 2127.661865,1192.350342 2229.301025,1192.298828 
	C2233.787354,1192.296631 2238.272949,1191.719482 2242.936035,1191.397949 
	C2244.931396,1168.976929 2244.693604,1147.776978 2242.323242,1126.555786 
	C2235.900635,1069.055786 2213.223145,1019.677979 2169.388672,981.026001 
	C2155.614502,968.880310 2140.407227,958.691406 2123.459229,951.293945 
	C2077.541992,931.252380 2029.680908,927.374939 1980.630005,934.490601 
	C1958.415894,937.713196 1936.871582,944.047668 1917.248535,954.941040 
	C1893.573608,968.083740 1872.438477,984.659546 1854.228394,1005.061951 
	C1827.694458,1034.790039 1810.001953,1069.092163 1799.921509,1107.299561 
	C1791.957031,1137.487427 1790.901855,1168.308716 1793.486084,1199.436768 
	C1796.888306,1240.419556 1808.896973,1278.070923 1831.960327,1312.426758 
	C1863.458374,1359.347412 1906.718994,1389.471069 1960.645264,1404.554321 
	C1996.805054,1414.668091 2033.709717,1414.347290 2070.649170,1409.622192 
	C2105.656738,1405.144287 2137.896729,1392.978027 2166.370605,1372.131470 
	C2191.874268,1353.459595 2212.339844,1329.780151 2229.758789,1303.481934 
	C2231.734131,1300.499756 2233.029053,1297.066895 2235.193115,1292.734131 
	C2208.275391,1279.741089 2182.046875,1267.080811 2155.504150,1254.268799 
	C2153.320312,1257.032471 2151.615479,1259.017090 2150.102295,1261.138184 
	C2146.042480,1266.828857 2142.475342,1272.923828 2137.989502,1278.249023 
	C2103.685547,1318.971802 2058.968018,1331.392334 2007.840210,1324.907837 
	C1988.504761,1322.455566 1970.532715,1315.168457 1952.286499,1304.843750 
M3616.210938,1010.840149 
	C3597.809326,975.866760 3570.229492,951.880493 3532.211914,940.118652 
	C3508.727539,932.853088 3484.789307,931.000305 3460.307373,931.464355 
	C3427.604004,932.084167 3398.249512,942.587280 3370.899414,959.427673 
	C3353.719971,970.005676 3339.557129,984.078308 3327.649902,1000.426331 
	C3325.937988,1002.777161 3325.141357,1006.970032 3319.318848,1005.913635 
	C3318.791748,986.273254 3318.261719,966.529053 3317.739990,947.089966 
	C3305.740723,944.836609 3234.854248,945.238342 3227.191650,947.364502 
	C3224.994629,956.556213 3224.988525,1381.346558 3227.185059,1396.678223 
	C3236.514893,1399.187134 3315.345703,1398.981934 3324.338623,1396.065552 
	C3324.338623,1391.833740 3324.338135,1387.231812 3324.338135,1382.629761 
	C3324.338623,1306.305420 3324.143555,1229.980225 3324.434570,1153.656982 
	C3324.554443,1122.244629 3333.116455,1093.080688 3351.695557,1067.453125 
	C3366.500732,1047.031494 3385.105469,1031.171509 3409.900391,1024.142212 
	C3431.224365,1018.096924 3452.987305,1018.482910 3474.074219,1024.307251 
	C3505.016602,1032.853760 3526.754395,1051.956055 3535.634033,1083.861450 
	C3540.044434,1099.707397 3541.549072,1115.952271 3541.581787,1132.267090 
	C3541.749756,1216.256958 3541.660645,1300.247314 3541.661133,1384.237427 
	C3541.661133,1388.465942 3541.661377,1392.694458 3541.661377,1396.548096 
	C3552.502441,1399.060059 3628.112793,1398.899414 3637.097900,1396.444092 
	C3637.278320,1393.141602 3637.630371,1389.560791 3637.643555,1385.978638 
	C3637.704590,1369.314209 3637.745117,1352.648926 3637.660645,1335.984741 
	C3637.244141,1253.695068 3637.189697,1171.400513 3636.110352,1089.119385 
	C3635.758057,1062.271973 3628.654297,1036.482544 3616.210938,1010.840149 
M3705.660645,1200.999878 
	C3705.660645,1222.981812 3705.660400,1244.963745 3705.660400,1266.945679 
	C3705.660400,1288.594482 3705.543457,1310.244263 3705.693604,1331.891968 
	C3705.844727,1353.701050 3705.015381,1375.545776 3706.253418,1397.627197 
	C3739.117676,1397.627197 3770.596436,1397.627197 3801.881836,1397.627197 
	C3804.355225,1388.239258 3804.327148,955.537659 3802.040527,947.049683 
	C3792.103027,944.822998 3714.593750,945.153320 3705.660400,947.824829 
	C3705.660400,1031.299438 3705.660400,1115.149536 3705.660645,1200.999878 
M3155.671631,1384.671021 
	C3155.672119,1311.727661 3155.673096,1238.784180 3155.672852,1165.840820 
	C3155.672852,1096.894409 3155.686523,1027.947998 3155.634766,959.001526 
	C3155.631592,954.848633 3155.104004,950.696167 3154.776855,945.906250 
	C3122.074219,945.502258 3090.602539,945.630493 3059.481445,945.753479 
	C3056.830566,957.066101 3057.109619,1389.141846 3059.430176,1397.041260 
	C3071.743652,1399.389893 3147.217285,1398.840698 3155.159424,1396.132935 
	C3155.320068,1393.114624 3155.494385,1389.843384 3155.671631,1384.671021 
M3048.423584,783.664795 
	C3032.906982,812.537781 3042.576172,845.468323 3062.290527,862.889099 
	C3094.437012,891.295288 3146.914062,884.035339 3166.542480,841.674072 
	C3185.727295,800.271179 3160.061279,761.849182 3123.804443,751.803711 
	C3096.587646,744.262817 3066.671875,753.726807 3048.423584,783.664795 
M3809.138916,783.986023 
	C3792.342773,760.159241 3770.144043,748.987061 3740.544678,753.611572 
	C3706.515137,758.928406 3678.096680,795.545898 3689.073486,835.135437 
	C3696.015381,860.173401 3722.632812,884.015381 3756.142578,882.592712 
	C3802.419434,880.627930 3835.514893,828.879211 3809.138916,783.986023 
z"/>
<path fill="#000100" opacity="1.000000" stroke="none" 
	d="
M1098.496582,1135.180664 
	C1097.019897,1114.073364 1094.291748,1093.817261 1094.595093,1073.606689 
	C1095.418701,1018.748230 1109.116455,967.115356 1135.774902,918.877991 
	C1158.902344,877.029602 1189.900635,841.922241 1228.163330,814.000305 
	C1269.454224,783.868713 1315.464966,763.096252 1366.323975,754.106079 
	C1392.338501,749.507629 1418.524048,747.694519 1444.845337,748.411682 
	C1510.650513,750.204651 1571.283081,768.654541 1626.319214,805.218201 
	C1640.837158,814.863342 1654.126343,825.807495 1666.480103,837.991882 
	C1668.812012,840.291809 1670.897217,842.841858 1673.767578,846.019653 
	C1652.288940,869.822388 1628.325195,890.284363 1605.823975,913.512146 
	C1598.812744,907.082153 1592.771240,900.993286 1586.173584,895.582764 
	C1551.954590,867.520508 1513.362915,849.111816 1469.120728,843.637573 
	C1422.591064,837.880310 1377.351440,842.305908 1334.317871,861.998779 
	C1294.154053,880.378357 1261.077148,907.010986 1235.419189,943.556396 
	C1213.889771,974.221558 1202.856689,1008.015442 1197.867310,1044.478149 
	C1192.356934,1084.749146 1195.920288,1124.360107 1208.012939,1162.943237 
	C1216.665527,1190.550537 1231.516479,1214.990234 1250.908447,1236.678101 
	C1263.819580,1251.117920 1277.043823,1265.138550 1293.084839,1276.144653 
	C1314.337402,1290.726074 1336.870850,1302.183716 1362.126099,1308.903198 
	C1387.778687,1315.728149 1413.650391,1320.510986 1439.966064,1319.365234 
	C1484.651855,1317.419800 1527.991455,1309.085693 1566.013062,1283.319092 
	C1610.008545,1253.504395 1637.793091,1212.758301 1647.854004,1160.314331 
	C1648.905884,1154.830933 1649.537720,1149.266968 1650.552490,1142.482910 
	C1645.279541,1142.172729 1641.092163,1141.714966 1636.904541,1141.711914 
	C1572.914307,1141.665405 1508.923950,1141.678345 1444.933716,1141.677490 
	C1440.681641,1141.677490 1436.429565,1141.677490 1432.629517,1141.677490 
	C1429.759277,1132.734741 1429.456909,1065.005493 1432.048340,1054.295044 
	C1435.325806,1054.096436 1438.887207,1053.694336 1442.448853,1053.692139 
	C1505.439331,1053.653931 1568.429810,1053.590820 1631.420166,1053.693726 
	C1665.739380,1053.749756 1700.058350,1054.095825 1734.377197,1054.331299 
	C1745.386719,1054.406738 1746.013916,1054.755005 1747.454834,1065.913574 
	C1754.717896,1122.164062 1748.829590,1177.140137 1727.763550,1229.718506 
	C1705.619263,1284.987915 1669.170532,1329.185547 1618.760620,1361.546265 
	C1575.325806,1389.429321 1527.827637,1405.307739 1476.619385,1410.388672 
	C1427.106812,1415.301392 1378.106201,1412.846069 1330.345215,1397.961792 
	C1277.323120,1381.437988 1230.874390,1353.949097 1191.020752,1314.820068 
	C1148.008667,1272.589966 1119.982422,1222.161499 1104.372803,1164.417358 
	C1101.860596,1155.123779 1100.513428,1145.515503 1098.496582,1135.180664 
z"/>
<path fill="#000100" opacity="1.000000" stroke="none" 
	d="
M2596.327148,1199.999756 
	C2596.325684,1171.672729 2596.412354,1144.345459 2596.288330,1117.018921 
	C2596.218506,1101.588257 2593.872314,1086.443726 2588.183838,1072.063843 
	C2576.678955,1042.979004 2555.756836,1025.530518 2524.252686,1021.801270 
	C2513.048584,1020.474976 2501.950439,1019.257812 2490.491455,1020.821472 
	C2460.892090,1024.860596 2439.897705,1041.661743 2423.068115,1064.783325 
	C2409.045654,1084.048584 2401.662598,1106.106934 2398.407959,1129.491577 
	C2396.991943,1139.666260 2396.449219,1150.035889 2396.425537,1160.319092 
	C2396.261963,1231.950195 2396.369629,1303.581787 2396.291260,1375.213257 
	C2396.283447,1382.447632 2395.620605,1389.681274 2395.227539,1397.599854 
	C2362.723145,1397.599854 2330.967529,1397.599854 2299.394287,1397.599854 
	C2297.281250,1389.031372 2296.866943,958.526489 2298.779541,947.623474 
	C2306.372070,945.083740 2378.764648,944.739197 2389.565918,947.370911 
	C2392.072998,966.438232 2388.001709,986.196655 2392.574219,1005.670166 
	C2397.133789,1005.791016 2398.286865,1002.154297 2400.181641,999.751221 
	C2413.466064,982.903137 2428.065186,967.443848 2446.748535,956.473328 
	C2472.392578,941.415588 2499.552734,931.859985 2529.851318,931.416870 
	C2561.057617,930.960510 2590.861816,935.462097 2618.176025,951.272034 
	C2640.245850,964.046326 2657.802490,981.464783 2670.173584,1003.920471 
	C2671.710449,1006.710022 2673.424805,1009.401672 2675.322998,1012.585022 
	C2683.774170,1003.219910 2691.371582,994.527527 2699.260986,986.108765 
	C2724.358398,959.326965 2754.625488,941.363708 2790.882080,934.804260 
	C2825.022461,928.627563 2858.936279,929.533997 2892.423584,940.120056 
	C2927.525879,951.216675 2951.925537,974.279236 2969.249512,1005.941467 
	C2984.538818,1033.885010 2989.825684,1064.354614 2990.141357,1095.515991 
	C2991.114014,1191.449951 2991.237305,1287.392700 2991.636719,1383.332153 
	C2991.655518,1387.881836 2991.156982,1392.433594 2990.862793,1397.629883 
	C2958.748291,1397.629883 2927.568115,1397.629883 2895.155029,1397.629883 
	C2894.870850,1392.921997 2894.364746,1388.423584 2894.362305,1383.924927 
	C2894.314697,1297.611694 2894.349854,1211.298462 2894.306396,1124.985229 
	C2894.297363,1106.916870 2892.607422,1089.066528 2886.139160,1071.979614 
	C2877.775146,1049.884521 2862.738037,1033.810669 2840.641357,1025.777222 
	C2824.617188,1019.951538 2807.528564,1018.406250 2790.423340,1020.822693 
	C2754.493652,1025.898560 2730.345703,1047.413452 2712.551025,1077.415649 
	C2698.887207,1100.452881 2694.510986,1125.969727 2694.427002,1152.235596 
	C2694.181152,1229.198242 2694.349121,1306.162231 2694.312256,1383.125610 
	C2694.310059,1387.697266 2693.932861,1392.268677 2693.667969,1398.246216 
	C2661.392822,1398.362305 2629.906250,1398.508301 2597.185059,1398.083740 
	C2596.871582,1393.276855 2596.367432,1389.115845 2596.364014,1384.954346 
	C2596.312500,1323.636230 2596.327637,1262.317993 2596.327148,1199.999756 
z"/>
<path fill="#000100" opacity="1.000000" stroke="none" 
	d="
M1952.926147,1305.200684 
	C1970.532715,1315.168457 1988.504761,1322.455566 2007.840210,1324.907837 
	C2058.968018,1331.392334 2103.685547,1318.971802 2137.989502,1278.249023 
	C2142.475342,1272.923828 2146.042480,1266.828857 2150.102295,1261.138184 
	C2151.615479,1259.017090 2153.320312,1257.032471 2155.504150,1254.268799 
	C2182.046875,1267.080811 2208.275391,1279.741089 2235.193115,1292.734131 
	C2233.029053,1297.066895 2231.734131,1300.499756 2229.758789,1303.481934 
	C2212.339844,1329.780151 2191.874268,1353.459595 2166.370605,1372.131470 
	C2137.896729,1392.978027 2105.656738,1405.144287 2070.649170,1409.622192 
	C2033.709717,1414.347290 1996.805054,1414.668091 1960.645264,1404.554321 
	C1906.718994,1389.471069 1863.458374,1359.347412 1831.960327,1312.426758 
	C1808.896973,1278.070923 1796.888306,1240.419556 1793.486084,1199.436768 
	C1790.901855,1168.308716 1791.957031,1137.487427 1799.921509,1107.299561 
	C1810.001953,1069.092163 1827.694458,1034.790039 1854.228394,1005.061951 
	C1872.438477,984.659546 1893.573608,968.083740 1917.248535,954.941040 
	C1936.871582,944.047668 1958.415894,937.713196 1980.630005,934.490601 
	C2029.680908,927.374939 2077.541992,931.252380 2123.459229,951.293945 
	C2140.407227,958.691406 2155.614502,968.880310 2169.388672,981.026001 
	C2213.223145,1019.677979 2235.900635,1069.055786 2242.323242,1126.555786 
	C2244.693604,1147.776978 2244.931396,1168.976929 2242.936035,1191.397949 
	C2238.272949,1191.719482 2233.787354,1192.296631 2229.301025,1192.298828 
	C2127.661865,1192.350342 2026.022583,1192.338867 1924.383423,1192.339600 
	C1916.385620,1192.339722 1908.386963,1192.281616 1900.390259,1192.376831 
	C1897.143433,1192.415527 1893.900635,1192.791748 1889.703979,1193.079712 
	C1890.086426,1211.485962 1894.974365,1227.892212 1901.316406,1244.004761 
	C1911.535400,1269.967773 1928.015015,1290.664307 1952.926147,1305.200684 
M2030.999878,1120.321899 
	C2068.624756,1120.211914 2106.249512,1120.110229 2143.874023,1119.940918 
	C2144.755371,1119.937012 2145.633301,1119.173828 2147.107178,1118.488159 
	C2144.134521,1091.810791 2133.751465,1068.424683 2114.755859,1049.523926 
	C2081.927246,1016.859436 2041.594116,1007.722107 1997.076660,1015.257507 
	C1956.899292,1022.058167 1928.337646,1045.604370 1908.682007,1080.493896 
	C1902.019653,1092.320068 1896.637085,1104.814575 1894.791260,1118.490601 
	C1896.377930,1119.208740 1897.257812,1119.953491 1898.140625,1119.956787 
	C1941.760132,1120.118530 1985.380005,1120.216797 2030.999878,1120.321899 
z"/>
<path fill="#000100" opacity="1.000000" stroke="none" 
	d="
M3616.542480,1011.506958 
	C3628.654297,1036.482544 3635.758057,1062.271973 3636.110352,1089.119385 
	C3637.189697,1171.400513 3637.244141,1253.695068 3637.660645,1335.984741 
	C3637.745117,1352.648926 3637.704590,1369.314209 3637.643555,1385.978638 
	C3637.630371,1389.560791 3637.278320,1393.141602 3637.097900,1396.444092 
	C3628.112793,1398.899414 3552.502441,1399.060059 3541.661377,1396.548096 
	C3541.661377,1392.694458 3541.661133,1388.465942 3541.661133,1384.237427 
	C3541.660645,1300.247314 3541.749756,1216.256958 3541.581787,1132.267090 
	C3541.549072,1115.952271 3540.044434,1099.707397 3535.634033,1083.861450 
	C3526.754395,1051.956055 3505.016602,1032.853760 3474.074219,1024.307251 
	C3452.987305,1018.482910 3431.224365,1018.096924 3409.900391,1024.142212 
	C3385.105469,1031.171509 3366.500732,1047.031494 3351.695557,1067.453125 
	C3333.116455,1093.080688 3324.554443,1122.244629 3324.434570,1153.656982 
	C3324.143555,1229.980225 3324.338623,1306.305420 3324.338135,1382.629761 
	C3324.338135,1387.231812 3324.338623,1391.833740 3324.338623,1396.065552 
	C3315.345703,1398.981934 3236.514893,1399.187134 3227.185059,1396.678223 
	C3224.988525,1381.346558 3224.994629,956.556213 3227.191650,947.364502 
	C3234.854248,945.238342 3305.740723,944.836609 3317.739990,947.089966 
	C3318.261719,966.529053 3318.791748,986.273254 3319.318848,1005.913635 
	C3325.141357,1006.970032 3325.937988,1002.777161 3327.649902,1000.426331 
	C3339.557129,984.078308 3353.719971,970.005676 3370.899414,959.427673 
	C3398.249512,942.587280 3427.604004,932.084167 3460.307373,931.464355 
	C3484.789307,931.000305 3508.727539,932.853088 3532.211914,940.118652 
	C3570.229492,951.880493 3597.809326,975.866760 3616.542480,1011.506958 
z"/>
<path fill="#1D89FF" opacity="1.000000" stroke="none" 
	d="
M816.513733,1047.963501 
	C816.513733,1047.963501 817.069519,1048.012451 817.813171,1048.528687 
	C820.108032,1049.471069 821.659302,1049.897339 823.210510,1050.323486 
	C823.732239,1050.474609 824.253967,1050.625854 825.697388,1051.334839 
	C826.619019,1051.892456 827.142029,1052.087036 827.142029,1052.087036 
	C827.142029,1052.087036 827.698547,1052.044189 827.698547,1052.044189 
	C827.698547,1052.044189 827.912537,1051.998901 828.263916,1052.693604 
	C830.960449,1058.029297 833.944153,1062.121216 839.695740,1062.206177 
	C849.598938,1062.352539 853.299866,1071.290039 862.091003,1075.583618 
	C858.546631,1078.301025 856.752075,1080.249023 854.531494,1081.274902 
	C847.102783,1084.706787 841.679138,1089.904419 836.540344,1096.407715 
	C831.778687,1102.433838 824.863037,1107.345581 817.956787,1110.947632 
	C808.304077,1115.981934 797.639954,1119.034668 787.671509,1123.519775 
	C779.595886,1127.153320 770.618958,1129.638062 765.309448,1137.729614 
	C765.309448,1137.729614 764.962585,1137.975220 763.949585,1138.080322 
	C749.462463,1143.833618 736.009399,1149.532837 722.508240,1155.115601 
	C709.827454,1160.359375 700.813049,1170.024170 692.063477,1180.039673 
	C692.063477,1180.039673 692.049927,1180.071411 691.332092,1180.175049 
	C684.338745,1182.355591 678.930847,1185.528687 676.005676,1191.839233 
	C676.005676,1191.839233 675.949463,1192.009033 675.428650,1192.152588 
	C674.353699,1192.598145 673.901794,1193.011841 673.552246,1193.537231 
	C673.552246,1193.537231 673.191040,1193.895264 672.442871,1194.256348 
	C671.165161,1195.167969 670.635498,1195.718384 670.105957,1196.268799 
	C648.031677,1213.842773 626.971558,1232.537964 607.480103,1252.963989 
	C604.964722,1255.599976 602.514343,1258.298096 598.844238,1261.228760 
	C590.256897,1259.518188 582.823792,1257.667114 575.478027,1255.517822 
	C572.312744,1254.591675 568.779114,1253.701904 566.358154,1251.669434 
	C556.705688,1243.566406 546.394287,1235.900146 538.286621,1226.399536 
	C529.538147,1216.148315 522.954651,1204.044312 515.475220,1192.716553 
	C510.534515,1185.233765 506.043060,1177.424316 500.705353,1170.240356 
	C491.306061,1157.589722 482.952515,1144.474487 478.303345,1129.253296 
	C477.436401,1126.415039 476.673584,1122.995972 474.662750,1121.157227 
	C468.194305,1115.242432 466.022797,1107.152832 462.376648,1099.748413 
	C457.440369,1089.723877 454.390259,1079.322998 454.277618,1067.386475 
	C454.953888,1061.413330 457.721680,1057.529663 462.914703,1057.008911 
	C476.747223,1055.621704 484.998016,1045.744751 494.244415,1037.329102 
	C502.568817,1029.752563 510.685730,1021.946472 519.074280,1014.442993 
	C520.995544,1012.724304 523.735291,1011.955994 525.958679,1010.532227 
	C530.380066,1007.700928 534.764587,1004.803650 539.056519,1001.780518 
	C549.060608,994.733948 558.519775,986.759583 569.079651,980.692566 
	C584.848877,971.632507 601.523071,964.163208 617.528625,955.493469 
	C628.672974,949.457031 639.129333,950.258911 649.520752,956.677551 
	C652.616028,958.589355 655.198853,961.373596 658.373535,963.102661 
	C662.065186,965.113403 666.149231,966.403931 670.062988,968.007019 
	C670.062988,968.007019 669.959106,968.050537 670.252197,968.529541 
	C671.743042,970.057983 672.940796,971.107422 674.138489,972.156921 
	C690.679382,982.598938 706.762390,993.873962 723.872925,1003.279785 
	C747.161438,1016.081909 771.234619,1027.456787 796.058716,1040.152466 
	C798.280212,1041.230225 799.414368,1041.598999 800.548523,1041.967896 
	C800.548523,1041.967896 801.059265,1042.002686 801.818298,1042.606689 
	C805.628967,1044.162476 808.680603,1045.114136 811.732239,1046.065918 
	C811.732239,1046.065918 811.975464,1046.032104 812.533813,1046.483887 
	C814.232605,1047.278198 815.373169,1047.620850 816.513733,1047.963501 
z"/>
<path fill="#000100" opacity="1.000000" stroke="none" 
	d="
M3705.660645,1199.999756 
	C3705.660400,1115.149536 3705.660400,1031.299438 3705.660400,947.824829 
	C3714.593750,945.153320 3792.103027,944.822998 3802.040527,947.049683 
	C3804.327148,955.537659 3804.355225,1388.239258 3801.881836,1397.627197 
	C3770.596436,1397.627197 3739.117676,1397.627197 3706.253418,1397.627197 
	C3705.015381,1375.545776 3705.844727,1353.701050 3705.693604,1331.891968 
	C3705.543457,1310.244263 3705.660400,1288.594482 3705.660400,1266.945679 
	C3705.660400,1244.963745 3705.660645,1222.981812 3705.660645,1199.999756 
z"/>
<path fill="#000100" opacity="1.000000" stroke="none" 
	d="
M3155.670166,1385.621582 
	C3155.494385,1389.843384 3155.320068,1393.114624 3155.159424,1396.132935 
	C3147.217285,1398.840698 3071.743652,1399.389893 3059.430176,1397.041260 
	C3057.109619,1389.141846 3056.830566,957.066101 3059.481445,945.753479 
	C3090.602539,945.630493 3122.074219,945.502258 3154.776855,945.906250 
	C3155.104004,950.696167 3155.631592,954.848633 3155.634766,959.001526 
	C3155.686523,1027.947998 3155.672852,1096.894409 3155.672852,1165.840820 
	C3155.673096,1238.784180 3155.672119,1311.727661 3155.670166,1385.621582 
z"/>
<path fill="#329CDC" opacity="1.000000" stroke="none" 
	d="
M454.178650,1068.128418 
	C454.390259,1079.322998 457.440369,1089.723877 462.376648,1099.748413 
	C466.022797,1107.152832 468.194305,1115.242432 474.662750,1121.157227 
	C476.673584,1122.995972 477.436401,1126.415039 478.303345,1129.253296 
	C482.952515,1144.474487 491.306061,1157.589722 500.705353,1170.240356 
	C506.043060,1177.424316 510.534515,1185.233765 515.475220,1192.716553 
	C522.954651,1204.044312 529.538147,1216.148315 538.286621,1226.399536 
	C546.394287,1235.900146 556.705688,1243.566406 566.358154,1251.669434 
	C568.779114,1253.701904 572.312744,1254.591675 575.478027,1255.517822 
	C582.823792,1257.667114 590.256897,1259.518188 598.321533,1261.699097 
	C588.702454,1274.428101 577.745789,1286.464722 568.292542,1299.584717 
	C555.153809,1317.819580 543.139465,1336.864746 530.651306,1355.567871 
	C528.817444,1358.314209 527.025024,1361.088257 524.500488,1363.608887 
	C521.801941,1360.770142 520.302368,1357.481812 517.751892,1355.685669 
	C501.258118,1344.070801 487.528564,1329.805786 476.013428,1313.338989 
	C469.748322,1304.379883 462.452026,1295.889282 457.743927,1286.160034 
	C452.281128,1274.870972 448.294739,1262.669434 445.225433,1250.472046 
	C441.721802,1236.548706 434.609772,1224.891602 426.920319,1213.127686 
	C420.233948,1202.898560 414.657288,1191.887451 409.246185,1180.898926 
	C404.855988,1171.983521 402.414734,1162.002441 397.338409,1153.558472 
	C391.320099,1143.547607 388.212158,1132.977661 386.361816,1121.749268 
	C385.604126,1117.151367 385.251190,1112.399048 383.788177,1108.026855 
	C381.912079,1102.420166 379.909241,1096.546265 376.517761,1091.823975 
	C370.490570,1083.432129 369.177002,1074.241089 369.469727,1064.488525 
	C369.629181,1059.176880 370.201660,1053.877808 371.031311,1048.069336 
	C376.723236,1040.353027 383.309479,1035.289185 392.452759,1034.029297 
	C394.704681,1033.718872 396.855194,1032.672729 399.238098,1032.623047 
	C404.238739,1043.787231 409.318085,1054.183228 413.753143,1064.847168 
	C415.866547,1069.928711 416.834778,1075.499878 418.175629,1080.885742 
	C419.603882,1086.622559 420.471741,1092.534058 422.361786,1098.105591 
	C423.243225,1100.703735 425.589630,1103.207642 427.915436,1104.834229 
	C433.767334,1108.927124 438.821991,1106.711914 440.366486,1099.695557 
	C440.862457,1097.442505 440.509674,1094.944458 441.270142,1092.817871 
	C444.420837,1084.007080 444.640594,1073.606689 454.178650,1068.128418 
z"/>
<path fill="#48B398" opacity="1.000000" stroke="none" 
	d="
M370.587891,1048.572998 
	C370.201660,1053.877808 369.629181,1059.176880 369.469727,1064.488525 
	C369.177002,1074.241089 370.490570,1083.432129 376.517761,1091.823975 
	C379.909241,1096.546265 381.912079,1102.420166 383.788177,1108.026855 
	C385.251190,1112.399048 385.604126,1117.151367 386.361816,1121.749268 
	C388.212158,1132.977661 391.320099,1143.547607 397.338409,1153.558472 
	C402.414734,1162.002441 404.855988,1171.983521 409.246185,1180.898926 
	C414.657288,1191.887451 420.233948,1202.898560 426.920319,1213.127686 
	C434.609772,1224.891602 441.721802,1236.548706 445.225433,1250.472046 
	C448.294739,1262.669434 452.281128,1274.870972 457.743927,1286.160034 
	C462.452026,1295.889282 469.748322,1304.379883 476.013428,1313.338989 
	C487.528564,1329.805786 501.258118,1344.070801 517.751892,1355.685669 
	C520.302368,1357.481812 521.801941,1360.770142 523.993042,1364.080566 
	C517.481079,1379.542725 510.820770,1394.319580 503.987854,1409.016113 
	C502.897034,1411.362427 501.032349,1413.348877 499.135742,1415.154053 
	C501.090332,1408.929688 503.521912,1403.086060 505.757843,1397.168579 
	C508.902191,1388.847046 508.373657,1388.478149 500.567017,1384.317871 
	C495.664490,1381.705200 491.044159,1378.278809 486.933655,1374.521240 
	C477.611328,1365.999512 468.659607,1357.070923 459.604492,1348.259155 
	C455.696716,1344.456177 451.469391,1342.571777 446.099945,1345.154907 
	C441.947327,1347.152832 438.380981,1346.277344 435.372223,1342.769409 
	C434.294708,1341.512939 433.099396,1340.296265 431.761383,1339.334839 
	C425.503082,1334.837280 420.287079,1336.625732 418.170044,1344.070190 
	C417.446136,1346.615845 417.029602,1349.295166 416.850281,1351.938843 
	C416.563354,1356.169922 414.663788,1359.024292 411.563110,1362.085815 
	C401.915222,1371.612549 393.464935,1381.894409 400.980988,1396.904419 
	C401.979248,1398.897949 401.924744,1401.418701 402.357727,1403.695312 
	C393.183624,1386.409180 384.032166,1369.111084 374.819580,1351.845459 
	C372.479828,1347.460571 369.945618,1343.179321 367.775513,1337.905518 
	C372.826050,1334.630737 374.494965,1330.762695 374.303925,1325.553223 
	C374.109711,1320.256348 374.662354,1314.935303 374.569824,1309.630493 
	C374.379089,1298.691772 375.349274,1287.497559 373.344604,1276.879883 
	C370.211456,1260.285400 365.264954,1244.007812 360.596283,1227.736694 
	C356.753540,1214.344116 351.632629,1201.494751 345.163483,1188.991943 
	C337.186493,1173.575317 328.613281,1158.997925 316.863922,1145.971680 
	C303.945435,1131.649048 299.124054,1114.023682 304.043457,1094.980835 
	C307.940796,1079.894287 313.178284,1065.153931 318.328186,1049.771851 
	C322.699341,1045.417603 326.562988,1041.551270 331.198303,1038.042358 
	C336.318512,1039.755493 341.371246,1040.163208 344.822235,1042.726929 
	C348.446411,1045.419434 350.536194,1050.177368 353.157135,1053.838013 
	C359.417084,1051.947144 365.002472,1050.260132 370.587891,1048.572998 
z"/>
<path fill="#8FC957" opacity="1.000000" stroke="none" 
	d="
M317.820709,1050.259766 
	C313.178284,1065.153931 307.940796,1079.894287 304.043457,1094.980835 
	C299.124054,1114.023682 303.945435,1131.649048 316.863922,1145.971680 
	C328.613281,1158.997925 337.186493,1173.575317 345.163483,1188.991943 
	C351.632629,1201.494751 356.753540,1214.344116 360.596283,1227.736694 
	C365.264954,1244.007812 370.211456,1260.285400 373.344604,1276.879883 
	C375.349274,1287.497559 374.379089,1298.691772 374.569824,1309.630493 
	C374.662354,1314.935303 374.109711,1320.256348 374.303925,1325.553223 
	C374.494965,1330.762695 372.826050,1334.630737 367.375854,1337.242920 
	C353.563385,1319.597290 341.258453,1300.980957 327.121826,1283.878540 
	C292.916138,1242.496948 253.566483,1206.557983 208.942276,1176.534668 
	C207.290192,1175.423218 205.722076,1174.186890 204.079071,1171.824219 
	C205.855438,1164.948242 207.449493,1159.175903 209.519028,1153.579468 
	C216.890259,1133.646362 216.587723,1112.511108 219.496094,1091.876099 
	C220.172684,1087.075806 221.674667,1082.391724 223.316483,1077.652588 
	C238.928970,1076.636841 247.037399,1068.234985 250.293350,1053.769531 
	C252.774475,1042.746338 259.747101,1038.331543 270.985992,1040.664673 
	C278.368500,1042.197144 285.628906,1044.787476 292.578339,1047.759033 
	C296.702240,1049.522461 300.000336,1050.327026 304.201630,1047.359863 
	C309.226868,1048.490479 313.523773,1049.375122 317.820709,1050.259766 
z"/>
<path fill="#528EF3" opacity="1.000000" stroke="none" 
	d="
M454.277618,1067.386475 
	C444.640594,1073.606689 444.420837,1084.007080 441.270142,1092.817871 
	C440.509674,1094.944458 440.862457,1097.442505 440.366486,1099.695557 
	C438.821991,1106.711914 433.767334,1108.927124 427.915436,1104.834229 
	C425.589630,1103.207642 423.243225,1100.703735 422.361786,1098.105591 
	C420.471741,1092.534058 419.603882,1086.622559 418.175629,1080.885742 
	C416.834778,1075.499878 415.866547,1069.928711 413.753143,1064.847168 
	C409.318085,1054.183228 404.238739,1043.787231 399.253448,1031.956787 
	C406.525696,1020.173462 413.635284,1009.453918 421.537354,999.354309 
	C426.202850,993.391418 432.458221,988.698242 437.413696,982.931458 
	C450.452240,967.758301 464.539948,953.848999 481.185913,942.555054 
	C486.900757,938.677612 491.762451,933.540588 497.002411,928.965820 
	C505.214630,921.796143 512.989990,914.033936 521.744446,907.603821 
	C530.373840,901.265564 538.985107,895.105225 545.026001,886.134827 
	C550.187378,878.470459 557.271545,875.278259 566.301270,875.871765 
	C569.613831,876.089478 572.927307,876.292358 576.240356,876.502075 
	C604.361694,909.648010 634.571533,940.638367 669.756592,967.408447 
	C666.149231,966.403931 662.065186,965.113403 658.373535,963.102661 
	C655.198853,961.373596 652.616028,958.589355 649.520752,956.677551 
	C639.129333,950.258911 628.672974,949.457031 617.528625,955.493469 
	C601.523071,964.163208 584.848877,971.632507 569.079651,980.692566 
	C558.519775,986.759583 549.060608,994.733948 539.056519,1001.780518 
	C534.764587,1004.803650 530.380066,1007.700928 525.958679,1010.532227 
	C523.735291,1011.955994 520.995544,1012.724304 519.074280,1014.442993 
	C510.685730,1021.946472 502.568817,1029.752563 494.244415,1037.329102 
	C484.998016,1045.744751 476.747223,1055.621704 462.914703,1057.008911 
	C457.721680,1057.529663 454.953888,1061.413330 454.277618,1067.386475 
z"/>
<path fill="#E8555D" opacity="1.000000" stroke="none" 
	d="
M318.050476,892.182129 
	C337.872772,868.353882 356.343384,843.585083 372.193420,816.868774 
	C397.100494,774.886353 417.528748,731.002258 430.467316,683.796997 
	C432.049042,678.026245 433.737396,672.212769 436.145142,666.758545 
	C439.118835,660.022217 443.976379,655.509705 452.130280,655.194580 
	C460.670258,654.864746 467.188324,657.584717 470.895111,665.482483 
	C472.725342,669.382141 474.409454,673.431335 475.494446,677.586609 
	C482.578461,704.716736 492.108704,730.971008 503.093140,757.783081 
	C500.188354,763.498779 497.686859,768.170593 494.821320,772.607300 
	C491.244781,778.144836 487.525391,783.606384 483.572021,788.879089 
	C480.410095,793.096191 476.724396,796.916016 473.414551,801.027588 
	C465.087982,811.370972 457.026703,821.934448 448.486633,832.096680 
	C444.239075,837.151001 439.173950,841.518372 434.477020,846.194824 
	C431.650848,849.008789 428.799927,851.798218 425.997375,854.635437 
	C416.907043,863.838501 407.807892,873.033081 398.765015,882.282532 
	C394.120361,887.033325 389.377411,891.713928 385.069824,896.760071 
	C381.457642,900.991699 378.412659,905.707458 374.410828,910.271118 
	C366.308777,911.231567 359.707489,916.525879 351.600311,914.078613 
	C350.280548,913.680237 347.947235,915.418213 346.553680,916.686646 
	C338.490356,924.025818 330.470367,931.419434 322.646088,939.011414 
	C319.451111,942.111633 316.482117,944.582703 311.524963,944.296448 
	C305.361847,943.940491 299.147156,944.448242 292.955750,944.619873 
	C285.399231,944.829346 277.584290,946.070007 271.906952,939.113525 
	C283.911591,927.039490 295.916229,914.965454 308.673035,902.225769 
	C309.749817,901.299866 309.984253,900.974609 310.128510,900.584229 
	C310.128510,900.584229 310.257324,900.240906 310.700928,899.946777 
	C311.534363,899.350220 311.791382,898.960144 311.915558,898.482605 
	C311.915558,898.482605 312.193298,898.112244 312.690491,897.816101 
	C313.571838,897.217529 313.834167,896.832153 313.974701,896.363770 
	C313.974701,896.363770 314.085663,896.130066 314.552307,895.848328 
	C315.459930,895.208252 315.803680,894.773132 316.050262,894.261169 
	C316.050262,894.261169 316.096100,894.084290 316.544769,893.819946 
	C317.438904,893.169434 317.791260,892.711609 318.050476,892.182129 
z"/>
<path fill="#DFC20A" opacity="1.000000" stroke="none" 
	d="
M222.796875,1077.654175 
	C221.674667,1082.391724 220.172684,1087.075806 219.496094,1091.876099 
	C216.587723,1112.511108 216.890259,1133.646362 209.519028,1153.579468 
	C207.449493,1159.175903 205.855438,1164.948242 203.614685,1171.285156 
	C183.229004,1160.737183 163.620117,1148.857422 143.231598,1138.514526 
	C114.082352,1123.727295 83.273567,1112.973999 51.877140,1103.913818 
	C46.151424,1102.261475 40.538200,1100.140991 35.015026,1097.888428 
	C30.244493,1095.942871 28.313189,1092.284790 28.173147,1086.880859 
	C27.723282,1069.520996 29.639221,1066.368042 46.607780,1061.526245 
	C88.726776,1049.507690 129.378082,1033.903076 169.225555,1012.396179 
	C181.803787,1014.233459 192.889801,1016.153137 203.937851,1018.270874 
	C208.683197,1019.180420 211.229980,1022.045471 211.893677,1027.131714 
	C212.298782,1030.236328 213.432190,1034.012207 215.604767,1035.971924 
	C221.449783,1041.244141 222.541443,1047.702881 222.497406,1054.910889 
	C222.451080,1062.491089 222.685257,1070.072998 222.796875,1077.654175 
z"/>
<path fill="#9085C2" opacity="1.000000" stroke="none" 
	d="
M575.960327,875.835938 
	C572.927307,876.292358 569.613831,876.089478 566.301270,875.871765 
	C557.271545,875.278259 550.187378,878.470459 545.026001,886.134827 
	C538.985107,895.105225 530.373840,901.265564 521.744446,907.603821 
	C512.989990,914.033936 505.214630,921.796143 497.002411,928.965820 
	C491.762451,933.540588 486.900757,938.677612 481.185913,942.555054 
	C464.539948,953.848999 450.452240,967.758301 437.413696,982.931458 
	C432.458221,988.698242 426.202850,993.391418 421.537354,999.354309 
	C413.635284,1009.453918 406.525696,1020.173462 399.067627,1031.298584 
	C396.855194,1032.672729 394.704681,1033.718872 392.452759,1034.029297 
	C383.309479,1035.289185 376.723236,1040.353027 371.031311,1048.069336 
	C365.002472,1050.260132 359.417084,1051.947144 353.157135,1053.838013 
	C350.536194,1050.177368 348.446411,1045.419434 344.822235,1042.726929 
	C341.371246,1040.163208 336.318512,1039.755493 331.184937,1037.567139 
	C334.612396,1027.777832 338.821625,1018.819824 343.044495,1009.868225 
	C343.327332,1009.268738 343.657349,1008.675049 344.059387,1008.150696 
	C350.712891,999.471008 357.464661,990.865173 364.021820,982.113464 
	C369.794159,974.409180 375.107605,966.351379 381.065643,958.798279 
	C389.080383,948.637939 396.863953,938.164062 405.930481,928.995300 
	C419.492096,915.280640 434.281921,902.790222 448.182648,889.398438 
	C462.096954,875.993408 475.850128,862.393616 489.099457,848.337708 
	C495.666473,841.370789 501.495911,833.540588 506.654175,825.459473 
	C512.184570,816.795349 518.405640,809.360840 528.136047,805.428711 
	C534.362488,815.592102 540.166504,826.046570 546.918457,835.848022 
	C556.127258,849.216064 566.058716,862.086243 575.960327,875.835938 
z"/>
<path fill="#000100" opacity="1.000000" stroke="none" 
	d="
M3048.824707,783.042358 
	C3066.671875,753.726807 3096.587646,744.262817 3123.804443,751.803711 
	C3160.061279,761.849182 3185.727295,800.271179 3166.542480,841.674072 
	C3146.914062,884.035339 3094.437012,891.295288 3062.290527,862.889099 
	C3042.576172,845.468323 3032.906982,812.537781 3048.824707,783.042358 
z"/>
<path fill="#000100" opacity="1.000000" stroke="none" 
	d="
M3809.501465,784.624634 
	C3835.514893,828.879211 3802.419434,880.627930 3756.142578,882.592712 
	C3722.632812,884.015381 3696.015381,860.173401 3689.073486,835.135437 
	C3678.096680,795.545898 3706.515137,758.928406 3740.544678,753.611572 
	C3770.144043,748.987061 3792.342773,760.159241 3809.501465,784.624634 
z"/>
<path fill="#D18759" opacity="1.000000" stroke="none" 
	d="
M223.316483,1077.652588 
	C222.685257,1070.072998 222.451080,1062.491089 222.497406,1054.910889 
	C222.541443,1047.702881 221.449783,1041.244141 215.604767,1035.971924 
	C213.432190,1034.012207 212.298782,1030.236328 211.893677,1027.131714 
	C211.229980,1022.045471 208.683197,1019.180420 203.937851,1018.270874 
	C192.889801,1016.153137 181.803787,1014.233459 169.834869,1012.157959 
	C175.960953,1007.762573 182.938889,1003.364990 190.017792,999.136414 
	C218.793869,981.947327 245.165680,961.495483 271.288513,939.486572 
	C277.584290,946.070007 285.399231,944.829346 292.955750,944.619873 
	C299.147156,944.448242 305.361847,943.940491 311.524963,944.296448 
	C316.482117,944.582703 319.451111,942.111633 322.646088,939.011414 
	C330.470367,931.419434 338.490356,924.025818 346.553680,916.686646 
	C347.947235,915.418213 350.280548,913.680237 351.600311,914.078613 
	C359.707489,916.525879 366.308777,911.231567 374.517181,911.082153 
	C373.535980,920.595093 371.812408,929.374634 369.884613,938.109131 
	C369.541321,939.664551 368.593994,941.252075 367.513062,942.453552 
	C357.724335,953.334045 348.212494,964.503723 337.832855,974.795288 
	C332.735321,979.849487 328.432373,985.021362 325.742340,991.610107 
	C322.974457,998.389587 320.048553,1005.105225 317.333069,1011.905212 
	C312.655518,1023.618469 308.087341,1035.375366 303.473297,1047.113892 
	C300.000336,1050.327026 296.702240,1049.522461 292.578339,1047.759033 
	C285.628906,1044.787476 278.368500,1042.197144 270.985992,1040.664673 
	C259.747101,1038.331543 252.774475,1042.746338 250.293350,1053.769531 
	C247.037399,1068.234985 238.928970,1076.636841 223.316483,1077.652588 
z"/>
<path fill="#07BE73" opacity="1.000000" stroke="none" 
	d="
M402.323059,1404.170166 
	C401.924744,1401.418701 401.979248,1398.897949 400.980988,1396.904419 
	C393.464935,1381.894409 401.915222,1371.612549 411.563110,1362.085815 
	C414.663788,1359.024292 416.563354,1356.169922 416.850281,1351.938843 
	C417.029602,1349.295166 417.446136,1346.615845 418.170044,1344.070190 
	C420.287079,1336.625732 425.503082,1334.837280 431.761383,1339.334839 
	C433.099396,1340.296265 434.294708,1341.512939 435.372223,1342.769409 
	C438.380981,1346.277344 441.947327,1347.152832 446.099945,1345.154907 
	C451.469391,1342.571777 455.696716,1344.456177 459.604492,1348.259155 
	C468.659607,1357.070923 477.611328,1365.999512 486.933655,1374.521240 
	C491.044159,1378.278809 495.664490,1381.705200 500.567017,1384.317871 
	C508.373657,1388.478149 508.902191,1388.847046 505.757843,1397.168579 
	C503.521912,1403.086060 501.090332,1408.929688 498.557587,1415.477783 
	C495.732147,1423.432495 493.095245,1430.715820 489.743896,1439.074219 
	C486.512299,1448.130249 483.995148,1456.111206 481.477966,1464.092163 
	C480.476959,1467.333740 479.475952,1470.575195 477.815430,1475.074707 
	C474.750153,1484.202759 472.344360,1492.072754 469.938599,1499.942749 
	C469.938599,1499.942749 469.987305,1499.990234 469.495972,1500.156738 
	C468.429565,1500.725830 468.085266,1501.273682 467.971710,1501.966431 
	C467.971710,1501.966431 468.001221,1502.000000 467.508789,1502.177979 
	C466.657593,1502.920410 466.298828,1503.485107 465.940033,1504.049683 
	C465.940033,1504.049683 465.945770,1503.945557 465.281799,1504.193115 
	C459.065369,1505.606812 453.512878,1506.772949 447.960388,1507.939087 
	C447.960388,1507.939087 448.033478,1507.923340 447.646118,1507.517700 
	C446.150726,1506.722046 445.042755,1506.331909 443.934784,1505.941895 
	C443.934784,1505.941895 444.028992,1505.944214 443.719543,1505.459229 
	C441.583496,1503.303955 439.756927,1501.633789 437.930298,1499.963623 
	C437.930298,1499.963623 438.050385,1499.968506 437.919983,1499.277710 
	C435.203827,1491.420532 432.618011,1484.254028 430.032227,1477.087646 
	C426.978424,1467.503418 423.924622,1457.919312 420.538879,1447.136597 
	C419.473114,1443.933716 418.739349,1441.929443 418.005585,1439.925049 
	C418.005585,1439.925049 418.070221,1439.975098 417.995789,1439.328979 
	C417.320068,1437.445923 416.718781,1436.208862 416.117462,1434.971924 
	C416.117462,1434.971924 416.055115,1435.019165 416.081970,1434.186768 
	C414.079529,1428.875610 412.050171,1424.396606 410.020813,1419.917725 
	C410.020813,1419.917725 410.054962,1419.972656 410.055481,1419.265137 
	C408.903137,1413.383667 407.401672,1408.418213 402.311615,1405.597046 
	C402.311615,1405.597046 402.288422,1404.645142 402.323059,1404.170166 
z"/>
<path fill="#B87499" opacity="1.000000" stroke="none" 
	d="
M304.201630,1047.359863 
	C308.087341,1035.375366 312.655518,1023.618469 317.333069,1011.905212 
	C320.048553,1005.105225 322.974457,998.389587 325.742340,991.610107 
	C328.432373,985.021362 332.735321,979.849487 337.832855,974.795288 
	C348.212494,964.503723 357.724335,953.334045 367.513062,942.453552 
	C368.593994,941.252075 369.541321,939.664551 369.884613,938.109131 
	C371.812408,929.374634 373.535980,920.595093 375.222900,911.019897 
	C378.412659,905.707458 381.457642,900.991699 385.069824,896.760071 
	C389.377411,891.713928 394.120361,887.033325 398.765015,882.282532 
	C407.807892,873.033081 416.907043,863.838501 425.997375,854.635437 
	C428.799927,851.798218 431.650848,849.008789 434.477020,846.194824 
	C439.173950,841.518372 444.239075,837.151001 448.486633,832.096680 
	C457.026703,821.934448 465.087982,811.370972 473.414551,801.027588 
	C476.724396,796.916016 480.410095,793.096191 483.572021,788.879089 
	C487.525391,783.606384 491.244781,778.144836 494.821320,772.607300 
	C497.686859,768.170593 500.188354,763.498779 503.320251,758.456909 
	C511.801208,773.357483 519.813354,788.732422 527.980713,804.768066 
	C518.405640,809.360840 512.184570,816.795349 506.654175,825.459473 
	C501.495911,833.540588 495.666473,841.370789 489.099457,848.337708 
	C475.850128,862.393616 462.096954,875.993408 448.182648,889.398438 
	C434.281921,902.790222 419.492096,915.280640 405.930481,928.995300 
	C396.863953,938.164062 389.080383,948.637939 381.065643,958.798279 
	C375.107605,966.351379 369.794159,974.409180 364.021820,982.113464 
	C357.464661,990.865173 350.712891,999.471008 344.059387,1008.150696 
	C343.657349,1008.675049 343.327332,1009.268738 343.044495,1009.868225 
	C338.821625,1018.819824 334.612396,1027.777832 330.413269,1037.209717 
	C326.562988,1041.551270 322.699341,1045.417603 318.328186,1049.771851 
	C313.523773,1049.375122 309.226868,1048.490479 304.201630,1047.359863 
z"/>
<path fill="#329CDC" opacity="1.000000" stroke="none" 
	d="
M766.080688,1137.632080 
	C770.618958,1129.638062 779.595886,1127.153320 787.671509,1123.519775 
	C797.639954,1119.034668 808.304077,1115.981934 817.956787,1110.947632 
	C824.863037,1107.345581 831.778687,1102.433838 836.540344,1096.407715 
	C841.679138,1089.904419 847.102783,1084.706787 854.531494,1081.274902 
	C856.752075,1080.249023 858.546631,1078.301025 862.091003,1075.583618 
	C853.299866,1071.290039 849.598938,1062.352539 839.695740,1062.206177 
	C833.944153,1062.121216 830.960449,1058.029297 828.336243,1052.775513 
	C841.442566,1055.988159 854.907959,1059.559082 868.183289,1063.734009 
	C876.176086,1066.247681 881.206604,1073.769653 881.451355,1081.840698 
	C881.695251,1089.882690 876.997131,1097.066895 868.535828,1100.022217 
	C859.461060,1103.191650 849.918518,1105.069580 840.946594,1108.476318 
	C816.146118,1117.893188 791.536804,1127.813232 766.080688,1137.632080 
z"/>
<path fill="#329CDC" opacity="1.000000" stroke="none" 
	d="
M692.742432,1179.893677 
	C700.813049,1170.024170 709.827454,1160.359375 722.508240,1155.115601 
	C736.009399,1149.532837 749.462463,1143.833618 763.737915,1138.099121 
	C756.172974,1142.695923 747.712280,1147.219482 739.460693,1152.096802 
	C724.050232,1161.205322 708.761047,1170.519165 692.742432,1179.893677 
z"/>
<path fill="#48B398" opacity="1.000000" stroke="none" 
	d="
M470.513977,1499.555420 
	C472.344360,1492.072754 474.750153,1484.202759 477.596924,1475.655518 
	C475.721710,1483.041626 473.405518,1491.104980 470.513977,1499.555420 
z"/>
<path fill="#48B398" opacity="1.000000" stroke="none" 
	d="
M481.863831,1463.454712 
	C483.995148,1456.111206 486.512299,1448.130249 489.532501,1439.548584 
	C487.440247,1446.904297 484.844940,1454.860718 481.863831,1463.454712 
z"/>
<path fill="#329CDC" opacity="1.000000" stroke="none" 
	d="
M676.651001,1191.655762 
	C678.930847,1185.528687 684.338745,1182.355591 691.315125,1180.173584 
	C687.109375,1183.869751 682.202820,1187.671143 676.651001,1191.655762 
z"/>
<path fill="#48B398" opacity="1.000000" stroke="none" 
	d="
M430.096832,1477.965698 
	C432.618011,1484.254028 435.203827,1491.420532 437.895630,1499.332642 
	C432.060577,1494.228760 432.516693,1486.017334 430.096832,1477.965698 
z"/>
<path fill="#48B398" opacity="1.000000" stroke="none" 
	d="
M448.395142,1508.387451 
	C453.512878,1506.772949 459.065369,1505.606812 465.333923,1504.192871 
	C461.531982,1509.878174 455.680817,1511.117065 448.395142,1508.387451 
z"/>
<path fill="#48B398" opacity="1.000000" stroke="none" 
	d="
M402.449097,1406.303711 
	C407.401672,1408.418213 408.903137,1413.383667 410.067139,1419.295288 
	C407.581055,1415.692261 405.083801,1411.351318 402.449097,1406.303711 
z"/>
<path fill="#48B398" opacity="1.000000" stroke="none" 
	d="
M410.082031,1420.660278 
	C412.050171,1424.396606 414.079529,1428.875610 416.125549,1434.166016 
	C414.142609,1430.452637 412.142944,1425.927734 410.082031,1420.660278 
z"/>
<path fill="#329CDC" opacity="1.000000" stroke="none" 
	d="
M811.202698,1045.656494 
	C808.680603,1045.114136 805.628967,1044.162476 802.039917,1042.734863 
	C804.559387,1043.254883 807.616272,1044.250977 811.202698,1045.656494 
z"/>
<path fill="#48B398" opacity="1.000000" stroke="none" 
	d="
M438.075745,1500.610352 
	C439.756927,1501.633789 441.583496,1503.303955 443.747162,1505.497314 
	C442.129913,1504.432739 440.175537,1502.844849 438.075745,1500.610352 
z"/>
<path fill="#528EF3" opacity="1.000000" stroke="none" 
	d="
M673.763000,971.661865 
	C672.940796,971.107422 671.743042,970.057983 670.258667,968.473572 
	C671.110535,969.014709 672.249023,970.090698 673.763000,971.661865 
z"/>
<path fill="#48B398" opacity="1.000000" stroke="none" 
	d="
M418.031433,1440.572266 
	C418.739349,1441.929443 419.473114,1443.933716 420.258942,1446.591797 
	C419.559723,1445.236694 418.808502,1443.228027 418.031433,1440.572266 
z"/>
<path fill="#329CDC" opacity="1.000000" stroke="none" 
	d="
M822.733826,1049.943481 
	C821.659302,1049.897339 820.108032,1049.471069 818.057983,1048.662598 
	C819.125122,1048.707886 820.691101,1049.135742 822.733826,1049.943481 
z"/>
<path fill="#48B398" opacity="1.000000" stroke="none" 
	d="
M416.219788,1435.661621 
	C416.718781,1436.208862 417.320068,1437.445923 417.985901,1439.368652 
	C417.474335,1438.820068 416.898193,1437.585693 416.219788,1435.661621 
z"/>
<path fill="#48B398" opacity="1.000000" stroke="none" 
	d="
M444.329834,1506.393311 
	C445.042755,1506.331909 446.150726,1506.722046 447.663666,1507.550781 
	C446.954041,1507.607788 445.839478,1507.226196 444.329834,1506.393311 
z"/>
<path fill="#329CDC" opacity="1.000000" stroke="none" 
	d="
M816.060303,1047.551880 
	C815.373169,1047.620850 814.232605,1047.278198 812.625854,1046.565063 
	C813.308716,1046.509766 814.457764,1046.825073 816.060303,1047.551880 
z"/>
<path fill="#329CDC" opacity="1.000000" stroke="none" 
	d="
M800.094971,1041.554199 
	C799.414368,1041.598999 798.280212,1041.230225 796.686157,1040.490967 
	C797.364624,1040.460571 798.503052,1040.800659 800.094971,1041.554199 
z"/>
<path fill="#329CDC" opacity="1.000000" stroke="none" 
	d="
M670.641846,1196.034424 
	C670.635498,1195.718384 671.165161,1195.167969 672.199097,1194.328735 
	C672.194885,1194.626587 671.686401,1195.213379 670.641846,1196.034424 
z"/>
<path fill="#329CDC" opacity="1.000000" stroke="none" 
	d="
M674.012085,1193.423340 
	C673.901794,1193.011841 674.353699,1192.598145 675.339478,1192.145264 
	C675.494263,1192.586792 675.061218,1193.025146 674.012085,1193.423340 
z"/>
<path fill="#329CDC" opacity="1.000000" stroke="none" 
	d="
M827.526855,1051.804932 
	C827.698547,1052.044189 827.142029,1052.087036 827.142029,1052.087036 
	C827.142029,1052.087036 826.619019,1051.892456 826.429871,1051.691772 
	C826.627869,1051.279541 826.999329,1051.304443 827.526855,1051.804932 
z"/>
<path fill="#D18759" opacity="1.000000" stroke="none" 
	d="
M317.666565,892.399780 
	C317.791260,892.711609 317.438904,893.169434 316.632874,893.795898 
	C316.466705,893.461914 316.803467,892.989014 317.666565,892.399780 
z"/>
<path fill="#D18759" opacity="1.000000" stroke="none" 
	d="
M315.671143,894.453613 
	C315.803680,894.773132 315.459930,895.208252 314.665527,895.785706 
	C314.493347,895.447083 314.820007,894.994141 315.671143,894.453613 
z"/>
<path fill="#D18759" opacity="1.000000" stroke="none" 
	d="
M313.651154,896.515137 
	C313.834167,896.832153 313.571838,897.217529 312.875610,897.677124 
	C312.667419,897.346375 312.922119,896.957092 313.651154,896.515137 
z"/>
<path fill="#48B398" opacity="1.000000" stroke="none" 
	d="
M468.457275,1501.816650 
	C468.085266,1501.273682 468.429565,1500.725830 469.465881,1500.140869 
	C469.599060,1500.528076 469.270935,1501.097534 468.457275,1501.816650 
z"/>
<path fill="#48B398" opacity="1.000000" stroke="none" 
	d="
M466.433777,1503.880371 
	C466.298828,1503.485107 466.657593,1502.920410 467.491150,1502.164307 
	C467.619812,1502.552246 467.273682,1503.131714 466.433777,1503.880371 
z"/>
<path fill="#D18759" opacity="1.000000" stroke="none" 
	d="
M311.587036,898.631287 
	C311.791382,898.960144 311.534363,899.350220 310.832153,899.818848 
	C310.603058,899.483276 310.849335,899.081604 311.587036,898.631287 
z"/>
<path fill="#D18759" opacity="1.000000" stroke="none" 
	d="
M309.858765,900.730713 
	C309.984253,900.974609 309.749817,901.299866 309.170746,901.720886 
	C309.034882,901.476074 309.259125,901.141235 309.858765,900.730713 
z"/>
<path fill="#47704C" opacity="1.000000" stroke="none" 
	d="
M2029.999756,1120.321899 
	C1985.380005,1120.216797 1941.760132,1120.118530 1898.140625,1119.956787 
	C1897.257812,1119.953491 1896.377930,1119.208740 1894.791260,1118.490601 
	C1896.637085,1104.814575 1902.019653,1092.320068 1908.682007,1080.493896 
	C1928.337646,1045.604370 1956.899292,1022.058167 1997.076660,1015.257507 
	C2041.594116,1007.722107 2081.927246,1016.859436 2114.755859,1049.523926 
	C2133.751465,1068.424683 2144.134521,1091.810791 2147.107178,1118.488159 
	C2145.633301,1119.173828 2144.755371,1119.937012 2143.874023,1119.940918 
	C2106.249512,1120.110229 2068.624756,1120.211914 2029.999756,1120.321899 
z"/>
</svg>