<?xml version="1.0" encoding="UTF-8"?>
<svg version="1.1" xmlns="http://www.w3.org/2000/svg" width="668" height="658">
<path d="M0 0 C9.13555296 4.20321216 18.57603031 10.59028523 22.55859375 20.1484375 C25.13480193 28.99602114 25.13480193 28.99602114 23.55859375 32.1484375 C24.26628906 31.98988281 24.97398437 31.83132812 25.703125 31.66796875 C37.78487554 29.46978432 49.93425701 32.12245616 61.86328125 34.09765625 C65.9694113 34.76913204 70.04944101 35.33814204 74.19140625 35.73046875 C96.8382245 37.92636351 120.22865774 44.89862001 140.55859375 55.1484375 C140.73841797 53.61123047 140.73841797 53.61123047 140.921875 52.04296875 C142.75060592 40.85741827 148.2277564 27.56241214 157.46875 20.46484375 C166.46265339 14.79952516 174.98005521 12.82923152 185.55859375 14.1484375 C195.46142248 16.53297133 204.63377375 22.77747863 210.37890625 31.16796875 C215.78922148 40.25084895 217.21816292 50.71036844 214.91015625 61.0546875 C211.56539815 71.00319877 205.57367116 79.4489623 198.55859375 87.1484375 C199.59757813 87.69371094 200.6365625 88.23898438 201.70703125 88.80078125 C209.22379392 92.83174452 215.99358417 96.81460354 222.15234375 102.8125 C224.17389816 104.77498302 226.2355905 106.55132623 228.39453125 108.35546875 C239.29672985 117.85486697 248.18990351 131.43004362 252.55859375 145.1484375 C252.86990234 146.10298828 253.18121094 147.05753906 253.50195312 148.04101562 C264.07153316 181.01889854 266.35811249 209.90203451 259.96655273 243.70092773 C256.83094227 260.30687946 256.4451489 275.77040882 257.43652344 292.60058594 C257.5361272 294.67951562 257.54835671 296.76247748 257.53515625 298.84375 C257.64151865 312.70631599 266.26729267 325.39191225 273.53125 336.7265625 C276.42540268 341.61149071 278.76076517 346.71446329 281.1328125 351.86816406 C283.25567795 356.46104163 285.48613739 360.93989974 287.93652344 365.36645508 C308.67659081 402.92511059 314.87542147 443.23804552 307.55859375 485.1484375 C308.23849365 485.27371826 308.91839355 485.39899902 309.61889648 485.52807617 C312.74794848 486.11432476 315.87178459 486.72493717 318.99609375 487.3359375 C320.60000977 487.63081055 320.60000977 487.63081055 322.23632812 487.93164062 C331.5139917 489.77582452 339.31916708 492.73911833 345.55859375 500.1484375 C347.65278211 506.43100257 346.95827699 512.85833937 344.66015625 519.01171875 C340.97544592 526.15901148 334.2061232 530.34219141 326.7265625 532.734375 C316.76486739 534.63696902 304.15270419 533.87784446 295.55859375 528.1484375 C295.29755859 528.66116211 295.03652344 529.17388672 294.76757812 529.70214844 C287.92464004 543.0824293 281.17307539 555.57788502 270.84765625 566.6484375 C268.45657284 569.25985965 266.22173987 571.95756086 263.99609375 574.7109375 C248.56942616 593.69966549 248.56942616 593.69966549 241.3125 597.24609375 C238.62676234 598.65838004 237.27384563 599.61228422 235.55859375 602.1484375 C234.79618452 605.93878506 234.82529798 609.77035312 234.77636719 613.62402344 C234.58671685 627.78277595 230.4226269 641.35056482 220.43359375 651.7109375 C217.00943925 655.01820319 214.42448335 656.95268016 209.6171875 657.45703125 C203.3779928 656.82753396 198.57863892 652.32415588 194.4296875 647.85546875 C189.88535815 642.19165952 187.56988509 637.3960254 186.55859375 630.1484375 C185.94790039 630.15367432 185.33720703 630.15891113 184.70800781 630.16430664 C171.32602751 630.26230223 157.99644322 630.07480092 144.62646484 629.49755859 C138.2165566 629.24367493 131.83453319 629.12639836 125.421875 629.22265625 C110.61269301 629.43334396 96.15323316 629.12680979 81.43359375 627.3359375 C80.40283722 627.21150772 80.40283722 627.21150772 79.35125732 627.08456421 C64.45862056 625.24760972 50.10574343 622.64798947 35.80859375 618.0234375 C33.56402193 617.31180621 31.31923946 616.6008389 29.07421875 615.890625 C28.10774414 615.5797998 27.14126953 615.26897461 26.14550781 614.94873047 C23.96002483 614.27262503 21.7841365 613.67429583 19.55859375 613.1484375 C19.30722656 613.98375 19.05585938 614.8190625 18.796875 615.6796875 C17.41578617 619.54847893 15.68360764 623.03612346 13.74609375 626.6484375 C13.41544922 627.28652344 13.08480469 627.92460938 12.74414062 628.58203125 C8.39911255 636.73834115 3.54078291 642.15437445 -5.44140625 645.1484375 C-11.27357782 645.74153969 -14.72216859 645.1321396 -19.5546875 641.76171875 C-25.73516977 636.47695855 -29.77348019 629.63202796 -30.7578125 621.55078125 C-31.23149533 610.68663625 -26.44120994 602.76695876 -20.9296875 593.71484375 C-19.33336858 591.16158744 -19.33336858 591.16158744 -18.44140625 588.1484375 C-19.29605469 587.75398437 -19.29605469 587.75398437 -20.16796875 587.3515625 C-34.47220836 579.78162127 -46.33827132 565.0012723 -55.86669922 552.22363281 C-57.05318466 550.66004734 -58.26501009 549.1156426 -59.48876953 547.58105469 C-66.87540966 538.23382859 -73.40876881 528.3788022 -79.92675781 518.41259766 C-81.80142473 515.54634335 -83.68321628 512.68487867 -85.56640625 509.82421875 C-108.2058335 475.37919873 -108.2058335 475.37919873 -114.25390625 463.7734375 C-114.7012915 462.91532471 -115.14867676 462.05721191 -115.60961914 461.1730957 C-122.69228184 447.14174248 -130.44140625 428.07527063 -130.44140625 412.1484375 C-131.69244141 412.16583984 -131.69244141 412.16583984 -132.96875 412.18359375 C-139.55886287 412.23643543 -145.91046999 412.03398818 -152.44140625 411.1484375 C-152.63734375 412.1178125 -152.83328125 413.0871875 -153.03515625 414.0859375 C-156.31829605 429.20856692 -162.6519428 442.11129838 -172.44140625 454.1484375 C-173.15167969 455.045625 -173.86195313 455.9428125 -174.59375 456.8671875 C-179.54615888 462.78570778 -184.18258844 466.49119169 -191.44140625 469.1484375 C-192.28703125 469.46554687 -193.13265625 469.78265625 -194.00390625 470.109375 C-209.80798844 475.00325272 -228.64649164 473.39696057 -243.671875 466.7109375 C-251.67631846 462.40324218 -258.05507805 456.51662273 -264.44140625 450.1484375 C-265.18390625 449.42914063 -265.92640625 448.70984375 -266.69140625 447.96875 C-285.03289796 428.98244022 -288.02692207 400.40190237 -288.0012207 375.20288086 C-287.76484828 368.06110631 -286.096654 362.7117717 -281.44140625 357.1484375 C-280.96960938 356.57480469 -280.4978125 356.00117188 -280.01171875 355.41015625 C-273.03491185 348.41527472 -261.70729364 344.7958339 -252.44140625 342.1484375 C-255.08140625 337.8584375 -257.72140625 333.5684375 -260.44140625 329.1484375 C-264.43364193 329.94688464 -266.89553827 330.67886636 -270.43359375 332.40625 C-271.37887939 332.86394775 -272.32416504 333.32164551 -273.2980957 333.79321289 C-274.79215942 334.52592407 -274.79215942 334.52592407 -276.31640625 335.2734375 C-278.39053488 336.27492625 -280.46475371 337.27622821 -282.5390625 338.27734375 C-286.01040213 339.96231483 -289.47621601 341.65777885 -292.9375 343.36328125 C-307.07906877 350.26318908 -307.07906877 350.26318908 -313.44140625 350.1484375 C-315.81640625 348.7734375 -315.81640625 348.7734375 -317.44140625 346.1484375 C-317.81007813 345.58640625 -318.17875 345.024375 -318.55859375 344.4453125 C-321.71652005 339.08772719 -322.61854527 334.26144218 -321.44140625 328.1484375 C-315.72539496 311.32911993 -305.40372713 296.28439894 -295.55615234 281.65917969 C-295.02070801 280.85383789 -294.48526367 280.04849609 -293.93359375 279.21875 C-293.4526123 278.50477051 -292.97163086 277.79079102 -292.47607422 277.05517578 C-290.56236481 273.52849562 -291.76758773 269.93866665 -292.44140625 266.1484375 C-290.13140625 265.8184375 -287.82140625 265.4884375 -285.44140625 265.1484375 C-284.60349836 266.93796935 -283.77121229 268.73013445 -282.94140625 270.5234375 C-282.2453125 272.02003906 -282.2453125 272.02003906 -281.53515625 273.546875 C-280.44140625 276.1484375 -280.44140625 276.1484375 -280.44140625 278.1484375 C-274.41723925 278.17361081 -268.39310445 278.19151513 -262.36889648 278.20336914 C-260.32982854 278.20832338 -258.290764 278.21508864 -256.25170898 278.22387695 C-253.27977017 278.23634252 -250.30790041 278.24301241 -247.3359375 278.24609375 C-246.35255402 278.24767487 -245.36917053 278.24925598 -244.35598755 278.25088501 C-239.36006579 278.23711565 -234.39493901 278.11956572 -229.40771484 277.81591797 C-228.44749924 277.75778427 -227.48728363 277.69965057 -226.49797058 277.63975525 C-224.68042693 277.5209262 -222.86375537 277.38755942 -221.04853821 277.23731995 C-215.07264868 276.83575921 -215.07264868 276.83575921 -211.90161133 278.40649414 C-209.92593065 280.76337119 -209.75907921 282.83670019 -209.95703125 285.85546875 C-212.64405383 298.57548692 -225.86992191 307.27197704 -236.078125 313.99389648 C-238.83719295 315.76282711 -241.62537762 317.47166655 -244.44140625 319.1484375 C-245.0667627 319.52355469 -245.69211914 319.89867187 -246.33642578 320.28515625 C-251.19772478 323.1484375 -251.19772478 323.1484375 -253.44140625 323.1484375 C-253.13847656 323.65294434 -252.83554688 324.15745117 -252.5234375 324.67724609 C-251.15822356 326.95662829 -249.79974842 329.23995418 -248.44140625 331.5234375 C-247.96445313 332.3175 -247.4875 333.1115625 -246.99609375 333.9296875 C-246.54492188 334.69023437 -246.09375 335.45078125 -245.62890625 336.234375 C-245.00048828 337.2869751 -245.00048828 337.2869751 -244.359375 338.36083984 C-243.44140625 340.1484375 -243.44140625 340.1484375 -243.44140625 342.1484375 C-242.83039063 342.07625 -242.219375 342.0040625 -241.58984375 341.9296875 C-204.41798705 338.1601471 -204.41798705 338.1601471 -190.44140625 345.1484375 C-190.07789063 343.33085938 -190.07789063 343.33085938 -189.70703125 341.4765625 C-188.29882089 335.14702752 -186.22236002 329.05025248 -184.19140625 322.8984375 C-181.30757375 314.03457605 -178.47158326 305.16482949 -175.87890625 296.2109375 C-175.50233887 294.93524902 -175.50233887 294.93524902 -175.11816406 293.63378906 C-173.97893911 289.63751215 -173.38593389 286.32471406 -173.44140625 282.1484375 C-171.44140625 280.1484375 -171.44140625 280.1484375 -168.87890625 279.7109375 C-163.31959541 280.41848615 -158.79589813 283.08009921 -154.609375 286.7578125 C-151.57474828 292.96915549 -155.23617403 301.43664429 -157.27734375 307.609375 C-157.55736237 308.4805899 -157.83738098 309.35180481 -158.12588501 310.24942017 C-159.01470276 313.01009657 -159.91495786 315.76686249 -160.81640625 318.5234375 C-161.99454485 322.15507213 -163.16799613 325.78820605 -164.33984375 329.421875 C-164.61818054 330.28254578 -164.89651733 331.14321655 -165.18328857 332.02996826 C-167.11131303 338.02465759 -168.90328259 344.04029477 -170.44140625 350.1484375 C-169.29865234 350.34373047 -169.29865234 350.34373047 -168.1328125 350.54296875 C-163.29828871 351.63056118 -160.2490252 354.13891381 -157.19140625 357.9609375 C-154.59009319 362.69904342 -153.44140625 366.74613 -153.44140625 372.1484375 C-152.838125 372.20902344 -152.23484375 372.26960938 -151.61328125 372.33203125 C-150.8140625 372.41582031 -150.01484375 372.49960937 -149.19140625 372.5859375 C-148.4025 372.66714844 -147.61359375 372.74835938 -146.80078125 372.83203125 C-144.61775986 373.12478743 -142.56408805 373.56908169 -140.44140625 374.1484375 C-140.62316406 373.11074219 -140.80492187 372.07304687 -140.9921875 371.00390625 C-143.47027433 356.10540839 -144.65994081 341.12638225 -145.86535645 326.08563232 C-146.2952936 320.77734717 -146.78086354 315.47633792 -147.296875 310.17578125 C-147.57645127 307.27104309 -147.8537366 304.36609638 -148.12890625 301.4609375 C-148.19594757 300.75525635 -148.26298889 300.0495752 -148.33206177 299.32250977 C-149.28693164 289.08410902 -149.73032241 278.93976964 -149.24291992 268.65356445 C-149.03907849 262.37582261 -150.29408475 258.52852979 -153.44140625 253.1484375 C-154.96669856 248.31834518 -154.52910884 243.16697448 -154.44140625 238.1484375 C-155.63765625 238.0659375 -156.83390625 237.9834375 -158.06640625 237.8984375 C-164.33204285 237.07110872 -167.90623437 234.05818943 -171.69140625 229.1484375 C-173.11527469 227.18870459 -174.33045305 225.40343687 -175.29760742 223.18066406 C-176.62026478 220.83065343 -177.74684003 220.0163417 -180.0390625 218.6328125 C-180.75400879 218.19066406 -181.46895508 217.74851563 -182.20556641 217.29296875 C-182.96401855 216.83277344 -183.7224707 216.37257812 -184.50390625 215.8984375 C-199.29516104 206.5793599 -207.88614665 196.52458052 -214.44140625 180.1484375 C-214.76238281 179.37242187 -215.08335937 178.59640625 -215.4140625 177.796875 C-218.90957385 168.07447599 -218.41392547 156.90159104 -215.83984375 147.015625 C-214.72059173 141.7705028 -216.536189 137.79803458 -218.94140625 133.2734375 C-221.37880074 128.59051339 -222.9100752 124.4832862 -222.44140625 119.1484375 C-219.95547389 112.59461583 -215.23605575 108.9261648 -209.44140625 105.1484375 C-202.79315247 102.93235291 -196.05526023 103.82463568 -189.44140625 105.7734375 C-183.11174033 107.47104905 -178.69813782 106.83236645 -172.44140625 105.1484375 C-170.87389413 104.7401314 -169.30616719 104.33264951 -167.73828125 103.92578125 C-165.21073686 103.26669576 -162.68577569 102.60144991 -160.16577148 101.9140625 C-153.17571316 100.01220184 -146.6510407 98.96772754 -139.37890625 98.9609375 C-138.68474609 98.94869141 -137.99058594 98.93644531 -137.27539062 98.92382812 C-133.20983333 98.91224534 -130.09754858 99.34531078 -126.44140625 101.1484375 C-126.23515625 100.4884375 -126.02890625 99.8284375 -125.81640625 99.1484375 C-116.79100345 79.45664957 -96.42576349 67.45356931 -78.44140625 57.1484375 C-77.66458496 56.69791016 -76.88776367 56.24738281 -76.08740234 55.78320312 C-59.91591953 46.44038783 -44.94653599 39.95373642 -26.44140625 37.1484375 C-26.75464844 36.59542969 -27.06789063 36.04242188 -27.390625 35.47265625 C-29.88931556 29.94581282 -30.10323893 23.32455893 -28.44140625 17.5234375 C-25.54465422 10.20946632 -20.4641602 3.78912093 -13.53515625 -0.03515625 C-8.80291753 -1.8803762 -4.76165067 -1.66086376 0 0 Z M202.55859375 51.1484375 C203.55859375 55.1484375 203.55859375 55.1484375 203.55859375 55.1484375 Z M201.55859375 56.1484375 C202.55859375 60.1484375 202.55859375 60.1484375 202.55859375 60.1484375 Z M-99.44140625 463.1484375 C-98.44140625 465.1484375 -98.44140625 465.1484375 -98.44140625 465.1484375 Z M-98.44140625 465.1484375 C-98.11140625 466.1384375 -97.78140625 467.1284375 -97.44140625 468.1484375 C-97.44140625 467.1584375 -97.44140625 466.1684375 -97.44140625 465.1484375 C-97.77140625 465.1484375 -98.10140625 465.1484375 -98.44140625 465.1484375 Z M-96.44140625 468.1484375 C-95.12279736 472.76356862 -93.22785188 476.24741362 -90.44140625 480.1484375 C-90.11140625 479.4884375 -89.78140625 478.8284375 -89.44140625 478.1484375 C-90.09705455 476.19560933 -90.09705455 476.19560933 -91.19140625 474.1484375 C-91.536875 473.4471875 -91.88234375 472.7459375 -92.23828125 472.0234375 C-93.4569934 469.8486395 -93.4569934 469.8486395 -96.44140625 468.1484375 Z M-89.44140625 480.1484375 C-88.44140625 482.1484375 -88.44140625 482.1484375 -88.44140625 482.1484375 Z M-47.44140625 542.1484375 C-46.78140625 542.8084375 -46.12140625 543.4684375 -45.44140625 544.1484375 C-45.44140625 543.4884375 -45.44140625 542.8284375 -45.44140625 542.1484375 C-46.10140625 542.1484375 -46.76140625 542.1484375 -47.44140625 542.1484375 Z " fill="#5DB2FD" transform="translate(321.44140625,0.8515625)"/>
<path d="M0 0 C9.13555296 4.20321216 18.57603031 10.59028523 22.55859375 20.1484375 C25.13480193 28.99602114 25.13480193 28.99602114 23.55859375 32.1484375 C24.26628906 31.98988281 24.97398437 31.83132812 25.703125 31.66796875 C37.78487554 29.46978432 49.93425701 32.12245616 61.86328125 34.09765625 C65.9694113 34.76913204 70.04944101 35.33814204 74.19140625 35.73046875 C96.8382245 37.92636351 120.22865774 44.89862001 140.55859375 55.1484375 C140.73841797 53.61123047 140.73841797 53.61123047 140.921875 52.04296875 C142.75060592 40.85741827 148.2277564 27.56241214 157.46875 20.46484375 C166.46265339 14.79952516 174.98005521 12.82923152 185.55859375 14.1484375 C195.46142248 16.53297133 204.63377375 22.77747863 210.37890625 31.16796875 C215.78922148 40.25084895 217.21816292 50.71036844 214.91015625 61.0546875 C211.56539815 71.00319877 205.57367116 79.4489623 198.55859375 87.1484375 C199.59757813 87.69371094 200.6365625 88.23898438 201.70703125 88.80078125 C209.22379392 92.83174452 215.99358417 96.81460354 222.15234375 102.8125 C224.17389816 104.77498302 226.2355905 106.55132623 228.39453125 108.35546875 C239.29672985 117.85486697 248.18990351 131.43004362 252.55859375 145.1484375 C252.86990234 146.10298828 253.18121094 147.05753906 253.50195312 148.04101562 C264.07153316 181.01889854 266.35811249 209.90203451 259.96655273 243.70092773 C256.83094227 260.30687946 256.4451489 275.77040882 257.43652344 292.60058594 C257.5361272 294.67951562 257.54835671 296.76247748 257.53515625 298.84375 C257.64151865 312.70631599 266.26729267 325.39191225 273.53125 336.7265625 C276.42540268 341.61149071 278.76076517 346.71446329 281.1328125 351.86816406 C283.25567795 356.46104163 285.48613739 360.93989974 287.93652344 365.36645508 C308.67659081 402.92511059 314.87542147 443.23804552 307.55859375 485.1484375 C308.23849365 485.27371826 308.91839355 485.39899902 309.61889648 485.52807617 C312.74794848 486.11432476 315.87178459 486.72493717 318.99609375 487.3359375 C320.60000977 487.63081055 320.60000977 487.63081055 322.23632812 487.93164062 C331.5139917 489.77582452 339.31916708 492.73911833 345.55859375 500.1484375 C347.65278211 506.43100257 346.95827699 512.85833937 344.66015625 519.01171875 C340.97544592 526.15901148 334.2061232 530.34219141 326.7265625 532.734375 C316.76486739 534.63696902 304.15270419 533.87784446 295.55859375 528.1484375 C295.29755859 528.66116211 295.03652344 529.17388672 294.76757812 529.70214844 C287.92464004 543.0824293 281.17307539 555.57788502 270.84765625 566.6484375 C268.45657284 569.25985965 266.22173987 571.95756086 263.99609375 574.7109375 C248.56942616 593.69966549 248.56942616 593.69966549 241.3125 597.24609375 C238.62676234 598.65838004 237.27384563 599.61228422 235.55859375 602.1484375 C234.79618452 605.93878506 234.82529798 609.77035312 234.77636719 613.62402344 C234.58671685 627.78277595 230.4226269 641.35056482 220.43359375 651.7109375 C217.00943925 655.01820319 214.42448335 656.95268016 209.6171875 657.45703125 C203.3779928 656.82753396 198.57863892 652.32415588 194.4296875 647.85546875 C189.88535815 642.19165952 187.56988509 637.3960254 186.55859375 630.1484375 C185.94790039 630.15367432 185.33720703 630.15891113 184.70800781 630.16430664 C171.32602751 630.26230223 157.99644322 630.07480092 144.62646484 629.49755859 C138.2165566 629.24367493 131.83453319 629.12639836 125.421875 629.22265625 C110.61269301 629.43334396 96.15323316 629.12680979 81.43359375 627.3359375 C80.40283722 627.21150772 80.40283722 627.21150772 79.35125732 627.08456421 C64.45862056 625.24760972 50.10574343 622.64798947 35.80859375 618.0234375 C33.56402193 617.31180621 31.31923946 616.6008389 29.07421875 615.890625 C28.10774414 615.5797998 27.14126953 615.26897461 26.14550781 614.94873047 C23.96002483 614.27262503 21.7841365 613.67429583 19.55859375 613.1484375 C19.30722656 613.98375 19.05585938 614.8190625 18.796875 615.6796875 C17.41578617 619.54847893 15.68360764 623.03612346 13.74609375 626.6484375 C13.41544922 627.28652344 13.08480469 627.92460938 12.74414062 628.58203125 C8.39911255 636.73834115 3.54078291 642.15437445 -5.44140625 645.1484375 C-11.27357782 645.74153969 -14.72216859 645.1321396 -19.5546875 641.76171875 C-25.73516977 636.47695855 -29.77348019 629.63202796 -30.7578125 621.55078125 C-31.23149533 610.68663625 -26.44120994 602.76695876 -20.9296875 593.71484375 C-19.33336858 591.16158744 -19.33336858 591.16158744 -18.44140625 588.1484375 C-19.29605469 587.75398437 -19.29605469 587.75398437 -20.16796875 587.3515625 C-34.47220836 579.78162127 -46.33827132 565.0012723 -55.86669922 552.22363281 C-57.05318466 550.66004734 -58.26501009 549.1156426 -59.48876953 547.58105469 C-66.87540966 538.23382859 -73.40876881 528.3788022 -79.92675781 518.41259766 C-81.80142473 515.54634335 -83.68321628 512.68487867 -85.56640625 509.82421875 C-108.2058335 475.37919873 -108.2058335 475.37919873 -114.25390625 463.7734375 C-114.7012915 462.91532471 -115.14867676 462.05721191 -115.60961914 461.1730957 C-122.69228184 447.14174248 -130.44140625 428.07527063 -130.44140625 412.1484375 C-131.69244141 412.16583984 -131.69244141 412.16583984 -132.96875 412.18359375 C-139.55886287 412.23643543 -145.91046999 412.03398818 -152.44140625 411.1484375 C-152.63734375 412.1178125 -152.83328125 413.0871875 -153.03515625 414.0859375 C-156.31829605 429.20856692 -162.6519428 442.11129838 -172.44140625 454.1484375 C-173.15167969 455.045625 -173.86195313 455.9428125 -174.59375 456.8671875 C-179.54615888 462.78570778 -184.18258844 466.49119169 -191.44140625 469.1484375 C-192.28703125 469.46554687 -193.13265625 469.78265625 -194.00390625 470.109375 C-209.80798844 475.00325272 -228.64649164 473.39696057 -243.671875 466.7109375 C-251.67631846 462.40324218 -258.05507805 456.51662273 -264.44140625 450.1484375 C-265.18390625 449.42914063 -265.92640625 448.70984375 -266.69140625 447.96875 C-285.03289796 428.98244022 -288.02692207 400.40190237 -288.0012207 375.20288086 C-287.76484828 368.06110631 -286.096654 362.7117717 -281.44140625 357.1484375 C-280.96960938 356.57480469 -280.4978125 356.00117188 -280.01171875 355.41015625 C-273.03491185 348.41527472 -261.70729364 344.7958339 -252.44140625 342.1484375 C-255.08140625 337.8584375 -257.72140625 333.5684375 -260.44140625 329.1484375 C-264.43364193 329.94688464 -266.89553827 330.67886636 -270.43359375 332.40625 C-271.37887939 332.86394775 -272.32416504 333.32164551 -273.2980957 333.79321289 C-274.79215942 334.52592407 -274.79215942 334.52592407 -276.31640625 335.2734375 C-278.39053488 336.27492625 -280.46475371 337.27622821 -282.5390625 338.27734375 C-286.01040213 339.96231483 -289.47621601 341.65777885 -292.9375 343.36328125 C-307.07906877 350.26318908 -307.07906877 350.26318908 -313.44140625 350.1484375 C-315.81640625 348.7734375 -315.81640625 348.7734375 -317.44140625 346.1484375 C-317.81007813 345.58640625 -318.17875 345.024375 -318.55859375 344.4453125 C-321.71652005 339.08772719 -322.61854527 334.26144218 -321.44140625 328.1484375 C-315.72539496 311.32911993 -305.40372713 296.28439894 -295.55615234 281.65917969 C-295.02070801 280.85383789 -294.48526367 280.04849609 -293.93359375 279.21875 C-293.4526123 278.50477051 -292.97163086 277.79079102 -292.47607422 277.05517578 C-290.56236481 273.52849562 -291.76758773 269.93866665 -292.44140625 266.1484375 C-290.13140625 265.8184375 -287.82140625 265.4884375 -285.44140625 265.1484375 C-284.60349836 266.93796935 -283.77121229 268.73013445 -282.94140625 270.5234375 C-282.2453125 272.02003906 -282.2453125 272.02003906 -281.53515625 273.546875 C-280.44140625 276.1484375 -280.44140625 276.1484375 -280.44140625 278.1484375 C-274.41723925 278.17361081 -268.39310445 278.19151513 -262.36889648 278.20336914 C-260.32982854 278.20832338 -258.290764 278.21508864 -256.25170898 278.22387695 C-253.27977017 278.23634252 -250.30790041 278.24301241 -247.3359375 278.24609375 C-246.35255402 278.24767487 -245.36917053 278.24925598 -244.35598755 278.25088501 C-239.36006579 278.23711565 -234.39493901 278.11956572 -229.40771484 277.81591797 C-228.44749924 277.75778427 -227.48728363 277.69965057 -226.49797058 277.63975525 C-224.68042693 277.5209262 -222.86375537 277.38755942 -221.04853821 277.23731995 C-215.07264868 276.83575921 -215.07264868 276.83575921 -211.90161133 278.40649414 C-209.92593065 280.76337119 -209.75907921 282.83670019 -209.95703125 285.85546875 C-212.64405383 298.57548692 -225.86992191 307.27197704 -236.078125 313.99389648 C-238.83719295 315.76282711 -241.62537762 317.47166655 -244.44140625 319.1484375 C-245.0667627 319.52355469 -245.69211914 319.89867187 -246.33642578 320.28515625 C-251.19772478 323.1484375 -251.19772478 323.1484375 -253.44140625 323.1484375 C-253.13847656 323.65294434 -252.83554688 324.15745117 -252.5234375 324.67724609 C-251.15822356 326.95662829 -249.79974842 329.23995418 -248.44140625 331.5234375 C-247.96445313 332.3175 -247.4875 333.1115625 -246.99609375 333.9296875 C-246.54492188 334.69023437 -246.09375 335.45078125 -245.62890625 336.234375 C-245.00048828 337.2869751 -245.00048828 337.2869751 -244.359375 338.36083984 C-243.44140625 340.1484375 -243.44140625 340.1484375 -243.44140625 342.1484375 C-242.83039063 342.07625 -242.219375 342.0040625 -241.58984375 341.9296875 C-204.41798705 338.1601471 -204.41798705 338.1601471 -190.44140625 345.1484375 C-190.07789063 343.33085938 -190.07789063 343.33085938 -189.70703125 341.4765625 C-188.29882089 335.14702752 -186.22236002 329.05025248 -184.19140625 322.8984375 C-181.30757375 314.03457605 -178.47158326 305.16482949 -175.87890625 296.2109375 C-175.50233887 294.93524902 -175.50233887 294.93524902 -175.11816406 293.63378906 C-173.97893911 289.63751215 -173.38593389 286.32471406 -173.44140625 282.1484375 C-171.44140625 280.1484375 -171.44140625 280.1484375 -168.87890625 279.7109375 C-163.31959541 280.41848615 -158.79589813 283.08009921 -154.609375 286.7578125 C-151.57474828 292.96915549 -155.23617403 301.43664429 -157.27734375 307.609375 C-157.55736237 308.4805899 -157.83738098 309.35180481 -158.12588501 310.24942017 C-159.01470276 313.01009657 -159.91495786 315.76686249 -160.81640625 318.5234375 C-161.99454485 322.15507213 -163.16799613 325.78820605 -164.33984375 329.421875 C-164.61818054 330.28254578 -164.89651733 331.14321655 -165.18328857 332.02996826 C-167.11131303 338.02465759 -168.90328259 344.04029477 -170.44140625 350.1484375 C-169.29865234 350.34373047 -169.29865234 350.34373047 -168.1328125 350.54296875 C-163.29828871 351.63056118 -160.2490252 354.13891381 -157.19140625 357.9609375 C-154.59009319 362.69904342 -153.44140625 366.74613 -153.44140625 372.1484375 C-152.838125 372.20902344 -152.23484375 372.26960938 -151.61328125 372.33203125 C-150.8140625 372.41582031 -150.01484375 372.49960937 -149.19140625 372.5859375 C-148.4025 372.66714844 -147.61359375 372.74835938 -146.80078125 372.83203125 C-144.61775986 373.12478743 -142.56408805 373.56908169 -140.44140625 374.1484375 C-140.62316406 373.11074219 -140.80492187 372.07304687 -140.9921875 371.00390625 C-143.47027433 356.10540839 -144.65994081 341.12638225 -145.86535645 326.08563232 C-146.2952936 320.77734717 -146.78086354 315.47633792 -147.296875 310.17578125 C-147.57645127 307.27104309 -147.8537366 304.36609638 -148.12890625 301.4609375 C-148.19594757 300.75525635 -148.26298889 300.0495752 -148.33206177 299.32250977 C-149.28693164 289.08410902 -149.73032241 278.93976964 -149.24291992 268.65356445 C-149.03907849 262.37582261 -150.29408475 258.52852979 -153.44140625 253.1484375 C-154.96669856 248.31834518 -154.52910884 243.16697448 -154.44140625 238.1484375 C-155.63765625 238.0659375 -156.83390625 237.9834375 -158.06640625 237.8984375 C-164.33204285 237.07110872 -167.90623437 234.05818943 -171.69140625 229.1484375 C-173.11527469 227.18870459 -174.33045305 225.40343687 -175.29760742 223.18066406 C-176.62026478 220.83065343 -177.74684003 220.0163417 -180.0390625 218.6328125 C-180.75400879 218.19066406 -181.46895508 217.74851563 -182.20556641 217.29296875 C-182.96401855 216.83277344 -183.7224707 216.37257812 -184.50390625 215.8984375 C-199.29516104 206.5793599 -207.88614665 196.52458052 -214.44140625 180.1484375 C-214.76238281 179.37242187 -215.08335937 178.59640625 -215.4140625 177.796875 C-218.90957385 168.07447599 -218.41392547 156.90159104 -215.83984375 147.015625 C-214.72059173 141.7705028 -216.536189 137.79803458 -218.94140625 133.2734375 C-221.37880074 128.59051339 -222.9100752 124.4832862 -222.44140625 119.1484375 C-219.95547389 112.59461583 -215.23605575 108.9261648 -209.44140625 105.1484375 C-202.79315247 102.93235291 -196.05526023 103.82463568 -189.44140625 105.7734375 C-183.11174033 107.47104905 -178.69813782 106.83236645 -172.44140625 105.1484375 C-170.87389413 104.7401314 -169.30616719 104.33264951 -167.73828125 103.92578125 C-165.21073686 103.26669576 -162.68577569 102.60144991 -160.16577148 101.9140625 C-153.17571316 100.01220184 -146.6510407 98.96772754 -139.37890625 98.9609375 C-138.68474609 98.94869141 -137.99058594 98.93644531 -137.27539062 98.92382812 C-133.20983333 98.91224534 -130.09754858 99.34531078 -126.44140625 101.1484375 C-126.23515625 100.4884375 -126.02890625 99.8284375 -125.81640625 99.1484375 C-116.79100345 79.45664957 -96.42576349 67.45356931 -78.44140625 57.1484375 C-77.66458496 56.69791016 -76.88776367 56.24738281 -76.08740234 55.78320312 C-59.91591953 46.44038783 -44.94653599 39.95373642 -26.44140625 37.1484375 C-26.75464844 36.59542969 -27.06789063 36.04242188 -27.390625 35.47265625 C-29.88931556 29.94581282 -30.10323893 23.32455893 -28.44140625 17.5234375 C-25.54465422 10.20946632 -20.4641602 3.78912093 -13.53515625 -0.03515625 C-8.80291753 -1.8803762 -4.76165067 -1.66086376 0 0 Z M165.55859375 35.1484375 C156.39508414 44.69165054 150.13900898 59.61100791 148.43359375 72.5234375 C148.26601563 73.76867187 148.0984375 75.01390625 147.92578125 76.296875 C147.80460937 77.23789063 147.6834375 78.17890625 147.55859375 79.1484375 C145.90859375 79.4784375 144.25859375 79.8084375 142.55859375 80.1484375 C140.15643335 75.3441167 139.94737146 70.41739855 139.55859375 65.1484375 C138.87796875 65.00148437 138.19734375 64.85453125 137.49609375 64.703125 C131.5828183 63.33489371 125.95536029 61.61347945 120.30859375 59.3984375 C99.88881564 51.60820463 80.19262795 47.81126626 58.53492737 45.77464294 C54.25751727 45.36088201 50.04786208 44.7687396 45.8125 44.046875 C39.39928055 43.01013844 33.16612128 42.95485698 26.68359375 43.0859375 C20.18526771 43.19112623 13.98702932 43.26105135 7.55859375 42.1484375 C-0.00229176 41.31887326 -6.33611144 42.84663504 -13.47583008 45.16088867 C-19.28346108 46.97581301 -24.97144204 47.8690629 -31.00390625 48.5859375 C-62.04386853 52.58325446 -95.312856 74.05297289 -114.2734375 98.51171875 C-119.24796138 105.37274378 -123.41722791 112.70413297 -127.44140625 120.1484375 C-127.91707031 121.01855469 -128.39273438 121.88867188 -128.8828125 122.78515625 C-135.15935622 135.318568 -138.16129701 150.19390441 -138.44140625 164.1484375 C-137.30703125 163.9215625 -136.17265625 163.6946875 -135.00390625 163.4609375 C-127.09558096 162.55911093 -121.62594803 165.69871033 -115.37890625 170.3359375 C-110.68317112 174.32535035 -110.68317112 174.32535035 -109.74609375 177.515625 C-109.75390625 179.7109375 -109.75390625 179.7109375 -110.44140625 183.1484375 C-109.74015625 183.36757812 -109.03890625 183.58671875 -108.31640625 183.8125 C-98.3889241 187.130653 -90.91083672 191.91893769 -85.328125 200.94921875 C-82.09931197 208.95724403 -84.48434274 219.36544635 -87.44140625 227.1484375 C-90.38708382 233.85455451 -93.75935945 239.27105835 -100.84765625 242.11328125 C-107.73667783 244.26115148 -114.27162396 244.48628064 -121.44140625 244.1484375 C-121.6115625 245.06625 -121.78171875 245.9840625 -121.95703125 246.9296875 C-123.34003936 253.93300515 -124.68295851 260.04095993 -128.44140625 266.1484375 C-131.58751878 268.24584586 -132.35328703 268.40171969 -135.94140625 268.3359375 C-136.71484375 268.32949219 -137.48828125 268.32304687 -138.28515625 268.31640625 C-140.44140625 268.1484375 -140.44140625 268.1484375 -143.44140625 267.1484375 C-142.7501849 274.67692062 -141.40688753 282.04601875 -140.02990723 289.47290039 C-137.69196611 302.1568537 -135.6982922 314.83861016 -134.19140625 327.6484375 C-134.06804901 328.69272919 -134.06804901 328.69272919 -133.94219971 329.75811768 C-133.20836836 336.0148315 -132.50847261 342.27366948 -131.9296875 348.546875 C-130.78327026 360.80412569 -127.87704743 372.28279655 -124.25 384.03515625 C-121.55573388 392.80409288 -119.37677589 401.62465059 -117.39794922 410.58248901 C-111.62004233 436.72867635 -103.6844893 459.30208111 -89.44140625 482.1484375 C-88.96799805 482.91542969 -88.49458984 483.68242187 -88.00683594 484.47265625 C-81.55332985 494.9175387 -74.82092341 505.13198418 -67.79150391 515.19677734 C-66.4303343 517.16444278 -65.09491174 519.14739917 -63.765625 521.13671875 C-57.620155 530.29751549 -50.98137323 538.88845555 -43.91796875 547.35888672 C-42.58966232 548.96875545 -41.29456194 550.60588547 -40.00390625 552.24609375 C-27.55124469 568.05652656 -10.75755938 579.56454536 5.70068359 590.86962891 C7.23089736 591.92288248 8.74985868 592.99246503 10.265625 594.06640625 C17.00221132 598.53068577 24.45451006 600.42740451 32.17089844 602.48779297 C34.60154546 603.16032169 37.0041781 603.89657678 39.41015625 604.65234375 C53.266392 608.94355024 67.18454916 611.32366219 81.55859375 613.1484375 C82.52017285 613.27339647 82.52017285 613.27339647 83.50117779 613.40087986 C94.81981735 614.85220073 105.93103534 615.4482942 117.3359375 615.4140625 C118.96537839 615.41541591 120.59481889 615.41736199 122.22425842 615.41986084 C125.6014499 615.42277457 128.97853409 615.41863367 132.35571289 615.40917969 C136.65436442 615.39772262 140.95276777 615.40440787 145.25141048 615.41632462 C148.60168797 615.42359087 151.95190763 615.42123462 155.30218697 615.41606903 C156.88680616 615.41474902 158.47143087 615.41632138 160.05604362 615.42102814 C173.12659312 615.98929268 173.12659312 615.98929268 185.55859375 613.1484375 C187.8849965 608.87363511 187.82790964 604.71917762 187.74609375 599.9609375 C187.74544922 599.23712891 187.74480469 598.51332031 187.74414062 597.76757812 C187.77675324 593.82857326 187.77675324 593.82857326 186.55859375 590.1484375 C188.20859375 590.4784375 189.85859375 590.8084375 191.55859375 591.1484375 C193.07185132 597.95855318 193.96118814 604.63664875 194.49609375 611.5859375 C195.29901617 624.77250525 195.29901617 624.77250525 201.12109375 636.2109375 C201.92546875 636.8503125 202.72984375 637.4896875 203.55859375 638.1484375 C204.21859375 638.8084375 204.87859375 639.4684375 205.55859375 640.1484375 C207.54918636 640.18179761 207.54918636 640.18179761 209.55859375 639.1484375 C211.4990797 637.02897347 211.4990797 637.02897347 213.18359375 634.3984375 C213.77398438 633.53734375 214.364375 632.67625 214.97265625 631.7890625 C219.52617772 624.20733709 219.72575099 616.45709277 219.68359375 607.8359375 C219.68746094 607.02576172 219.69132812 606.21558594 219.6953125 605.38085938 C219.80438572 601.13025596 219.80438572 601.13025596 218.55859375 597.1484375 C217.99041193 591.01207386 217.99041193 591.01207386 220.12109375 587.7734375 C222.55859375 586.1484375 222.55859375 586.1484375 225.80859375 585.86328125 C230.30144793 585.00683092 232.72635546 583.08725365 235.99609375 580.0859375 C236.58592041 579.56225586 237.17574707 579.03857422 237.78344727 578.49902344 C272.61668442 547.13773403 295.75499595 509.37546862 298.71606445 461.6081543 C299.80931525 435.65783286 292.52549459 412.94435624 282.49609375 389.2734375 C282.21812958 388.61189667 281.94016541 387.95035583 281.65377808 387.26876831 C277.73462942 377.95127117 273.56244982 368.79361591 269.12109375 359.7109375 C262.62184739 346.3894684 257.47596708 333.52997566 254.46899414 318.97143555 C253.20763557 313.30074655 251.39102355 310.47127301 247.55859375 306.1484375 C245.70881713 301.66969201 245.23149272 297.64962215 245.0390625 292.828125 C245.01122177 292.13627106 244.98338104 291.44441711 244.95469666 290.7315979 C244.87156151 288.49574868 244.80609821 286.26002178 244.74609375 284.0234375 C244.72424011 283.25700928 244.70238647 282.49058105 244.67987061 281.70092773 C244.36051808 269.51649876 244.99856166 258.09449267 247.55859375 246.1484375 C254.75678282 212.13216775 252.36158764 184.26520154 241.55859375 151.1484375 C241.21538086 150.04483887 241.21538086 150.04483887 240.86523438 148.91894531 C234.25986624 127.97484726 216.20166846 109.29778216 198.37109375 97.0859375 C197.45384521 96.44990601 197.45384521 96.44990601 196.51806641 95.80102539 C193.76694885 94.03453043 192.06426925 93.11387948 188.7578125 93.33984375 C186.55810643 94.10239527 186.55810643 94.10239527 184.55859375 95.1484375 C182.8515664 95.21839764 181.14191372 95.23283904 179.43359375 95.2109375 C178.06847656 95.19740234 178.06847656 95.19740234 176.67578125 95.18359375 C175.62777344 95.16619141 175.62777344 95.16619141 174.55859375 95.1484375 C176.22363371 87.12597223 181.19510817 83.6162997 187.33203125 78.76171875 C194.81034973 72.84073854 201.8752414 65.71876505 203.37109375 55.9609375 C203.91550934 49.24647851 202.78844614 42.91560537 200.05859375 36.7734375 C195.75674239 32.25649357 190.40743682 30.09805186 184.55859375 28.1484375 C177.61314199 28.1484375 170.85527069 30.69441371 165.55859375 35.1484375 Z " fill="#000000" transform="translate(321.44140625,0.8515625)"/>
<path d="M0 0 C0.6902124 0.42998291 1.3804248 0.85996582 2.09155273 1.30297852 C10.63613208 6.91721533 15.74476592 14.23548431 20.3125 23.25 C20.74949219 24.07822266 21.18648437 24.90644531 21.63671875 25.75976562 C29.66805289 41.28784046 28.08725833 66.23788538 22.9375 82.7734375 C16.14088818 100.16739801 5.40742185 116.18199911 -11.8046875 124.23828125 C-29.17430125 131.29859188 -51.60037614 131.17931375 -69.0625 124.5625 C-69.72572266 124.32112305 -70.38894531 124.07974609 -71.07226562 123.83105469 C-80.73456733 120.2582501 -87.82169596 116.02338927 -95.0625 108.5625 C-96.22827244 107.44685374 -97.39781545 106.33513935 -98.5703125 105.2265625 C-111.7519835 92.63684138 -121.81197197 77.42655534 -122.45751953 58.67285156 C-122.7873708 37.91876115 -116.13945446 18.15353575 -101.89550781 2.72924805 C-97.14045438 -2.09817936 -92.237901 -5.70195046 -86.0625 -8.4375 C-85.14855469 -8.86546875 -84.23460937 -9.2934375 -83.29296875 -9.734375 C-54.44182809 -22.59071553 -25.81523796 -16.29708553 0 0 Z " fill="#EEF6FE" transform="translate(389.0625,126.4375)"/>
<path d="M0 0 C0.62704842 30.92795745 0.62704842 30.92795745 -3 42 C-3.32871094 43.07507813 -3.65742188 44.15015625 -3.99609375 45.2578125 C-8.6920712 59.00451466 -18.82978977 74.35404258 -31.4375 82.0625 C-43.60676707 87.98616439 -58.53524124 87.03631359 -71.1171875 83 C-78.0124269 80.33313896 -83.51687906 76.93580397 -89 72 C-89.76183594 71.319375 -90.52367188 70.63875 -91.30859375 69.9375 C-107.24524402 54.88771223 -111.52883254 35.18027377 -112.18359375 13.9140625 C-112.18673775 11.26681507 -112.15052087 8.64247743 -112 6 C-111.608125 6.38671875 -111.21625 6.7734375 -110.8125 7.171875 C-96.7368302 19.42741508 -70.71812157 19.01972073 -53 18 C-49.047222 17.59761608 -45.12916103 16.98650706 -41.203125 16.37890625 C-37.20621375 15.90610089 -33.9253773 16.19890259 -30 17 C-29.505 15.515 -29.505 15.515 -29 14 C-26.38852615 12.60503276 -23.82941342 11.37312219 -21.125 10.1875 C-19.57427255 9.48582517 -18.02479262 8.78138683 -16.4765625 8.07421875 C-15.71504883 7.72665527 -14.95353516 7.3790918 -14.16894531 7.02099609 C-10.3138069 5.20625174 -6.61200143 3.12968756 -2.90625 1.03125 C-1 0 -1 0 0 0 Z " fill="#71674E" transform="translate(160,371)"/>
<path d="M0 0 C0.84997559 0.33580078 1.69995117 0.67160156 2.57568359 1.01757812 C6.92976342 2.83698348 9.95367195 4.48174448 13.125 8.0625 C14.99834543 9.52918578 16.89629341 10.96477215 18.8125 12.375 C23.97336116 16.20158974 29.08089343 20.08336795 34.125 24.0625 C34.90617188 24.57039063 35.68734375 25.07828125 36.4921875 25.6015625 C40.48405569 29.33283395 42.73463597 33.84846331 45.3125 38.625 C46.11204102 40.03362305 46.11204102 40.03362305 46.92773438 41.47070312 C57.10397202 60.12073866 54.03956797 85.25633228 48.4375 105.125 C42.745903 121.10854495 33.40871726 139.20318465 19.125 149.0625 C18.39925781 149.57941406 17.67351562 150.09632813 16.92578125 150.62890625 C-0.91732941 161.80536018 -26.50005947 163.11992267 -46.59106445 158.67089844 C-61.55763943 154.79027157 -74.6390776 148.70355074 -85.42919922 137.53759766 C-86.93879991 135.99740728 -88.49382639 134.51865755 -90.06640625 133.04296875 C-96.14784622 127.28009363 -101.11046432 121.6120308 -104.875 114.0625 C-105.19984375 113.44213867 -105.5246875 112.82177734 -105.859375 112.18261719 C-110.67762315 102.95200593 -114.29268648 94.60356303 -114.875 84.0625 C-114.93187988 83.39621582 -114.98875977 82.72993164 -115.04736328 82.04345703 C-116.97882717 58.19337512 -107.59032249 34.34946074 -92.44140625 16.13671875 C-69.26482733 -8.76174568 -30.31295577 -12.02552327 0 0 Z M-81.875 21.0625 C-82.50535156 21.57683594 -83.13570313 22.09117188 -83.78515625 22.62109375 C-97.1091034 34.51463703 -105.23692812 54.04455976 -106.33984375 71.6484375 C-106.83212828 88.58656261 -102.20183708 105.24008718 -90.75 118.1875 C-89.13469297 119.82213549 -87.50860095 121.44614672 -85.875 123.0625 C-84.83060931 124.20466487 -83.79052676 125.35077835 -82.75390625 126.5 C-70.47989477 139.82596824 -53.73143712 148.98002195 -35.28222656 150.23950195 C-15.09302476 150.686686 3.87734484 150.3552381 19.75 136.0625 C36.77247614 117.50009325 42.26132797 96.59578604 42.375 72 C42.395625 70.88044922 42.41625 69.76089844 42.4375 68.60742188 C42.50605099 53.99749272 36.04788906 40.95752838 27.13671875 29.5078125 C15.98624385 18.7372135 -0.23650658 11.61341209 -14.875 7.0625 C-15.70386719 6.79824219 -16.53273438 6.53398438 -17.38671875 6.26171875 C-38.85523801 0.75408816 -65.24651643 6.50810685 -81.875 21.0625 Z " fill="#000000" transform="translate(372.875,104.9375)"/>
<path d="M0 0 C-0.6731871 4.57058608 -2.42304261 8.54838303 -4.25 12.75 C-9.60934083 25.49840118 -13.30651111 38.0688651 -14.83691406 51.84521484 C-15.57328025 57.65364179 -15.57328025 57.65364179 -18.07421875 59.68359375 C-18.70972656 60.11800781 -19.34523437 60.55242187 -20 61 C-20.48340432 63.7386225 -20.48340432 63.7386225 -20.25 66.6875 C-20.19585937 68.17830078 -20.19585937 68.17830078 -20.140625 69.69921875 C-20.09421875 70.45847656 -20.0478125 71.21773438 -20 72 C-20.72445312 72.37511719 -21.44890625 72.75023437 -22.1953125 73.13671875 C-32.5096719 78.59645299 -38.05809227 83.96204345 -44 94 C-57.35405611 88.4568069 -64.79873703 78.92620875 -70.26342773 65.98266602 C-74.43712738 54.74812348 -73.14706191 45.36529612 -70 34 C-69.67 33.34 -69.34 32.68 -69 32 C-68.04738281 32.03480469 -67.09476562 32.06960937 -66.11328125 32.10546875 C-64.85902344 32.13253906 -63.60476562 32.15960938 -62.3125 32.1875 C-61.07113281 32.22230469 -59.82976562 32.25710937 -58.55078125 32.29296875 C-54.74445393 31.97891534 -52.98250942 31.33041955 -50 29 C-45.50870947 23.36892577 -44.87541162 15.91114439 -44 9 C-37.93568901 6.91193662 -31.79605066 5.42443518 -25.5625 3.9375 C-24.45583984 3.66873047 -23.34917969 3.39996094 -22.20898438 3.12304688 C-14.73692305 1.33207462 -7.72367212 -0.18838225 0 0 Z " fill="#EEF6FE" transform="translate(188,112)"/>
<path d="M0 0 C1.9791932 0.97423701 3.9267294 1.95719372 5.83203125 3.0703125 C12.78152866 6.77122828 20.27891634 7.15518963 28 6 C32.23655589 3.73226737 32.23655589 3.73226737 35 0 C43.09497491 2.02374373 49.24035786 7.2301149 53.93359375 14.0078125 C56.87370537 19.50032871 54.63194541 25.77102475 52.9765625 31.41015625 C51.16285194 36.22011665 48.57911249 38.8720625 44.375 41.875 C35.66447924 44.77850692 26.01404074 42.59455422 17.1875 41.0625 C15.5487793 40.78889648 15.5487793 40.78889648 13.87695312 40.50976562 C11.85114256 40.17069204 9.82590814 39.82814112 7.80151367 39.48071289 C6.87701416 39.32207764 5.95251465 39.16344238 5 39 C3.94143799 38.81638916 2.88287598 38.63277832 1.79223633 38.44360352 C-0.68527634 38.05000025 -2.99992693 37.93840765 -5.5 37.875 C-9.31904362 37.48793477 -10.97624214 36.5127614 -13.5 33.625 C-16.60800585 29.56732569 -17.59712579 25.65752972 -17.53125 20.6015625 C-15.68459759 11.55839704 -7.26183087 4.92526955 0 0 Z " fill="#F0E2BE" transform="translate(172,190)"/>
<path d="M0 0 C3 1 3 1 4.17578125 2.58984375 C5.31258854 5.91406221 5.25261791 9.09415733 5.1875 12.5625 C5.18105469 13.27486816 5.17460937 13.98723633 5.16796875 14.72119141 C5.09641147 19.67988715 4.73627225 24.57048947 4.23046875 29.50390625 C3.15949734 41.10307119 4.18008056 53.31235255 9 64 C10.04466109 65.21615968 10.04466109 65.21615968 12.25 65.5625 C15.32897484 65.22234241 15.32897484 65.22234241 17.5625 62.0625 C24.48958469 49.46386472 25.01106773 33.47070394 26.69360352 19.42553711 C26.85014404 18.12237549 27.00668457 16.81921387 27.16796875 15.4765625 C27.30485107 14.30174316 27.4417334 13.12692383 27.58276367 11.91650391 C28 9 28 9 29 6 C31.31 6 33.62 6 36 6 C37.62751842 9.58676292 38.2558443 12.3934238 38.265625 16.32421875 C38.26989502 17.34386719 38.27416504 18.36351562 38.27856445 19.4140625 C38.26913818 20.49429687 38.25971191 21.57453125 38.25 22.6875 C38.23876099 24.36392578 38.23876099 24.36392578 38.22729492 26.07421875 C37.71316158 66.14789676 37.71316158 66.14789676 25 79 C24.51015625 79.53367187 24.0203125 80.06734375 23.515625 80.6171875 C20.51898131 83.3512387 16.78336137 83.91035167 12.82421875 84.109375 C6.52289128 83.80464759 2.34972332 81.51490269 -2 77 C-13.56680927 62.03118801 -13.71308726 40.1834855 -11.46875 22.1328125 C-11.24135566 20.62831548 -11.00230577 19.12552033 -10.75 17.625 C-10.64075195 16.94244141 -10.53150391 16.25988281 -10.41894531 15.55664062 C-9.29587644 9.65537057 -6.74881776 5.66350958 -2.4375 1.5625 C-1.633125 1.046875 -0.82875 0.53125 0 0 Z " fill="#000000" transform="translate(432,396)"/>
<path d="M0 0 C3.78485643 2.28668409 5.26146857 4.43163994 6.55859375 8.61328125 C8.26895907 17.13483587 7.55101268 26.47577844 3.125 34 C2.073125 35.3921875 2.073125 35.3921875 1 36.8125 C0.44054687 37.58335938 -0.11890625 38.35421875 -0.6953125 39.1484375 C-3.96777294 42.93117991 -7.84892076 45.6726919 -11.8671875 48.61914062 C-15.85197735 51.63338617 -18.24389132 54.58646668 -21 58.8125 C-26.58801533 60.04186337 -30.90921737 57.92012708 -35.7578125 55.296875 C-40.01536129 52.4782887 -41.55373022 49.35956856 -42.9375 44.5625 C-43.02228011 39.47569349 -41.72074484 35.5635271 -40 30.8125 C-39.608125 29.62785156 -39.21625 28.44320312 -38.8125 27.22265625 C-34.78858984 15.65317375 -27.99362496 6.28813139 -17.35546875 -0.2265625 C-11.75496635 -2.51134457 -5.62432433 -2.04089406 0 0 Z " fill="#92BCC4" transform="translate(517,34.1875)"/>
<path d="M0 0 C1.9719659 1.57915451 3.88940796 3.22853079 5.75 4.9375 C6.69359375 5.79214844 7.6371875 6.64679688 8.609375 7.52734375 C12.4164799 11.4650846 13.31517263 14.17063839 13.4375 19.625 C13.25939001 28.23714179 9.95678438 34.19028673 4.1875 40.4375 C-0.81414521 45.08255512 -5.20567874 46.73387417 -11.9375 47.375 C-18.78189073 47.02607028 -24.15919889 45.37284921 -28.875 40.25 C-35.41976569 31.82228548 -36.01247645 24.60799192 -35 14 C-33.39191067 7.77822582 -29.36477024 3.39662968 -24 0 C-15.77510435 -3.98463866 -7.99550619 -4.61940118 0 0 Z " fill="#000000" transform="translate(317,132)"/>
<path d="M0 0 C0.86612915 0.12060791 0.86612915 0.12060791 1.74975586 0.24365234 C19.83058028 2.75423131 37.75793311 5.13241734 56 6 C49.63087501 14.65353799 39.64867424 19.83792494 30.3125 24.8125 C29.63678955 25.17311523 28.9610791 25.53373047 28.26489258 25.90527344 C24.70085292 27.75491599 21.12013763 29.38460841 17.37890625 30.84375 C9.99661595 33.72735749 2.87709405 37.20514361 -4.28466797 40.59008789 C-6.13370423 41.46278166 -7.98471905 42.33116591 -9.8359375 43.19921875 C-11.46861572 43.97011841 -11.46861572 43.97011841 -13.13427734 44.7565918 C-15.45299632 45.76266061 -17.53378356 46.50369911 -20 47 C-19.48358824 41.38791077 -18.39439987 36.58359011 -16.1875 31.375 C-15.89415771 30.66931885 -15.60081543 29.9636377 -15.29858398 29.23657227 C-10.94489338 19.12649215 -5.41644708 9.56856697 0 0 Z " fill="#E9997F" transform="translate(34,285)"/>
<path d="M0 0 C0.75539063 -0.01224609 1.51078125 -0.02449219 2.2890625 -0.03710938 C6.52847819 -0.04822672 9.75480179 0.23698178 13.625 2.1875 C13.295 2.703125 12.965 3.21875 12.625 3.75 C11.29180762 6.99965644 11.43166736 9.70751247 11.625 13.1875 C11.955 13.8475 12.285 14.5075 12.625 15.1875 C13.29622146 30.29778767 12.87170737 41.62593528 3.625 54.1875 C2.965 54.8475 2.305 55.5075 1.625 56.1875 C-1.39432315 56.08338541 -2.59733514 55.00312452 -4.9375 53.0625 C-13.20782723 43.30775507 -12.63753242 28.62474126 -13.59008789 16.43505859 C-13.96513425 12.01272269 -14.35755108 8.22239784 -16.375 4.1875 C-10.75215424 0.6922175 -6.54535851 0.00552817 0 0 Z " fill="#F0E2BE" transform="translate(528.375,584.8125)"/>
<path d="M0 0 C0.7115625 -0.01224609 1.423125 -0.02449219 2.15625 -0.03710938 C6.04114504 -0.04798128 8.62853508 0.30550278 12 2.1875 C6.43483448 52.75266552 6.43483448 52.75266552 -2 61.1875 C-4.3125 61.625 -4.3125 61.625 -7 61.1875 C-14.72860244 52.57562871 -14.28365093 38.14100087 -14 27.1875 C-13.73516952 22.63987482 -13.37451775 18.10226246 -13 13.5625 C-12.90460938 12.36753906 -12.80921875 11.17257812 -12.7109375 9.94140625 C-12.47747582 7.0231352 -12.24042446 4.10520424 -12 1.1875 C-7.99542591 0.0772717 -4.13169002 0.00374247 0 0 Z " fill="#F0E2BE" transform="translate(449,400.8125)"/>
<path d="M0 0 C0.495 1.485 0.495 1.485 1 3 C-5.71555823 14.15219056 -17.6763228 19.40404576 -29.72875977 22.47998047 C-39.46663527 24.70954887 -48.8339471 25.32338567 -58.8125 25.25 C-59.80221298 25.24534729 -59.80221298 25.24534729 -60.81192017 25.24060059 C-77.57594762 25.14811501 -98.23469409 24.76530591 -111 12 C-111.125 8.875 -111.125 8.875 -111 6 C-110.608125 6.38671875 -110.21625 6.7734375 -109.8125 7.171875 C-95.7368302 19.42741508 -69.71812157 19.01972073 -52 18 C-48.047222 17.59761608 -44.12916103 16.98650706 -40.203125 16.37890625 C-36.20621375 15.90610089 -32.9253773 16.19890259 -29 17 C-28.505 15.515 -28.505 15.515 -28 14 C-25.38854158 12.605041 -22.82935071 11.37322063 -20.125 10.1875 C-18.57560187 9.4857627 -17.02742437 8.78132419 -15.48046875 8.07421875 C-14.33843994 7.55287354 -14.33843994 7.55287354 -13.17333984 7.02099609 C-8.6631696 4.90219898 -4.32758098 2.46756237 0 0 Z " fill="#B4DEEF" transform="translate(159,371)"/>
<path d="M0 0 C5.63952216 2.92975176 10.72989699 6.51466592 14 12 C14.38665864 15.38835075 14.249254 18.60875221 14 22 C11.00451712 22.85016724 8.00303537 23.67694586 5 24.5 C4.16082031 24.73847656 3.32164062 24.97695313 2.45703125 25.22265625 C-2.85801257 26.6647224 -7.48840311 27.44289618 -13 27 C-16.07255337 23.92744663 -15.953322 21.56013602 -16.3125 17.25 C-16.22090422 11.78478531 -14.15222202 7.49681937 -10.609375 3.38671875 C-7.12831238 0.1346734 -4.64726374 -1.002351 0 0 Z " fill="#5DB2FD" transform="translate(317,12)"/>
<path d="M0 0 C2.59053335 1.25556502 5.03788613 2.5986299 7.453125 4.1640625 C8.071875 4.56367187 8.690625 4.96328125 9.328125 5.375 C9.96234375 5.7875 10.5965625 6.2 11.25 6.625 C11.8996875 7.04523437 12.549375 7.46546875 13.21875 7.8984375 C14.81368881 8.93045673 16.40700669 9.96498028 18 11 C17.50974015 15.87484799 15.1148697 19.20463923 12.3125 23.0625 C11.89033203 23.67416016 11.46816406 24.28582031 11.03320312 24.91601562 C8.17746273 28.90026882 5.37325167 31.60157276 1 34 C-2.86101693 34.07722034 -4.39392893 33.52416957 -7.3125 31 C-9.57057138 26.98565088 -10.26339631 23.60610411 -10 19 C-8.76409338 15.39629381 -6.98002214 12.21995158 -5.0625 8.9375 C-4.58103516 8.07189453 -4.09957031 7.20628906 -3.60351562 6.31445312 C-2.42214353 4.19734076 -1.221299 2.0942484 0 0 Z " fill="#EFE1BD" transform="translate(315,599)"/>
<path d="M0 0 C2.5 1.1875 2.5 1.1875 4.5 3.1875 C5 5.375 5 5.375 4.5 8.1875 C3.0522444 10.14028662 1.49362069 11.88165988 -0.1875 13.63671875 C-1.71534281 15.10333039 -1.71534281 15.10333039 -1.5 17.1875 C-0.283125 17.6 0.93375 18.0125 2.1875 18.4375 C5.86335235 19.8151285 8.64788707 21.4245156 11.5 24.1875 C11.5 24.8475 11.5 25.5075 11.5 26.1875 C10.93603516 26.11942139 10.37207031 26.05134277 9.79101562 25.98120117 C-0.64004896 24.46038635 -0.64004896 24.46038635 -10.21630859 27.44726562 C-13.17426765 30.93172225 -14.84903262 34.94457018 -16.5 39.1875 C-17.5 40.1875 -17.5 40.1875 -20.0625 40.25 C-20.866875 40.229375 -21.67125 40.20875 -22.5 40.1875 C-24.66235483 33.70043551 -20.07188843 26.23865518 -17.1796875 20.3828125 C-16.31412438 18.68919889 -15.44168604 16.9990819 -14.5625 15.3125 C-14.14379639 14.50425781 -13.72509277 13.69601563 -13.29370117 12.86328125 C-5.47075532 -1.77799548 -5.47075532 -1.77799548 0 0 Z " fill="#000000" transform="translate(505.5,37.8125)"/>
<path d="M0 0 C3.01307415 0.96848812 6.00736279 1.97056341 9 3 C9.96437988 3.32991943 9.96437988 3.32991943 10.94824219 3.66650391 C13.09597 4.40879926 15.23572983 5.17120146 17.375 5.9375 C18.07689453 6.17807129 18.77878906 6.41864258 19.50195312 6.66650391 C23.44614868 8.1022292 25.8993126 9.28771655 28 13 C26.71064081 14.14842923 25.41843421 15.29366227 24.125 16.4375 C23.40570312 17.07558594 22.68640625 17.71367188 21.9453125 18.37109375 C17.48813924 22.1033051 12.5727375 21.41127214 7 21 C2.93803172 20.19602009 -1.02749937 19.16471223 -5 18 C-3.9007105 11.68878497 -2.41862058 5.93661416 0 0 Z " fill="#EFE1BE" transform="translate(626,496)"/>
<path d="M0 0 C-0.33 2.97 -0.66 5.94 -1 9 C-4.00187189 9.38733831 -6.9875651 9.71883941 -10 10 C-10.83917969 10.09152344 -11.67835937 10.18304688 -12.54296875 10.27734375 C-18.53250701 10.65807409 -21.84849839 9.43602989 -26.6015625 5.80078125 C-28.4325241 3.4430346 -28.26773697 1.91039999 -28 -1 C-18.47825694 -2.78443461 -9.33798627 -2.53233526 0 0 Z " fill="#71674D" transform="translate(122,370)"/>
<path d="M0 0 C4.95 0.33 9.9 0.66 15 1 C16.32 6.61 17.64 12.22 19 18 C3.79310345 16.79310345 3.79310345 16.79310345 0 13 C-0.14393457 8.66469082 -0.04212061 4.33842269 0 0 Z " fill="#F0E2BE" transform="translate(170,386)"/>
<path d="M0 0 C2.9375 1.5625 2.9375 1.5625 5 3 C4.49402823 7.3850887 2.11067753 10.02456932 -1 13 C-6.81077786 14.11745728 -12.0465516 12.0164584 -17 9 C-17.66 8.01 -18.32 7.02 -19 6 C-17.56542672 5.0165504 -16.12722594 4.03839079 -14.6875 3.0625 C-13.88699219 2.51722656 -13.08648437 1.97195312 -12.26171875 1.41015625 C-7.86381674 -1.33188628 -4.97757018 -1.02984211 0 0 Z " fill="#5C7C84" transform="translate(197,172)"/>
<path d="M0 0 C0.58007812 0.20496094 1.16015625 0.40992188 1.7578125 0.62109375 C6.1621984 2.14009813 10.35677777 3.4047151 15 4 C14.64455443 10.63498399 12.86904957 14.63187218 9 20 C5.53266462 19.80737026 4.20412537 19.19860847 1.6875 16.75 C-1.32987534 11.83010286 -0.29547711 5.53198813 0 0 Z " fill="#F7F5ED" transform="translate(179,239)"/>
<path d="M0 0 C1.67542976 0.28604898 3.34385343 0.61781233 5 1 C3.79890598 6.95092415 2.24343009 12.60993834 0.1796875 18.31640625 C-0.08383514 19.05833725 -0.34735779 19.80026825 -0.61886597 20.56468201 C-1.44928203 22.899093 -2.2869907 25.23080554 -3.125 27.5625 C-3.69449816 29.15933134 -4.26351283 30.75633521 -4.83203125 32.35351562 C-6.21578281 36.23769035 -7.60607411 40.11946556 -9 44 C-10.41934647 40.15527049 -9.5850863 37.27466238 -8.63671875 33.36328125 C-8.48467484 32.72440475 -8.33263092 32.08552826 -8.17597961 31.42729187 C-7.68842865 29.38684453 -7.18830791 27.34972967 -6.6875 25.3125 C-6.36176956 23.9617958 -6.03689124 22.61088581 -5.71289062 21.25976562 C-5.09100077 18.66761258 -4.46386761 16.07694366 -3.83349609 13.48681641 C-3.12735696 10.53278033 -2.46536154 7.57571137 -1.83203125 4.60546875 C-1 1 -1 1 0 0 Z " fill="#B1DCEC" transform="translate(153,289)"/>
<path d="M0 0 C1.13888672 -0.01224609 2.27777344 -0.02449219 3.45117188 -0.03710938 C10.70901668 -0.04954429 17.47723674 0.60512753 24.5625 2.1875 C24.2325 3.8375 23.9025 5.4875 23.5625 7.1875 C19.80736096 6.70812055 16.20142258 6.11455585 12.53125 5.1875 C7.04304837 3.95038922 1.60788138 3.7406458 -4 3.5625 C-5.00869141 3.52382813 -6.01738281 3.48515625 -7.05664062 3.4453125 C-9.5167564 3.35203797 -11.97688366 3.26624484 -14.4375 3.1875 C-14.4375 2.5275 -14.4375 1.8675 -14.4375 1.1875 C-10.21662487 -0.92293756 -4.6358693 0.00254578 0 0 Z " fill="#B2DCED" transform="translate(102.4375,354.8125)"/>
<path d="M0 0 C-0.39766517 2.25343594 -0.81888967 4.50272276 -1.25 6.75 C-1.48203125 8.00296875 -1.7140625 9.2559375 -1.953125 10.546875 C-3.05026825 14.1658102 -4.11426987 15.63894808 -7 18 C-9.29612756 6.47835991 -9.29612756 6.47835991 -9 1 C-5.8035914 -0.06546953 -3.34252724 -0.07427838 0 0 Z " fill="#ECF3FB" transform="translate(309,143)"/>
<path d="M0 0 C-3.53613714 4.78775956 -7.14483704 9.46451416 -11 14 C-13.46645256 11.53354744 -13.92087652 10.48143326 -14 7 C-9.54380183 0.737235 -7.50636032 -0.13900667 0 0 Z " fill="#F6F4EC" transform="translate(126,114)"/>
<path d="M0 0 C1.32 2.31 2.64 4.62 4 7 C-1.48972839 7.23360546 -6.76943854 6.81834969 -12 5 C-12.33 4.34 -12.66 3.68 -13 3 C-11.58603098 2.49242138 -10.16868271 1.99425075 -8.75 1.5 C-7.96109375 1.2215625 -7.1721875 0.943125 -6.359375 0.65625 C-4 0 -4 0 0 0 Z " fill="#70664D" transform="translate(86,371)"/>
<path d="M0 0 C6.625 0.75 6.625 0.75 10 3 C9 6 9 6 5.625 7.6875 C2 9 2 9 -1 9 C-0.67 6.03 -0.34 3.06 0 0 Z " fill="#B4DFF0" transform="translate(146,361)"/>
<path d="M0 0 C0 0.99 0 1.98 0 3 C-1.17755859 3.27263672 -1.17755859 3.27263672 -2.37890625 3.55078125 C-9.37482962 5.18544871 -9.37482962 5.18544871 -16.0625 7.75 C-19 9 -19 9 -22 8 C-20.10958518 6.845249 -18.21242401 5.70153767 -16.3125 4.5625 C-15.25675781 3.92441406 -14.20101562 3.28632813 -13.11328125 2.62890625 C-8.66031389 0.29906009 -4.97039231 -0.14201121 0 0 Z " fill="#B1DCEC" transform="translate(78,357)"/>
</svg>
