<?xml version="1.0" standalone="no"?>
<!DOCTYPE svg PUBLIC "-//W3C//DTD SVG 20010904//EN"
 "http://www.w3.org/TR/2001/REC-SVG-20010904/DTD/svg10.dtd">
<svg version="1.0" xmlns="http://www.w3.org/2000/svg"
 width="600.000000pt" height="600.000000pt" viewBox="0 0 600.000000 600.000000"
 preserveAspectRatio="xMidYMid meet">

<g transform="translate(0.000000,600.000000) scale(0.100000,-0.100000)"
fill="#000000" stroke="none">
<path d="M1680 5128 c-74 -38 -130 -104 -152 -177 -10 -37 -13 -279 -13 -1281
l0 -1235 26 -56 c33 -71 87 -125 157 -157 47 -21 64 -24 136 -20 122 7 206 61
258 167 l23 46 3 848 c1 466 6 847 10 847 4 0 425 -418 937 -930 1030 -1029
974 -980 1106 -980 36 0 86 7 112 16 60 20 135 88 167 150 l25 49 3 1253 2
1254 -26 59 c-33 72 -104 140 -171 163 -26 9 -77 16 -114 16 -56 0 -77 -5
-130 -33 -68 -35 -129 -102 -151 -167 -9 -26 -13 -247 -16 -872 -1 -473 -6
-838 -11 -838 -5 0 -422 416 -928 924 -623 627 -934 933 -967 952 -41 23 -64
29 -135 32 -82 4 -89 2 -151 -30z"/>
<path d="M214 1976 l-34 -34 0 -517 0 -517 34 -34 c29 -29 41 -34 80 -34 36 0
52 6 78 29 l33 29 3 353 3 353 382 -382 383 -382 47 0 c28 0 58 7 74 17 52 34
53 43 53 569 0 429 -2 490 -16 520 -41 86 -168 84 -209 -2 -12 -27 -15 -88
-15 -365 l0 -334 -383 383 -383 382 -48 0 c-41 0 -53 -5 -82 -34z"/>
<path d="M1641 1717 c-89 -162 -161 -297 -161 -301 0 -4 73 -135 161 -292
l162 -284 341 0 341 0 150 306 c83 169 152 310 153 315 2 5 -154 9 -356 9
-357 0 -359 0 -393 -23 -93 -63 -57 -196 58 -213 26 -4 103 -4 173 0 69 4 129
4 132 0 4 -3 -10 -39 -30 -80 l-36 -74 -197 0 -197 0 -96 170 -97 169 97 176
96 175 211 0 212 -1 44 -94 44 -95 119 0 c65 0 118 3 118 6 0 9 -140 345 -161
387 l-19 37 -354 0 -354 0 -161 -293z"/>
<path d="M2988 1994 c-51 -27 -58 -56 -58 -244 l0 -170 120 0 120 0 0 153 c0
83 -5 169 -10 189 -21 75 -104 110 -172 72z"/>
<path d="M3395 2000 c-11 -4 -31 -20 -45 -35 l-25 -27 -3 -507 -3 -507 24 -35
c28 -42 81 -62 129 -49 25 7 126 103 403 380 203 203 373 370 377 370 5 0 8
-153 8 -339 l0 -339 26 -31 c46 -55 124 -59 174 -9 l30 30 0 517 c0 500 -1
519 -20 543 -27 35 -72 52 -117 43 -33 -6 -85 -54 -415 -383 l-378 -377 0 336
c0 333 0 336 -23 370 -35 53 -89 71 -142 49z"/>
<path d="M4708 1995 c-34 -19 -58 -63 -58 -108 0 -48 32 -87 234 -285 97 -95
176 -176 176 -180 0 -4 -90 -97 -200 -207 -209 -208 -222 -227 -206 -291 4
-15 20 -39 36 -55 23 -23 37 -29 73 -29 57 0 62 4 294 234 l183 181 208 -208
208 -207 48 0 c41 0 53 5 82 34 29 29 34 41 34 82 l0 48 -207 208 -207 208
207 208 207 209 0 49 c0 56 -17 87 -60 109 -36 19 -73 19 -108 1 -15 -8 -112
-100 -217 -205 -104 -105 -194 -191 -200 -191 -5 0 -100 90 -211 201 -193 193
-203 201 -245 205 -28 3 -54 -1 -71 -11z"/>
<path d="M2930 1200 c0 -298 3 -316 60 -345 41 -21 82 -19 121 8 53 36 58 63
58 350 l1 257 -120 0 -120 0 0 -270z"/>
</g>
</svg>
