<?xml version="1.0" encoding="UTF-8"?>
<!DOCTYPE svg PUBLIC "-//W3C//DTD SVG 1.1//EN" "http://www.w3.org/Graphics/SVG/1.1/DTD/svg11.dtd">
<svg xmlns="http://www.w3.org/2000/svg" version="1.1" width="600px" height="600px" style="shape-rendering:geometricPrecision; text-rendering:geometricPrecision; image-rendering:optimizeQuality; fill-rule:evenodd; clip-rule:evenodd" xmlns:xlink="http://www.w3.org/1999/xlink">
<g><path style="opacity:1" fill="#f8f9f8" d="M 599.5,403.5 C 599.5,408.167 599.5,412.833 599.5,417.5C 597.74,423.011 594.906,428.011 591,432.5C 582.197,440.302 573.697,448.469 565.5,457C 574.333,465.833 583.167,474.667 592,483.5C 595.327,487.826 597.827,492.492 599.5,497.5C 599.5,501.833 599.5,506.167 599.5,510.5C 593.712,528.41 581.379,535.91 562.5,533C 558.456,532.144 554.789,530.478 551.5,528C 542,518.5 532.5,509 523,499.5C 512.437,510.732 501.27,521.232 489.5,531C 479.186,534.787 469.186,534.12 459.5,529C 458.667,528.167 457.833,527.333 457,526.5C 445.936,535.26 434.102,536.426 421.5,530C 414.656,525.151 410.156,518.651 408,510.5C 407.667,501.5 407.333,492.5 407,483.5C 392.833,497.667 378.667,511.833 364.5,526C 350.738,536.986 336.905,537.153 323,526.5C 313.437,533.933 302.937,535.433 291.5,531C 280.242,525.324 274.409,516.157 274,503.5C 270.333,510.833 266.667,518.167 263,525.5C 260.313,529.194 256.813,531.694 252.5,533C 226.5,533.667 200.5,533.667 174.5,533C 170.726,531.698 167.559,529.531 165,526.5C 161.253,519.337 157.253,512.337 153,505.5C 148.931,526.243 136.431,535.409 115.5,533C 111.462,532.101 107.795,530.434 104.5,528C 89.3333,512.833 74.1667,497.667 59,482.5C 58.6667,491.833 58.3333,501.167 58,510.5C 51.4574,529.526 38.2907,536.692 18.5,532C 8.79481,528.134 2.46148,521.301 -0.5,511.5C -0.5,475.167 -0.5,438.833 -0.5,402.5C 6.79847,384.349 20.1318,377.515 39.5,382C 43.1649,383.497 46.4983,385.497 49.5,388C 63.6667,402.167 77.8333,416.333 92,430.5C 92.1406,420.784 92.8073,411.117 94,401.5C 97.57,390.931 104.737,384.097 115.5,381C 136.93,378.764 149.43,388.264 153,409.5C 155.96,404.414 158.794,399.247 161.5,394C 144.498,385.329 134.998,371.496 133,352.5C 132.333,271.833 132.333,191.167 133,110.5C 135.197,88.6346 146.697,74.1346 167.5,67C 182.001,63.5322 195.667,65.5322 208.5,73C 261.973,125.472 315.139,178.306 368,231.5C 368.044,188.475 368.711,145.475 370,102.5C 378.933,75.1118 397.766,62.9451 426.5,66C 448.234,71.0672 461.068,84.5672 465,106.5C 465.667,189.833 465.667,273.167 465,356.5C 463.558,367.216 459.058,376.383 451.5,384C 453.167,385.167 454.833,386.333 456.5,387.5C 470.512,377.9 484.179,378.4 497.5,389C 506,397.5 514.5,406 523,414.5C 532.53,404.636 542.363,395.136 552.5,386C 574.44,375.366 590.106,381.199 599.5,403.5 Z M 229.5,231.5 C 280.632,282.132 331.632,332.965 382.5,384C 389.657,390.58 397.99,395.08 407.5,397.5C 396.514,408.986 385.348,420.319 374,431.5C 374.039,420.387 373.039,409.387 371,398.5C 364.267,385.215 353.434,379.381 338.5,381C 333.013,382.078 328.013,384.244 323.5,387.5C 307.577,376.84 293.077,378.507 280,392.5C 277.027,397.079 275.027,402.079 274,407.5C 271.549,400.596 268.549,393.93 265,387.5C 263.127,385.291 260.96,383.458 258.5,382C 245.222,380.742 231.889,380.075 218.5,380C 224.279,373.606 227.779,366.106 229,357.5C 229.5,315.501 229.667,273.501 229.5,231.5 Z M 466.5,443.5 C 471.298,447.797 475.965,452.297 480.5,457C 476,461.5 471.5,466 467,470.5C 466.5,461.506 466.334,452.506 466.5,443.5 Z"/></g>
<g><path style="opacity:1" fill="#029601" d="M 213.5,189.5 C 213.44,188.957 213.107,188.624 212.5,188.5C 211.5,243.829 211.167,299.163 211.5,354.5C 207.954,370.876 197.787,379.543 181,380.5C 165.704,379.211 155.704,371.211 151,356.5C 150.333,273.167 150.333,189.833 151,106.5C 158.675,86.4127 172.841,79.2461 193.5,85C 195.996,86.0804 198.33,87.4138 200.5,89C 262.333,150.833 324.167,212.667 386,274.5C 386.333,218.5 386.667,162.5 387,106.5C 394.626,86.437 408.793,79.2703 429.5,85C 439.945,90.3866 446.111,98.8866 448,110.5C 448.667,190.5 448.667,270.5 448,350.5C 445.832,369.002 435.498,379.002 417,380.5C 410.582,380.472 404.749,378.638 399.5,375C 336.966,313.632 274.966,251.799 213.5,189.5 Z"/></g>
<g><path style="opacity:1" fill="#41b040" d="M 213.5,189.5 C 212.833,244.5 212.167,299.5 211.5,354.5C 211.167,299.163 211.5,243.829 212.5,188.5C 213.107,188.624 213.44,188.957 213.5,189.5 Z"/></g>
<g><path style="opacity:1" fill="#049603" d="M 42.5,441.5 C 42.44,440.957 42.1067,440.624 41.5,440.5C 40.5003,462.49 40.167,484.49 40.5,506.5C 38.9833,512.618 34.9833,515.951 28.5,516.5C 22.7656,515.933 18.9323,512.933 17,507.5C 16.3333,473.833 16.3333,440.167 17,406.5C 21.77,396.955 28.6034,395.122 37.5,401C 61.6667,425.167 85.8333,449.333 110,473.5C 110.333,450.833 110.667,428.167 111,405.5C 118.667,394.833 126.333,394.833 134,405.5C 134.667,439.833 134.667,474.167 134,508.5C 129.963,515.605 124.13,517.772 116.5,515C 91.9653,490.298 67.2986,465.798 42.5,441.5 Z"/></g>
<g><path style="opacity:1" fill="#099706" d="M 207.5,452.5 C 231.339,452.169 255.006,452.502 278.5,453.5C 268.511,474.145 258.511,494.811 248.5,515.5C 225.5,516.833 202.5,516.833 179.5,515.5C 168.5,496.167 157.5,476.833 146.5,457.5C 157.841,438.155 168.674,418.488 179,398.5C 202.761,397.34 226.594,397.173 250.5,398C 257.315,412.276 263.649,426.776 269.5,441.5C 261.167,442.833 252.833,442.833 244.5,441.5C 241.356,435.379 238.356,429.212 235.5,423C 221.488,422.167 207.488,422.334 193.5,423.5C 187.483,434.87 181.483,446.203 175.5,457.5C 181.229,468.623 187.229,479.623 193.5,490.5C 206.487,491.666 219.487,491.833 232.5,491C 234.961,486.579 237.294,482.079 239.5,477.5C 228.181,476.668 216.848,476.168 205.5,476C 195.793,469.401 195.126,462.068 203.5,454C 204.745,453.209 206.078,452.709 207.5,452.5 Z"/></g>
<g><path style="opacity:1" fill="#0d9809" d="M 301.5,397.5 C 308.268,397.444 313.102,400.444 316,406.5C 316.5,418.495 316.667,430.495 316.5,442.5C 308.167,442.5 299.833,442.5 291.5,442.5C 291.333,430.829 291.5,419.162 292,407.5C 294.022,402.98 297.189,399.647 301.5,397.5 Z"/></g>
<g><path style="opacity:1" fill="#049603" d="M 355.5,409.5 C 355.333,431.169 355.5,452.836 356,474.5C 356.717,473.956 357.217,473.289 357.5,472.5C 381.965,448.535 406.299,424.368 430.5,400C 438.688,396.463 444.854,398.629 449,406.5C 449.667,440.167 449.667,473.833 449,507.5C 443.286,517.745 435.952,519.078 427,511.5C 425.991,509.975 425.491,508.308 425.5,506.5C 425.833,484.49 425.5,462.49 424.5,440.5C 423.893,440.624 423.56,440.957 423.5,441.5C 400.035,465.465 376.368,489.299 352.5,513C 343.985,518.788 337.152,517.288 332,508.5C 331.333,474.167 331.333,439.833 332,405.5C 335.323,399.092 340.489,396.925 347.5,399C 352.457,400.744 355.124,404.244 355.5,409.5 Z"/></g>
<g><path style="opacity:1" fill="#079705" d="M 473.5,397.5 C 477.059,397.408 480.392,398.241 483.5,400C 496.667,413.167 509.833,426.333 523,439.5C 536.195,425.971 549.695,412.804 563.5,400C 573.723,396.276 580.056,399.609 582.5,410C 582.385,412.732 581.552,415.232 580,417.5C 566.791,430.374 553.958,443.541 541.5,457C 553.958,470.459 566.791,483.626 580,496.5C 584.666,507.168 581.333,513.834 570,516.5C 567.366,516.066 564.866,515.233 562.5,514C 549.333,500.833 536.167,487.667 523,474.5C 509.833,487.667 496.667,500.833 483.5,514C 472.876,518.677 466.209,515.344 463.5,504C 463.891,500.823 465.057,497.99 467,495.5C 479.833,482.667 492.667,469.833 505.5,457C 492.333,443.833 479.167,430.667 466,417.5C 461.999,408.489 464.499,401.822 473.5,397.5 Z"/></g>
<g><path style="opacity:1" fill="#d8ecd8" d="M 355.5,409.5 C 356.167,430.5 356.833,451.5 357.5,472.5C 357.217,473.289 356.717,473.956 356,474.5C 355.5,452.836 355.333,431.169 355.5,409.5 Z"/></g>
<g><path style="opacity:1" fill="#5fbc5f" d="M 42.5,441.5 C 41.8333,463.167 41.1667,484.833 40.5,506.5C 40.167,484.49 40.5003,462.49 41.5,440.5C 42.1067,440.624 42.44,440.957 42.5,441.5 Z"/></g>
<g><path style="opacity:1" fill="#7dc87d" d="M 423.5,441.5 C 423.56,440.957 423.893,440.624 424.5,440.5C 425.5,462.49 425.833,484.49 425.5,506.5C 424.833,484.833 424.167,463.167 423.5,441.5 Z"/></g>
<g><path style="opacity:1" fill="#6bc06b" d="M 207.5,452.5 C 231.337,451.171 255.337,451.171 279.5,452.5C 279.376,453.107 279.043,453.44 278.5,453.5C 255.006,452.502 231.339,452.169 207.5,452.5 Z"/></g>
<g><path style="opacity:1" fill="#0b9708" d="M 291.5,452.5 C 299.833,452.5 308.167,452.5 316.5,452.5C 316.667,470.503 316.5,488.503 316,506.5C 312.519,515.66 306.352,518.16 297.5,514C 294.894,512.062 293.061,509.562 292,506.5C 291.5,488.503 291.333,470.503 291.5,452.5 Z"/></g>
</svg>
