<?xml version="1.0" encoding="UTF-8"?>
<svg version="1.1" xmlns="http://www.w3.org/2000/svg" width="960" height="855">
<path d="M0 0 C0.81282944 -0.01606293 1.62565887 -0.03212585 2.46311951 -0.04867554 C6.23776891 -0.09402697 10.01224855 -0.134343 13.78710938 -0.15722656 C15.75044786 -0.1735757 17.71373234 -0.20057588 19.67675781 -0.23925781 C34.11744869 -0.52156626 46.9782034 1.11889603 60.84008789 5.19287109 C61.92459229 5.50691895 63.00909668 5.8209668 64.12646484 6.14453125 C66.62716711 6.92360765 69.07539472 7.77342653 71.52758789 8.69287109 C72.41220703 9.02053467 73.29682617 9.34819824 74.20825195 9.68579102 C124.38525865 28.95685958 170.28972072 65.22986253 207.84008789 103.19287109 C211.77223091 101.60347684 214.17029135 99.02944608 217.09008789 96.00537109 C221.50248331 91.50121766 226.03261047 87.26967837 230.84008789 83.19287109 C231.85516089 82.31483124 232.86941327 81.43584223 233.88305664 80.55615234 C259.61718363 58.26985535 286.68015283 38.14183004 316.84008789 22.19287109 C317.49895996 21.8388623 318.15783203 21.48485352 318.83666992 21.12011719 C343.26468121 8.05054851 368.49310505 0.01049593 396.21264648 -0.15722656 C398.19649065 -0.17368063 400.18027819 -0.20082857 402.16381836 -0.23925781 C415.00755858 -0.48604647 425.88315893 0.33919111 437.84008789 5.19287109 C439.11263428 5.70382324 439.11263428 5.70382324 440.41088867 6.22509766 C442.39343239 7.08180261 444.30239962 8.00371064 446.21508789 9.00537109 C446.87661865 9.34592529 447.53814941 9.68647949 448.21972656 10.03735352 C454.00997776 13.11243014 459.01880297 16.73877012 463.84008789 21.19287109 C464.74243164 22.01529297 465.64477539 22.83771484 466.57446289 23.68505859 C497.68154172 53.33130775 504.58834097 98.0197806 505.96899414 139.02099609 C506.62060979 181.94074677 498.87579543 224.62614347 488.84008789 266.19287109 C489.80148682 266.4178125 490.76288574 266.64275391 491.75341797 266.87451172 C501.87665976 269.29379289 511.69767723 272.28228047 521.52758789 275.69287109 C522.27655334 275.95098572 523.0255188 276.20910034 523.79718018 276.47503662 C568.70086116 291.99432702 613.99259482 312.08775268 648.84008789 345.19287109 C649.3724707 345.69270508 649.90485352 346.19253906 650.45336914 346.70751953 C670.99982809 366.10606684 688.09753417 391.06887975 689.17602539 420.25927734 C689.59891069 450.48979892 680.63421664 476.66909929 659.30493164 498.64599609 C657.31051221 500.70679081 655.46372533 502.78685044 653.65258789 505.00537109 C650.3965877 508.83002484 646.71567349 512.00890929 642.84008789 515.19287109 C641.85266602 516.00626953 640.86524414 516.81966797 639.84790039 517.65771484 C602.8306729 547.66946081 558.72446854 566.35620968 513.90258789 581.38037109 C513.21221436 581.61297638 512.52184082 581.84558167 511.81054688 582.0852356 C504.24032678 584.62275793 496.7383961 586.91467337 488.84008789 588.19287109 C489.15647217 589.53019287 489.15647217 589.53019287 489.47924805 590.89453125 C496.59870575 621.25362949 502.82486543 652.01383129 504.84008789 683.19287109 C504.89503418 683.99096191 504.94998047 684.78905273 505.0065918 685.61132812 C505.37825933 691.13590834 505.65326527 696.65901412 505.84008789 702.19287109 C505.86345215 702.86640625 505.88681641 703.53994141 505.91088867 704.23388672 C507.19880475 748.00138786 499.60779983 795.72230532 468.71386719 828.7019043 C454.57234794 843.35941969 434.02941233 854.29462544 413.45288086 855.36987305 C379.59783031 855.90586508 379.59783031 855.90586508 363.84008789 851.19287109 C362.51087065 850.82622407 361.18144412 850.46033493 359.85180664 850.09521484 C326.62396255 840.62087213 295.81289896 822.81372545 268.71557617 801.64013672 C266.77631999 800.14366306 264.81196049 798.68760142 262.83618164 797.23974609 C253.42371447 790.33259298 244.54145473 782.9739752 235.84008789 775.19287109 C234.89004883 774.34337891 233.94000977 773.49388672 232.96118164 772.61865234 C231.31734053 771.14045019 229.67645524 769.65895072 228.03930664 768.17333984 C225.9549297 766.29628991 223.84093292 764.46016033 221.71508789 762.63037109 C217.55690419 759.0152971 213.68830924 755.13320413 209.84008789 751.19287109 C205.74091166 752.80326176 203.07863867 755.77144418 200.09008789 758.88037109 C195.50801567 763.5493661 190.83596821 767.96558775 185.84008789 772.19287109 C184.80270704 773.0928505 183.76633956 773.99399867 182.73071289 774.89599609 C174.63273566 781.92893323 166.34901873 788.66450647 157.84008789 795.19287109 C157.21908203 795.67224121 156.59807617 796.15161133 155.95825195 796.64550781 C140.38271798 808.64159581 124.17441282 819.37229699 107.01538086 828.97167969 C105.06328031 830.06757272 103.12474064 831.18388588 101.18774414 832.30615234 C83.98313918 841.96318032 65.13683021 849.09891565 45.84008789 853.19287109 C45.04981201 853.37543457 44.25953613 853.55799805 43.4453125 853.74609375 C35.77268445 855.36343046 28.16958037 855.56520468 20.36279297 855.56347656 C18.17278047 855.56783095 15.98482189 855.60422269 13.79516602 855.64208984 C-11.46698977 855.84226793 -33.26901239 845.63976308 -51.15991211 828.19287109 C-51.80573242 827.62052734 -52.45155273 827.04818359 -53.11694336 826.45849609 C-79.38617193 802.58856475 -86.23049142 759.36350276 -87.90039062 725.94433594 C-89.9187308 679.25968136 -81.75526304 633.45647973 -71.15991211 588.19287109 C-72.28655273 587.97501953 -73.41319336 587.75716797 -74.57397461 587.53271484 C-82.37002679 585.79266031 -89.94402346 583.2189457 -97.53491211 580.75537109 C-98.3516037 580.49098236 -99.16829529 580.22659363 -100.00973511 579.95419312 C-115.04135925 575.06688432 -129.65801548 569.49560911 -144.15991211 563.19287109 C-145.06435059 562.80534668 -145.96878906 562.41782227 -146.90063477 562.01855469 C-171.46300367 551.46830612 -195.1805314 538.87893877 -216.15991211 522.19287109 C-217.07901367 521.46583984 -217.99811523 520.73880859 -218.94506836 519.98974609 C-228.34210352 512.4298247 -237.60072315 504.63761056 -245.15991211 495.19287109 C-246.22145508 493.87029297 -246.22145508 493.87029297 -247.30444336 492.52099609 C-262.02356541 473.5641711 -271.82149339 452.30068281 -271.59741211 427.94287109 C-271.58911377 426.7655542 -271.58081543 425.5882373 -271.57226562 424.37524414 C-270.92953164 391.0102596 -252.27401965 365.31475084 -229.10913086 342.76708984 C-216.25786087 330.63020453 -201.44840933 320.95714417 -186.15991211 312.19287109 C-185.38744141 311.74492187 -184.6149707 311.29697266 -183.8190918 310.83544922 C-154.56318843 293.95013454 -122.98819536 281.79760347 -90.90991211 271.44287109 C-90.2521579 271.23000458 -89.59440369 271.01713806 -88.91671753 270.79782104 C-83.01539155 268.89829015 -77.30493064 267.09958843 -71.15991211 266.19287109 C-71.52959106 264.58907593 -71.52959106 264.58907593 -71.90673828 262.95288086 C-78.86969017 232.61177317 -85.00432779 202.31331292 -87.15991211 171.19287109 C-87.21630859 170.3875293 -87.27270508 169.5821875 -87.33081055 168.75244141 C-87.70124775 163.23533824 -87.97334445 157.71917583 -88.15991211 152.19287109 C-88.18327637 151.51933594 -88.20664063 150.84580078 -88.23071289 150.15185547 C-89.40679042 110.18498561 -83.62755508 61.07394012 -55.22241211 30.31787109 C-53.2330043 28.24337659 -51.20293652 26.21436074 -49.15991211 24.19287109 C-47.95915039 22.95923828 -47.95915039 22.95923828 -46.73413086 21.70068359 C-35.15889391 10.4561677 -16.46616628 0.29849448 0 0 Z M-25.15991211 61.19287109 C-52.41104202 97.65701646 -47.41763457 152.6461134 -41.63989258 195.00537109 C-38.21671023 225.85423685 -38.21671023 225.85423685 -29.15991211 255.19287109 C-22.11104553 254.08068698 -15.09853719 252.81567116 -8.09350586 251.45849609 C10.62149319 247.84652362 29.33558329 244.51553742 48.21508789 241.88037109 C49.1114093 241.75237122 50.00773071 241.62437134 50.93121338 241.49249268 C59.80295548 240.2301573 68.60504333 239.09702879 77.56274414 238.72021484 C90.59630399 238.72095497 90.59630399 238.72095497 101.77758789 233.12255859 C104.52219072 229.86397571 106.54251324 226.30292027 108.52368164 222.54443359 C110.88718564 218.32238788 113.86724329 214.54833165 116.77758789 210.69287109 C117.95989525 209.08480972 119.14218701 207.47673687 120.32446289 205.86865234 C124.62897851 200.09085085 129.1733392 194.52172065 133.75415039 188.96240234 C136.70288561 185.38074545 139.55842563 181.73271138 142.40258789 178.06787109 C150.11945425 168.1690815 158.37842251 158.74108807 166.80493164 149.44287109 C168.7904757 147.24772065 170.7590512 145.03934074 172.71508789 142.81787109 C173.24875977 142.21201172 173.78243164 141.60615234 174.33227539 140.98193359 C175.91387685 139.10531838 177.38599351 137.1693946 178.84008789 135.19287109 C168.16100084 124.35044005 168.16100084 124.35044005 156.84008789 114.19287109 C155.80507536 113.29576829 154.77134227 112.39718834 153.73852539 111.49755859 C116.44527706 79.09548757 66.52408422 39.96063222 14.55883789 40.88037109 C-1.86596103 42.2606063 -14.43424304 48.53306498 -25.15991211 61.19287109 Z M271.84008789 105.19287109 C270.83461914 106.02302734 269.82915039 106.85318359 268.79321289 107.70849609 C262.655465 112.81007437 256.69268797 118.07871503 250.84008789 123.50537109 C250.21714844 124.07989014 249.59420898 124.65440918 248.95239258 125.24633789 C245.271573 128.69198845 241.98736422 132.25281493 238.84008789 136.19287109 C239.38536133 136.71494141 239.93063477 137.23701172 240.49243164 137.77490234 C245.55666437 142.71793976 250.11185995 147.86164953 254.53149414 153.38427734 C256.83632014 156.18828732 259.24424815 158.8471691 261.71508789 161.50537109 C265.89993842 166.05776628 269.75069516 170.77746578 273.53198242 175.66235352 C276.45906122 179.44295182 279.44103361 183.16795063 282.47949219 186.85961914 C293.85344882 200.68870906 304.48222528 215.09479523 314.80493164 229.72167969 C315.30766602 230.42760254 315.81040039 231.13352539 316.32836914 231.86083984 C316.76705322 232.48240967 317.2057373 233.10397949 317.65771484 233.74438477 C320.06164696 236.68936293 323.05674563 236.51246142 326.65180969 236.88983154 C327.46417587 236.97178772 328.27654205 237.0537439 329.11352539 237.13818359 C330.88386344 237.32547014 332.65412366 237.51349346 334.42431641 237.70214844 C335.36622833 237.80178894 336.30814026 237.90142944 337.27859497 238.00408936 C369.57106296 241.45473167 401.57862946 246.42563387 433.37158203 253.05957031 C434.06151245 253.20313461 434.75144287 253.34669891 435.46228027 253.49461365 C437.30394011 253.87973427 439.14445026 254.27034144 440.98486328 254.66137695 C443.84759868 255.28437323 443.84759868 255.28437323 446.84008789 255.19287109 C449.73621257 244.78092674 452.22374065 234.35167821 454.34008789 223.75537109 C454.48971985 223.01073608 454.63935181 222.26610107 454.79351807 221.49890137 C464.30615123 173.7852632 473.40725528 111.03767087 446.92993164 67.01708984 C445.02069841 64.2728043 443.01914998 61.72694892 440.84008789 59.19287109 C440.15172852 58.38205078 439.46336914 57.57123047 438.75415039 56.73583984 C429.37381414 46.52583486 417.1955017 42.20712565 403.60961914 40.87646484 C354.4215711 39.088857 307.601884 75.4246721 271.84008789 105.19287109 Z M207.84008789 167.19287109 C202.13334422 172.65677461 196.96360063 178.34117409 192.02368164 184.50537109 C190.02388406 186.96666042 187.96348325 189.33821485 185.84008789 191.69287109 C174.54788713 204.27433887 164.14975633 217.79756246 153.84008789 231.19287109 C156.59455315 232.11102618 158.02851103 232.29459925 160.84228516 232.21459961 C161.64485245 232.19450333 162.44741974 232.17440704 163.27430725 232.15370178 C164.14292892 232.12666672 165.0115506 232.09963165 165.90649414 232.07177734 C166.81398911 232.04816635 167.72148407 232.02455536 168.65647888 232.00022888 C171.57201059 231.92366478 174.48727887 231.83996012 177.40258789 231.75537109 C198.95724346 231.15271267 220.40791546 231.18918304 241.96508789 231.69287109 C244.09919828 231.74123344 246.23331286 231.7894116 248.36743164 231.83740234 C253.52503424 231.95377577 258.68257438 232.07261653 263.84008789 232.19287109 C262.88985491 230.92550433 261.93956761 229.6581783 260.98925781 228.39086914 C260.46007248 227.68512253 259.93088715 226.97937592 259.38566589 226.25224304 C252.98603821 217.72519769 246.43099067 209.42051705 239.50024414 201.32177734 C237.02229641 198.42235526 234.61349772 195.47105698 232.21508789 192.50537109 C228.59930776 188.06312693 224.84042751 183.78388408 220.97680664 179.55615234 C218.39050264 176.69561501 215.90820333 173.75395834 213.44555664 170.78662109 C211.70700021 169.06075486 210.07584409 168.1628304 207.84008789 167.19287109 Z M139.16552734 274.96533203 C136.41208358 275.13741517 133.79040998 275.16737556 131.02050781 275.10009766 C124.73960856 275.0479663 124.73960856 275.0479663 119.53759766 278.21508789 C117.34949036 281.05829524 115.55809627 283.95363442 113.77758789 287.06787109 C113.10695313 288.15616211 112.43631836 289.24445313 111.74536133 290.36572266 C110.38437971 292.57999242 109.04120698 294.80531235 107.71655273 297.04150391 C105.57739724 300.63403826 103.33109359 304.14546833 101.06176758 307.65649414 C79.18222176 341.64819065 59.65655503 377.2179596 41.36352539 413.24658203 C40.36351305 415.18058026 39.32780726 417.0966174 38.25415039 418.99072266 C37.77719727 419.85407227 37.30024414 420.71742188 36.80883789 421.60693359 C36.16591797 422.72382568 36.16591797 422.72382568 35.51000977 423.86328125 C34.01654922 429.05664878 37.80867393 434.39692 40.07836914 438.97021484 C40.39531235 439.60956467 40.71225555 440.24891449 41.0388031 440.90763855 C42.07147092 442.98455642 43.11126133 445.05778227 44.15258789 447.13037109 C44.68789124 448.19973907 44.68789124 448.19973907 45.23400879 449.29071045 C50.76481316 460.3229887 56.59513035 471.13616223 62.76586914 481.82568359 C65.36047269 486.32147001 67.84510371 490.86791533 70.30004883 495.44116211 C77.03070593 507.97606564 84.32550414 520.11460593 91.84008789 532.19287109 C92.33444336 532.99225098 92.82879883 533.79163086 93.33813477 534.61523438 C96.15560948 539.16953681 96.15560948 539.16953681 99.05493164 543.671875 C101.78961756 547.83629549 104.30791987 552.02070019 106.61907959 556.43792725 C113.48903818 570.20195362 113.48903818 570.20195362 124.96899414 579.56835938 C131.83404579 581.11701065 138.50915555 580.82984956 145.48413086 580.35864258 C150.91714744 580.07189333 156.32439239 580.39030702 161.75415039 580.64208984 C176.36745476 581.28776245 190.97114554 581.39057964 205.59591675 581.38154984 C207.74688876 581.38035341 209.89785596 581.38090936 212.04882812 581.38156128 C235.37736562 581.38004661 258.70848836 581.07865032 281.98730469 579.41577148 C285.84008789 579.19287109 285.84008789 579.19287109 288.89013672 579.32739258 C291.61827069 579.38377938 293.33780059 579.28989463 295.84008789 578.19287109 C299.39704837 574.59681012 301.9301146 570.43759922 304.52758789 566.13037109 C305.30357155 564.89847373 306.08250727 563.66843138 306.86425781 562.44018555 C308.45578324 559.92707941 310.02701176 557.40300154 311.58129883 554.86669922 C313.64517399 551.49935865 315.75469919 548.16303302 317.87915039 544.83349609 C336.57588496 515.42832751 353.56012871 484.99073384 369.84008789 454.19287109 C370.47632731 453.00048207 371.11288949 451.80826522 371.74975586 450.61621094 C373.63979997 447.07196491 375.49147119 443.50890264 377.34008789 439.94287109 C377.92282471 438.85369385 378.50556152 437.7645166 379.10595703 436.64233398 C379.88700806 435.11274048 379.88700806 435.11274048 380.68383789 433.55224609 C381.38283203 432.21371582 381.38283203 432.21371582 382.09594727 430.84814453 C383.60137428 425.47641742 380.15432274 420.56558336 377.78540039 415.81787109 C377.48800964 415.22031509 377.1906189 414.62275909 376.88421631 414.00709534 C375.91601958 412.06655049 374.94116895 410.12946094 373.96508789 408.19287109 C373.46238373 407.19161697 373.46238373 407.19161697 372.94952393 406.1701355 C366.8481842 394.0263843 360.47686108 382.05313157 353.84008789 370.19287109 C353.33300293 369.28053711 352.82591797 368.36820312 352.3034668 367.42822266 C341.19583898 347.45316087 329.76447584 327.54164422 317.14501953 308.47485352 C313.93291074 303.61703194 311.07225692 298.76551458 308.46118164 293.55615234 C302.69566485 282.15288593 302.69566485 282.15288593 292.65063477 274.97265625 C285.29148808 273.51125817 278.05449342 273.71705648 270.59619141 274.07543945 C264.59049451 274.29497719 258.60280213 273.98198684 252.60180664 273.73193359 C238.36490631 273.16196413 224.14993333 272.99559735 209.90258789 273.00537109 C208.66747467 273.00497833 207.43236145 273.00458557 206.15982056 273.00418091 C183.8069157 273.01260305 161.47495719 273.51127972 139.16552734 274.96533203 Z M350.84008789 282.19287109 C354.48322422 288.59154327 358.25821447 294.88773642 362.16943359 301.125 C375.12577023 321.81343916 386.9327892 343.14507358 398.46655273 364.65136719 C400.55622397 368.51796469 402.69304519 372.35789803 404.84008789 376.19287109 C407.96657784 374.62962612 408.48417539 371.53287403 409.67602539 368.41552734 C409.95167328 367.70962463 410.22732117 367.00372192 410.51132202 366.27642822 C411.42060195 363.93909563 412.3184703 361.59758782 413.21508789 359.25537109 C413.52289185 358.45731049 413.8306958 357.65924988 414.14782715 356.83700562 C418.79466578 344.78616602 423.27061428 332.67724929 427.59008789 320.50537109 C427.8439325 319.79430206 428.0977771 319.08323303 428.35931396 318.35061646 C430.96156152 311.04051591 433.3915147 303.83156809 434.84008789 296.19287109 C415.49504531 291.92122512 396.10725149 288.28511735 376.52758789 285.25537109 C375.53288483 285.10035126 374.53818176 284.94533142 373.51333618 284.78561401 C370.66863586 284.34423909 367.82302908 283.90946794 364.97680664 283.47802734 C364.12609589 283.347117 363.27538513 283.21620667 362.39889526 283.08132935 C358.51051442 282.50295995 354.78491508 282.02860731 350.84008789 282.19287109 Z M58.70288086 282.61083984 C57.89083191 282.72871353 57.07878296 282.84658722 56.24212646 282.96803284 C54.92550018 283.17214027 54.92550018 283.17214027 53.58227539 283.38037109 C52.65779602 283.51833603 51.73331665 283.65630096 50.78082275 283.79844666 C47.75738593 284.25379586 44.73620714 284.72240695 41.71508789 285.19287109 C40.69074646 285.34982452 39.66640503 285.50677795 38.61102295 285.66848755 C19.88003555 288.54565829 1.33693503 292.0814114 -17.15991211 296.19287109 C-15.67018621 303.69696912 -13.41989113 310.78363331 -10.90991211 318.00537109 C-10.48315186 319.23843994 -10.0563916 320.47150879 -9.61669922 321.74194336 C-5.87522141 332.45653023 -1.83433255 343.05327583 2.27758789 353.63037109 C2.58208862 354.41521881 2.88658936 355.20006653 3.20031738 356.00869751 C4.07486945 358.25790401 4.95434256 360.5051065 5.83618164 362.75146484 C6.22473579 363.7481871 6.22473579 363.7481871 6.62113953 364.76504517 C8.17029699 368.68413659 9.90295663 372.45087408 11.84008789 376.19287109 C14.15803216 373.25763655 15.96297967 370.26637131 17.70336914 366.95849609 C18.25347656 365.92136475 18.80358398 364.8842334 19.37036133 363.81567383 C19.95849609 362.70264893 20.54663086 361.58962402 21.15258789 360.44287109 C27.57451201 348.40050186 34.3268915 336.5831629 41.27954102 324.83789062 C42.68153301 322.46161069 44.06949306 320.07807797 45.44946289 317.68896484 C52.23464261 305.97134477 59.51141495 294.57661599 66.84008789 283.19287109 C63.90395809 282.30580105 61.72891202 282.1586559 58.70288086 282.61083984 Z M476.84008789 307.19287109 C474.85532777 311.68855377 473.12764587 316.14153796 471.63305664 320.82958984 C471.21518416 322.12383174 470.79661262 323.41784807 470.37744141 324.71166992 C470.04910812 325.72796982 470.04910812 325.72796982 469.71414185 326.76480103 C461.07801168 353.37645821 450.73625058 379.32730521 439.55883789 404.96630859 C439.12313477 405.9740332 438.68743164 406.98175781 438.23852539 408.02001953 C437.22880171 410.31093589 436.1945307 412.57775682 435.12915039 414.84228516 C434.84656372 415.45939362 434.56397705 416.07650208 434.27282715 416.71231079 C433.48006347 418.44348958 432.67129905 420.16731517 431.86157227 421.890625 C430.05014563 427.74658978 431.65800072 432.40972904 434.21899414 437.77880859 C434.71995605 438.85308105 435.22091797 439.92735352 435.73706055 441.03417969 C436.28668457 442.20029785 436.83630859 443.36641602 437.40258789 444.56787109 C452.06869543 476.33591809 465.58088721 509.96419507 474.83911133 543.73486328 C475.16943359 544.54600586 475.49975586 545.35714844 475.84008789 546.19287109 C479.67983494 547.47278678 482.10141835 546.4518534 485.80493164 545.27099609 C486.84949524 544.94788956 486.84949524 544.94788956 487.91516113 544.61825562 C490.20633761 543.90434335 492.49222723 543.17517436 494.77758789 542.44287109 C495.56295929 542.19333679 496.34833069 541.94380249 497.15750122 541.68670654 C534.88944561 529.66464668 573.18057495 514.43218569 604.84008789 490.19287109 C606.17040039 489.17966797 606.17040039 489.17966797 607.52758789 488.14599609 C610.00820696 486.20801245 612.43208778 484.22025184 614.84008789 482.19287109 C616.16266602 481.09072266 616.16266602 481.09072266 617.51196289 479.96630859 C632.22968895 467.20263091 644.24937718 450.98096622 646.84008789 431.19287109 C647.52037611 414.6004754 641.09155754 399.90805387 630.15258789 387.69287109 C628.71556488 386.19241413 627.27813362 384.69234791 625.84008789 383.19287109 C625.05633789 382.18224609 624.27258789 381.17162109 623.46508789 380.13037109 C619.39444783 375.57513102 614.63156053 371.96281149 609.84008789 368.19287109 C608.82430664 367.37302734 607.80852539 366.55318359 606.76196289 365.70849609 C599.4325204 359.85541436 591.78507017 354.90174558 583.65161133 350.24121094 C581.98425368 349.27630073 580.33684942 348.27712657 578.69165039 347.27490234 C554.14442651 332.57687323 526.80170902 322.76106116 499.77758789 313.69287109 C499.14220093 313.47886658 498.50681396 313.26486206 497.85217285 313.04437256 C490.89921822 310.71232145 484.03676447 308.61826236 476.84008789 307.19287109 Z M-69.25366211 309.55224609 C-70.4693412 309.9421447 -70.4693412 309.9421447 -71.70957947 310.33992004 C-74.36350279 311.19631511 -77.01201404 312.06803557 -79.65991211 312.94287109 C-81.01646408 313.3877034 -81.01646408 313.3877034 -82.40042114 313.84152222 C-123.49678102 327.34916933 -165.06834343 344.68876287 -198.15991211 373.19287109 C-199.4012793 374.21574219 -199.4012793 374.21574219 -200.66772461 375.25927734 C-215.1315385 387.56938854 -226.64937511 404.01715039 -229.15991211 423.19287109 C-229.39841223 428.72274608 -228.91709911 433.62916771 -227.53491211 439.00537109 C-227.35669922 439.69969238 -227.17848633 440.39401367 -226.99487305 441.109375 C-224.08743607 451.74291989 -218.28357283 459.9168535 -211.15991211 468.19287109 C-210.45866211 469.02818359 -209.75741211 469.86349609 -209.03491211 470.72412109 C-203.6214675 476.98824985 -197.72353243 482.16523865 -191.15991211 487.19287109 C-190.61625 487.61681152 -190.07258789 488.04075195 -189.51245117 488.47753906 C-179.97311557 495.89070248 -169.94407185 502.10721716 -159.38354492 507.95996094 C-157.41344012 509.05230055 -155.45391544 510.16120489 -153.49584961 511.27490234 C-128.04141026 525.38114357 -100.17840706 535.26081712 -72.47241211 543.94287109 C-71.37356689 544.29051514 -70.27472168 544.63815918 -69.14257812 544.99633789 C-68.13380615 545.3035376 -67.12503418 545.6107373 -66.08569336 545.92724609 C-65.20308838 546.19762695 -64.3204834 546.46800781 -63.41113281 546.74658203 C-61.00580309 547.41631866 -61.00580309 547.41631866 -58.15991211 546.19287109 C-56.84479396 543.26855598 -56.84479396 543.26855598 -55.76928711 539.59130859 C-55.31040889 538.15637881 -54.85141901 536.72148473 -54.39233398 535.28662109 C-54.15184326 534.51962891 -53.91135254 533.75263672 -53.66357422 532.96240234 C-44.69798248 504.4769719 -33.81062528 476.664903 -21.84350586 449.31396484 C-21.19937744 447.83065674 -21.19937744 447.83065674 -20.54223633 446.31738281 C-19.53821319 444.04795714 -18.50992249 441.80117927 -17.45336914 439.55664062 C-16.88803011 438.32213588 -16.32276178 437.08759876 -15.75756836 435.85302734 C-15.23815674 434.74709229 -14.71874512 433.64115723 -14.18359375 432.50170898 C-12.37062382 426.64166094 -13.97585316 421.98014695 -16.53881836 416.60693359 C-17.29014038 414.99588745 -17.29014038 414.99588745 -18.05664062 413.35229492 C-18.60634521 412.18593506 -19.1560498 411.0195752 -19.72241211 409.81787109 C-31.22196769 384.8976058 -40.84898548 359.12770511 -49.97241211 333.25537109 C-50.21943878 332.55489655 -50.46646545 331.854422 -50.72097778 331.13272095 C-53.18162196 324.13000475 -55.5767778 317.15193305 -57.39306641 309.94848633 C-57.64612549 309.3691333 -57.89918457 308.78978027 -58.15991211 308.19287109 C-62.30762439 306.81030034 -65.25715461 308.23734641 -69.25366211 309.55224609 Z M11.84008789 478.19287109 C2.17800021 499.80731908 -5.83340095 522.00654116 -13.34741211 544.44287109 C-13.73413086 545.5973877 -14.12084961 546.7519043 -14.51928711 547.94140625 C-16.3953337 552.96451626 -16.3953337 552.96451626 -17.15991211 558.19287109 C-0.44195202 562.08645006 16.33977732 565.23968484 33.27758789 568.00537109 C34.66259995 568.23415451 34.66259995 568.23415451 36.07559204 568.46755981 C46.31973844 570.15290511 56.45972434 571.67068635 66.84008789 572.19287109 C63.1144033 565.6848262 59.2805226 559.26530309 55.30786133 552.90551758 C48.18221808 541.49713152 41.4283507 529.91832629 34.84008789 518.19287109 C34.26049316 517.16516602 33.68089844 516.13746094 33.08374023 515.07861328 C26.19228247 502.85867078 19.3478696 490.62232994 12.84008789 478.19287109 C12.51008789 478.19287109 12.18008789 478.19287109 11.84008789 478.19287109 Z M404.84008789 478.19287109 C404.42871582 478.97597656 404.01734375 479.75908203 403.59350586 480.56591797 C394.91920555 497.04396224 386.04426794 513.3438692 376.52368164 529.35351562 C374.82487 532.21853583 373.14293009 535.09287119 371.46508789 537.97021484 C365.88438414 547.51882019 360.18958549 556.95341716 354.08935547 566.1809082 C351.85646328 568.97614679 351.85646328 568.97614679 350.84008789 572.19287109 C362.16476769 571.62318247 373.22933068 569.8510272 384.40258789 568.00537109 C385.3430899 567.85180145 386.28359192 567.69823181 387.25259399 567.54000854 C403.23559089 564.92372649 419.06450842 561.86697152 434.84008789 558.19287109 C432.69336858 548.65264763 429.68489194 539.51062004 426.40258789 530.31787109 C426.14430206 529.58985291 425.88601624 528.86183472 425.61990356 528.11175537 C421.70766817 517.10070214 417.59552134 506.17609233 413.27758789 495.31787109 C412.89777267 494.35593842 412.89777267 494.35593842 412.51028442 493.37457275 C411.79286334 491.56370864 411.06475608 489.75708918 410.33618164 487.95068359 C409.92553467 486.93119629 409.5148877 485.91170898 409.09179688 484.86132812 C407.90891462 482.33959942 406.6001185 480.3407159 404.84008789 478.19287109 Z M-29.15991211 599.19287109 C-32.05603679 609.60481545 -34.54356486 620.03406398 -36.65991211 630.63037109 C-36.88436005 631.74732361 -36.88436005 631.74732361 -37.11334229 632.88684082 C-46.55935814 680.26633865 -56.10550226 743.53874968 -29.39819336 787.06396484 C-27.72457561 789.50722894 -25.97978839 791.8573632 -24.15991211 794.19287109 C-23.01522461 795.77068359 -23.01522461 795.77068359 -21.84741211 797.38037109 C-12.56528127 807.09422894 -0.01088039 812.62496605 13.36352539 813.39599609 C63.01571336 814.00028236 108.44891213 780.72131753 144.84008789 750.19287109 C145.84168945 749.36529297 146.84329102 748.53771484 147.87524414 747.68505859 C154.68045215 742.03039387 161.22004234 736.14060865 167.63989258 730.05151367 C171.26743048 726.61742466 174.96803839 723.34962595 178.84008789 720.19287109 C177.18448964 716.97906272 175.29559086 714.55257813 172.71508789 712.06787109 C168.84372996 708.31850973 165.53626301 704.21117001 162.16040039 700.01708984 C159.95680383 697.33493443 157.67964964 694.75660688 155.34008789 692.19287109 C150.63540774 687.01772293 146.23572446 681.63084269 141.84008789 676.19287109 C140.82926022 674.96167022 139.8174874 673.73124491 138.80493164 672.50146484 C131.21108799 663.25753294 123.94441293 653.81649082 116.84008789 644.19287109 C115.59934815 642.51958598 114.35845654 640.84641347 113.11743164 639.17333984 C111.85794236 637.47179421 110.5988216 635.76997574 109.34008789 634.06787109 C108.45848999 632.87713989 108.45848999 632.87713989 107.55908203 631.66235352 C105.14519222 628.3873828 102.76409279 625.12045618 100.55883789 621.70068359 C99.08261865 619.1120699 99.08261865 619.1120699 96.84008789 618.19287109 C94.09358347 617.83608414 91.35644876 617.52655222 88.60180664 617.24755859 C86.83660032 617.06022503 85.07146688 616.87220376 83.30639648 616.68359375 C82.36656921 616.58395325 81.42674194 616.48431274 80.45843506 616.38165283 C48.02871286 612.90966879 15.78956238 608.22545426 -16.09790039 601.32617188 C-16.76245239 601.18260757 -17.42700439 601.03904327 -18.11169434 600.89112854 C-19.87956591 600.50671047 -21.64602197 600.11579851 -23.41235352 599.72436523 C-26.18439621 599.09791032 -26.18439621 599.09791032 -29.15991211 599.19287109 Z M437.29321289 600.69677734 C402.61432805 607.73361998 367.77587341 613.44562222 332.56347656 617.03955078 C331.85532806 617.11233246 331.14717957 617.18511414 330.41757202 617.26010132 C328.53060193 617.45209145 326.64300712 617.63791388 324.75537109 617.82324219 C320.70521179 618.27093427 320.70521179 618.27093427 317.56005859 620.62548828 C317.13297607 621.24069336 316.70589355 621.85589844 316.26586914 622.48974609 C315.77135254 623.19067383 315.27683594 623.89160156 314.76733398 624.61376953 C314.23446777 625.38237305 313.70160156 626.15097656 313.15258789 626.94287109 C305.64087564 637.56102737 297.78340872 647.89511189 289.84008789 658.19287109 C289.31108887 658.87929688 288.78208984 659.56572266 288.23706055 660.27294922 C282.49316364 667.70779752 276.5684112 674.9568877 270.46508789 682.09912109 C268.00092825 684.9883843 265.60347789 687.92805567 263.21508789 690.88037109 C259.59758835 695.32472767 255.83207865 699.60252785 251.97680664 703.84130859 C247.44228312 708.8317714 242.99256876 713.87769558 238.84008789 719.19287109 C239.56583008 719.91732422 240.29157227 720.64177734 241.03930664 721.38818359 C242.77638831 723.12768797 244.50903924 724.87164392 246.23461914 726.62255859 C251.26702192 731.71187061 256.39394164 736.55390495 261.84008789 741.19287109 C262.84481838 742.07213847 263.84865019 742.95243332 264.85180664 743.83349609 C282.30430382 759.08532813 301.0621629 773.0929328 320.84008789 785.19287109 C321.96664795 785.88533936 321.96664795 785.88533936 323.1159668 786.59179688 C349.00565954 802.35232283 382.83534963 819.0682736 414.09008789 812.06787109 C430.49659302 807.31333287 440.17299571 798.47033343 448.72680664 784.00146484 C476.88864194 731.28202045 463.06424551 653.59151721 446.84008789 599.19287109 C443.59361527 599.19287109 440.46231496 600.04286028 437.29321289 600.69677734 Z M154.84008789 623.19287109 C158.92338583 629.317818 162.94977183 634.97587806 167.65258789 640.56787109 C168.89625393 642.06121374 170.13974376 643.55470316 171.38305664 645.04833984 C171.97908691 645.7616748 172.57511719 646.47500977 173.18920898 647.20996094 C175.30314644 649.74906179 177.38498463 652.31351607 179.46508789 654.88037109 C187.595072 664.81701833 195.99235549 674.48456804 204.75805664 683.86474609 C206.84008789 686.19287109 206.84008789 686.19287109 207.84008789 688.19287109 C209.93440306 688.42758785 209.93440306 688.42758785 211.25024414 686.79443359 C212.0681543 685.81603516 212.0681543 685.81603516 212.90258789 684.81787109 C215.61932575 681.61740765 218.38344008 678.47981046 221.21508789 675.38037109 C225.11372186 671.06026319 228.81512647 666.61215728 232.47290039 662.08740234 C234.52466441 659.57856218 236.61574166 657.11035019 238.72900391 654.65332031 C243.59246488 648.9881516 248.24018398 643.18525328 252.77758789 637.25537109 C253.32125 636.54558105 253.86491211 635.83579102 254.42504883 635.10449219 C257.38770017 631.20320645 260.11251407 627.28423182 262.84008789 623.19287109 C227.20008789 623.19287109 191.56008789 623.19287109 154.84008789 623.19287109 Z " fill="#60DAFB" transform="translate(271.159912109375,-0.19287109375)"/>
<path d="M0 0 C17.87240095 15.00242072 30.21841229 34.70026846 32.578125 58.32470703 C34.1796022 81.41743628 29.42894185 103.82611975 14.37890625 121.97705078 C12.16255862 124.47937876 9.88689594 126.90777745 7.578125 129.32470703 C7.03800781 129.93958984 6.49789062 130.55447266 5.94140625 131.18798828 C-7.43940495 145.84958241 -28.87996748 153.69544964 -48.28515625 154.60595703 C-72.62852382 155.27685558 -94.22438181 148.3477833 -112.15234375 131.49267578 C-112.90128906 130.77724609 -113.65023438 130.06181641 -114.421875 129.32470703 C-115.03675781 128.78458984 -115.65164063 128.24447266 -116.28515625 127.68798828 C-130.94675038 114.30717709 -138.79261761 92.86661455 -139.703125 73.46142578 C-140.39074808 48.60230502 -132.92471348 26.53025328 -115.86621094 8.25366211 C-85.74878441 -22.73340286 -34.23243287 -27.47887525 0 0 Z " fill="#60DAFB" transform="translate(533.421875,358.67529296875)"/>
</svg>
