<?xml version="1.0" encoding="UTF-8"?>
<!DOCTYPE svg PUBLIC "-//W3C//DTD SVG 1.1//EN" "http://www.w3.org/Graphics/SVG/1.1/DTD/svg11.dtd">
<svg xmlns="http://www.w3.org/2000/svg" version="1.1" width="512px" height="512px" style="shape-rendering:geometricPrecision; text-rendering:geometricPrecision; image-rendering:optimizeQuality; fill-rule:evenodd; clip-rule:evenodd" xmlns:xlink="http://www.w3.org/1999/xlink">
<g><path style="opacity:1" fill="#000000" d="M 56.5,62.5 C 57.9464,61.3871 59.6131,61.2204 61.5,62C 59.8659,62.4935 58.1992,62.6602 56.5,62.5 Z"/></g>
<g><path style="opacity:1" fill="#000000" d="M 449.5,62.5 C 450.946,61.3871 452.613,61.2204 454.5,62C 452.866,62.4935 451.199,62.6602 449.5,62.5 Z"/></g>
<g><path style="opacity:1" fill="#000000" d="M 52.5,63.5 C 53.2506,62.4265 54.2506,62.2599 55.5,63C 54.552,63.4828 53.552,63.6495 52.5,63.5 Z"/></g>
<g><path style="opacity:1" fill="#000000" d="M 466.5,67.5 C 472.161,71.3435 477.494,75.6769 482.5,80.5C 484.17,83.1748 485.836,85.8414 487.5,88.5C 488.597,91.6865 489.93,94.6865 491.5,97.5C 491.676,100.727 492.343,103.727 493.5,106.5C 493.205,108.735 493.539,110.735 494.5,112.5C 494.205,114.735 494.539,116.735 495.5,118.5C 495.205,120.735 495.539,122.735 496.5,124.5C 496.205,126.735 496.539,128.735 497.5,130.5C 497.205,132.735 497.539,134.735 498.5,136.5C 498.205,138.735 498.539,140.735 499.5,142.5C 499.205,144.735 499.539,146.735 500.5,148.5C 500.205,150.735 500.539,152.735 501.5,154.5C 501.205,156.735 501.539,158.735 502.5,160.5C 502.205,162.735 502.539,164.735 503.5,166.5C 503.205,168.735 503.539,170.735 504.5,172.5C 506.097,186.419 508.43,200.086 511.5,213.5C 511.5,238.833 511.5,264.167 511.5,289.5C 510.566,290.568 510.232,291.901 510.5,293.5C 509.596,294.209 509.263,295.209 509.5,296.5C 508.069,297.78 507.402,299.447 507.5,301.5C 506.094,301.973 505.427,302.973 505.5,304.5C 504.662,304.842 504.328,305.508 504.5,306.5C 503.833,306.5 503.5,306.833 503.5,307.5C 502.094,307.973 501.427,308.973 501.5,310.5C 500.167,311.167 500.167,311.833 501.5,312.5C 502.449,314.777 503.782,316.777 505.5,318.5C 505.427,320.027 506.094,321.027 507.5,321.5C 507.98,324.443 508.98,327.11 510.5,329.5C 510.232,331.099 510.566,332.432 511.5,333.5C 511.5,359.167 511.5,384.833 511.5,410.5C 510.262,412.214 509.595,414.214 509.5,416.5C 508.596,417.209 508.263,418.209 508.5,419.5C 507.662,419.842 507.328,420.508 507.5,421.5C 506.662,421.842 506.328,422.508 506.5,423.5C 505.833,423.5 505.5,423.833 505.5,424.5C 504.662,424.842 504.328,425.508 504.5,426.5C 503.833,426.5 503.5,426.833 503.5,427.5C 502.662,427.842 502.328,428.508 502.5,429.5C 501.833,429.5 501.5,429.833 501.5,430.5C 500.833,430.5 500.5,430.833 500.5,431.5C 499.833,431.5 499.5,431.833 499.5,432.5C 498.833,432.5 498.5,432.833 498.5,433.5C 497.833,433.5 497.5,433.833 497.5,434.5C 496.833,434.5 496.5,434.833 496.5,435.5C 495.833,435.5 495.5,435.833 495.5,436.5C 494.833,436.5 494.5,436.833 494.5,437.5C 493.833,437.5 493.5,437.833 493.5,438.5C 492.508,438.328 491.842,438.662 491.5,439.5C 490.833,439.5 490.5,439.833 490.5,440.5C 489.508,440.328 488.842,440.662 488.5,441.5C 487.833,441.5 487.5,441.833 487.5,442.5C 486.508,442.328 485.842,442.662 485.5,443.5C 484.508,443.328 483.842,443.662 483.5,444.5C 482.209,444.263 481.209,444.596 480.5,445.5C 478.214,445.595 476.214,446.262 474.5,447.5C 330.846,448.656 187.179,448.822 43.5,448C 39.1222,447.321 34.7889,446.488 30.5,445.5C 29.791,444.596 28.791,444.263 27.5,444.5C 27.1583,443.662 26.4916,443.328 25.5,443.5C 25.1583,442.662 24.4916,442.328 23.5,442.5C 15.4563,436.79 8.78966,429.79 3.5,421.5C 3.67158,420.508 3.33825,419.842 2.5,419.5C 2.73731,418.209 2.40397,417.209 1.5,416.5C 1.40505,414.214 0.738379,412.214 -0.5,410.5C -0.5,384.833 -0.5,359.167 -0.5,333.5C 1.0065,329.647 2.33983,325.647 3.5,321.5C 5.81111,318.233 8.14444,314.9 10.5,311.5C 9.96486,309.739 8.96486,308.406 7.5,307.5C 6.6493,305.118 5.31597,303.118 3.5,301.5C 2.33983,297.353 1.0065,293.353 -0.5,289.5C -0.5,264.167 -0.5,238.833 -0.5,213.5C 2.90283,198.086 5.56949,182.419 7.5,166.5C 8.46138,164.735 8.79472,162.735 8.5,160.5C 9.46138,158.735 9.79472,156.735 9.5,154.5C 10.4614,152.735 10.7947,150.735 10.5,148.5C 11.4614,146.735 11.7947,144.735 11.5,142.5C 12.4614,140.735 12.7947,138.735 12.5,136.5C 13.4614,134.735 13.7947,132.735 13.5,130.5C 14.4614,128.735 14.7947,126.735 14.5,124.5C 15.4614,122.735 15.7947,120.735 15.5,118.5C 16.4614,116.735 16.7947,114.735 16.5,112.5C 17.4614,110.735 17.7947,108.735 17.5,106.5C 20.6015,89.4014 29.6015,76.4014 44.5,67.5C 50.3131,65.3801 56.3131,63.8801 62.5,63C 191.167,62.3333 319.833,62.3333 448.5,63C 454.687,63.8801 460.687,65.3801 466.5,67.5 Z M 473.5,212.5 C 473.5,213.167 473.833,213.5 474.5,213.5C 475.725,214.937 476.725,216.604 477.5,218.5C 478.833,240.5 478.833,262.5 477.5,284.5C 476.725,286.396 475.725,288.063 474.5,289.5C 473.833,289.5 473.5,289.833 473.5,290.5C 472.063,291.725 470.396,292.725 468.5,293.5C 326.5,294.833 184.5,294.833 42.5,293.5C 40.6036,292.725 38.937,291.725 37.5,290.5C 37.5,289.833 37.1667,289.5 36.5,289.5C 35.2745,288.063 34.2745,286.396 33.5,284.5C 32.1667,262.5 32.1667,240.5 33.5,218.5C 34.2745,216.604 35.2745,214.937 36.5,213.5C 37.1667,213.5 37.5,213.167 37.5,212.5C 38.937,211.275 40.6036,210.275 42.5,209.5C 184.5,208.167 326.5,208.167 468.5,209.5C 470.396,210.275 472.063,211.275 473.5,212.5 Z M 48.5,360.5 C 125.167,360.5 201.833,360.5 278.5,360.5C 278.5,370.5 278.5,380.5 278.5,390.5C 201.833,390.5 125.167,390.5 48.5,390.5C 48.5,380.5 48.5,370.5 48.5,360.5 Z M 384.5,360.5 C 394.5,360.5 404.5,360.5 414.5,360.5C 414.5,370.5 414.5,380.5 414.5,390.5C 404.5,390.5 394.5,390.5 384.5,390.5C 384.5,380.5 384.5,370.5 384.5,360.5 Z M 432.5,360.5 C 442.5,360.5 452.5,360.5 462.5,360.5C 462.5,370.5 462.5,380.5 462.5,390.5C 452.5,390.5 442.5,390.5 432.5,390.5C 432.5,380.5 432.5,370.5 432.5,360.5 Z"/></g>
<g><path style="opacity:1" fill="#000000" d="M 455.5,63.5 C 456.251,62.4265 457.251,62.2599 458.5,63C 457.552,63.4828 456.552,63.6495 455.5,63.5 Z"/></g>
<g><path style="opacity:1" fill="#000000" d="M 45.5,65.5 C 46.8333,66.1667 46.8333,66.1667 45.5,65.5 Z"/></g>
<g><path style="opacity:1" fill="#000000" d="M 464.5,65.5 C 465.833,66.1667 465.833,66.1667 464.5,65.5 Z"/></g>
<g><path style="opacity:1" fill="#000000" d="M 44.5,67.5 C 43.8333,66.1667 43.8333,66.1667 44.5,67.5 Z"/></g>
<g><path style="opacity:1" fill="#000000" d="M 466.5,66.5 C 467.833,67.1667 467.833,67.1667 466.5,66.5 Z"/></g>
<g><path style="opacity:1" fill="#000000" d="M 41.5,67.5 C 42.8333,68.1667 42.8333,68.1667 41.5,67.5 Z"/></g>
<g><path style="opacity:1" fill="#000000" d="M 468.5,67.5 C 469.833,68.1667 469.833,68.1667 468.5,67.5 Z"/></g>
<g><path style="opacity:1" fill="#000000" d="M 483.5,80.5 C 482.833,79.1667 482.833,79.1667 483.5,80.5 Z"/></g>
<g><path style="opacity:1" fill="#000000" d="M 26.5,80.5 C 27.8333,81.1667 27.8333,81.1667 26.5,80.5 Z"/></g>
<g><path style="opacity:1" fill="#000000" d="M 483.5,80.5 C 484.833,81.1667 484.833,81.1667 483.5,80.5 Z"/></g>
<g><path style="opacity:1" fill="#000000" d="M 22.5,86.5 C 23.8333,87.1667 23.8333,87.1667 22.5,86.5 Z"/></g>
<g><path style="opacity:1" fill="#000000" d="M 488.5,88.5 C 488.167,88.5 487.833,88.5 487.5,88.5C 487.833,85.8333 488.167,85.8333 488.5,88.5 Z"/></g>
<g><path style="opacity:1" fill="#000000" d="M 21.5,88.5 C 22.8333,89.1667 22.8333,89.1667 21.5,88.5 Z"/></g>
<g><path style="opacity:1" fill="#000000" d="M 488.5,88.5 C 489.833,89.1667 489.833,89.1667 488.5,88.5 Z"/></g>
<g><path style="opacity:1" fill="#000000" d="M 20.5,90.5 C 21.8333,91.1667 21.8333,91.1667 20.5,90.5 Z"/></g>
<g><path style="opacity:1" fill="#000000" d="M 491.5,97.5 C 491.351,96.448 491.517,95.448 492,94.5C 492.74,95.7494 492.573,96.7494 491.5,97.5 Z"/></g>
<g><path style="opacity:1" fill="#000000" d="M 17.5,98.5 C 18.525,98.8966 18.6917,99.5632 18,100.5C 17.5357,99.9056 17.369,99.2389 17.5,98.5 Z"/></g>
<g><path style="opacity:1" fill="#000000" d="M 492.5,98.5 C 493.525,98.8966 493.692,99.5632 493,100.5C 492.536,99.9056 492.369,99.2389 492.5,98.5 Z"/></g>
<g><path style="opacity:1" fill="#000000" d="M 17.5,106.5 C 16.4017,105.399 16.235,104.066 17,102.5C 17.49,103.793 17.6567,105.127 17.5,106.5 Z"/></g>
<g><path style="opacity:1" fill="#000000" d="M 493.5,106.5 C 493.343,105.127 493.51,103.793 494,102.5C 494.765,104.066 494.598,105.399 493.5,106.5 Z"/></g>
<g><path style="opacity:1" fill="#000000" d="M 16.5,112.5 C 15.3871,111.054 15.2204,109.387 16,107.5C 16.4935,109.134 16.6602,110.801 16.5,112.5 Z"/></g>
<g><path style="opacity:1" fill="#000000" d="M 494.5,112.5 C 494.34,110.801 494.506,109.134 495,107.5C 495.78,109.387 495.613,111.054 494.5,112.5 Z"/></g>
<g><path style="opacity:1" fill="#000000" d="M 15.5,118.5 C 14.3871,117.054 14.2204,115.387 15,113.5C 15.4935,115.134 15.6602,116.801 15.5,118.5 Z"/></g>
<g><path style="opacity:1" fill="#000000" d="M 495.5,118.5 C 495.34,116.801 495.506,115.134 496,113.5C 496.78,115.387 496.613,117.054 495.5,118.5 Z"/></g>
<g><path style="opacity:1" fill="#000000" d="M 14.5,124.5 C 13.3871,123.054 13.2204,121.387 14,119.5C 14.4935,121.134 14.6602,122.801 14.5,124.5 Z"/></g>
<g><path style="opacity:1" fill="#000000" d="M 496.5,124.5 C 496.34,122.801 496.506,121.134 497,119.5C 497.78,121.387 497.613,123.054 496.5,124.5 Z"/></g>
<g><path style="opacity:1" fill="#000000" d="M 13.5,130.5 C 12.3871,129.054 12.2204,127.387 13,125.5C 13.4935,127.134 13.6602,128.801 13.5,130.5 Z"/></g>
<g><path style="opacity:1" fill="#000000" d="M 497.5,130.5 C 497.34,128.801 497.506,127.134 498,125.5C 498.78,127.387 498.613,129.054 497.5,130.5 Z"/></g>
<g><path style="opacity:1" fill="#000000" d="M 12.5,136.5 C 11.3871,135.054 11.2204,133.387 12,131.5C 12.4935,133.134 12.6602,134.801 12.5,136.5 Z"/></g>
<g><path style="opacity:1" fill="#000000" d="M 498.5,136.5 C 498.34,134.801 498.506,133.134 499,131.5C 499.78,133.387 499.613,135.054 498.5,136.5 Z"/></g>
<g><path style="opacity:1" fill="#000000" d="M 11.5,142.5 C 10.3871,141.054 10.2204,139.387 11,137.5C 11.4935,139.134 11.6602,140.801 11.5,142.5 Z"/></g>
<g><path style="opacity:1" fill="#000000" d="M 499.5,142.5 C 499.34,140.801 499.506,139.134 500,137.5C 500.78,139.387 500.613,141.054 499.5,142.5 Z"/></g>
<g><path style="opacity:1" fill="#000000" d="M 10.5,148.5 C 9.38705,147.054 9.22039,145.387 10,143.5C 10.4935,145.134 10.6602,146.801 10.5,148.5 Z"/></g>
<g><path style="opacity:1" fill="#000000" d="M 500.5,148.5 C 500.34,146.801 500.506,145.134 501,143.5C 501.78,145.387 501.613,147.054 500.5,148.5 Z"/></g>
<g><path style="opacity:1" fill="#000000" d="M 9.5,154.5 C 8.38705,153.054 8.22039,151.387 9,149.5C 9.49351,151.134 9.66018,152.801 9.5,154.5 Z"/></g>
<g><path style="opacity:1" fill="#000000" d="M 501.5,154.5 C 501.34,152.801 501.506,151.134 502,149.5C 502.78,151.387 502.613,153.054 501.5,154.5 Z"/></g>
<g><path style="opacity:1" fill="#000000" d="M 8.5,160.5 C 7.38705,159.054 7.22039,157.387 8,155.5C 8.49351,157.134 8.66018,158.801 8.5,160.5 Z"/></g>
<g><path style="opacity:1" fill="#000000" d="M 502.5,160.5 C 502.34,158.801 502.506,157.134 503,155.5C 503.78,157.387 503.613,159.054 502.5,160.5 Z"/></g>
<g><path style="opacity:1" fill="#000000" d="M 7.5,166.5 C 6.38705,165.054 6.22039,163.387 7,161.5C 7.49351,163.134 7.66018,164.801 7.5,166.5 Z"/></g>
<g><path style="opacity:1" fill="#000000" d="M 503.5,166.5 C 503.34,164.801 503.506,163.134 504,161.5C 504.78,163.387 504.613,165.054 503.5,166.5 Z"/></g>
<g><path style="opacity:1" fill="#000000" d="M 5.5,167.5 C 6.59832,168.601 6.76498,169.934 6,171.5C 5.50999,170.207 5.34332,168.873 5.5,167.5 Z"/></g>
<g><path style="opacity:1" fill="#000000" d="M 504.5,172.5 C 504.34,170.801 504.506,169.134 505,167.5C 505.78,169.387 505.613,171.054 504.5,172.5 Z"/></g>
<g><path style="opacity:1" fill="#000000" d="M 4.5,173.5 C 5.59832,174.601 5.76498,175.934 5,177.5C 4.50999,176.207 4.34332,174.873 4.5,173.5 Z"/></g>
<g><path style="opacity:1" fill="#000000" d="M 505.5,173.5 C 506.598,174.601 506.765,175.934 506,177.5C 505.51,176.207 505.343,174.873 505.5,173.5 Z"/></g>
<g><path style="opacity:1" fill="#000000" d="M 3.5,179.5 C 4.59832,180.601 4.76498,181.934 4,183.5C 3.50999,182.207 3.34332,180.873 3.5,179.5 Z"/></g>
<g><path style="opacity:1" fill="#000000" d="M 506.5,179.5 C 507.598,180.601 507.765,181.934 507,183.5C 506.51,182.207 506.343,180.873 506.5,179.5 Z"/></g>
<g><path style="opacity:1" fill="#000000" d="M 2.5,185.5 C 3.59832,186.601 3.76498,187.934 3,189.5C 2.50999,188.207 2.34332,186.873 2.5,185.5 Z"/></g>
<g><path style="opacity:1" fill="#000000" d="M 507.5,185.5 C 508.598,186.601 508.765,187.934 508,189.5C 507.51,188.207 507.343,186.873 507.5,185.5 Z"/></g>
<g><path style="opacity:1" fill="#000000" d="M 1.5,191.5 C 2.59832,192.601 2.76498,193.934 2,195.5C 1.50999,194.207 1.34332,192.873 1.5,191.5 Z"/></g>
<g><path style="opacity:1" fill="#000000" d="M 508.5,191.5 C 509.598,192.601 509.765,193.934 509,195.5C 508.51,194.207 508.343,192.873 508.5,191.5 Z"/></g>
<g><path style="opacity:1" fill="#000000" d="M 0.5,197.5 C 1.59832,198.601 1.76498,199.934 1,201.5C 0.50999,200.207 0.343323,198.873 0.5,197.5 Z"/></g>
<g><path style="opacity:1" fill="#000000" d="M 509.5,197.5 C 510.598,198.601 510.765,199.934 510,201.5C 509.51,200.207 509.343,198.873 509.5,197.5 Z"/></g>
<g><path style="opacity:1" fill="#000000" d="M -0.5,203.5 C 0.833333,204.833 0.833333,206.167 -0.5,207.5C -0.5,206.167 -0.5,204.833 -0.5,203.5 Z"/></g>
<g><path style="opacity:1" fill="#000000" d="M 511.5,203.5 C 511.5,204.833 511.5,206.167 511.5,207.5C 510.167,206.167 510.167,204.833 511.5,203.5 Z"/></g>
<g><path style="opacity:1" fill="#000000" d="M 47.5,238.5 C 124.834,238.333 202.167,238.5 279.5,239C 280.653,249.757 280.82,260.59 280,271.5C 202.57,272.665 125.07,272.831 47.5,272C 46.1771,260.833 46.1771,249.667 47.5,238.5 Z"/></g>
<g><path style="opacity:1" fill="#000000" d="M 383.5,238.5 C 394.415,238.18 405.248,238.513 416,239.5C 416.82,250.41 416.653,261.243 415.5,272C 404.59,272.82 393.757,272.653 383,271.5C 382.191,260.424 382.358,249.424 383.5,238.5 Z"/></g>
<g><path style="opacity:1" fill="#000000" d="M 431.5,238.5 C 442.415,238.18 453.248,238.513 464,239.5C 464.82,250.41 464.653,261.243 463.5,272C 452.59,272.82 441.757,272.653 431,271.5C 430.191,260.424 430.358,249.424 431.5,238.5 Z"/></g>
<g><path style="opacity:1" fill="#000000" d="M 510.5,293.5 C 510.833,293.5 511.167,293.5 511.5,293.5C 511.5,294.5 511.5,295.5 511.5,296.5C 511.167,296.5 510.833,296.5 510.5,296.5C 510.5,295.5 510.5,294.5 510.5,293.5 Z"/></g>
<g><path style="opacity:1" fill="#000000" d="M 509.5,296.5 C 509.833,296.5 510.167,296.5 510.5,296.5C 510.167,299.167 509.833,299.167 509.5,296.5 Z"/></g>
<g><path style="opacity:1" fill="#000000" d="M 1.5,299.5 C 2.83333,300.167 2.83333,300.167 1.5,299.5 Z"/></g>
<g><path style="opacity:1" fill="#000000" d="M 508.5,299.5 C 509.833,300.167 509.833,300.167 508.5,299.5 Z"/></g>
<g><path style="opacity:1" fill="#000000" d="M 3.5,301.5 C 2.83333,302.167 2.83333,302.167 3.5,301.5 Z"/></g>
<g><path style="opacity:1" fill="#000000" d="M 507.5,301.5 C 508.833,302.167 508.833,302.167 507.5,301.5 Z"/></g>
<g><path style="opacity:1" fill="#000000" d="M 3.5,303.5 C 4.83333,304.167 4.83333,304.167 3.5,303.5 Z"/></g>
<g><path style="opacity:1" fill="#000000" d="M 506.5,303.5 C 507.833,304.167 507.833,304.167 506.5,303.5 Z"/></g>
<g><path style="opacity:1" fill="#000000" d="M 505.5,304.5 C 505.833,304.5 506.167,304.5 506.5,304.5C 506.672,305.492 506.338,306.158 505.5,306.5C 505.5,305.833 505.5,305.167 505.5,304.5 Z"/></g>
<g><path style="opacity:1" fill="#000000" d="M 504.5,306.5 C 504.833,306.5 505.167,306.5 505.5,306.5C 505.315,307.17 504.981,307.17 504.5,306.5 Z"/></g>
<g><path style="opacity:1" fill="#000000" d="M 7.5,307.5 C 6.83333,308.167 6.83333,308.167 7.5,307.5 Z"/></g>
<g><path style="opacity:1" fill="#000000" d="M 503.5,307.5 C 503.833,307.5 504.167,307.5 504.5,307.5C 504.315,308.17 503.981,308.17 503.5,307.5 Z"/></g>
<g><path style="opacity:1" fill="#000000" d="M 7.5,309.5 C 8.83333,310.167 8.83333,310.167 7.5,309.5 Z"/></g>
<g><path style="opacity:1" fill="#000000" d="M 502.5,309.5 C 503.833,310.167 503.833,310.167 502.5,309.5 Z"/></g>
<g><path style="opacity:1" fill="#000000" d="M 501.5,310.5 C 501.833,310.5 502.167,310.5 502.5,310.5C 502.5,311.167 502.5,311.833 502.5,312.5C 502.167,312.5 501.833,312.5 501.5,312.5C 501.5,311.833 501.5,311.167 501.5,310.5 Z"/></g>
<g><path style="opacity:1" fill="#000000" d="M 7.5,312.5 C 8.83333,313.167 8.83333,313.167 7.5,312.5 Z"/></g>
<g><path style="opacity:1" fill="#000000" d="M 502.5,312.5 C 503.833,313.167 503.833,313.167 502.5,312.5 Z"/></g>
<g><path style="opacity:1" fill="#000000" d="M 506.5,318.5 C 506.167,318.5 505.833,318.5 505.5,318.5C 505.833,315.833 506.167,315.833 506.5,318.5 Z"/></g>
<g><path style="opacity:1" fill="#000000" d="M 3.5,318.5 C 4.83333,319.167 4.83333,319.167 3.5,318.5 Z"/></g>
<g><path style="opacity:1" fill="#000000" d="M 506.5,318.5 C 507.833,319.167 507.833,319.167 506.5,318.5 Z"/></g>
<g><path style="opacity:1" fill="#000000" d="M 3.5,321.5 C 2.83333,320.167 2.83333,320.167 3.5,321.5 Z"/></g>
<g><path style="opacity:1" fill="#000000" d="M 507.5,320.5 C 508.833,321.167 508.833,321.167 507.5,320.5 Z"/></g>
<g><path style="opacity:1" fill="#000000" d="M 1.5,322.5 C 2.83333,323.167 2.83333,323.167 1.5,322.5 Z"/></g>
<g><path style="opacity:1" fill="#000000" d="M 508.5,322.5 C 509.833,323.167 509.833,323.167 508.5,322.5 Z"/></g>
<g><path style="opacity:1" fill="#000000" d="M 511.5,326.5 C 511.5,327.5 511.5,328.5 511.5,329.5C 511.167,329.5 510.833,329.5 510.5,329.5C 510.263,328.209 510.596,327.209 511.5,326.5 Z"/></g>
<g><path style="opacity:1" fill="#000000" d="M -0.5,414.5 C 0.338246,414.842 0.67158,415.508 0.5,416.5C 0.166667,416.5 -0.166667,416.5 -0.5,416.5C -0.5,415.833 -0.5,415.167 -0.5,414.5 Z"/></g>
<g><path style="opacity:1" fill="#000000" d="M 511.5,414.5 C 511.5,415.167 511.5,415.833 511.5,416.5C 511.167,416.5 510.833,416.5 510.5,416.5C 510.328,415.508 510.662,414.842 511.5,414.5 Z"/></g>
<g><path style="opacity:1" fill="#000000" d="M 0.5,416.5 C 0.833333,416.5 1.16667,416.5 1.5,416.5C 1.16667,419.167 0.833333,419.167 0.5,416.5 Z"/></g>
<g><path style="opacity:1" fill="#000000" d="M 509.5,416.5 C 509.833,416.5 510.167,416.5 510.5,416.5C 510.167,419.167 509.833,419.167 509.5,416.5 Z"/></g>
<g><path style="opacity:1" fill="#000000" d="M 2.5,419.5 C 1.83333,420.167 1.83333,420.167 2.5,419.5 Z"/></g>
<g><path style="opacity:1" fill="#000000" d="M 508.5,419.5 C 509.833,420.167 509.833,420.167 508.5,419.5 Z"/></g>
<g><path style="opacity:1" fill="#000000" d="M 3.5,421.5 C 2.83333,422.167 2.83333,422.167 3.5,421.5 Z"/></g>
<g><path style="opacity:1" fill="#000000" d="M 507.5,421.5 C 508.833,422.167 508.833,422.167 507.5,421.5 Z"/></g>
<g><path style="opacity:1" fill="#000000" d="M 506.5,423.5 C 507.833,424.167 507.833,424.167 506.5,423.5 Z"/></g>
<g><path style="opacity:1" fill="#000000" d="M 505.5,424.5 C 505.833,424.5 506.167,424.5 506.5,424.5C 506.672,425.492 506.338,426.158 505.5,426.5C 505.5,425.833 505.5,425.167 505.5,424.5 Z"/></g>
<g><path style="opacity:1" fill="#000000" d="M 504.5,426.5 C 504.833,426.5 505.167,426.5 505.5,426.5C 505.315,427.17 504.981,427.17 504.5,426.5 Z"/></g>
<g><path style="opacity:1" fill="#000000" d="M 503.5,427.5 C 503.833,427.5 504.167,427.5 504.5,427.5C 504.672,428.492 504.338,429.158 503.5,429.5C 503.5,428.833 503.5,428.167 503.5,427.5 Z"/></g>
<g><path style="opacity:1" fill="#000000" d="M 502.5,429.5 C 502.833,429.5 503.167,429.5 503.5,429.5C 503.315,430.17 502.981,430.17 502.5,429.5 Z"/></g>
<g><path style="opacity:1" fill="#000000" d="M 501.5,430.5 C 501.833,430.5 502.167,430.5 502.5,430.5C 502.315,431.17 501.981,431.17 501.5,430.5 Z"/></g>
<g><path style="opacity:1" fill="#000000" d="M 500.5,431.5 C 500.833,431.5 501.167,431.5 501.5,431.5C 501.315,432.17 500.981,432.17 500.5,431.5 Z"/></g>
<g><path style="opacity:1" fill="#000000" d="M 499.5,432.5 C 499.833,432.5 500.167,432.5 500.5,432.5C 500.315,433.17 499.981,433.17 499.5,432.5 Z"/></g>
<g><path style="opacity:1" fill="#000000" d="M 498.5,433.5 C 498.833,433.5 499.167,433.5 499.5,433.5C 499.315,434.17 498.981,434.17 498.5,433.5 Z"/></g>
<g><path style="opacity:1" fill="#000000" d="M 497.5,434.5 C 497.833,434.5 498.167,434.5 498.5,434.5C 498.315,435.17 497.981,435.17 497.5,434.5 Z"/></g>
<g><path style="opacity:1" fill="#000000" d="M 496.5,435.5 C 496.833,435.5 497.167,435.5 497.5,435.5C 497.315,436.17 496.981,436.17 496.5,435.5 Z"/></g>
<g><path style="opacity:1" fill="#000000" d="M 495.5,436.5 C 495.833,436.5 496.167,436.5 496.5,436.5C 496.315,437.17 495.981,437.17 495.5,436.5 Z"/></g>
<g><path style="opacity:1" fill="#000000" d="M 494.5,437.5 C 494.833,437.5 495.167,437.5 495.5,437.5C 495.315,438.17 494.981,438.17 494.5,437.5 Z"/></g>
<g><path style="opacity:1" fill="#000000" d="M 493.5,438.5 C 493.833,438.5 494.167,438.5 494.5,438.5C 494.315,439.17 493.981,439.17 493.5,438.5 Z"/></g>
<g><path style="opacity:1" fill="#000000" d="M 491.5,440.5 C 491.5,440.167 491.5,439.833 491.5,439.5C 492.167,439.5 492.833,439.5 493.5,439.5C 493.158,440.338 492.492,440.672 491.5,440.5 Z"/></g>
<g><path style="opacity:1" fill="#000000" d="M 490.5,440.5 C 490.833,440.5 491.167,440.5 491.5,440.5C 491.315,441.17 490.981,441.17 490.5,440.5 Z"/></g>
<g><path style="opacity:1" fill="#000000" d="M 488.5,442.5 C 488.5,442.167 488.5,441.833 488.5,441.5C 489.167,441.5 489.833,441.5 490.5,441.5C 490.158,442.338 489.492,442.672 488.5,442.5 Z"/></g>
<g><path style="opacity:1" fill="#000000" d="M 23.5,442.5 C 22.8333,443.167 22.8333,443.167 23.5,442.5 Z"/></g>
<g><path style="opacity:1" fill="#000000" d="M 487.5,442.5 C 487.833,442.5 488.167,442.5 488.5,442.5C 488.315,443.17 487.981,443.17 487.5,442.5 Z"/></g>
<g><path style="opacity:1" fill="#000000" d="M 25.5,443.5 C 24.8333,444.167 24.8333,444.167 25.5,443.5 Z"/></g>
<g><path style="opacity:1" fill="#000000" d="M 485.5,443.5 C 486.833,444.167 486.833,444.167 485.5,443.5 Z"/></g>
<g><path style="opacity:1" fill="#000000" d="M 27.5,444.5 C 26.8333,445.167 26.8333,445.167 27.5,444.5 Z"/></g>
<g><path style="opacity:1" fill="#000000" d="M 483.5,444.5 C 484.833,445.167 484.833,445.167 483.5,444.5 Z"/></g>
<g><path style="opacity:1" fill="#000000" d="M 30.5,445.5 C 30.5,445.833 30.5,446.167 30.5,446.5C 27.8333,446.167 27.8333,445.833 30.5,445.5 Z"/></g>
<g><path style="opacity:1" fill="#000000" d="M 480.5,446.5 C 480.5,446.167 480.5,445.833 480.5,445.5C 483.167,445.833 483.167,446.167 480.5,446.5 Z"/></g>
<g><path style="opacity:1" fill="#000000" d="M 30.5,446.5 C 31.2389,446.369 31.9056,446.536 32.5,447C 31.5632,447.692 30.8966,447.525 30.5,446.5 Z"/></g>
<g><path style="opacity:1" fill="#000000" d="M 480.5,446.5 C 480.103,447.525 479.437,447.692 478.5,447C 479.094,446.536 479.761,446.369 480.5,446.5 Z"/></g>
<g><path style="opacity:1" fill="#000000" d="M 33.5,448.5 C 34.2506,447.427 35.2506,447.26 36.5,448C 35.552,448.483 34.552,448.649 33.5,448.5 Z"/></g>
<g><path style="opacity:1" fill="#000000" d="M 474.5,447.5 C 475.552,447.351 476.552,447.517 477.5,448C 476.251,448.74 475.251,448.573 474.5,447.5 Z"/></g>
<g><path style="opacity:1" fill="#000000" d="M 37.5,449.5 C 38.9464,448.387 40.6131,448.22 42.5,449C 40.8659,449.494 39.1992,449.66 37.5,449.5 Z"/></g>
<g><path style="opacity:1" fill="#000000" d="M 468.5,449.5 C 469.946,448.387 471.613,448.22 473.5,449C 471.866,449.494 470.199,449.66 468.5,449.5 Z"/></g>
</svg>
