<?xml version="1.0" standalone="no"?>
<!DOCTYPE svg PUBLIC "-//W3C//DTD SVG 20010904//EN"
 "http://www.w3.org/TR/2001/REC-SVG-20010904/DTD/svg10.dtd">
<svg version="1.0" xmlns="http://www.w3.org/2000/svg"
 width="591.000000pt" height="597.000000pt" viewBox="0 0 591.000000 597.000000"
 preserveAspectRatio="xMidYMid meet">
<g transform="translate(0.000000,597.000000) scale(0.100000,-0.100000)"
fill="#000000" stroke="none">
<path d="M1026 5513 c-51 -8 -96 -43 -139 -108 l-27 -40 0 -1706 0 -1706 31
-93 c28 -85 74 -176 106 -208 7 -7 13 -17 13 -21 0 -20 204 -201 228 -201 4 0
35 -13 67 -30 32 -16 70 -30 84 -30 14 -1 37 -7 51 -15 21 -12 310 -14 2028
-15 2207 0 2023 -5 2095 62 51 48 67 87 67 160 0 91 -40 164 -114 206 -29 16
-160 17 -2008 22 -1563 4 -1980 8 -1990 17 -6 7 -18 13 -24 13 -41 0 -154 111
-154 151 0 8 -6 21 -12 27 -10 10 -14 367 -18 1690 -5 1654 -5 1677 -25 1711
-11 19 -40 51 -65 71 -38 32 -54 38 -105 42 -33 3 -73 3 -89 1z"/>
<path d="M3596 4680 c-25 -11 -172 -151 -410 -389 -204 -204 -378 -371 -387
-371 -8 0 -154 140 -325 311 -170 171 -331 327 -359 347 -47 35 -53 37 -130
37 -101 0 -152 -21 -189 -79 -55 -84 -59 -185 -11 -258 15 -22 217 -230 449
-463 334 -334 434 -427 471 -444 62 -27 138 -28 190 -1 24 12 194 174 417 397
208 207 381 374 385 370 115 -108 830 -833 827 -839 -3 -4 -115 -8 -249 -8
-243 0 -245 0 -300 -26 -62 -30 -99 -68 -126 -132 -23 -53 -23 -69 -4 -135 15
-53 57 -107 110 -142 29 -19 49 -20 608 -23 368 -2 591 1 615 7 49 14 107 63
135 114 l22 42 0 585 c0 547 -1 587 -18 618 -31 58 -83 99 -150 120 -60 20
-64 20 -113 4 -63 -21 -115 -64 -148 -122 l-26 -45 0 -262 c0 -169 -4 -263
-10 -263 -6 0 -242 232 -525 515 -409 410 -524 520 -561 535 -57 25 -135 25
-188 0z"/>
</g>
</svg>
