<?xml version="1.0" standalone="no"?>
<!DOCTYPE svg PUBLIC "-//W3C//DTD SVG 20010904//EN"
 "http://www.w3.org/TR/2001/REC-SVG-20010904/DTD/svg10.dtd">
<svg version="1.0" xmlns="http://www.w3.org/2000/svg"
 width="666.000000pt" height="582.000000pt" viewBox="0 0 666.000000 582.000000"
 preserveAspectRatio="xMidYMid meet">
<g transform="translate(0.000000,582.000000) scale(0.100000,-0.100000)"
fill="#000000" stroke="none">
<path d="M857 5158 c-49 -26 -105 -93 -117 -139 -7 -25 -9 -616 -7 -1741 l3
-1703 21 -62 c12 -34 26 -70 32 -80 5 -10 12 -25 16 -33 39 -97 170 -240 280
-307 59 -36 168 -83 193 -83 11 0 36 -7 55 -15 32 -13 280 -15 2028 -15 1871
0 1993 1 2022 17 45 25 85 62 110 103 17 28 22 50 22 112 0 75 -1 77 -41 124
-22 27 -56 57 -75 69 -34 20 -42 20 -2019 25 -2149 6 -2009 2 -2086 57 -50 36
-101 120 -113 187 -8 40 -11 585 -11 1685 0 1043 -4 1639 -10 1662 -13 46 -70
112 -120 138 -53 27 -131 27 -183 -1z"/>
<path d="M3857 4258 c-132 -72 -167 -235 -72 -345 69 -80 80 -83 380 -83 145
0 266 -4 269 -8 5 -9 -835 -854 -855 -861 -6 -2 -183 168 -393 377 -209 209
-392 385 -406 392 -14 7 -59 13 -105 13 -73 0 -84 -3 -125 -31 -60 -41 -860
-846 -889 -895 -32 -53 -34 -165 -3 -223 32 -61 121 -114 194 -114 85 0 114
23 471 378 185 186 342 339 348 341 6 2 183 -168 393 -377 209 -209 392 -385
406 -392 32 -17 178 -17 210 0 14 7 261 248 550 536 289 288 531 524 537 524
8 0 12 -78 15 -277 3 -275 3 -278 28 -318 95 -155 285 -153 383 5 22 35 22 36
22 630 0 594 0 595 -22 630 -25 41 -65 78 -110 103 -28 16 -79 17 -610 16
-562 0 -579 -1 -616 -21z"/>
</g>
</svg>
