<?xml version="1.0" standalone="no"?>
<!DOCTYPE svg PUBLIC "-//W3C//DTD SVG 20010904//EN"
 "http://www.w3.org/TR/2001/REC-SVG-20010904/DTD/svg10.dtd">
<svg version="1.0" xmlns="http://www.w3.org/2000/svg"
 width="696.000000pt" height="558.000000pt" viewBox="0 0 696.000000 558.000000"
 preserveAspectRatio="xMidYMid meet">
<g transform="translate(0.000000,558.000000) scale(0.100000,-0.100000)"
fill="#000000" stroke="none">
<path d="M3365 5163 c-145 -35 -246 -72 -315 -114 -8 -5 -22 -12 -30 -16 -8
-3 -31 -19 -51 -35 -20 -15 -41 -28 -45 -28 -26 0 -239 -239 -267 -300 -4 -8
-17 -31 -28 -50 -70 -116 -119 -317 -119 -490 0 -215 54 -399 169 -575 43 -66
226 -265 245 -265 4 0 25 -12 45 -27 45 -35 65 -47 121 -73 100 -48 131 -58
282 -94 77 -18 284 -22 338 -5 19 5 58 14 85 19 56 9 96 22 172 56 29 13 62
29 75 34 32 14 51 26 138 91 103 77 147 121 216 214 211 286 264 669 136 1000
-54 140 -142 278 -237 369 -63 60 -206 166 -253 186 -13 5 -46 21 -75 34 -78
35 -117 48 -172 56 -27 4 -66 13 -85 19 -50 16 -273 12 -345 -6z m317 -454 c9
-5 24 -9 33 -9 23 0 101 -37 160 -75 126 -82 217 -204 257 -346 15 -57 15
-241 0 -298 -29 -103 -90 -203 -171 -280 -67 -64 -205 -141 -253 -141 -13 0
-29 -5 -35 -11 -19 -19 -179 -16 -255 4 -167 44 -307 153 -386 298 -54 101
-67 154 -67 279 0 125 13 178 67 279 78 144 224 258 381 295 34 8 71 17 82 20
28 7 167 -4 187 -15z"/>
<path d="M1900 4715 c-19 -7 -49 -14 -67 -14 -17 -1 -44 -7 -60 -15 -15 -8
-53 -25 -83 -37 -30 -11 -86 -42 -125 -68 -71 -47 -225 -186 -225 -203 0 -6
-13 -27 -28 -47 -16 -20 -42 -65 -59 -101 -75 -160 -88 -221 -88 -400 0 -144
5 -179 45 -300 23 -68 42 -106 94 -190 110 -178 339 -342 531 -380 22 -4 56
-13 75 -19 45 -14 245 -14 290 0 19 6 53 15 75 19 81 16 220 77 220 96 0 7
-23 36 -50 66 -52 56 -145 172 -145 182 0 13 -64 98 -78 104 -8 3 -28 -2 -44
-11 -39 -23 -193 -24 -234 -2 -16 8 -37 15 -46 15 -29 0 -120 60 -170 112 -27
27 -62 80 -83 123 -33 70 -35 80 -35 177 0 71 5 116 17 148 16 42 65 125 95
160 21 25 104 90 115 90 5 0 14 5 21 12 14 14 88 37 152 46 l44 7 23 111 c12
61 36 151 54 200 48 138 54 129 -81 131 -77 1 -126 -3 -150 -12z"/>
<path d="M4944 4716 c-3 -8 -1 -23 5 -34 6 -11 20 -50 32 -88 11 -38 27 -87
34 -109 11 -34 28 -129 30 -172 1 -21 19 -31 65 -36 44 -4 100 -21 130 -38 8
-5 22 -12 30 -16 44 -20 120 -87 154 -137 47 -68 86 -182 86 -249 0 -26 -8
-78 -17 -115 -52 -206 -227 -342 -442 -342 -54 0 -92 5 -115 16 -19 9 -41 14
-49 11 -9 -3 -45 -50 -81 -104 -36 -54 -95 -131 -132 -171 -36 -39 -63 -76
-59 -82 8 -13 103 -60 123 -60 9 0 26 -7 36 -15 11 -8 34 -15 50 -15 17 0 53
-7 80 -15 66 -20 249 -20 306 0 23 8 54 15 69 15 14 0 39 7 55 15 15 8 36 15
46 15 10 0 23 7 30 15 7 8 20 15 29 15 24 0 160 91 227 152 138 127 234 303
269 493 62 339 -71 683 -344 884 -77 57 -192 121 -218 121 -10 0 -27 7 -37 15
-11 8 -34 15 -52 15 -17 0 -51 7 -74 15 -58 21 -258 21 -266 1z"/>
<path d="M2507 2615 c-9 -8 -18 -29 -22 -46 -4 -16 -13 -42 -21 -57 -8 -15
-14 -34 -14 -42 0 -9 -4 -20 -9 -25 -5 -6 -14 -26 -19 -45 -6 -19 -20 -60 -32
-90 -12 -30 -24 -64 -27 -75 -3 -11 -11 -34 -19 -52 -8 -17 -14 -37 -14 -45 0
-8 -4 -18 -9 -24 -5 -5 -14 -25 -19 -44 -6 -19 -24 -71 -41 -115 -16 -44 -35
-96 -42 -115 -26 -76 -59 -164 -113 -307 -8 -21 -29 -78 -46 -128 -38 -108
-57 -159 -76 -203 -8 -18 -14 -41 -14 -50 0 -10 -4 -22 -9 -27 -5 -6 -14 -26
-19 -45 -6 -19 -20 -60 -32 -90 -40 -104 -51 -140 -45 -150 7 -11 432 -14 459
-4 9 3 16 14 16 23 0 9 4 21 8 27 5 5 19 38 31 74 13 36 27 73 32 82 5 10 9
23 9 30 0 7 6 25 14 40 8 15 17 40 21 57 4 17 11 33 16 36 5 4 9 13 9 22 0 8
6 29 14 46 21 49 104 279 112 310 3 15 10 30 15 33 5 3 9 12 9 21 0 8 6 29 14
46 7 18 51 133 97 257 45 124 88 228 93 232 6 4 331 8 723 8 784 0 734 4 748
-62 4 -18 11 -37 14 -43 4 -5 18 -40 30 -78 12 -37 29 -79 37 -95 7 -15 14
-31 14 -36 0 -12 88 -254 101 -278 5 -10 9 -23 9 -30 1 -7 9 -31 20 -53 11
-22 19 -46 20 -53 0 -7 4 -20 9 -30 5 -9 33 -82 61 -162 29 -80 59 -159 66
-177 8 -17 14 -37 14 -45 0 -8 4 -18 8 -23 5 -6 19 -41 32 -80 36 -112 19
-105 276 -105 127 0 225 4 229 9 3 5 -2 29 -10 53 -9 24 -20 57 -25 73 -6 17
-14 39 -19 50 -5 11 -19 47 -30 80 -11 33 -30 85 -41 115 -12 30 -26 69 -31
85 -5 17 -13 39 -18 50 -5 11 -20 49 -32 85 -40 118 -49 145 -58 165 -5 11
-30 79 -56 150 -51 143 -70 194 -91 243 -8 18 -14 37 -14 43 0 6 -6 25 -14 42
-8 18 -23 59 -35 92 -11 33 -30 85 -41 115 -12 30 -26 69 -31 85 -5 17 -13 39
-18 50 -5 11 -19 47 -30 80 -25 78 -43 118 -56 127 -5 4 -474 8 -1042 8 -901
0 -1033 -2 -1046 -15z"/>
<path d="M1162 2471 c-7 -4 -19 -28 -27 -52 -7 -24 -23 -69 -35 -99 -21 -55
-34 -91 -105 -285 -20 -55 -43 -118 -51 -140 -8 -22 -26 -71 -39 -110 -28 -80
-45 -127 -75 -205 -12 -30 -25 -68 -30 -85 -5 -16 -18 -55 -30 -85 -12 -30
-25 -66 -30 -80 -5 -14 -18 -50 -30 -80 -11 -30 -30 -82 -41 -115 -11 -33 -25
-69 -30 -80 -5 -11 -13 -33 -18 -50 -5 -16 -19 -55 -31 -85 -36 -93 -55 -85
209 -85 l235 0 29 80 c15 44 32 91 37 105 5 14 18 50 30 80 33 87 46 121 69
190 12 36 27 74 32 85 5 11 13 34 18 50 5 17 19 55 31 85 11 30 34 91 50 135
16 44 43 118 60 165 17 47 35 96 40 110 5 14 15 43 23 65 l15 40 170 5 c94 3
172 7 174 10 2 3 12 30 22 60 10 30 22 64 27 75 5 11 20 54 33 95 14 41 34
100 46 130 11 30 18 61 15 68 -3 9 -91 12 -392 12 -213 0 -394 -4 -401 -9z"/>
<path d="M5153 2464 c-3 -8 0 -27 7 -42 7 -15 16 -38 20 -52 5 -14 18 -50 30
-80 12 -30 26 -68 30 -85 18 -64 50 -148 61 -161 9 -11 49 -14 169 -14 170 0
172 -1 190 -57 5 -15 18 -53 30 -83 37 -98 51 -134 60 -165 6 -16 14 -39 18
-50 5 -11 15 -36 21 -55 20 -57 59 -161 81 -220 12 -30 25 -66 30 -80 5 -14
18 -50 30 -80 12 -30 27 -73 35 -95 7 -22 27 -78 45 -125 17 -47 35 -98 40
-114 5 -16 16 -39 25 -52 l15 -24 218 0 c215 0 260 6 234 32 -6 6 -12 18 -12
26 0 8 -6 28 -14 45 -8 18 -19 46 -24 62 -15 42 -57 160 -82 225 -12 30 -32
87 -45 125 -13 39 -33 95 -45 125 -12 30 -26 71 -32 90 -5 19 -14 40 -18 45
-4 6 -10 21 -13 35 -3 14 -15 50 -27 80 -12 30 -25 66 -30 80 -5 14 -18 50
-30 80 -12 30 -27 73 -35 95 -15 46 -54 154 -85 235 -12 30 -32 87 -45 125
-13 39 -30 87 -39 108 l-16 37 -395 0 c-350 0 -396 -2 -402 -16z"/>
</g>
</svg>
