<?xml version="1.0" standalone="no"?>
<!DOCTYPE svg PUBLIC "-//W3C//DTD SVG 20010904//EN"
 "http://www.w3.org/TR/2001/REC-SVG-20010904/DTD/svg10.dtd">
<svg version="1.0" xmlns="http://www.w3.org/2000/svg"
 width="672.000000pt" height="648.000000pt" viewBox="0 0 672.000000 648.000000"
 preserveAspectRatio="xMidYMid meet">
<g transform="translate(0.000000,648.000000) scale(0.100000,-0.100000)"
fill="#000000" stroke="none">
<path d="M3233 6073 c-10 -4 -13 -107 -13 -468 0 -255 3 -470 6 -479 9 -24
269 -24 278 0 3 9 6 224 6 479 0 413 -2 464 -16 469 -19 7 -243 7 -261 -1z"/>
<path d="M1673 5378 c-51 -50 -93 -98 -93 -107 0 -15 647 -672 669 -679 5 -2
52 40 105 93 88 87 113 127 86 137 -5 2 -155 148 -333 326 -178 177 -327 322
-333 322 -5 0 -51 -41 -101 -92z"/>
<path d="M4612 5138 c-182 -183 -332 -338 -332 -346 0 -13 186 -202 199 -202
5 0 143 136 307 301 165 166 314 315 332 332 17 17 32 37 32 46 0 17 -179 201
-195 201 -6 0 -160 -150 -343 -332z"/>
<path d="M3195 4715 c-22 -8 -51 -15 -65 -15 -32 0 -109 -25 -185 -60 -33 -15
-67 -31 -75 -34 -28 -12 -101 -60 -140 -91 -37 -30 -145 -129 -148 -136 -1 -3
-16 -21 -33 -40 -37 -42 -119 -178 -143 -239 -10 -25 -23 -56 -28 -70 -40
-100 -51 -177 -51 -350 -1 -192 13 -268 74 -412 62 -145 181 -305 288 -389 25
-19 49 -38 56 -44 22 -21 71 -52 115 -74 25 -12 52 -26 60 -30 61 -32 84 -41
103 -41 12 0 31 -7 41 -15 11 -8 36 -15 55 -15 20 0 54 -7 76 -15 55 -20 285
-20 340 0 22 8 56 15 76 15 19 0 44 7 55 15 10 8 28 15 40 15 11 0 47 14 79
30 32 17 62 30 66 30 5 0 28 14 52 30 25 17 49 30 54 30 5 0 15 8 24 18 8 9
35 32 59 51 108 83 227 244 289 389 60 143 74 220 74 412 0 180 -7 227 -58
370 -59 165 -192 347 -330 452 -16 12 -34 26 -40 31 -23 18 -117 77 -124 77
-5 0 -33 14 -64 30 -31 17 -65 30 -76 30 -10 0 -32 7 -47 15 -16 8 -42 15 -59
15 -16 0 -48 7 -70 15 -27 9 -82 14 -170 14 -88 0 -143 -5 -170 -14z m345
-305 c74 -21 186 -66 200 -80 3 -3 25 -19 50 -35 63 -42 163 -144 204 -208 98
-153 134 -305 115 -488 -10 -106 -21 -143 -72 -249 -49 -104 -150 -220 -247
-285 -25 -16 -46 -33 -48 -37 -2 -5 -11 -8 -21 -8 -9 0 -22 -5 -29 -12 -14
-14 -74 -37 -130 -48 -23 -5 -51 -14 -63 -20 -26 -15 -249 -7 -309 10 -75 21
-177 62 -205 82 -100 73 -136 102 -165 134 -44 48 -95 114 -103 134 -4 8 -11
22 -15 30 -70 121 -102 290 -83 432 22 171 71 279 184 412 37 43 147 136 161
136 3 0 24 13 48 28 50 32 95 50 156 63 24 5 51 13 60 19 23 14 255 7 312 -10z"/>
<path d="M983 3823 c-10 -3 -13 -42 -13 -143 0 -116 2 -139 16 -144 24 -9 927
-7 942 2 9 7 12 43 10 148 l-3 139 -470 2 c-258 1 -476 -1 -482 -4z"/>
<path d="M4802 3822 c-9 -7 -12 -43 -10 -148 l3 -139 460 -3 c253 -1 470 0
483 3 21 5 22 9 22 144 0 117 -2 140 -16 145 -24 9 -927 7 -942 -2z"/>
<path d="M1913 2437 c-183 -183 -333 -339 -333 -348 0 -15 168 -190 190 -197
12 -4 -19 -34 359 342 177 176 321 324 321 330 -1 13 -185 206 -196 206 -5 0
-159 -150 -341 -333z"/>
<path d="M4373 2674 c-51 -53 -93 -101 -93 -108 0 -7 144 -156 321 -332 369
-367 345 -344 356 -344 18 0 195 188 191 204 -4 20 -658 676 -672 675 -6 0
-53 -43 -103 -95z"/>
<path d="M3233 2242 c-10 -11 -13 -107 -13 -482 0 -417 2 -469 16 -474 20 -8
238 -8 258 0 14 5 16 56 16 473 0 256 -4 472 -8 478 -12 19 -251 23 -269 5z"/>
</g>
</svg>
