<?xml version="1.0" standalone="no"?>
<!DOCTYPE svg PUBLIC "-//W3C//DTD SVG 20010904//EN"
 "http://www.w3.org/TR/2001/REC-SVG-20010904/DTD/svg10.dtd">
<svg version="1.0" xmlns="http://www.w3.org/2000/svg"
 width="834.000000pt" height="819.000000pt" viewBox="0 0 834.000000 819.000000"
 preserveAspectRatio="xMidYMid meet">
<g transform="translate(0.000000,819.000000) scale(0.100000,-0.100000)"
fill="#000000" stroke="none">
<path d="M6444 7503 c-14 -32 -35 -78 -45 -103 -11 -25 -24 -52 -28 -61 -5 -9
-28 -61 -51 -115 -23 -54 -53 -121 -65 -149 -13 -27 -40 -86 -60 -130 -21 -44
-44 -98 -51 -120 -25 -68 -43 -80 -269 -174 -55 -23 -137 -60 -182 -82 -46
-21 -85 -39 -88 -39 -3 0 -35 -14 -72 -31 -38 -16 -84 -37 -103 -45 -73 -32
-125 -63 -125 -74 0 -11 52 -42 125 -74 19 -8 65 -29 103 -45 37 -17 69 -31
72 -31 3 0 42 -18 88 -39 45 -22 127 -59 182 -82 226 -94 244 -106 269 -174 7
-22 30 -76 51 -120 20 -44 47 -102 60 -130 12 -27 42 -95 65 -149 23 -54 46
-106 51 -115 4 -9 17 -36 28 -61 60 -141 71 -160 86 -160 15 0 24 16 100 185
51 113 65 144 105 235 23 52 50 113 60 135 10 22 37 82 59 134 39 91 65 131
82 131 5 0 46 17 91 39 46 21 108 49 138 61 30 12 87 37 125 55 82 38 159 73
293 131 73 31 127 63 127 74 0 11 -54 43 -127 74 -134 58 -211 93 -293 131
-38 18 -95 43 -125 55 -30 12 -92 40 -138 61 -45 22 -86 39 -91 39 -17 0 -43
40 -75 116 -18 44 -47 108 -63 144 -17 36 -45 99 -63 140 -18 41 -44 100 -58
130 -61 136 -71 159 -100 223 -20 42 -37 67 -47 67 -10 0 -26 -22 -41 -57z"/>
<path d="M3041 6413 c-89 -197 -100 -221 -126 -283 -14 -33 -34 -75 -45 -95
-11 -20 -20 -40 -20 -45 0 -6 -14 -40 -31 -77 -17 -38 -40 -88 -51 -113 -11
-25 -33 -73 -49 -107 -16 -35 -29 -65 -29 -67 0 -4 -34 -81 -75 -171 -45 -97
-75 -166 -75 -170 0 -2 -20 -48 -45 -101 -25 -53 -45 -100 -45 -104 0 -5 -7
-21 -15 -37 -8 -15 -28 -58 -45 -94 -28 -61 -35 -68 -88 -93 -77 -38 -161 -75
-247 -110 -16 -7 -46 -20 -65 -29 -103 -47 -172 -77 -176 -77 -2 0 -35 -14
-72 -31 -113 -53 -144 -66 -228 -102 -44 -19 -105 -46 -135 -60 -30 -14 -133
-60 -229 -102 -349 -154 -439 -197 -445 -213 -7 -20 3 -32 29 -32 12 0 26 -4
32 -9 5 -5 41 -22 79 -39 39 -16 106 -46 150 -67 44 -21 94 -43 110 -50 51
-22 97 -42 186 -84 48 -22 127 -56 175 -77 98 -41 151 -64 267 -118 42 -20 81
-36 86 -36 5 0 22 -6 38 -14 77 -40 223 -106 231 -106 6 0 23 -7 39 -15 15 -8
55 -26 88 -41 129 -56 142 -65 163 -108 33 -68 82 -175 82 -180 0 -4 33 -79
86 -196 65 -141 94 -207 94 -214 0 -2 16 -40 36 -83 50 -109 74 -163 90 -201
14 -34 18 -43 82 -182 22 -47 50 -110 62 -140 13 -30 36 -83 51 -118 63 -136
92 -199 112 -245 14 -30 27 -46 37 -45 19 4 49 58 111 203 28 66 66 152 84
190 18 39 52 115 75 170 24 55 63 143 87 195 25 52 56 122 70 155 13 33 38 88
54 123 16 34 29 64 29 66 0 3 14 35 31 73 17 37 37 84 46 103 8 19 21 49 28
65 36 78 74 164 90 200 45 108 37 102 265 202 30 13 69 30 85 38 68 31 307
135 312 135 2 0 48 20 101 45 123 58 145 68 212 95 30 12 84 36 120 52 203 94
257 118 264 118 4 0 54 23 114 51 156 74 184 86 210 94 54 16 22 39 -188 132
-19 9 -42 20 -50 25 -8 4 -22 11 -30 14 -20 8 -60 26 -143 63 -37 17 -70 31
-72 31 -3 0 -35 14 -72 31 -38 17 -77 34 -88 39 -49 21 -145 64 -195 87 -56
26 -93 42 -152 67 -38 16 -100 43 -178 79 -30 14 -73 33 -95 42 -46 19 -66 28
-195 88 -52 24 -114 52 -136 62 -40 17 -46 26 -103 147 -34 71 -61 133 -61
138 0 6 -14 40 -31 77 -17 38 -47 102 -66 143 -18 41 -38 83 -43 92 -6 10 -10
22 -10 28 0 5 -16 45 -36 87 -41 89 -101 223 -129 288 -7 17 -33 74 -59 128
-25 54 -46 103 -46 110 0 7 -4 17 -9 23 -5 5 -32 63 -60 129 -78 180 -124 270
-142 273 -11 2 -30 -31 -68 -115z m93 -1289 c9 -8 16 -19 16 -24 0 -5 26 -64
58 -132 32 -68 83 -179 113 -248 30 -68 70 -156 89 -195 39 -77 34 -73 225
-160 44 -20 105 -48 135 -62 30 -14 69 -31 85 -38 189 -80 260 -118 263 -142
2 -16 -2 -23 -13 -23 -9 0 -29 -6 -43 -14 -15 -7 -72 -34 -127 -60 -55 -26
-113 -54 -128 -62 -16 -8 -33 -14 -38 -14 -5 0 -41 -15 -81 -34 -40 -18 -104
-48 -143 -66 -101 -47 -118 -62 -144 -127 -22 -55 -35 -84 -95 -215 -14 -32
-38 -84 -52 -115 -14 -32 -32 -71 -39 -88 -8 -16 -29 -63 -46 -102 -31 -69
-55 -93 -79 -78 -5 3 -10 13 -10 20 0 8 -9 31 -19 52 -18 35 -53 114 -85 188
-32 75 -46 106 -88 195 -25 52 -56 118 -68 145 -23 50 -57 95 -72 95 -4 0 -36
14 -70 30 -35 17 -101 47 -148 67 -47 19 -128 56 -180 80 -52 24 -111 51 -130
60 -19 9 -47 22 -62 30 -14 7 -33 13 -41 13 -23 0 -31 18 -16 36 11 13 147 84
162 84 4 0 42 16 84 36 43 19 87 39 98 44 153 65 320 148 337 167 15 17 43 73
113 228 15 33 35 78 45 100 48 105 71 157 105 240 21 50 39 93 42 98 7 12 31
8 47 -9z"/>
<path d="M6084 3038 c-4 -13 -24 -59 -44 -103 -21 -44 -52 -114 -70 -155 -59
-138 -71 -165 -95 -215 -40 -85 -85 -186 -85 -192 0 -14 -46 -99 -60 -111 -18
-16 -136 -73 -205 -100 -27 -11 -90 -39 -140 -62 -49 -22 -103 -47 -120 -54
-77 -32 -106 -46 -195 -88 -52 -25 -105 -49 -117 -52 -37 -12 -28 -40 20 -61
23 -10 76 -34 117 -53 41 -19 89 -41 105 -48 45 -18 91 -39 187 -83 49 -22
112 -50 140 -62 115 -46 198 -87 214 -103 6 -6 34 -65 63 -131 29 -66 64 -145
77 -175 14 -30 32 -68 39 -85 60 -133 73 -163 79 -182 4 -12 24 -57 45 -100
21 -43 41 -88 45 -101 17 -53 49 -14 115 138 13 30 32 73 42 95 32 71 71 159
84 190 7 17 33 75 58 130 25 55 55 123 67 150 28 64 43 80 94 104 133 61 185
85 226 101 39 16 110 48 266 121 23 10 44 19 48 19 15 0 201 93 208 103 8 13
-9 37 -25 37 -6 0 -38 13 -71 29 -34 15 -79 36 -101 45 -22 10 -53 24 -70 31
-112 52 -180 82 -246 110 -69 30 -127 56 -235 106 -23 11 -48 27 -56 37 -13
15 -78 145 -78 156 0 2 -17 42 -39 88 -21 45 -51 112 -66 148 -15 36 -41 94
-57 130 -17 36 -46 101 -65 145 -41 97 -59 125 -78 125 -7 0 -17 -10 -21 -22z"/>
</g>
</svg>
