<svg version="1.0" xmlns="http://www.w3.org/2000/svg" width="1800.000000pt" height="1305.000000pt" viewBox="0 0 1800.000000 1305.000000" preserveAspectRatio="xMidYMid meet" style="width: 499.685px; height: auto;"> <g transform="translate(0.000000,1305.000000) scale(0.100000,-0.100000)" fill="#000000" stroke="none"> <path d="M5935 12554 c-381 -18 -504 -29 -667 -63 -54 -11 -139 -26 -190 -32 -51 -6 -120 -19 -153 -30 -33 -10 -105 -28 -160 -40 -55 -11 -116 -28 -135 -36 -19 -8 -77 -23 -129 -33 -51 -11 -104 -26 -117 -35 -13 -8 -55 -22 -94 -30 -38 -8 -96 -28 -128 -44 -32 -16 -75 -33 -95 -36 -21 -4 -53 -18 -72 -31 -19 -13 -60 -30 -91 -38 -31 -8 -63 -21 -72 -29 -10 -9 -49 -25 -89 -37 -39 -12 -79 -30 -89 -41 -10 -11 -41 -26 -69 -34 -29 -9 -67 -26 -85 -40 -18 -13 -45 -27 -60 -30 -15 -3 -36 -16 -46 -27 -11 -11 -43 -32 -73 -45 -29 -13 -61 -32 -70 -42 -9 -10 -38 -24 -64 -31 -26 -7 -64 -26 -84 -41 -20 -16 -41 -29 -48 -29 -7 0 -32 -16 -55 -35 -23 -19 -47 -35 -54 -35 -7 0 -23 -12 -37 -26 -13 -15 -44 -35 -68 -45 -24 -11 -55 -32 -70 -47 -15 -15 -42 -36 -61 -47 -98 -58 -98 -58 -213 -155 -27 -22 -53 -40 -58 -40 -5 0 -14 -10 -20 -22 -6 -13 -34 -38 -62 -55 -50 -32 -91 -66 -188 -159 -26 -24 -51 -44 -57 -44 -5 0 -22 -16 -36 -35 -15 -19 -32 -35 -37 -35 -6 0 -32 -23 -57 -52 -26 -28 -81 -86 -122 -129 -41 -42 -104 -110 -140 -149 -36 -40 -80 -87 -99 -105 -18 -18 -45 -50 -60 -72 -14 -22 -38 -59 -54 -82 -15 -22 -34 -41 -42 -41 -8 0 -26 -18 -40 -40 -14 -22 -29 -40 -34 -40 -4 0 -16 -18 -26 -39 -10 -22 -23 -42 -31 -45 -7 -3 -20 -19 -29 -36 -19 -36 -75 -113 -109 -150 -13 -14 -29 -41 -35 -61 -6 -20 -21 -45 -32 -55 -12 -11 -33 -41 -46 -69 -14 -27 -36 -62 -48 -77 -13 -15 -26 -41 -30 -58 -4 -17 -15 -35 -25 -40 -10 -5 -23 -23 -28 -40 -6 -16 -22 -45 -36 -62 -13 -18 -32 -53 -42 -78 -10 -25 -28 -58 -41 -73 -13 -16 -23 -33 -23 -38 0 -16 -110 -242 -126 -260 -8 -9 -19 -43 -24 -75 -7 -40 -17 -65 -33 -80 -14 -13 -28 -44 -36 -80 -8 -32 -24 -72 -36 -89 -13 -16 -28 -50 -35 -75 -18 -72 -34 -113 -51 -140 -10 -14 -22 -53 -28 -88 -6 -35 -22 -87 -35 -117 -16 -32 -29 -84 -35 -133 -6 -55 -15 -90 -30 -110 -12 -18 -25 -60 -32 -103 -6 -41 -24 -128 -40 -194 -16 -66 -36 -176 -44 -245 -8 -69 -21 -152 -30 -185 -49 -184 -56 -1286 -10 -1505 9 -41 25 -153 36 -249 22 -198 25 -212 44 -261 8 -19 23 -86 35 -147 11 -62 30 -134 41 -160 11 -26 27 -90 34 -143 10 -61 22 -104 35 -122 11 -15 27 -60 35 -100 9 -40 25 -90 36 -112 11 -21 24 -62 30 -90 5 -28 22 -72 39 -98 16 -26 34 -73 39 -104 6 -32 18 -65 26 -74 8 -9 26 -45 40 -80 14 -35 31 -70 39 -79 8 -9 21 -38 31 -66 9 -27 27 -66 40 -85 13 -19 31 -54 39 -78 8 -23 26 -57 39 -75 14 -17 27 -44 30 -58 7 -25 56 -115 96 -174 11 -16 29 -48 40 -70 11 -22 42 -71 70 -110 28 -38 62 -91 76 -117 14 -26 34 -52 45 -58 11 -6 20 -17 20 -24 0 -7 13 -31 29 -53 16 -22 37 -55 46 -74 10 -19 33 -52 51 -74 19 -22 46 -55 61 -73 16 -18 40 -45 55 -60 16 -14 28 -31 28 -36 0 -5 22 -34 50 -65 46 -52 72 -82 149 -171 72 -85 99 -113 227 -242 75 -76 140 -138 145 -138 5 0 15 -14 24 -30 9 -17 23 -30 33 -30 10 0 26 -13 35 -29 10 -17 26 -32 36 -36 10 -3 24 -16 31 -30 7 -14 22 -27 32 -31 10 -3 36 -22 57 -42 20 -20 59 -53 85 -72 27 -19 62 -48 79 -63 30 -29 44 -39 148 -108 30 -20 63 -46 73 -58 11 -11 28 -21 38 -21 10 0 30 -12 44 -27 14 -15 40 -36 58 -48 67 -41 132 -84 160 -106 15 -12 63 -40 105 -61 42 -22 93 -53 114 -69 20 -17 54 -37 75 -45 20 -9 48 -26 62 -39 14 -12 50 -30 80 -40 30 -10 64 -25 75 -35 11 -9 40 -25 65 -34 25 -10 59 -26 75 -36 17 -10 62 -30 100 -45 39 -15 74 -31 80 -36 5 -5 17 -9 27 -9 9 0 50 -17 90 -38 40 -21 93 -42 118 -46 25 -4 63 -17 85 -30 22 -13 67 -31 100 -40 33 -9 80 -25 105 -36 25 -10 86 -28 136 -39 50 -12 111 -29 135 -40 24 -10 80 -24 124 -30 44 -7 103 -21 130 -31 28 -9 124 -30 215 -45 91 -15 190 -33 220 -40 30 -8 118 -19 195 -25 77 -6 219 -18 315 -27 238 -23 569 -23 790 0 96 10 247 24 335 33 142 13 235 27 518 80 43 8 90 20 105 28 15 8 63 19 107 26 44 6 100 21 125 31 25 11 84 29 132 39 47 11 109 29 136 39 28 11 79 27 114 36 34 9 75 25 91 36 15 11 52 25 83 31 31 6 72 22 92 35 19 14 63 33 96 44 34 10 83 30 110 44 27 14 56 25 64 25 9 0 36 13 61 29 25 16 66 37 91 47 25 9 58 26 73 37 15 10 43 23 62 28 19 5 47 20 62 33 15 13 45 29 66 36 21 6 53 24 70 39 36 30 153 101 168 101 5 0 26 15 46 34 21 18 49 37 62 41 13 4 44 22 70 41 98 72 127 92 151 104 14 8 37 26 52 42 14 15 33 28 41 28 9 0 24 11 34 23 10 13 30 30 43 37 25 13 78 55 155 123 23 20 47 37 52 37 5 0 19 10 30 23 12 12 53 49 92 81 39 33 71 63 71 68 0 5 11 13 25 18 14 5 29 18 33 29 4 10 48 57 97 103 50 45 120 113 155 149 181 186 240 249 240 257 0 5 25 36 56 68 31 33 68 79 82 104 14 25 39 57 54 72 15 14 28 33 28 41 0 8 11 22 25 31 14 9 34 33 44 54 11 20 47 73 80 117 34 44 61 85 61 91 0 6 12 21 26 35 15 13 35 42 45 64 10 22 43 78 73 125 31 47 56 93 56 103 0 11 13 31 30 47 16 15 39 52 50 83 11 30 27 57 34 60 12 5 56 83 56 99 0 3 -7 9 -16 12 -17 7 -74 -19 -74 -34 0 -6 -17 -17 -39 -26 -21 -8 -48 -26 -60 -40 -11 -13 -29 -24 -38 -24 -10 0 -31 -7 -47 -15 -15 -8 -33 -15 -38 -15 -5 0 -24 -11 -41 -24 -18 -13 -49 -29 -69 -35 -20 -7 -49 -22 -64 -34 -29 -23 -77 -50 -159 -90 -82 -39 -97 -47 -170 -87 -38 -21 -90 -48 -115 -60 -25 -12 -56 -32 -70 -44 -14 -13 -37 -26 -51 -29 -14 -4 -41 -18 -60 -32 -19 -13 -53 -34 -77 -45 -24 -11 -58 -31 -76 -45 -18 -14 -39 -25 -47 -25 -8 0 -34 -14 -58 -30 -25 -17 -56 -33 -70 -37 -60 -14 -96 -39 -174 -123 -29 -30 -69 -72 -89 -92 -21 -20 -38 -42 -38 -48 0 -5 -4 -10 -9 -10 -9 0 -38 -25 -166 -145 -44 -41 -88 -78 -97 -81 -9 -3 -19 -13 -22 -22 -3 -10 -21 -26 -38 -37 -18 -10 -65 -46 -104 -79 -39 -34 -84 -69 -100 -78 -16 -10 -48 -32 -71 -50 -89 -70 -110 -84 -225 -147 -24 -13 -58 -37 -76 -52 -18 -16 -45 -32 -60 -35 -15 -4 -40 -17 -55 -30 -15 -13 -46 -29 -68 -35 -22 -7 -44 -20 -49 -30 -11 -20 -179 -104 -229 -114 -19 -4 -44 -18 -57 -32 -12 -13 -44 -30 -71 -37 -26 -7 -66 -25 -87 -40 -21 -14 -49 -26 -61 -26 -13 0 -49 -14 -81 -30 -31 -17 -87 -38 -123 -47 -36 -9 -83 -24 -103 -35 -21 -10 -68 -25 -105 -34 -37 -8 -79 -22 -93 -29 -36 -20 -106 -42 -180 -55 -35 -6 -82 -18 -105 -25 -22 -7 -96 -23 -165 -35 -69 -12 -128 -24 -131 -26 -19 -11 -180 -34 -309 -44 -80 -6 -206 -17 -280 -26 -214 -23 -419 -24 -640 -3 -107 10 -278 26 -380 34 -112 10 -212 24 -252 36 -37 11 -107 24 -155 30 -48 6 -113 20 -143 30 -30 11 -97 29 -148 39 -51 11 -106 27 -122 35 -16 8 -62 22 -102 30 -40 9 -100 29 -133 44 -33 16 -85 36 -117 46 -31 9 -61 22 -68 29 -6 8 -27 17 -47 21 -20 3 -75 24 -122 45 -47 21 -97 41 -111 45 -14 4 -35 16 -47 25 -13 10 -59 30 -103 44 -44 15 -91 38 -105 51 -13 14 -30 25 -38 25 -8 0 -21 7 -28 17 -8 9 -34 25 -59 36 -25 10 -52 27 -60 36 -8 10 -35 26 -60 36 -25 11 -56 28 -70 40 -14 11 -45 29 -68 39 -23 10 -42 22 -42 27 0 4 -19 17 -42 29 -24 12 -52 30 -63 39 -11 10 -41 30 -67 45 -27 15 -48 31 -48 36 0 5 -15 17 -32 26 -18 9 -58 38 -88 64 -30 26 -75 60 -100 76 -25 16 -78 61 -117 99 -40 39 -89 85 -110 103 -37 31 -113 104 -143 137 -8 9 -42 43 -75 75 -33 33 -67 67 -76 76 -9 9 -26 25 -37 36 -11 11 -33 36 -48 54 -16 19 -48 54 -72 79 -23 24 -42 48 -42 53 0 5 -17 27 -37 49 -48 51 -96 112 -111 140 -7 12 -21 24 -31 28 -11 3 -25 21 -31 40 -6 19 -19 41 -28 47 -9 7 -35 40 -57 72 -102 151 -125 187 -125 195 0 5 -11 22 -24 38 -13 15 -33 48 -46 73 -12 25 -36 60 -51 78 -16 18 -29 40 -29 50 0 10 -11 34 -26 55 -14 21 -32 56 -40 79 -8 23 -21 49 -29 58 -8 9 -27 45 -41 81 -14 35 -34 73 -44 84 -10 11 -21 41 -25 68 -5 28 -18 61 -35 82 -15 19 -30 53 -34 77 -4 23 -20 65 -35 93 -16 27 -34 74 -40 103 -6 30 -22 72 -35 95 -14 23 -30 74 -37 112 -6 39 -20 84 -31 102 -10 17 -28 77 -38 133 -11 56 -28 116 -37 133 -9 18 -24 86 -34 152 -10 66 -25 152 -34 190 -25 110 -33 182 -50 455 -19 306 -23 490 -13 625 4 55 14 217 23 360 12 197 20 274 35 320 11 33 22 80 26 105 3 25 19 99 35 165 15 66 38 163 49 215 11 52 29 106 39 120 10 14 23 60 29 103 7 46 22 96 36 120 13 23 29 67 35 97 7 30 25 77 40 105 16 27 32 66 36 85 4 19 17 51 30 70 12 19 30 58 39 87 10 28 23 57 31 63 8 6 26 42 40 80 14 38 32 74 40 80 8 6 19 27 25 46 6 18 34 71 61 116 27 46 59 103 70 128 12 25 34 59 49 75 15 17 31 44 34 60 4 17 18 41 30 55 20 22 99 132 173 243 12 17 30 41 41 52 10 11 26 34 35 51 9 17 44 62 79 99 35 37 67 74 72 84 12 21 157 183 174 194 7 5 18 15 25 24 28 36 267 273 275 273 5 0 15 11 22 25 7 13 22 27 32 31 11 3 59 43 107 87 107 100 150 137 161 137 9 0 80 56 130 102 14 12 40 30 59 40 19 10 45 27 58 40 27 25 93 65 168 102 28 13 55 33 62 44 6 11 24 23 38 26 15 4 44 20 64 35 20 16 53 34 74 41 21 6 43 20 50 31 6 10 40 28 74 40 35 11 63 24 63 29 0 5 9 12 21 15 11 4 48 23 82 42 71 41 230 108 300 127 26 7 58 23 70 34 12 11 51 28 87 37 36 9 80 25 99 36 19 11 67 27 108 35 41 9 98 26 126 39 29 12 84 26 122 30 39 4 86 14 105 22 56 24 88 32 215 53 66 11 140 27 165 35 54 17 201 35 284 35 33 0 96 4 140 10 357 43 570 46 871 12 105 -11 252 -26 327 -32 75 -6 156 -17 180 -26 24 -8 102 -26 173 -39 72 -12 155 -32 185 -43 30 -11 93 -27 140 -35 47 -8 108 -24 135 -35 28 -11 75 -26 105 -32 30 -7 62 -18 70 -25 8 -7 57 -24 109 -39 57 -16 100 -34 107 -45 8 -10 31 -21 54 -25 22 -3 70 -22 106 -41 36 -19 74 -35 83 -35 10 0 35 -12 56 -26 21 -14 61 -35 89 -46 28 -11 58 -26 66 -33 8 -7 40 -23 71 -34 31 -12 64 -30 74 -41 9 -10 31 -22 47 -25 17 -4 47 -22 67 -40 20 -17 48 -35 63 -39 15 -3 42 -19 60 -34 18 -15 45 -33 59 -39 15 -6 38 -21 50 -33 13 -12 61 -46 107 -75 45 -30 104 -72 131 -94 27 -23 51 -41 54 -41 12 0 97 -62 97 -70 0 -5 27 -28 61 -51 34 -23 78 -58 98 -78 20 -20 48 -44 64 -54 15 -10 27 -24 27 -32 0 -9 12 -21 28 -28 31 -14 192 -169 192 -185 0 -6 10 -17 22 -23 12 -7 40 -32 63 -56 61 -68 122 -135 150 -164 14 -15 25 -30 25 -34 0 -4 25 -33 57 -64 31 -31 69 -77 85 -104 17 -26 38 -53 47 -60 10 -6 28 -31 39 -54 12 -23 30 -44 40 -47 10 -4 26 -21 36 -39 35 -67 52 -93 88 -139 21 -26 38 -51 38 -56 0 -5 20 -40 45 -78 25 -37 45 -73 45 -80 0 -6 7 -17 16 -25 8 -7 27 -36 41 -63 14 -28 33 -60 42 -71 10 -11 24 -36 31 -55 8 -19 24 -49 37 -66 13 -17 29 -52 37 -79 8 -26 23 -57 33 -69 11 -11 24 -42 31 -68 6 -25 23 -63 36 -83 14 -20 28 -53 32 -74 3 -20 19 -56 35 -81 15 -25 36 -77 44 -115 9 -39 25 -83 35 -100 10 -16 23 -57 30 -90 6 -33 20 -75 30 -92 11 -18 26 -67 35 -109 9 -42 20 -84 25 -94 16 -29 53 -192 64 -278 4 -30 16 -77 26 -105 12 -32 25 -112 34 -206 8 -84 19 -158 24 -163 11 -11 75 13 87 33 4 5 24 20 44 33 21 13 51 37 67 53 55 52 118 103 129 103 6 0 22 12 36 26 13 14 37 33 53 41 16 8 40 28 52 43 13 15 40 35 59 44 19 9 35 21 35 26 0 5 15 17 32 26 44 23 117 84 123 104 7 22 -12 116 -30 154 -9 17 -20 60 -25 96 -17 116 -29 168 -53 227 -14 32 -30 95 -37 141 -7 46 -19 90 -27 98 -8 8 -23 48 -34 89 -10 41 -25 85 -32 97 -8 13 -25 57 -37 98 -12 41 -30 84 -41 95 -21 24 -49 97 -49 130 0 13 -11 37 -25 53 -13 16 -28 47 -33 69 -5 23 -21 56 -35 74 -14 19 -32 58 -41 88 -9 30 -24 64 -35 75 -10 12 -24 38 -30 58 -7 20 -21 48 -32 62 -11 13 -26 44 -35 68 -8 23 -26 54 -39 68 -13 14 -31 43 -41 65 -9 22 -28 58 -43 80 -15 22 -32 49 -39 60 -60 102 -88 144 -108 168 -13 16 -24 34 -24 41 0 7 -13 25 -30 41 -16 16 -30 35 -30 42 0 8 -16 30 -35 50 -19 20 -35 40 -35 45 0 4 -15 25 -34 45 -18 21 -39 49 -46 62 -6 13 -51 71 -99 128 -47 57 -94 117 -104 133 -10 16 -27 32 -37 35 -10 3 -21 14 -24 23 -6 17 -87 107 -196 217 -27 28 -55 56 -62 63 -7 7 -38 37 -68 65 -30 29 -90 87 -135 130 -44 42 -87 79 -96 82 -9 3 -21 16 -27 29 -6 13 -21 28 -34 31 -13 4 -41 23 -63 42 -74 62 -114 98 -147 129 -18 18 -47 39 -65 48 -18 9 -37 25 -43 36 -6 11 -16 20 -22 20 -16 0 -119 67 -174 113 -25 20 -52 37 -60 37 -8 0 -30 16 -50 35 -19 19 -39 35 -44 35 -4 0 -28 15 -53 34 -24 19 -55 37 -68 41 -13 4 -35 17 -49 30 -14 12 -42 28 -63 35 -21 6 -50 22 -65 34 -15 12 -47 30 -72 40 -25 10 -56 28 -70 41 -14 12 -40 26 -58 30 -18 4 -45 17 -60 29 -15 12 -43 28 -62 36 -19 7 -62 28 -95 46 -33 17 -75 35 -94 39 -19 4 -57 20 -85 35 -28 15 -64 30 -81 34 -16 4 -57 20 -90 36 -91 44 -220 91 -291 106 -35 7 -76 22 -91 34 -16 11 -57 25 -93 30 -36 6 -108 23 -160 39 -52 16 -122 33 -155 39 -33 5 -87 20 -120 32 -33 12 -103 26 -155 31 -52 5 -131 18 -176 29 -117 27 -217 38 -508 55 -226 13 -546 17 -731 9z"></path> <path d="M5760 10825 c-80 -8 -159 -21 -177 -29 -17 -8 -71 -20 -120 -26 -183 -23 -239 -33 -268 -48 -16 -8 -67 -23 -112 -33 -45 -10 -99 -27 -120 -38 -22 -11 -75 -26 -117 -34 -44 -9 -91 -24 -107 -36 -15 -12 -34 -21 -41 -21 -28 0 -133 -31 -148 -44 -8 -7 -31 -19 -50 -26 -62 -23 -327 -157 -390 -197 -19 -13 -51 -28 -70 -34 -19 -7 -51 -25 -70 -40 -19 -16 -39 -29 -46 -29 -6 0 -21 -11 -34 -24 -12 -14 -36 -28 -52 -32 -17 -3 -47 -21 -67 -39 -20 -18 -50 -39 -67 -48 -17 -9 -39 -27 -48 -41 -9 -15 -26 -26 -37 -26 -12 0 -34 -13 -49 -30 -15 -16 -33 -30 -38 -30 -6 0 -19 -10 -29 -23 -10 -13 -31 -32 -48 -42 -58 -38 -151 -119 -246 -217 -53 -54 -101 -98 -107 -98 -7 0 -12 -4 -12 -9 0 -5 -19 -30 -42 -57 -101 -113 -181 -202 -218 -241 -22 -24 -46 -56 -55 -73 -9 -16 -20 -30 -25 -30 -5 0 -18 -17 -29 -38 -11 -21 -27 -44 -36 -52 -9 -8 -25 -30 -35 -49 -10 -20 -32 -51 -49 -68 -17 -18 -31 -41 -31 -51 0 -11 -16 -35 -35 -55 -19 -20 -35 -43 -35 -51 0 -8 -10 -27 -23 -43 -12 -15 -31 -46 -42 -68 -11 -22 -29 -51 -41 -65 -12 -14 -29 -48 -38 -77 -10 -28 -23 -57 -31 -63 -8 -7 -23 -36 -34 -64 -11 -29 -31 -70 -45 -90 -13 -20 -28 -51 -32 -69 -3 -18 -17 -52 -29 -77 -13 -25 -31 -73 -40 -105 -9 -33 -25 -76 -36 -96 -10 -20 -25 -70 -33 -110 -8 -41 -24 -94 -36 -117 -12 -24 -28 -77 -35 -118 -8 -41 -28 -125 -45 -187 -16 -61 -30 -132 -30 -155 0 -24 -9 -88 -20 -142 -70 -343 -63 -958 15 -1365 8 -44 19 -108 24 -141 5 -34 14 -70 19 -80 5 -11 19 -68 31 -127 12 -60 31 -125 41 -145 11 -20 20 -46 20 -57 0 -31 36 -142 58 -179 11 -18 23 -53 27 -77 4 -24 17 -62 30 -84 12 -22 28 -58 35 -80 7 -22 23 -59 37 -83 13 -24 31 -65 39 -92 8 -27 25 -62 38 -77 13 -15 29 -46 36 -68 7 -22 25 -56 41 -75 15 -19 30 -46 34 -60 4 -14 17 -36 30 -50 13 -14 32 -43 43 -65 11 -22 29 -48 40 -59 12 -10 24 -31 27 -46 3 -16 13 -34 21 -41 9 -7 22 -26 31 -43 22 -42 80 -119 175 -231 19 -22 42 -51 51 -65 24 -35 71 -89 146 -168 36 -37 84 -88 107 -114 46 -51 195 -192 268 -253 26 -22 67 -57 90 -78 24 -20 48 -37 54 -37 10 0 34 -19 142 -108 19 -16 46 -35 60 -42 14 -7 31 -22 39 -32 7 -11 34 -28 58 -39 25 -11 59 -31 75 -44 16 -14 36 -25 43 -25 8 0 30 -14 48 -30 19 -17 39 -30 45 -30 21 0 62 -23 62 -35 0 -12 20 -22 87 -44 18 -5 50 -23 70 -39 21 -17 54 -33 73 -37 19 -4 46 -16 60 -26 22 -17 79 -40 246 -99 28 -10 70 -28 95 -41 24 -12 73 -28 109 -36 36 -7 86 -24 112 -37 26 -14 82 -30 125 -37 43 -6 90 -18 105 -25 27 -14 161 -43 298 -65 41 -6 93 -17 115 -24 66 -21 468 -38 771 -32 261 5 419 19 524 47 19 5 93 19 165 30 71 12 154 30 185 40 30 10 84 22 120 25 36 4 81 16 100 26 40 22 154 59 180 59 9 0 29 9 43 20 14 11 54 27 91 35 36 8 81 25 101 36 19 12 54 25 77 31 45 10 168 75 168 88 0 5 -26 28 -57 52 -103 78 -162 143 -235 258 -23 36 -56 88 -75 115 -18 28 -37 74 -43 104 -21 114 -67 146 -138 98 -21 -14 -66 -33 -102 -43 -36 -9 -73 -24 -83 -33 -11 -9 -50 -21 -88 -27 -38 -7 -88 -21 -111 -32 -24 -11 -95 -30 -158 -42 -63 -12 -131 -27 -150 -34 -75 -28 -333 -46 -675 -47 -353 0 -535 13 -660 50 -55 16 -137 34 -183 40 -54 7 -92 17 -108 30 -13 10 -48 22 -77 26 -28 4 -72 18 -97 31 -24 14 -80 34 -125 46 -44 11 -91 28 -105 38 -14 9 -41 22 -61 29 -20 6 -51 23 -70 37 -18 13 -52 30 -74 36 -22 6 -51 19 -65 29 -14 9 -48 26 -77 39 -28 12 -61 32 -73 46 -13 13 -39 29 -59 35 -20 7 -42 20 -49 31 -7 10 -28 24 -46 32 -18 7 -48 27 -67 43 -19 17 -49 38 -66 47 -18 9 -33 21 -33 26 0 5 -15 17 -32 26 -18 9 -51 32 -73 51 -22 18 -53 45 -70 59 -16 13 -54 45 -83 69 -29 25 -57 45 -62 45 -6 0 -10 6 -10 14 0 8 -22 34 -50 59 -89 80 -294 317 -336 389 -6 10 -20 29 -31 41 -12 12 -28 36 -36 52 -8 17 -27 41 -41 54 -14 14 -26 30 -26 37 0 7 -14 25 -31 41 -16 15 -39 49 -50 75 -12 26 -29 54 -40 64 -10 9 -19 22 -19 29 0 7 -16 42 -35 78 -19 36 -35 72 -35 80 0 8 -15 37 -33 63 -19 27 -42 72 -52 99 -11 28 -27 61 -36 75 -10 14 -25 54 -34 90 -9 36 -27 88 -40 116 -14 28 -27 71 -31 95 -4 24 -17 71 -29 104 -13 33 -30 107 -39 164 -9 57 -22 113 -28 124 -27 51 -38 183 -44 532 -8 400 4 631 35 725 20 58 41 162 41 198 0 12 11 55 25 95 14 39 34 107 45 149 10 42 28 94 38 115 11 21 25 62 31 92 6 29 22 66 36 82 13 16 27 49 31 74 3 25 17 62 31 81 42 63 110 188 123 227 6 21 18 41 25 43 7 3 22 26 33 52 11 26 32 58 45 70 14 13 28 39 32 58 3 19 12 37 20 40 7 3 29 29 49 57 65 92 87 122 112 148 13 14 24 29 24 33 0 25 395 431 449 461 10 5 31 25 46 43 15 17 33 32 40 32 7 0 25 16 39 35 15 19 33 35 40 35 7 0 21 10 32 21 10 12 38 30 62 40 23 10 42 23 42 29 0 6 25 22 55 36 30 14 55 29 55 33 0 4 24 21 53 36 28 16 64 38 79 51 15 12 42 26 60 29 18 4 49 21 68 36 19 16 39 29 45 29 6 0 38 16 70 35 32 20 78 40 101 45 24 6 59 21 78 34 19 13 57 26 85 30 27 3 60 15 73 26 13 10 66 29 118 41 52 12 106 30 120 39 34 24 48 27 179 45 63 9 126 22 140 29 25 13 128 25 396 46 161 13 388 12 520 0 55 -6 151 -15 214 -20 69 -6 126 -17 145 -26 17 -10 83 -23 150 -30 96 -10 123 -17 141 -34 14 -13 51 -27 96 -37 41 -8 92 -22 114 -30 22 -8 75 -28 118 -43 43 -16 84 -33 91 -39 7 -6 44 -20 82 -32 38 -11 76 -27 84 -34 8 -8 43 -26 78 -41 34 -14 62 -31 62 -35 0 -5 24 -20 53 -34 54 -26 150 -82 214 -126 21 -14 65 -43 98 -64 33 -22 92 -65 130 -97 39 -31 93 -76 120 -98 119 -97 161 -135 173 -157 7 -12 17 -23 23 -23 12 0 103 -93 132 -134 10 -14 23 -26 30 -26 7 -1 24 -17 39 -38 48 -67 147 -196 173 -227 14 -16 41 -48 59 -70 19 -22 41 -58 50 -80 10 -22 28 -51 40 -65 13 -14 27 -36 31 -50 4 -14 17 -36 30 -50 12 -14 28 -41 34 -61 7 -20 20 -44 30 -54 11 -9 25 -31 32 -48 7 -18 25 -50 40 -72 15 -23 32 -61 39 -85 6 -25 21 -61 32 -80 22 -36 61 -138 105 -270 13 -41 33 -97 44 -125 11 -27 26 -90 34 -140 7 -49 20 -106 28 -125 27 -64 42 -186 69 -523 17 -226 -19 -828 -55 -909 -19 -42 -22 -88 -7 -88 6 0 10 4 10 10 0 5 25 25 55 45 30 19 55 39 55 45 0 5 17 19 38 30 67 37 163 109 247 185 56 51 87 75 114 90 14 7 39 27 55 44 17 17 35 31 42 31 7 0 22 12 34 28 12 15 34 34 49 42 34 19 82 55 127 97 l34 31 0 179 c0 234 -24 556 -45 614 -23 60 -33 116 -44 237 -5 57 -14 109 -19 115 -6 7 -22 59 -36 116 -14 56 -30 109 -36 116 -6 8 -24 60 -39 117 -16 57 -38 119 -49 138 -11 19 -24 53 -27 75 -4 22 -18 58 -30 80 -13 22 -31 66 -40 97 -9 32 -21 61 -27 64 -6 4 -24 36 -40 73 -17 36 -36 73 -43 81 -8 8 -23 40 -35 72 -11 31 -27 59 -35 62 -8 3 -19 23 -26 45 -7 23 -22 47 -35 56 -12 8 -28 31 -34 52 -7 21 -23 49 -36 63 -12 14 -30 41 -38 60 -8 19 -29 48 -45 63 -17 16 -31 34 -31 41 0 7 -9 21 -21 32 -12 10 -30 36 -40 56 -11 21 -28 42 -39 48 -11 6 -27 25 -36 43 -9 18 -32 50 -52 72 -91 104 -161 181 -199 221 -24 24 -43 47 -43 51 0 5 -13 17 -29 26 -17 10 -32 26 -35 35 -4 10 -35 42 -70 71 -35 29 -69 63 -76 76 -7 13 -25 28 -39 33 -14 6 -55 38 -91 71 -36 34 -81 71 -102 81 -20 11 -38 23 -40 28 -1 4 -20 18 -40 31 -21 12 -38 27 -38 31 0 5 -21 21 -47 36 -27 15 -59 37 -73 49 -14 12 -39 27 -57 34 -17 7 -40 22 -50 33 -9 11 -31 25 -48 33 -17 7 -44 24 -59 38 -16 15 -43 29 -62 33 -18 3 -40 14 -49 24 -9 10 -42 28 -73 41 -31 12 -61 27 -67 33 -24 27 -249 126 -286 126 -9 0 -26 11 -38 24 -15 15 -43 28 -82 35 -32 7 -80 23 -107 36 -26 14 -69 30 -97 36 -27 6 -72 20 -100 31 -27 12 -90 29 -139 40 -49 10 -104 25 -124 34 -19 8 -92 21 -161 30 -69 8 -146 22 -171 30 -87 28 -285 43 -632 48 -250 3 -382 1 -488 -9z"></path> <path d="M15946 10180 c-15 -5 -36 -15 -45 -23 -9 -8 -34 -22 -55 -31 -22 -9 -45 -25 -53 -36 -7 -10 -38 -30 -68 -44 -30 -14 -55 -30 -55 -36 0 -6 -19 -20 -42 -31 -43 -20 -89 -49 -142 -91 -39 -30 -141 -93 -191 -117 -22 -10 -51 -30 -64 -45 -14 -14 -28 -26 -33 -26 -4 0 -31 -16 -58 -35 -27 -19 -54 -35 -59 -35 -5 0 -28 -16 -51 -35 -23 -19 -53 -38 -66 -41 -13 -3 -35 -21 -49 -40 -16 -21 -35 -34 -49 -34 -13 0 -35 -14 -53 -35 -17 -19 -38 -35 -46 -35 -8 0 -31 -13 -52 -30 -21 -16 -43 -30 -50 -30 -7 0 -32 -15 -57 -34 -24 -19 -61 -41 -82 -50 -21 -9 -51 -27 -68 -41 -16 -14 -36 -25 -43 -25 -8 0 -24 -13 -37 -30 -12 -16 -31 -33 -42 -36 -12 -3 -37 -18 -56 -34 -20 -15 -53 -37 -75 -49 -49 -27 -125 -74 -198 -123 -52 -34 -107 -94 -107 -115 0 -5 -13 -19 -30 -31 -16 -12 -33 -35 -36 -50 -4 -15 -17 -45 -30 -67 -15 -26 -29 -78 -39 -140 -9 -55 -24 -129 -35 -165 -11 -36 -25 -108 -31 -160 -6 -52 -24 -133 -39 -180 -15 -47 -31 -112 -35 -145 -12 -109 -25 -174 -46 -219 -11 -27 -23 -86 -29 -148 -8 -85 -16 -115 -44 -173 -40 -81 -54 -96 -116 -123 -25 -11 -52 -27 -59 -36 -8 -10 -28 -24 -45 -33 -17 -9 -39 -26 -49 -39 -10 -13 -36 -28 -58 -34 -22 -6 -43 -18 -46 -26 -3 -8 -25 -26 -48 -40 -24 -14 -49 -32 -57 -41 -7 -9 -32 -24 -55 -34 -23 -10 -46 -27 -52 -38 -6 -10 -25 -22 -41 -26 -17 -4 -38 -17 -46 -30 -9 -14 -26 -27 -37 -31 -12 -3 -35 -18 -52 -33 -16 -15 -51 -40 -77 -55 -27 -15 -48 -31 -48 -35 0 -5 -32 -28 -71 -52 -38 -24 -85 -54 -102 -66 -18 -13 -45 -31 -61 -40 -16 -10 -46 -33 -66 -50 -21 -18 -42 -33 -47 -33 -6 0 -18 -9 -29 -21 -10 -12 -40 -32 -66 -45 -26 -13 -49 -28 -53 -33 -6 -10 -92 -71 -100 -71 -6 0 -92 -66 -112 -85 -8 -9 -31 -22 -50 -30 -19 -8 -47 -28 -63 -45 -15 -16 -37 -30 -48 -30 -12 0 -28 -10 -36 -21 -8 -12 -31 -31 -49 -43 -86 -52 -147 -96 -156 -114 -6 -11 -25 -22 -43 -26 -18 -3 -44 -18 -58 -32 -26 -26 -154 -114 -166 -114 -4 0 -23 -15 -44 -32 -21 -18 -70 -53 -109 -77 -39 -25 -79 -53 -88 -63 -9 -10 -36 -29 -59 -43 -24 -14 -44 -29 -44 -33 0 -5 -21 -18 -47 -31 -25 -12 -55 -33 -65 -47 -11 -13 -25 -24 -33 -24 -7 0 -32 -16 -55 -35 -23 -19 -46 -35 -50 -35 -4 0 -27 -16 -50 -35 -23 -19 -48 -35 -56 -35 -8 0 -24 -12 -37 -26 -12 -14 -39 -35 -60 -45 -20 -11 -50 -31 -65 -44 -35 -32 -87 -69 -133 -94 -19 -11 -41 -27 -49 -36 -7 -9 -35 -25 -62 -37 -27 -11 -55 -30 -63 -41 -8 -11 -30 -29 -48 -41 -73 -44 -143 -94 -161 -115 -11 -11 -25 -21 -33 -21 -7 0 -28 -14 -46 -31 -30 -28 -94 -73 -156 -109 -48 -28 -150 -100 -156 -110 -4 -6 -24 -19 -45 -30 -22 -11 -50 -29 -62 -41 -26 -23 -71 -55 -138 -95 -25 -15 -61 -41 -81 -58 -19 -17 -61 -47 -92 -66 -32 -19 -76 -50 -98 -67 -23 -18 -46 -33 -53 -33 -7 0 -25 -13 -41 -30 -16 -16 -34 -30 -41 -30 -6 0 -34 -18 -60 -40 -27 -22 -54 -40 -61 -40 -7 0 -28 -16 -47 -35 -20 -19 -41 -35 -47 -35 -6 0 -31 -18 -55 -40 -24 -22 -49 -40 -56 -40 -23 0 -115 -106 -143 -165 -37 -78 -40 -169 -8 -241 12 -27 24 -61 27 -76 6 -28 76 -116 105 -132 9 -5 25 -17 36 -27 22 -19 153 -59 196 -59 53 0 183 40 209 64 14 14 44 32 66 41 23 9 54 30 68 46 14 16 32 29 40 29 7 0 40 18 72 40 33 22 63 40 67 40 11 0 157 89 173 105 7 6 27 18 46 25 18 8 48 26 66 42 18 15 45 31 60 34 15 4 44 22 65 40 20 19 43 34 50 34 8 0 31 13 53 30 21 16 44 30 50 30 6 0 29 13 51 29 21 15 60 38 86 49 26 12 50 28 53 36 3 8 30 24 60 36 30 12 54 27 54 32 0 5 17 16 38 24 20 9 48 26 62 39 14 13 43 31 65 40 22 9 51 27 65 40 14 12 42 29 64 36 21 8 41 20 44 27 2 7 28 24 56 39 28 14 60 33 71 42 29 25 133 85 185 108 25 11 51 27 59 36 7 10 32 26 55 37 22 11 68 38 101 60 33 22 73 48 88 58 16 9 58 36 94 60 36 23 70 42 76 42 6 0 25 11 44 26 18 14 47 30 63 36 17 5 30 14 30 19 0 5 25 20 56 34 31 14 72 38 90 55 19 16 41 30 49 30 8 0 29 13 47 29 18 15 49 33 69 40 20 6 47 23 59 36 13 14 31 25 41 25 10 0 39 18 64 40 25 22 55 40 65 40 11 0 34 13 52 28 18 16 48 34 66 40 19 7 49 25 68 42 19 16 40 30 45 30 6 0 25 11 41 25 17 14 49 35 72 47 22 11 54 31 69 44 16 13 37 24 46 24 10 0 38 16 62 35 24 19 49 35 56 35 6 0 31 15 55 33 24 18 58 39 76 46 18 8 37 22 43 32 5 10 28 23 52 30 23 6 56 24 72 39 17 16 50 38 75 49 48 22 52 24 148 89 36 23 70 42 76 42 7 0 29 16 49 35 20 19 43 35 50 35 7 0 31 13 53 29 21 16 58 35 81 41 24 7 50 24 58 37 9 12 24 23 34 23 11 0 41 16 67 36 26 20 61 42 78 49 17 7 42 25 55 39 14 14 32 26 42 26 10 0 31 11 47 25 17 14 47 32 69 41 21 9 54 28 73 43 19 15 52 34 73 44 21 9 40 24 43 32 3 7 21 19 40 25 19 7 39 20 44 30 14 26 103 51 154 44 23 -4 91 -19 151 -34 61 -16 142 -31 180 -35 39 -4 102 -17 140 -30 84 -27 107 -32 209 -45 43 -5 121 -23 172 -40 52 -16 111 -30 132 -30 58 0 151 -18 210 -42 45 -18 68 -20 165 -16 89 4 119 9 147 25 19 12 53 26 75 33 37 12 160 85 195 117 22 20 139 93 149 93 5 0 27 15 50 33 52 41 154 107 167 107 6 0 29 16 52 35 22 20 57 42 76 50 19 8 40 24 45 34 6 10 25 24 42 30 17 6 44 22 61 36 16 14 36 25 43 25 8 0 34 18 59 39 25 22 59 42 76 46 17 4 38 18 46 31 9 13 22 24 28 24 16 0 146 83 176 113 14 14 44 34 68 46 23 12 42 26 42 31 0 6 24 21 54 34 29 13 57 29 60 35 4 6 23 18 43 26 19 8 48 26 65 40 17 14 46 32 65 40 20 8 50 27 69 42 19 16 49 40 68 55 18 15 54 36 80 47 25 11 46 25 46 30 0 5 15 18 33 28 47 29 97 133 97 204 0 30 -6 64 -13 75 -6 12 -22 40 -35 63 -15 27 -34 46 -60 56 -20 9 -46 25 -57 35 -16 15 -51 23 -145 35 -69 9 -159 26 -200 39 -41 13 -124 32 -185 41 -60 9 -130 26 -154 36 -24 11 -80 23 -125 28 -44 6 -119 21 -166 34 -47 14 -132 30 -190 37 -57 6 -116 18 -130 25 -28 15 -224 55 -268 55 -40 0 -125 43 -145 73 -22 34 -21 59 2 106 12 22 28 97 41 182 11 79 32 185 47 234 14 50 31 128 38 175 7 47 21 114 33 150 11 36 28 114 37 174 9 60 23 123 30 140 7 17 19 78 25 136 7 58 23 141 35 185 37 128 48 198 41 267 -8 70 -16 89 -63 141 -50 56 -97 77 -173 76 -36 0 -78 -5 -94 -9z"></path> <path d="M6060 9122 c-60 -3 -451 -70 -509 -87 -25 -7 -64 -20 -86 -29 -22 -8 -54 -15 -71 -16 -17 0 -55 -13 -85 -28 -30 -16 -69 -32 -87 -35 -18 -4 -52 -20 -75 -36 -24 -16 -65 -36 -93 -44 -27 -8 -67 -26 -88 -41 -21 -14 -44 -26 -51 -26 -7 0 -32 -16 -55 -35 -23 -19 -48 -35 -56 -35 -7 0 -28 -13 -46 -29 -18 -15 -47 -35 -64 -44 -17 -9 -34 -23 -38 -32 -3 -9 -26 -25 -50 -36 -25 -11 -47 -27 -50 -37 -5 -16 -24 -32 -120 -102 -21 -16 -122 -118 -204 -208 -23 -26 -56 -60 -71 -77 -16 -16 -32 -40 -36 -53 -3 -12 -15 -27 -26 -32 -10 -6 -19 -17 -19 -24 0 -23 -26 -65 -53 -86 -14 -11 -29 -31 -32 -43 -4 -12 -20 -39 -37 -60 -16 -20 -34 -52 -40 -70 -6 -17 -20 -44 -30 -59 -10 -15 -27 -52 -38 -83 -11 -31 -31 -70 -44 -86 -14 -16 -28 -46 -32 -67 -3 -20 -19 -62 -34 -92 -15 -30 -33 -82 -39 -115 -7 -33 -18 -78 -26 -100 -15 -44 -28 -105 -45 -205 -6 -36 -18 -108 -27 -160 -31 -175 -32 -426 -4 -600 6 -36 15 -94 20 -130 22 -158 34 -217 47 -244 8 -15 23 -69 34 -118 11 -50 30 -109 44 -132 13 -22 26 -62 30 -88 4 -29 18 -61 37 -84 16 -20 32 -49 35 -63 9 -44 26 -81 36 -81 5 0 17 -17 26 -37 36 -79 105 -194 122 -206 10 -7 26 -31 35 -54 9 -23 28 -49 41 -58 13 -8 24 -23 24 -32 0 -9 15 -31 32 -48 18 -17 51 -52 73 -78 22 -25 58 -63 79 -84 103 -99 128 -122 192 -181 70 -64 116 -98 169 -128 17 -9 47 -32 68 -50 20 -19 45 -34 55 -34 10 0 31 -13 46 -29 16 -16 40 -32 55 -36 14 -4 44 -21 66 -39 22 -19 54 -36 71 -40 17 -4 46 -18 65 -31 18 -14 49 -28 68 -31 20 -3 63 -19 96 -35 34 -16 98 -38 144 -49 46 -12 93 -28 105 -36 19 -12 85 -24 256 -47 19 -3 55 -12 79 -21 34 -13 96 -18 285 -23 254 -6 435 5 496 30 19 8 80 21 135 27 63 8 117 21 146 36 25 12 74 28 110 34 35 6 87 24 114 39 28 16 74 34 102 40 29 7 69 26 88 41 20 16 50 32 67 35 17 4 49 20 71 36 22 16 45 29 52 29 7 0 30 13 51 28 21 15 55 34 74 42 19 7 47 26 62 42 15 15 32 28 37 28 6 0 39 24 73 53 35 28 83 68 108 88 67 55 279 269 325 328 22 29 47 60 56 69 9 10 24 33 34 52 9 19 26 45 38 57 26 29 82 118 105 168 11 22 31 57 45 78 14 21 31 55 38 75 6 20 20 47 30 60 10 13 28 56 40 95 12 40 28 79 35 87 7 9 19 40 25 70 6 30 22 78 34 105 12 28 27 73 33 100 6 28 25 113 44 190 l33 140 -1 340 c-1 292 -4 348 -18 395 -10 30 -26 100 -37 155 -11 55 -29 127 -40 160 -11 33 -30 91 -41 130 -10 38 -28 83 -38 100 -10 16 -24 50 -31 75 -7 25 -20 54 -30 65 -10 11 -27 45 -39 75 -25 65 -93 187 -165 298 -16 25 -38 60 -47 77 -9 18 -28 39 -42 49 -14 9 -26 22 -26 29 0 38 -378 413 -461 457 -13 7 -35 24 -49 37 -42 41 -119 93 -163 110 -23 9 -55 27 -70 40 -16 13 -35 23 -43 23 -8 0 -25 11 -37 24 -12 13 -47 31 -78 40 -31 8 -62 23 -69 32 -19 22 -59 41 -116 55 -27 6 -58 20 -69 29 -11 10 -55 23 -100 30 -44 7 -98 22 -119 33 -22 11 -94 28 -160 38 -67 10 -143 25 -171 34 -34 11 -104 18 -220 21 -93 2 -188 6 -210 7 -22 1 -60 1 -85 -1z m450 -823 c36 -5 92 -18 125 -29 33 -10 86 -24 119 -30 32 -7 86 -25 120 -41 33 -16 68 -29 76 -29 8 0 33 -14 54 -30 22 -17 45 -30 51 -30 7 0 43 -20 81 -45 37 -25 74 -45 81 -45 8 0 16 -7 20 -15 3 -9 23 -25 44 -35 21 -11 43 -29 48 -39 6 -10 35 -33 64 -49 30 -17 65 -45 78 -61 13 -17 47 -55 75 -84 28 -28 72 -81 98 -117 26 -35 56 -70 67 -78 10 -7 19 -18 19 -23 0 -5 20 -39 45 -76 25 -36 45 -71 45 -77 0 -7 13 -33 29 -57 17 -24 34 -64 40 -87 5 -24 16 -51 24 -60 18 -21 47 -107 47 -139 0 -14 9 -45 19 -71 42 -102 46 -144 46 -482 0 -311 -1 -327 -22 -380 -12 -30 -31 -90 -43 -133 -11 -43 -33 -104 -49 -135 -15 -31 -31 -70 -35 -86 -4 -15 -15 -40 -25 -55 -10 -14 -44 -74 -75 -133 -33 -63 -63 -108 -72 -108 -8 0 -19 -12 -25 -27 -5 -16 -21 -39 -34 -53 -13 -14 -39 -41 -57 -61 -91 -99 -202 -209 -211 -209 -10 0 -62 -41 -125 -99 -20 -18 -54 -40 -76 -48 -22 -7 -50 -22 -61 -32 -11 -10 -36 -23 -55 -30 -19 -6 -43 -20 -55 -30 -24 -23 -158 -71 -305 -111 -58 -16 -125 -36 -150 -46 -39 -16 -82 -18 -335 -19 -279 0 -292 1 -330 22 -23 12 -79 27 -125 33 -56 8 -109 24 -156 46 -39 19 -80 34 -90 34 -11 0 -44 16 -74 35 -30 19 -62 35 -71 35 -10 0 -30 11 -46 23 -15 13 -55 38 -87 56 -33 18 -70 41 -84 52 -14 10 -29 19 -34 19 -8 0 -99 82 -159 143 -15 16 -31 32 -36 37 -4 5 -19 19 -31 32 -69 67 -146 157 -162 189 -11 20 -26 39 -34 42 -7 3 -26 30 -41 59 -51 102 -80 154 -102 185 -13 17 -29 55 -37 84 -8 30 -24 79 -36 109 -12 30 -26 78 -32 105 -5 28 -21 88 -36 135 -27 84 -27 89 -27 360 l0 275 27 65 c15 36 34 99 42 140 8 41 28 105 45 142 17 36 31 73 31 81 0 8 9 26 20 40 12 15 27 48 35 75 8 27 23 57 34 66 11 10 25 32 32 49 20 49 124 189 182 246 20 20 37 42 37 48 0 7 10 18 22 24 12 6 33 25 47 42 42 50 74 77 106 91 17 7 39 25 48 40 10 14 23 26 30 26 8 0 38 18 67 40 29 22 59 40 66 40 7 0 31 15 53 34 23 19 51 38 64 42 12 3 33 17 47 29 14 13 54 31 89 40 35 9 73 22 85 30 11 8 41 18 66 24 25 6 93 22 151 36 58 14 139 29 180 34 89 11 428 4 519 -10z"></path> <path d="M6085 7379 c-27 -4 -79 -11 -115 -15 -42 -4 -77 -14 -100 -29 -19 -13 -60 -35 -90 -48 -30 -13 -64 -34 -74 -46 -11 -11 -24 -21 -31 -21 -6 0 -22 -12 -36 -26 -13 -14 -36 -32 -50 -39 -14 -8 -32 -28 -39 -44 -7 -17 -21 -33 -32 -37 -11 -3 -27 -22 -35 -42 -8 -20 -30 -54 -49 -76 -19 -22 -34 -45 -34 -51 0 -7 -13 -37 -30 -68 -37 -70 -52 -178 -52 -377 1 -144 19 -277 42 -305 6 -7 29 -49 52 -92 73 -142 79 -151 104 -168 13 -8 24 -21 24 -28 0 -7 12 -21 28 -30 15 -10 54 -40 87 -67 33 -28 76 -57 95 -66 19 -9 60 -29 91 -45 34 -17 92 -35 145 -44 49 -8 107 -19 129 -25 50 -12 144 -13 198 -1 23 5 78 17 122 26 75 16 210 75 294 128 19 12 67 55 108 95 41 39 78 72 83 72 6 0 12 11 16 25 3 14 15 30 25 35 10 6 23 28 29 49 5 21 23 55 40 76 16 20 32 54 36 74 3 20 18 79 32 131 37 133 36 280 -1 395 -14 44 -29 96 -32 116 -3 20 -19 53 -35 73 -16 21 -32 50 -35 66 -4 17 -11 33 -17 36 -5 3 -18 20 -28 37 -53 86 -188 200 -320 270 -30 16 -63 36 -72 45 -11 9 -52 18 -105 24 -49 5 -107 13 -131 18 -49 12 -165 11 -237 -1z"></path>  </g> </svg>