<svg xmlns="http://www.w3.org/2000/svg" viewBox="0 0 233 210">
  <path d="M96.3 14c-4.1 2.5-4.8 3.8-7.4 15.4-2 8.7-2.6 9.9-5.2 11.2-2.6 1.4-3.5 1.3-11-1.2-9.3-3.1-15.4-3.5-19-1.1-2.6 1.7-17.4 26.1-18.8 31-1.6 5.8.5 10 8.6 17.4 6.7 6.1 7.5 7.1 7.5 10.4s-.8 4.3-7.4 10.3c-7.9 7-10.3 11.3-9.2 16.4 1 4.2 16.1 29.5 19 31.6 3.5 2.7 9.3 2.4 19.3-.8 7.5-2.4 8.5-2.5 11.1-1.2 2.4 1.3 3 2.6 5.1 11.3 2.8 11.8 3.3 12.9 7.4 15.3 2.8 1.8 5.1 2 20.2 2 23.3 0 23.7-.2 27.6-17.4 2-8.6 2.6-9.9 5.1-11.2s3.6-1.2 12.9 1.6c12.1 3.6 16.3 3.1 20.2-2.3 3.9-5.2 15.5-26 16.2-28.9 1.2-4.9-1.2-9.3-9.1-16.3-6.7-6-7.4-7-7.4-10.4 0-3.3.7-4.3 7.1-10.1 7.6-6.8 10.4-11.6 9.5-16.2-.6-3-12.1-23.9-16.3-29.5-4-5.5-8.4-6-20.3-2.3-9.3 2.9-10.2 3-12.9 1.6-2.5-1.4-3.1-2.5-4.5-9.3-2.5-11.5-3.8-14.5-7.5-17-3.2-2.2-4.4-2.3-20.5-2.3-15.2 0-17.5.2-20.3 2m34 23.7c1.7 7.2 3.2 11.2 4.4 12.1 5.5 4 13.9 8.2 16.2 8.2 1.5 0 6.6-1.3 11.4-2.9l8.7-3 1.4 2.2c3.7 5.9 9.6 16.6 9.6 17.4 0 .4-3.6 4.2-8 8.3l-8 7.5v19l8 7.5c4.4 4.2 8 7.9 8 8.3s-2.3 4.8-5.1 9.7c-3.3 6-5.6 9-6.8 9-1 0-5.1-1.1-9.1-2.5-9.6-3.3-11.6-3.2-18.6.9-9.6 5.7-9.3 5.3-12.1 16.8l-2.5 10.8h-22.6l-1.6-7.2c-.9-4-1.9-8.7-2.2-10.5-.4-1.8-1.4-3.8-2.3-4.5-4.3-3.7-14.2-8.8-16.8-8.8-1.6 0-6.9 1.3-11.8 3-4.9 1.6-8.9 2.9-9 2.7C57 133.9 51 122.8 51 122.3s3.6-4.2 8-8.3l8-7.5v-19L59 80c-4.4-4.1-8-7.9-8-8.3 0-.8 5.9-11.5 9.6-17.4l1.4-2.2 8.7 3c4.8 1.6 9.9 2.9 11.4 2.9 2.3 0 10.5-4.1 16.5-8.4 2-1.4 2.5-3 5.5-17.4l1.1-5.2h22.6z"/>
  <path d="M105.9 68.9C96 72.8 90 79.7 87.3 90.4c-5.5 22.4 17 42.7 38.8 35.1 10.3-3.7 16.9-11 19.6-22 1.5-6 1.5-7 0-13-2.7-11-9.3-18.3-19.6-22-5.8-2-14.5-1.8-20.2.4m18.8 15.7c9.1 5.9 8.1 20.7-1.7 25.6-13.2 6.6-26.9-9.1-18.7-21.3 4.4-6.7 13.9-8.7 20.4-4.3"/>
</svg>
