<?xml version="1.0" standalone="no"?>
<!DOCTYPE svg PUBLIC "-//W3C//DTD SVG 20010904//EN"
 "http://www.w3.org/TR/2001/REC-SVG-20010904/DTD/svg10.dtd">
<svg version="1.0" xmlns="http://www.w3.org/2000/svg"
 width="651.000000pt" height="666.000000pt" viewBox="0 0 651.000000 666.000000"
 preserveAspectRatio="xMidYMid meet">
<g transform="translate(0.000000,666.000000) scale(0.100000,-0.100000)"
fill="#000000" stroke="none">
<path d="M4338 5712 c-152 -152 -281 -287 -287 -298 -6 -12 -18 -43 -27 -70
-17 -51 -16 -74 10 -249 9 -55 22 -143 30 -195 8 -52 18 -110 22 -128 7 -34 5
-36 -584 -625 -392 -393 -597 -606 -611 -634 -28 -56 -28 -144 -1 -206 41 -93
145 -138 264 -116 l61 12 600 598 c594 593 601 599 641 599 22 0 66 -7 97 -15
32 -8 77 -15 101 -15 23 0 67 -7 96 -16 34 -10 97 -16 174 -17 117 -2 122 -1
166 27 66 42 558 533 581 580 23 48 24 77 3 119 -21 41 -64 87 -82 87 -8 0
-26 6 -40 14 -15 8 -47 21 -72 31 -25 9 -58 23 -75 30 -16 7 -57 23 -90 36
-33 13 -64 27 -69 31 -6 4 -18 8 -27 8 -10 0 -30 6 -46 14 -137 67 -122 52
-164 156 -71 177 -141 355 -160 405 -11 30 -33 63 -55 83 -35 30 -42 32 -108
32 l-71 0 -277 -278z"/>
<path d="M2775 5794 c-27 -7 -69 -14 -93 -14 -24 0 -53 -5 -64 -11 -11 -6 -44
-15 -72 -19 -59 -10 -134 -29 -156 -40 -9 -4 -30 -11 -49 -15 -18 -4 -44 -13
-59 -21 -15 -8 -32 -14 -39 -14 -6 0 -24 -6 -40 -14 -15 -7 -44 -20 -63 -29
-45 -20 -181 -86 -200 -97 -8 -5 -51 -31 -95 -57 -141 -83 -306 -214 -450
-358 -205 -204 -335 -385 -459 -637 -131 -269 -199 -506 -231 -803 -67 -630
104 -1224 504 -1750 129 -170 439 -442 636 -558 44 -26 87 -52 95 -57 23 -13
148 -75 205 -99 28 -13 58 -27 67 -32 10 -5 23 -9 30 -9 7 0 25 -6 40 -14 15
-8 41 -17 59 -21 19 -4 40 -11 49 -15 22 -11 97 -30 156 -40 28 -4 61 -13 72
-19 11 -6 39 -11 62 -11 23 0 69 -7 102 -16 50 -12 109 -14 332 -11 251 3 340
11 456 39 25 6 65 14 90 19 48 8 129 30 170 47 14 5 50 17 80 27 109 34 335
140 418 196 24 16 45 29 47 29 6 0 136 90 196 136 156 119 321 288 450 461 55
72 99 134 99 137 0 2 16 28 35 57 66 100 180 347 220 479 10 30 23 73 31 95
33 101 72 306 84 446 23 259 -2 603 -57 807 -16 59 -28 64 -76 28 -52 -38
-172 -96 -200 -96 -8 0 -28 -7 -43 -15 -16 -8 -48 -15 -72 -15 -30 0 -44 -5
-49 -16 -3 -9 2 -55 13 -102 25 -121 32 -538 11 -650 -9 -42 -18 -95 -22 -117
-3 -22 -10 -53 -15 -70 -5 -16 -16 -55 -25 -85 -23 -77 -51 -151 -96 -248 -22
-46 -39 -86 -39 -89 0 -6 -101 -176 -109 -183 -4 -3 -18 -23 -32 -45 -36 -56
-178 -222 -230 -270 -58 -53 -118 -105 -154 -132 -142 -108 -216 -154 -357
-221 -148 -71 -174 -82 -195 -82 -10 0 -27 -7 -37 -15 -11 -8 -31 -15 -45 -15
-14 -1 -37 -7 -51 -15 -14 -8 -41 -14 -61 -15 -20 0 -53 -7 -72 -15 -20 -8
-58 -15 -84 -15 -27 0 -64 -5 -83 -11 -48 -15 -400 -15 -427 0 -12 6 -48 11
-80 11 -32 1 -76 7 -98 15 -22 8 -53 15 -70 15 -16 0 -41 7 -55 15 -14 8 -37
14 -51 15 -14 0 -34 7 -45 15 -10 8 -27 15 -37 15 -24 0 -59 15 -217 93 -232
114 -434 271 -615 477 -127 145 -275 395 -335 565 -49 139 -90 281 -90 309 0
11 -7 53 -15 91 -21 98 -21 492 0 590 8 38 15 80 15 91 0 28 41 170 90 309 60
170 208 420 335 565 181 206 383 363 615 477 158 78 193 93 217 93 10 0 27 7
37 15 11 8 31 15 45 15 14 1 37 7 51 15 14 8 41 14 61 15 20 0 53 7 72 15 20
8 62 15 92 15 31 0 66 5 77 11 25 14 303 19 378 7 30 -5 91 -13 135 -18 44 -5
99 -15 122 -22 55 -16 62 -8 73 73 10 83 33 149 75 224 19 33 40 70 47 83 18
36 0 56 -58 63 -27 4 -62 12 -77 18 -16 6 -43 11 -60 11 -18 0 -64 7 -102 15
-96 20 -567 20 -640 -1z"/>
<path d="M2860 4745 c-19 -7 -52 -14 -72 -14 -20 -1 -39 -5 -42 -10 -4 -5 -24
-12 -47 -16 -22 -4 -53 -13 -67 -21 -15 -8 -32 -14 -38 -14 -15 0 -185 -88
-205 -105 -8 -8 -20 -15 -25 -15 -10 0 -115 -80 -191 -146 -102 -90 -255 -300
-308 -424 -10 -25 -27 -64 -37 -88 -27 -60 -64 -213 -77 -311 -62 -473 131
-941 512 -1241 43 -33 89 -66 102 -72 14 -6 25 -14 25 -18 0 -4 8 -10 18 -14
9 -3 24 -10 32 -15 20 -14 145 -71 154 -71 5 0 22 -6 39 -13 58 -25 134 -47
160 -47 13 0 44 -7 67 -15 62 -22 396 -21 488 1 325 78 527 186 718 385 101
106 178 214 237 334 83 167 117 277 137 445 24 198 -6 505 -48 505 -12 0 -373
-353 -398 -389 -8 -11 -14 -38 -14 -60 0 -50 -34 -174 -68 -246 -67 -144 -214
-322 -310 -373 -20 -11 -39 -23 -42 -26 -9 -13 -151 -81 -169 -81 -9 0 -22 -5
-29 -12 -25 -25 -297 -52 -367 -37 -27 5 -74 14 -104 19 -29 5 -58 13 -64 19
-6 6 -20 11 -32 11 -12 0 -30 7 -41 15 -10 8 -26 15 -34 15 -9 0 -47 20 -84
45 -38 25 -71 45 -73 45 -3 0 -38 33 -80 73 -128 123 -202 250 -258 440 -14
47 -16 88 -13 230 3 105 10 186 18 207 78 212 131 301 246 411 73 69 217 169
244 169 9 0 20 4 25 9 23 23 110 47 245 69 27 5 59 17 71 28 67 59 374 377
374 386 0 23 -137 41 -340 44 -152 2 -208 0 -235 -11z"/>
</g>
</svg>
